<svg width="90" height="90" viewBox="0 0 90 90" fill="none" xmlns="http://www.w3.org/2000/svg">
<path d="M26 20H19C17.8954 20 17 20.8954 17 22V71C17 72.1046 17.8954 73 19 73H26C27.1046 73 28 72.1046 28 71V22C28 20.8954 27.1046 20 26 20Z" fill="#2C5DE4"/>
<path d="M56.6158 61.8544V71.713C56.5687 72.077 56.4078 72.4168 56.1562 72.684C55.8451 72.8924 55.4785 73.0025 55.1041 72.9999H23.0627C22.382 72.9839 21.7289 72.7273 21.2192 72.2759C20.8004 71.6658 20.5654 70.9485 20.542 70.2089V19.0463C20.5982 18.4989 20.8016 17.9769 21.1307 17.5359C21.5069 17.2081 21.984 17.0189 22.4826 17H44.2532C44.6371 17.0231 45.0092 17.1414 45.336 17.3442C45.5908 17.5745 45.7634 17.882 45.8276 18.2194V28.9855H56.6097V35.5641" stroke="#252B33" stroke-linecap="round" stroke-linejoin="round"/>
<path d="M45.3799 17.3477L56.4176 28.8867" stroke="#252B33" stroke-linecap="round"/>
<path d="M50.875 61.3332C62.473 61.3332 71.875 55.5875 71.875 48.4998C71.875 41.4122 62.473 35.6665 50.875 35.6665C39.2771 35.6665 29.875 41.4122 29.875 48.4998C29.875 55.5875 39.2771 61.3332 50.875 61.3332Z" stroke="#252B33" stroke-linecap="round" stroke-linejoin="round"/>
<path d="M58.1201 53.1668V43.864C58.1201 43.864 60.8329 43.7953 61.0299 43.864C61.227 43.9327 62.7942 44.2425 62.7868 46.5632C62.7794 48.8839 61.1764 48.9293 61.0299 49.0033C60.8834 49.0773 58.1201 49.0551 58.1201 49.0551" stroke="#252B33" stroke-linecap="round" stroke-linejoin="round"/>
<path d="M39.208 53.1668V43.864C39.208 43.864 41.9207 43.7953 42.1178 43.864C42.3149 43.9327 43.882 44.2425 43.8747 46.5632C43.8673 48.8839 42.2643 48.9293 42.1178 49.0033C41.9713 49.0773 39.208 49.0551 39.208 49.0551" stroke="#252B33" stroke-linecap="round" stroke-linejoin="round"/>
<path d="M48.542 43.8335V53.1668" stroke="#252B33" stroke-linecap="round"/>
<path d="M53.4541 43.8335V53.1668" stroke="#252B33" stroke-linecap="round"/>
<path d="M49.0635 48.3921H53.1614" stroke="#252B33" stroke-linecap="round"/>
</svg>
