<svg width="90" height="90" viewBox="0 0 90 90" fill="none" xmlns="http://www.w3.org/2000/svg">
<rect x="17" y="61" width="54" height="7" rx="1" fill="#2c5de4"/>
<rect x="16.5" y="22.5" width="56" height="46" rx="3.5" stroke="#252B33"/>
<path d="M16.5 59H72.5M24 54H66.5" stroke="#252B33" stroke-linecap="round"/>
<path d="M24 27.5H66" stroke="#252B33" stroke-linecap="round"/>
<path d="M43 63.5H47M34 74H40.5M56.5 74H40.5M40.5 68.5V74" stroke="#252B33" stroke-linecap="round"/>
<path d="M50 69V73.5" stroke="#252B33" stroke-linecap="round"/>
<path d="M24 35.5V42.4354C24 43.1394 24.1266 43.8376 24.3738 44.4968V44.4968C25.3738 47.1633 29.0964 47.3072 30.37 44.76V44.76C30.7812 43.9376 31 43.0213 31 42.1018V35.5" stroke="#252B33" stroke-linecap="round"/>
<path d="M55 35V41.9354C55 42.6394 55.1266 43.3376 55.3738 43.9968V43.9968C56.3738 46.6633 60.0964 46.8072 61.37 44.26V44.26C61.7812 43.4376 62 42.5213 62 41.6018V35" stroke="#252B33" stroke-linecap="round"/>
<path d="M65.5 35V46" stroke="#252B33" stroke-linecap="round"/>
<path d="M34.5 35L40.5 46.5" stroke="#252B33" stroke-linecap="round"/>
<path d="M34.5 46L40.5 35" stroke="#252B33" stroke-linecap="round"/>
<path d="M51.5 31.5L45 49.5" stroke="#252B33" stroke-linecap="round"/>
</svg>
