<svg width="90" height="90" viewBox="0 0 90 90" fill="none" xmlns="http://www.w3.org/2000/svg">
<path d="M54.1205 39.3729C54.1205 39.3729 50.3907 51.1285 50.0859 52.0993C49.1467 44.7317 48.1986 37.3653 47.2416 30C40.8859 30 37.4877 34.5458 35.6918 39.344L30.7755 52.1282C30.7467 51.2113 30.0855 39.4827 30.0855 39.4827C29.6945 33.6039 24.3355 30.025 20 30.025L25.2498 62C31.9082 61.9711 35.4982 57.4522 37.3784 52.6541C37.3784 52.6541 41.3842 42.2564 41.5491 41.7845C41.5778 42.2275 44.4241 61.9981 44.4241 61.9981C51.1094 61.9981 54.7013 57.7566 56.6333 53.126L66 30.027C59.3971 30.027 55.9164 34.5458 54.1205 39.371V39.3729Z" fill="#2C5DE4"/>
<path d="M58 37C58 37 53.872 47.818 53.5 49C53.362 47.8 49 25 49 25C41.119 25 37.702 29.686 35.5 35.5C35.5 35.5 29.971 49.279 29.5 50.5C29.461 49.396 28 37 28 37C27.55 29.887 21.367 25.06 16 25.06L22 64C30.235 63.961 36.16 59.314 38.5 53.5C38.5 53.5 42.82 40.6 43 40C43.039 40.54 46 64 46 64C54.274 64 60.082 59.122 62.5 53.5L73 25C64.804 25 60.241 31.165 58 37Z" stroke="#252B33" stroke-linecap="round" stroke-linejoin="round"/>
</svg>
