<svg width="90" height="90" viewBox="0 0 90 90" fill="none" xmlns="http://www.w3.org/2000/svg">
<path d="M33 55.0499C33 45.0813 41.5066 37 52 37C62.4933 37 71 45.0813 71 55.0499V56H33V55.0499Z" fill="#2C5DE4"/>
<path d="M49.9167 36V20C49.9167 18.8954 49.0212 18 47.9167 18H21C19.8954 18 19 18.8954 19 20V69C19 70.1046 19.8954 71 21 71H47.9167C49.0212 71 49.9167 70.1046 49.9167 69V58.5" stroke="#252B33"/>
<path d="M41.1221 37.6122L36.7139 31" stroke="#252B33" stroke-linecap="round"/>
<path d="M58.7549 37.6122L63.1631 31" stroke="#252B33" stroke-linecap="round"/>
<path d="M29 56.8977C29 45.3336 38.3746 35.959 49.9388 35.959C61.5029 35.959 70.8776 45.3336 70.8776 56.8977V57.9998H29V56.8977Z" stroke="#252B33" stroke-linejoin="round"/>
<path d="M43.9792 45.8774H42.1221C41.5698 45.8774 41.1221 46.3252 41.1221 46.8774V48.7346C41.1221 49.2869 41.5698 49.7346 42.1221 49.7346H43.9792C44.5315 49.7346 44.9792 49.2869 44.9792 48.7346V46.8774C44.9792 46.3252 44.5315 45.8774 43.9792 45.8774Z" fill="#F5F5F5"/>
<path d="M57.2038 45.8774H55.3467C54.7944 45.8774 54.3467 46.3252 54.3467 46.8774V48.7346C54.3467 49.2869 54.7944 49.7346 55.3467 49.7346H57.2038C57.7561 49.7346 58.2038 49.2869 58.2038 48.7346V46.8774C58.2038 46.3252 57.7561 45.8774 57.2038 45.8774Z" fill="#F5F5F5"/>
</svg>
