<svg width="90" height="90" viewBox="0 0 90 90" fill="none" xmlns="http://www.w3.org/2000/svg">
<path d="M50.9164 48.1199L63.4921 44.9814L59.1218 38.1344L67.1181 36.2095L74.02 44.3055L68.2405 46.8957L73.2041 54.7995L55.694 61.6878L49.4998 52.4344L38.7469 54.0906L28 30.0251L39.9787 29L50.9164 48.1199Z" fill="#2C5DE4"/>
<path d="M49.2768 50.782L61.8525 47.6435L57.4822 40.7965L65.4785 38.8716L72.3803 46.9676L66.6009 49.5578L71.5645 57.4616L54.0544 64.3499L47.8601 55.0965L37.1073 56.7527L26.3604 32.6872L38.3391 31.6621L49.2768 50.782Z" stroke="#252B33" stroke-linecap="round" stroke-linejoin="round"/>
<path d="M53.4276 63.8444V71.2365C53.3814 71.5942 53.2236 71.9281 52.9765 72.1909C52.6707 72.3951 52.3106 72.5029 51.9429 72.4999H20.4709C19.804 72.4828 19.1645 72.2309 18.6651 71.7886C18.2541 71.1891 18.0232 70.4843 18 69.7577V19.5086C18.0555 18.971 18.2555 18.4584 18.5788 18.0252C18.949 17.7037 19.4179 17.5185 19.9079 17.5H41.2909C41.6681 17.5226 42.0338 17.6386 42.3549 17.8378C42.6065 18.0636 42.7774 18.3656 42.8413 18.6976V29.2765H53.4312V48.5171" stroke="#252B33" stroke-linecap="round" stroke-linejoin="round"/>
<path d="M42.3926 17.8384L53.2343 29.1723" stroke="#252B33" stroke-linecap="round"/>
</svg>
