<svg width="90" height="90" viewBox="0 0 90 90" fill="none" xmlns="http://www.w3.org/2000/svg">
<mask id="mask0_877_75" style="mask-type:luminance" maskUnits="userSpaceOnUse" x="15" y="28" width="60" height="35">
<path d="M75 28H15V63H75V28Z" fill="white"/>
</mask>
<g mask="url(#mask0_877_75)">
<path d="M15.1371 51C19.2878 53.7172 23.745 55.9143 28.412 57.5436C33.0367 59.2325 37.8626 60.282 42.7609 60.664C47.5565 60.9984 52.3744 60.6219 57.064 59.5462C61.8423 58.4903 66.482 56.8645 70.8873 54.7026L71.0244 54.9122C67.0655 58.1448 62.502 60.5218 57.6123 61.8982C52.6799 63.1833 47.5454 63.4525 42.5095 62.6899C37.527 62.047 32.649 60.7395 28.0008 58.8011C23.3892 56.8585 19.0241 54.3565 15 51.3493L15.1371 51Z" fill="#2C5DE4"/>
<path d="M74.7483 48.3888C73.508 47.8803 72.1667 47.6806 70.8355 47.8061C69.5043 47.9317 68.2217 48.3789 67.0941 49.1107C66.6599 49.4367 66.7513 49.8559 67.0941 49.786C68.6249 49.5997 72.0293 49.1806 72.6234 49.9723C73.2174 50.7641 71.9608 54.0475 71.3667 55.5146C71.2068 55.957 71.5724 56.1433 71.9608 55.794C72.9704 54.8751 73.7501 53.7237 74.2349 52.4357C74.7198 51.1476 74.8958 49.7602 74.7483 48.3888Z" fill="#252B33"/>
<path d="M28.8924 45.7911L28.7325 43.7884C27.0406 45.2574 24.9 46.0807 22.6776 46.1171C22.0035 46.1543 21.3289 46.0541 20.6933 45.8221C20.0577 45.5902 19.4739 45.2313 18.9762 44.7665C18.0561 43.709 17.5751 42.3285 17.6348 40.9164C17.6944 39.5044 18.2901 38.1712 19.2961 37.1983C20.5997 36.1733 22.2218 35.6608 23.8658 35.7545C25.495 35.772 27.1125 36.0389 28.6639 36.5462V33.7052C28.7149 33.1642 28.656 32.6183 28.4909 32.1015C28.3258 31.5846 28.058 31.108 27.7043 30.7013C26.7719 30.0148 25.6286 29.6925 24.4827 29.7931C22.5172 29.8309 20.5716 30.2008 18.7249 30.8876V29.3506C19.6559 28.9333 20.629 28.621 21.6266 28.4192C22.6627 28.1904 23.7196 28.0734 24.7797 28.0699C26.3521 27.9504 27.9151 28.4043 29.1895 29.3506C29.6911 29.8434 30.0786 30.444 30.3236 31.1087C30.5687 31.7734 30.6652 32.4854 30.6061 33.1929V45.8609L28.8924 45.7911ZM22.929 44.3706C23.8723 44.3604 24.8072 44.1872 25.6936 43.8583C26.7409 43.4627 27.7442 42.9554 28.6868 42.3446V38.0599C27.2634 37.6691 25.7968 37.4656 24.3227 37.4544C21.1697 37.4544 19.616 38.6886 19.616 41.157C19.594 41.5814 19.6554 42.0061 19.7966 42.406C19.9379 42.8058 20.1561 43.1729 20.4385 43.4857C21.1209 44.1052 22.0166 44.4234 22.929 44.3706Z" fill="#252B33"/>
<path d="M49.4776 45.7911L45.2735 30.7245L41.0923 45.7911H38.9902L33.2324 28.5356H35.2888L40.0184 43.5323L44.2225 28.5356H46.5073L50.6658 43.6254L55.4868 28.5356H57.4746L51.5797 45.7911H49.4776Z" fill="#252B33"/>
<path d="M69.1053 41.2502C69.1079 40.9574 69.0503 40.6673 68.9362 40.3985C68.8221 40.1298 68.654 39.8884 68.4427 39.69C67.7749 39.1138 66.9968 38.6856 66.1579 38.4325L63.0962 37.2682C62.0839 37.0466 61.1754 36.4813 60.5195 35.6648C59.8636 34.8483 59.4993 33.829 59.4861 32.7738C59.4734 32.1205 59.6067 31.4728 59.8759 30.8797C60.145 30.2867 60.5431 29.7638 61.0398 29.3507C62.2052 28.4272 63.655 27.9567 65.1297 28.0233C65.9596 28.0266 66.7869 28.1203 67.5973 28.3027C68.3826 28.4791 69.1481 28.7366 69.8822 29.0712V30.678C68.3009 30.12 66.6428 29.8213 64.9697 29.7931C63.9962 29.7267 63.0274 29.9797 62.2051 30.515C61.8906 30.7787 61.6418 31.1145 61.479 31.4949C61.3162 31.8754 61.244 32.2896 61.2683 32.7039C61.2476 33.0336 61.296 33.364 61.4103 33.6732C61.5245 33.9823 61.702 34.2631 61.9309 34.497C62.6992 35.1085 63.5648 35.5811 64.4899 35.8942L67.186 36.9188C68.3192 37.2173 69.3529 37.8205 70.1792 38.6654C70.764 39.3926 71.0722 40.3102 71.0474 41.2502C71.0771 41.9579 70.9413 42.6626 70.6513 43.3064C70.3613 43.9501 69.9254 44.5144 69.3795 44.9528C68.0555 45.9283 66.4405 46.4056 64.8098 46.3034C62.9123 46.3356 61.0339 45.9129 59.3262 45.0692V43.4624C61.1246 44.1519 63.0257 44.522 64.9469 44.5569C66.0518 44.6299 67.1502 44.3358 68.0771 43.7186C68.4286 43.42 68.7053 43.0404 68.8841 42.6111C69.0629 42.1818 69.1387 41.7153 69.1053 41.2502Z" fill="#252B33"/>
<path d="M15.1371 47.6902C19.2878 50.4075 23.745 52.6045 28.412 54.2338C33.0367 55.9227 37.8626 56.9722 42.7609 57.3542C47.5565 57.6886 52.3744 57.3121 57.064 56.2365C61.8423 55.1805 66.482 53.5548 70.8873 51.3928L71.0244 51.6024C67.0655 54.835 62.502 57.212 57.6123 58.5884C52.6799 59.8735 47.5454 60.1427 42.5095 59.3802C37.527 58.7372 32.649 57.4297 28.0008 55.4913C23.3892 53.5487 19.0241 51.0468 15 48.0395L15.1371 47.6902Z" fill="#252B33"/>
</g>
</svg>
