<svg width="90" height="90" viewBox="0 0 90 90" fill="none" xmlns="http://www.w3.org/2000/svg">
<path d="M73 53H18V59H73V53Z" fill="#2C5DE4"/>
<path d="M72.7847 23.3481H17.704C17.5446 23.3571 17.3904 23.4077 17.2565 23.4946C17.1379 23.5998 17.0494 23.7346 17 23.8852V59.0559C17.0926 59.5104 17.2893 59.9372 17.5746 60.303C17.8885 60.6131 18.2778 60.8361 18.7042 60.9499H71.5074C71.9018 60.8977 72.2745 60.7387 72.5852 60.4903C72.8265 60.1302 72.9695 59.7132 73 59.2808V24.0944C72.9896 23.8828 72.8978 23.6835 72.7436 23.5381C72.5273 23.4133 72.2821 23.347 72.0324 23.3457H65.4453" stroke="#252B33" stroke-linecap="round" stroke-linejoin="round"/>
<path d="M35.9238 70.6543H54.8472" stroke="#252B33" stroke-linecap="round"/>
<path d="M40.6543 69.7079V61.1924" stroke="#252B33" stroke-linecap="round"/>
<path d="M50.1162 69.7617V61.1924" stroke="#252B33" stroke-linecap="round"/>
<path d="M37.5 47L27.5 42L37.5 37" stroke="#252B33" stroke-linecap="round" stroke-linejoin="round"/>
<path d="M53.5 47L63.5 42L53.5 37" stroke="#252B33" stroke-linecap="round" stroke-linejoin="round"/>
<path d="M42.5 52L48.5 32" stroke="#252B33" stroke-linecap="round"/>
</svg>
