<svg width="90" height="90" viewBox="0 0 90 90" fill="none" xmlns="http://www.w3.org/2000/svg">
<path d="M27 22C27 17.0294 22.9706 13 18 13C13.0294 13 9 17.0294 9 22C9 26.9706 13.0294 31 18 31C22.9706 31 27 26.9706 27 22Z" fill="#2C5DE4"/>
<path d="M29.7239 18H40.7289C41.079 18 41.4036 18.1831 41.5847 18.4827L44.6935 23.6258C45.0705 24.2494 45.9665 24.2734 46.3762 23.6708L49.9349 18.4377C50.1211 18.1639 50.4307 18 50.7618 18H61.8015M29.7239 18H16.729C15.9599 18 15.4787 18.8321 15.8623 19.4988L44.6331 69.4939C45.0177 70.1622 45.9819 70.1622 46.3665 69.4939L75.1373 19.4988C75.5209 18.8321 75.0397 18 74.2706 18H61.8015M29.7239 18L44.6481 43.829C45.0299 44.4898 45.9813 44.4966 46.3725 43.8413L61.8015 18" stroke="#252B33"/>
</svg>
