<svg width="90" height="90" viewBox="0 0 90 90" fill="none" xmlns="http://www.w3.org/2000/svg">
<path d="M62.9216 22.2237C63.4026 22.6732 63.1781 27.2904 60.8522 30.1174C58.5262 32.9445 52.8984 33.4675 52.3638 32.9757C51.8292 32.484 51.4627 28.1461 54.4415 24.9273C57.4203 21.7084 62.4405 21.7742 62.9216 22.2237Z" fill="#2C5DE4"/>
<path d="M52.6667 23.9219V19C52.6667 17.8954 51.7712 17 50.6667 17H22C20.8954 17 20 17.8954 20 19V71C20 72.1046 20.8954 73 22 73H50.6667C51.7712 73 52.6667 72.1046 52.6667 71V64.6491" stroke="#252B33"/>
<path d="M68.61 38.7231C66.8467 36.354 64.3123 34.6737 61.4435 33.9723C56.8877 33.0213 53.5609 35.6157 51.5389 35.7433C49.5168 35.871 46.4388 32.79 40.9786 34.0688C39.0195 34.6057 37.2389 35.6548 35.8199 37.1084C34.401 38.5619 33.395 40.3674 32.9055 42.3388C31.8496 45.8333 32.5983 52.6167 33.5817 55.2565C34.5651 57.8963 35.9359 62.9302 40.5361 65.3093C45.1363 67.6884 48.515 64.2273 51.4631 64.1668C54.4113 64.1062 57.7381 67.4471 62.1424 65.5106C67.6968 62.3157 69.1812 55.1915 69.1812 55.1915C67.1965 54.9302 65.3664 53.9813 64.0093 52.5098C62.6522 51.0382 61.8541 49.137 61.754 47.1378C61.6751 39.9345 68.61 38.7231 68.61 38.7231Z" stroke="#252B33" stroke-linecap="round" stroke-linejoin="round"/>
<path d="M60.6852 21.4595C61.1662 21.909 60.9417 26.5262 58.6158 29.3532C56.2898 32.1803 50.662 32.7033 50.1274 32.2115C49.5928 31.7198 49.2264 27.3819 52.2052 24.1631C55.184 20.9442 60.2041 21.01 60.6852 21.4595Z" stroke="#252B33" stroke-linecap="round" stroke-linejoin="round"/>
</svg>
