<svg width="90" height="90" viewBox="0 0 90 90" fill="none" xmlns="http://www.w3.org/2000/svg">
<mask id="mask0_877_46" style="mask-type:luminance" maskUnits="userSpaceOnUse" x="16" y="16" width="58" height="58">
<path d="M74 16H16V74H74V16Z" fill="white"/>
</mask>
<g mask="url(#mask0_877_46)">
<mask id="mask1_877_46" style="mask-type:luminance" maskUnits="userSpaceOnUse" x="20" y="20" width="58" height="57">
<path d="M77.2215 20.1426H20.6025V76.7616H77.2215V20.1426Z" fill="white"/>
</mask>
<g mask="url(#mask1_877_46)">
<path d="M31.9263 65.4378H26.2644C24.7628 65.4378 23.3227 64.8413 22.2609 63.7795C21.199 62.7177 20.6025 61.2775 20.6025 59.7759V40.9029C20.6025 39.4013 21.199 37.9611 22.2609 36.8993C23.3227 35.8375 24.7628 35.241 26.2644 35.241H50.7994V31.4664H47.0247V27.6918H43.2501V31.4664H35.7009V25.8045C35.7009 24.3029 36.2975 22.8627 37.3593 21.8009C38.4211 20.7391 39.8612 20.1426 41.3628 20.1426H56.4613C57.9629 20.1426 59.403 20.7391 60.4648 21.8009C61.5266 22.8627 62.1232 24.3029 62.1232 25.8045V44.6775C62.1232 45.178 61.9243 45.6581 61.5704 46.012C61.2164 46.366 60.7364 46.5648 60.2359 46.5648H37.5882C36.0866 46.5648 34.6465 47.1613 33.5847 48.2231C32.5229 49.2849 31.9263 50.7251 31.9263 52.2267V65.4378Z" fill="#2C5DE4"/>
</g>
<path d="M39.1993 25.6669H43.0659M33.3993 31.4669V21.8003C33.3993 20.7748 33.8067 19.7913 34.5318 19.0661C35.2569 18.341 36.2404 17.9336 37.2659 17.9336H52.7326C53.7581 17.9336 54.7416 18.341 55.4668 19.0661C56.1919 19.7913 56.5993 20.7748 56.5993 21.8003V41.1336C56.5993 42.1591 56.1919 43.1426 55.4668 43.8677C54.7416 44.5929 53.7581 45.0003 52.7326 45.0003H37.2659C36.2404 45.0003 35.2569 45.4076 34.5318 46.1328C33.8067 46.8579 33.3993 47.8414 33.3993 48.8669V68.2003C33.3993 69.2258 33.8067 70.2093 34.5318 70.9344C35.2569 71.6596 36.2404 72.0669 37.2659 72.0669H52.7326C53.7581 72.0669 54.7416 71.6596 55.4668 70.9344C56.1919 70.2093 56.5993 69.2258 56.5993 68.2003V58.5336M46.9326 33.4003H21.7993C20.7738 33.4003 19.7903 33.8076 19.0651 34.5328C18.34 35.2579 17.9326 36.2414 17.9326 37.2669V56.6003C17.9326 57.6258 18.34 58.6093 19.0651 59.3344C19.7903 60.0596 20.7738 60.4669 21.7993 60.4669H33.3993M43.0659 56.6003H68.1993C69.2248 56.6003 70.2083 56.1929 70.9334 55.4677C71.6586 54.7426 72.0659 53.7591 72.0659 52.7336V33.4003C72.0659 32.3748 71.6586 31.3913 70.9334 30.6661C70.2083 29.941 69.2248 29.5336 68.1993 29.5336H56.5993M46.9326 64.3336H50.7993" stroke="#252B33"/>
</g>
</svg>
