<svg width="130" height="130" viewBox="0 0 130 130" fill="none" xmlns="http://www.w3.org/2000/svg">
<g clip-path="url(#clip0_898_26)">
<mask id="mask0_898_26" style="mask-type:luminance" maskUnits="userSpaceOnUse" x="0" y="0" width="130" height="130">
<path d="M130 0H0V130H130V0Z" fill="white"/>
</mask>
<g mask="url(#mask0_898_26)">
<path fill-rule="evenodd" clip-rule="evenodd" d="M36.5718 8.81228C36.8213 8.5548 37.1177 8.35051 37.444 8.21113C37.7703 8.07175 38.1201 8 38.4733 8C38.8266 8 39.1764 8.07175 39.5027 8.21113C39.829 8.35051 40.1254 8.5548 40.3749 8.81228L46.3104 14.9281C50.9128 12.1951 56.1342 10.7607 61.4474 10.7698H65.2397C70.557 10.7602 75.7825 12.1966 80.3874 14.9336L86.3336 8.81228C86.838 8.29385 87.5217 8.00289 88.2344 8.00341C88.9471 8.00392 89.6304 8.29588 90.134 8.81504C90.6376 9.33421 90.9202 10.0381 90.9197 10.7717C90.9192 11.5054 90.6356 12.2089 90.1313 12.7273L84.8457 18.1685C88.2114 21.0976 90.9151 24.748 92.7679 28.8645C94.6207 32.9811 95.5779 37.4645 95.5727 42.0015C95.5712 42.5182 95.3708 43.0133 95.0154 43.3782C94.66 43.743 94.1785 43.9479 93.6765 43.9479H33.0105C32.5076 43.9479 32.0253 43.7423 31.6697 43.3762C31.3141 43.0101 31.1143 42.5136 31.1143 41.9959C31.1143 32.4406 35.2827 23.8862 41.8574 18.163L36.5718 12.7273C36.3217 12.4705 36.1233 12.1654 35.9879 11.8295C35.8525 11.4936 35.7828 11.1335 35.7828 10.7698C35.7828 10.4061 35.8525 10.046 35.9879 9.71011C36.1233 9.37421 36.3217 9.06911 36.5718 8.81228ZM55.2862 28.7413C55.2862 29.8412 54.8618 30.8961 54.1062 31.6738C53.3507 32.4516 52.326 32.8885 51.2576 32.8885C50.1891 32.8885 49.1644 32.4516 48.4089 31.6738C47.6534 30.8961 47.2289 29.8412 47.2289 28.7413C47.2289 27.6414 47.6534 26.5865 48.4089 25.8087C49.1644 25.031 50.1891 24.594 51.2576 24.594C52.326 24.594 53.3507 25.031 54.1062 25.8087C54.8618 26.5865 55.2862 27.6414 55.2862 28.7413ZM75.2898 32.8885C76.3582 32.8885 77.3829 32.4516 78.1385 31.6738C78.894 30.8961 79.3184 29.8412 79.3184 28.7413C79.3184 27.6414 78.894 26.5865 78.1385 25.8087C77.3829 25.031 76.3582 24.594 75.2898 24.594C74.2213 24.594 73.1966 25.031 72.4411 25.8087C71.6856 26.5865 71.2611 27.6414 71.2611 28.7413C71.2611 29.8412 71.6856 30.8961 72.4411 31.6738C73.1966 32.4516 74.2213 32.8885 75.2898 32.8885Z" stroke="#2C5DE4" stroke-width="4"/>
<path d="M20.4457 48.9062C19.0014 48.9062 17.6163 49.4815 16.595 50.5054C15.5737 51.5294 15 52.9181 15 54.3662V87.1259C15 88.574 15.5737 89.9628 16.595 90.9867C17.6163 92.0107 19.0014 92.5859 20.4457 92.5859C21.89 92.5859 23.2752 92.0107 24.2964 90.9867C25.3177 89.9628 25.8915 88.574 25.8915 87.1259V54.3662C25.8915 52.9181 25.3177 51.5294 24.2964 50.5054C23.2752 49.4815 21.89 48.9062 20.4457 48.9062ZM36.7829 48.9062C35.3386 48.9062 33.9535 49.4815 32.9322 50.5054C31.9109 51.5294 31.3372 52.9181 31.3372 54.3662V103.506C31.3372 104.954 31.9109 106.343 32.9322 107.367C33.9535 108.391 35.3386 108.966 36.7829 108.966H91.2402C92.6845 108.966 94.0696 108.391 95.0909 107.367C96.1122 106.343 96.6859 104.954 96.6859 103.506V54.3662C96.6859 52.9181 96.1122 51.5294 95.0909 50.5054C94.0696 49.4815 92.6845 48.9062 91.2402 48.9062H36.7829ZM103.275 54.3662C103.275 52.9181 103.849 51.5294 104.87 50.5054C105.892 49.4815 107.277 48.9062 108.721 48.9062C110.165 48.9062 111.55 49.4815 112.572 50.5054C113.593 51.5294 114.167 52.9181 114.167 54.3662V87.1259C114.167 88.574 113.593 89.9628 112.572 90.9867C111.55 92.0107 110.165 92.5859 108.721 92.5859C107.277 92.5859 105.892 92.0107 104.87 90.9867C103.849 89.9628 103.275 88.574 103.275 87.1259V54.3662ZM41.1014 114.715C40.8914 114.715 40.6834 114.757 40.4895 114.837C40.2956 114.918 40.1194 115.036 39.9712 115.186C39.8229 115.335 39.7055 115.512 39.6257 115.706C39.5458 115.901 39.5051 116.11 39.5058 116.32V117.445C39.5058 119.979 40.5098 122.41 42.297 124.201C44.0843 125.993 46.5083 127 49.0358 127C51.5633 127 53.9873 125.993 55.7745 124.201C57.5618 122.41 58.5658 119.979 58.5658 117.445V116.32C58.5665 116.11 58.5258 115.901 58.4459 115.706C58.3661 115.512 58.2486 115.335 58.1004 115.186C57.9522 115.036 57.776 114.918 57.5821 114.837C57.3881 114.757 57.1802 114.715 56.9702 114.715H41.1014ZM69.4573 116.32C69.4573 115.43 70.1707 114.715 71.0529 114.715H86.9163C87.8039 114.715 88.5173 115.43 88.5173 116.32V117.445C88.5173 119.979 87.5133 122.41 85.726 124.201C83.9388 125.993 81.5148 127 78.9873 127C76.4598 127 74.0358 125.993 72.2485 124.201C70.4613 122.41 69.4573 119.979 69.4573 117.445V116.32Z" stroke="#2C5DE4" stroke-width="4"/>
<path opacity="0.1" d="M90.3016 14.474L95.7233 4.63354C95.7926 4.50745 95.8366 4.36885 95.8527 4.22566C95.8688 4.08247 95.8567 3.93749 95.8171 3.799C95.7775 3.66051 95.7112 3.53122 95.6219 3.41851C95.5327 3.30581 95.4222 3.21189 95.2969 3.14213C95.1715 3.07237 95.0338 3.02813 94.8914 3.01193C94.7491 2.99573 94.605 3.0079 94.4673 3.04773C94.3297 3.08756 94.2011 3.15428 94.0891 3.24408C93.9771 3.33388 93.8837 3.445 93.8144 3.57109L88.3362 13.5138C83.6598 11.4511 78.609 10.3862 73.5028 10.3862C68.3966 10.3862 63.3459 11.4511 58.6694 13.5138L53.1913 3.57109C53.0512 3.31493 52.8158 3.12522 52.5367 3.04371C52.2576 2.9622 51.9578 2.99556 51.7031 3.13645C51.4485 3.27734 51.2599 3.51422 51.1789 3.79498C51.0979 4.07574 51.131 4.37738 51.2711 4.63354L56.6928 14.474C51.5342 17.0335 47.1758 20.9726 44.0955 25.8593C41.0152 30.746 39.332 36.3917 39.2304 42.1773H107.775C107.673 36.3905 105.988 30.744 102.905 25.8572C99.823 20.9703 95.4623 17.0319 90.3016 14.474ZM39.2248 94.8737C39.2225 95.9706 39.4356 97.0572 39.8516 98.0712C40.2677 99.0851 40.8786 100.006 41.6494 100.782C42.4201 101.558 43.3356 102.174 44.3432 102.593C45.3508 103.012 46.4307 103.227 47.5211 103.226H53.0162V120.27C53.0162 122.32 53.8257 124.286 55.2667 125.736C56.7076 127.186 58.6619 128 60.6997 128C62.7375 128 64.6919 127.186 66.1328 125.736C67.5738 124.286 68.3833 122.32 68.3833 120.27V103.226H78.628V120.27C78.628 122.32 79.4372 124.285 80.8776 125.734C82.3181 127.183 84.2717 127.997 86.3087 127.997C88.3458 127.997 90.2994 127.183 91.7398 125.734C93.1802 124.285 93.9895 122.32 93.9895 120.27V103.226H99.4902C100.579 103.226 101.658 103.011 102.664 102.592C103.67 102.173 104.584 101.559 105.354 100.784C106.124 100.01 106.735 99.09 107.151 98.0777C107.568 97.0655 107.782 95.9806 107.781 94.8851V44.9044H39.2191L39.2248 94.8737ZM28.6807 43.5692C26.6436 43.5723 24.6909 44.3881 23.2509 45.8377C21.811 47.2874 21.0015 49.2525 21 51.3018V83.5106C21 84.5253 21.1987 85.5301 21.5847 86.4675C21.9707 87.405 22.5364 88.2568 23.2496 88.9743C23.9629 89.6918 24.8096 90.261 25.7414 90.6493C26.6733 91.0376 27.6721 91.2375 28.6807 91.2375C29.6894 91.2375 30.6881 91.0376 31.62 90.6493C32.5519 90.261 33.3986 89.6918 34.1118 88.9743C34.825 88.2568 35.3908 87.405 35.7768 86.4675C36.1628 85.5301 36.3614 84.5253 36.3614 83.5106V51.3075C36.3585 49.2591 35.5483 47.2955 34.1085 45.8471C32.6687 44.3987 30.7169 43.5836 28.6807 43.5806V43.5692ZM118.319 43.5692C116.282 43.5723 114.329 44.3881 112.889 45.8377C111.45 47.2874 110.64 49.2525 110.639 51.3018V83.5106C110.639 84.5253 110.837 85.5301 111.223 86.4675C111.609 87.405 112.175 88.2568 112.888 88.9743C113.601 89.6918 114.448 90.261 115.38 90.6493C116.312 91.0376 117.311 91.2375 118.319 91.2375C119.328 91.2375 120.327 91.0376 121.259 90.6493C122.19 90.261 123.037 89.6918 123.75 88.9743C124.464 88.2568 125.029 87.405 125.415 86.4675C125.801 85.5301 126 84.5253 126 83.5106V51.3075C125.997 49.2591 125.187 47.2955 123.747 45.8471C122.307 44.3987 120.355 43.5836 118.319 43.5806V43.5692Z" fill="#2C5DE4"/>
<path opacity="0.2" d="M55.8518 28.7611C57.3685 28.7611 58.598 27.5315 58.598 26.0148C58.598 24.4981 57.3685 23.2686 55.8518 23.2686C54.3351 23.2686 53.1055 24.4981 53.1055 26.0148C53.1055 27.5315 54.3351 28.7611 55.8518 28.7611Z" fill="#2C5DE4"/>
<path opacity="0.2" d="M86.1955 28.7611C87.7122 28.7611 88.9417 27.5315 88.9417 26.0148C88.9417 24.4981 87.7122 23.2686 86.1955 23.2686C84.6788 23.2686 83.4492 24.4981 83.4492 26.0148C83.4492 27.5315 84.6788 28.7611 86.1955 28.7611Z" fill="#2C5DE4"/>
</g>
</g>
<defs>
<clipPath id="clip0_898_26">
<rect width="130" height="130" fill="white"/>
</clipPath>
</defs>
</svg>
