<svg width="130" height="130" viewBox="0 0 130 130" fill="none" xmlns="http://www.w3.org/2000/svg">
<mask id="mask0_899_176" style="mask-type:luminance" maskUnits="userSpaceOnUse" x="25" y="25" width="105" height="105">
<path d="M130 25H25V130H130V25Z" fill="white"/>
</mask>
<g mask="url(#mask0_899_176)">
<path opacity="0.1" fill-rule="evenodd" clip-rule="evenodd" d="M76.5414 25.1398C77.1682 24.9612 77.8325 24.9612 78.4594 25.1398L127.459 39.1398C128.253 39.3663 128.942 39.8664 129.403 40.5518C129.864 41.2372 130.068 42.0636 129.979 42.8848L122.979 105.885C122.915 106.465 122.706 107.021 122.372 107.5C122.038 107.979 121.59 108.367 121.068 108.629L79.0684 129.629C78.5816 129.873 78.0448 130 77.5004 130C76.956 130 76.4191 129.873 75.9324 129.629L33.9324 108.629C33.4102 108.367 32.9617 107.979 32.628 107.5C32.2942 107.021 32.0856 106.465 32.0214 105.885L25.0214 42.8848C24.9301 42.0624 25.1332 41.2344 25.5945 40.5475C26.0559 39.8607 26.7456 39.3594 27.5414 39.1328L76.5414 25.1328V25.1398ZM77.5004 37.2638L105.206 100.593L77.5004 37.2708L57.2643 83.5254L49.7944 100.6L77.5004 37.2708V37.2638Z" fill="#2C5DE4"/>
</g>
<path d="M67.4996 12.8935L68.5682 9.14926C67.8697 8.95025 67.1295 8.95025 66.431 9.14926L67.4996 12.8935ZM12.8996 28.4944L11.8309 24.7502C10.9457 25.0025 10.1782 25.5599 9.66435 26.3236C9.15045 27.0874 8.92325 28.0083 9.02295 28.9234L12.8996 28.4944ZM20.6996 98.6985L16.823 99.1276C16.8946 99.7744 17.127 100.393 17.4989 100.927C17.8708 101.461 18.3705 101.894 18.9524 102.185L20.6996 98.6985ZM67.4996 122.1L65.7524 125.587C66.2947 125.858 66.893 126 67.4996 126C68.1062 126 68.7045 125.858 69.2468 125.587L67.4996 122.1ZM114.3 98.6985L116.047 102.185C116.629 101.894 117.128 101.461 117.5 100.927C117.872 100.393 118.105 99.7744 118.176 99.1276L114.3 98.6985ZM122.1 28.4944L125.976 28.9234C126.078 28.007 125.852 27.0843 125.338 26.3189C124.823 25.5535 124.055 24.9949 123.168 24.7424L122.1 28.4944ZM67.4996 32.3946L71.072 30.8345L67.4996 22.6675L63.9272 30.8345L67.4996 32.3946ZM66.431 9.14926L11.8309 24.7502L13.9682 32.2386L68.5682 16.6377L66.431 9.14926ZM9.02295 28.9156L16.823 99.1198L24.5762 98.2617L16.7762 28.0576L9.02295 28.9156ZM18.9524 102.185L65.7524 125.587L69.2468 118.605L22.4468 95.2039L18.9524 102.185ZM69.2468 125.587L116.047 102.185L112.552 95.2039L65.7524 118.605L69.2468 125.587ZM118.176 99.1198L125.976 28.9156L118.223 28.0576L110.423 98.2617L118.176 99.1198ZM123.168 24.7346L68.5682 9.13366L66.431 16.6377L121.031 32.2386L123.168 24.7346ZM43.772 96.3584L71.072 33.9547L63.9272 30.8345L36.6272 93.2382L43.772 96.3584ZM63.9272 33.9547L91.2272 96.3584L98.372 93.2382L71.072 30.8345L63.9272 33.9547ZM47.9996 79.1974H86.9996V71.3969H47.9996V79.1974Z" fill="#2C5DE4"/>
</svg>
