<svg width="542" height="542" viewBox="0 0 542 542" fill="none" xmlns="http://www.w3.org/2000/svg">
<rect opacity="0.1" x="113.194" y="61.2424" width="276" height="477" rx="28" fill="#2C5DE4"/>
<path d="M213.461 475.661H170.018C165.364 475.661 162.261 472.558 162.261 467.903C162.261 463.249 165.364 460.146 170.018 460.146H213.461C218.115 460.146 221.218 463.249 221.218 467.903C221.218 472.558 218.115 475.661 213.461 475.661Z" fill="#2C5DE4"/>
<path d="M169.243 326.715H126.576C121.921 326.715 118.818 323.612 118.818 318.958C118.818 314.303 121.921 311.2 126.576 311.2H169.243C173.897 311.2 177 314.303 177 318.958C177 323.612 173.897 326.715 169.243 326.715Z" fill="#2C5DE4"/>
<path d="M176.224 280.17H126.576C121.921 280.17 118.818 277.067 118.818 272.412C118.818 267.758 121.921 264.655 126.576 264.655H176.224C180.879 264.655 183.982 267.758 183.982 272.412C183.982 277.067 180.879 280.17 176.224 280.17Z" fill="#2C5DE4"/>
<path d="M293.363 501.261H91.6663C69.1693 501.261 49.7754 481.867 49.7754 459.37V45.8909C49.7754 22.6182 68.3936 4 90.8905 4H292.588C315.86 4 334.478 22.6182 334.478 45.8909V166.909C334.478 171.564 331.375 174.667 326.721 174.667C322.066 174.667 318.963 171.564 318.963 166.909V45.8909C318.963 31.9273 306.551 19.5152 292.588 19.5152H90.8905C76.9269 19.5152 65.2905 31.1515 65.2905 45.8909V459.37C65.2905 473.333 77.7027 485.745 91.6663 485.745H293.363C307.327 485.745 319.739 473.333 319.739 459.37V257.673C319.739 253.018 322.842 249.915 327.497 249.915C332.151 249.915 335.254 253.018 335.254 257.673V459.37C335.254 481.867 315.86 501.261 293.363 501.261Z" fill="#2C5DE4"/>
<path d="M326.721 450.836H56.7576C52.103 450.836 49 447.733 49 443.079C49 438.424 52.103 435.321 56.7576 435.321H326.721C331.376 435.321 334.479 438.424 334.479 443.079C334.479 447.733 331.376 450.836 326.721 450.836Z" fill="#2C5DE4"/>
<path d="M227.425 53.6485H156.831C139.764 53.6485 126.576 40.4606 126.576 23.3939V11.7576C126.576 7.10303 129.679 4 134.334 4H249.922C254.576 4 257.679 7.10303 257.679 11.7576V22.6182C257.679 39.6849 244.491 53.6485 227.425 53.6485ZM142.091 19.5152V23.3939C142.091 31.1515 149.073 38.1333 156.831 38.1333H227.425C235.958 38.1333 242.164 31.1515 242.164 22.6182V19.5152H142.091Z" fill="#2C5DE4"/>
<path d="M195.619 387.224C193.291 387.224 190.964 386.448 189.412 384.121C187.861 381.794 187.085 379.467 187.861 377.139C192.516 362.4 196.394 341.455 199.497 323.612C203.376 304.994 204.928 294.133 207.255 290.255C217.34 267.758 229.752 254.57 245.267 249.915C258.455 246.812 272.419 249.915 286.382 260.776C297.243 270.085 316.637 295.685 279.4 343.782C250.697 381.018 197.946 386.448 195.619 387.224ZM256.128 264.655C254.576 264.655 252.249 264.655 250.697 265.43C239.837 268.533 230.528 279.394 222.77 296.461C221.219 299.564 218.891 314.303 215.788 326.715C213.461 339.903 210.358 356.194 206.479 369.382C221.994 365.503 250.697 356.194 267.764 334.473C288.709 307.321 292.588 285.6 277.073 273.188C272.419 268.533 264.661 264.655 256.128 264.655Z" fill="#2C5DE4"/>
<path d="M294.14 303.443C292.588 303.443 291.037 302.667 289.485 301.891C286.382 299.564 284.831 294.909 287.934 291.03L464.031 45.891C467.134 42.0122 465.582 35.0304 461.703 31.9274C457.825 29.6001 451.619 28.8243 447.74 33.4789L257.679 262.327C254.576 265.43 249.922 266.206 246.819 263.103C243.715 260 242.94 255.346 246.043 252.243L435.328 24.1698C443.861 13.3092 459.376 11.7577 471.012 19.5152C481.873 28.8243 484.976 44.3395 476.443 55.2001L300.346 300.339C298.794 302.667 296.467 303.443 294.14 303.443Z" fill="#2C5DE4"/>
<path d="M373.267 195.612C369.388 195.612 366.285 193.285 365.509 189.406L353.097 132C352.321 128.121 354.649 123.467 359.303 122.691C363.182 121.915 367.837 124.242 368.612 128.897L381.024 186.303C381.8 190.182 379.473 194.836 374.818 195.612C374.043 195.612 374.043 195.612 373.267 195.612Z" fill="#2C5DE4"/>
<path d="M245.267 183.976H138.988C134.333 183.976 131.23 180.873 131.23 176.218V114.157C131.23 109.503 134.333 106.4 138.988 106.4H245.267C249.921 106.4 253.024 109.503 253.024 114.157V176.218C253.024 180.873 249.921 183.976 245.267 183.976ZM146.746 168.461H237.509V121.915H146.746V168.461Z" fill="#2C5DE4"/>
<path d="M218.891 232.848H126.576C121.921 232.848 118.818 229.745 118.818 225.091C118.818 220.436 121.921 217.333 126.576 217.333H218.891C223.546 217.333 226.649 220.436 226.649 225.091C226.649 229.745 223.546 232.848 218.891 232.848Z" fill="#2C5DE4"/>
<path d="M436.879 401.964C432.224 401.964 429.121 398.861 429.121 394.206V211.903C429.121 207.249 432.224 204.146 436.879 204.146C441.533 204.146 444.636 207.249 444.636 211.903V394.206C444.636 398.861 441.533 401.964 436.879 401.964Z" fill="#2C5DE4"/>
<path d="M484.975 401.964C480.321 401.964 477.218 398.861 477.218 394.206V141.309C477.218 136.655 480.321 133.552 484.975 133.552C489.63 133.552 492.733 136.655 492.733 141.309V394.206C492.733 398.861 489.63 401.964 484.975 401.964Z" fill="#2C5DE4"/>
<path d="M388.782 401.964C384.127 401.964 381.024 398.861 381.024 394.206V284.049C381.024 279.394 384.127 276.291 388.782 276.291C393.437 276.291 396.54 279.394 396.54 284.049V394.206C396.54 398.861 393.437 401.964 388.782 401.964Z" fill="#2C5DE4"/>
</svg>
