<svg width="130" height="130" viewBox="0 0 130 130" fill="none" xmlns="http://www.w3.org/2000/svg">
<rect opacity="0.1" x="48.0996" y="48.1" width="47.58" height="47.58" rx="5" fill="#2C5DE4"/>
<path d="M81.0083 39.4786H49.4422C43.7679 39.4786 39.1514 44.095 39.1514 49.7694V80.2305C39.1514 85.905 43.7679 90.5214 49.4422 90.5214H81.0083C86.6826 90.5214 91.2991 85.905 91.2991 80.2305V49.7694C91.2991 44.095 86.6826 39.4786 81.0083 39.4786ZM87.3991 80.2305C87.3991 83.7545 84.5323 86.6214 81.0083 86.6214H49.4422C45.9182 86.6214 43.0514 83.7545 43.0514 80.2305V49.7694C43.0514 46.2454 45.9182 43.3786 49.4422 43.3786H81.0083C84.5323 43.3786 87.3991 46.2454 87.3991 49.7694V80.2305Z" fill="#2C5DE4"/>
<path d="M51.3669 25.0739V32.4666C51.3669 33.5436 52.2398 34.4166 53.3169 34.4166C54.394 34.4166 55.2669 33.5436 55.2669 32.4666V25.0739C58.7377 24.201 61.3152 21.0548 61.3152 17.317C61.3152 12.9067 57.7273 9.3186 53.3169 9.3186C48.9066 9.3186 45.3184 12.9067 45.3184 17.317C45.3184 21.0548 47.896 24.201 51.3669 25.0739ZM53.3169 13.2186C55.5767 13.2186 57.4152 15.0571 57.4152 17.317C57.4152 19.5768 55.5767 21.4153 53.3169 21.4153C51.0569 21.4153 49.2184 19.5768 49.2184 17.317C49.2184 15.0571 51.0569 13.2186 53.3169 13.2186Z" fill="#2C5DE4"/>
<path d="M74.281 25.0739V32.4666C74.281 33.5436 75.1539 34.4166 76.231 34.4166C77.3081 34.4166 78.181 33.5436 78.181 32.4666V25.0739C81.6517 24.201 84.2293 21.0548 84.2293 17.317C84.2293 12.9067 80.6413 9.3186 76.231 9.3186C71.8206 9.3186 68.2324 12.9067 68.2324 17.317C68.2324 21.0548 70.8101 24.201 74.281 25.0739ZM76.231 13.2186C78.4907 13.2186 80.3293 15.0571 80.3293 17.317C80.3293 19.5768 78.4907 21.4153 76.231 21.4153C73.971 21.4153 72.1324 19.5768 72.1324 17.317C72.1324 15.0571 73.971 13.2186 76.231 13.2186Z" fill="#2C5DE4"/>
<path d="M78.6329 104.926V97.5334C78.6329 96.4564 77.7599 95.5834 76.6829 95.5834C75.6058 95.5834 74.7329 96.4564 74.7329 97.5334V104.926C71.2621 105.799 68.6846 108.945 68.6846 112.683C68.6846 117.093 72.2725 120.681 76.6829 120.681C81.0932 120.681 84.6814 117.093 84.6814 112.683C84.6814 108.945 82.1038 105.799 78.6329 104.926ZM76.6829 116.781C74.4231 116.781 72.5846 114.943 72.5846 112.683C72.5846 110.423 74.4231 108.585 76.6829 108.585C78.9429 108.585 80.7814 110.423 80.7814 112.683C80.7814 114.943 78.9429 116.781 76.6829 116.781Z" fill="#2C5DE4"/>
<path d="M55.7188 104.926V97.5334C55.7188 96.4564 54.8459 95.5834 53.7688 95.5834C52.6917 95.5834 51.8188 96.4564 51.8188 97.5334V104.926C48.348 105.799 45.7705 108.945 45.7705 112.683C45.7705 117.093 49.3585 120.681 53.7688 120.681C58.1792 120.681 61.7674 117.093 61.7674 112.683C61.7674 108.945 59.1897 105.799 55.7188 104.926ZM53.7688 116.781C51.509 116.781 49.6705 114.943 49.6705 112.683C49.6705 110.423 51.509 108.585 53.7688 108.585C56.0288 108.585 57.8674 110.423 57.8674 112.683C57.8674 114.943 56.0288 116.781 53.7688 116.781Z" fill="#2C5DE4"/>
<path d="M97.533 55.2668H104.926C105.799 58.7376 108.945 61.3153 112.683 61.3153C117.093 61.3153 120.681 57.7272 120.681 53.3168C120.681 48.9066 117.093 45.3185 112.683 45.3185C108.945 45.3185 105.799 47.8962 104.926 51.3668H97.533C96.4559 51.3668 95.583 52.2399 95.583 53.3168C95.583 54.3938 96.456 55.2668 97.533 55.2668ZM112.683 49.2185C114.943 49.2185 116.781 51.0571 116.781 53.3168C116.781 55.5767 114.943 57.4153 112.683 57.4153C110.423 57.4153 108.584 55.5767 108.584 53.3168C108.584 51.0571 110.423 49.2185 112.683 49.2185Z" fill="#2C5DE4"/>
<path d="M112.683 68.2327C108.945 68.2327 105.799 70.8103 104.926 74.2812H97.533C96.4559 74.2812 95.583 75.1542 95.583 76.2312C95.583 77.3081 96.4559 78.1812 97.533 78.1812H104.926C105.799 81.652 108.945 84.2296 112.683 84.2296C117.093 84.2296 120.681 80.6415 120.681 76.2312C120.681 71.8208 117.093 68.2327 112.683 68.2327ZM112.683 80.3296C110.423 80.3296 108.584 78.4911 108.584 76.2312C108.584 73.9713 110.423 72.1327 112.683 72.1327C114.943 72.1327 116.781 73.9713 116.781 76.2312C116.781 78.4911 114.943 80.3296 112.683 80.3296Z" fill="#2C5DE4"/>
<path d="M32.4665 74.7331H25.0738C24.2008 71.2623 21.0546 68.6847 17.3167 68.6847C12.9063 68.6847 9.31836 72.2728 9.31836 76.6831C9.31836 81.0933 12.9063 84.6814 17.3167 84.6814C21.0544 84.6814 24.2008 82.1038 25.0738 78.6331H32.4665C33.5436 78.6331 34.4165 77.7601 34.4165 76.6831C34.4165 75.6062 33.5435 74.7331 32.4665 74.7331ZM17.3167 80.7814C15.0569 80.7814 13.2184 78.9429 13.2184 76.6831C13.2184 74.4232 15.0569 72.5847 17.3167 72.5847C19.5767 72.5847 21.4152 74.4232 21.4152 76.6831C21.4152 78.9429 19.5767 80.7814 17.3167 80.7814Z" fill="#2C5DE4"/>
<path d="M32.4665 51.8188H25.0738C24.2008 48.348 21.0546 45.7704 17.3167 45.7704C12.9063 45.7704 9.31836 49.3585 9.31836 53.7688C9.31836 58.1792 12.9063 61.7673 17.3167 61.7673C21.0546 61.7673 24.2008 59.1896 25.0738 55.7188H32.4665C33.5436 55.7188 34.4165 54.8458 34.4165 53.7688C34.4165 52.6919 33.5435 51.8188 32.4665 51.8188ZM17.3167 57.8673C15.0569 57.8673 13.2184 56.0287 13.2184 53.7688C13.2184 51.5089 15.0569 49.6704 17.3167 49.6704C19.5767 49.6704 21.4152 51.5089 21.4152 53.7688C21.4152 56.0287 19.5767 57.8673 17.3167 57.8673Z" fill="#2C5DE4"/>
<path d="M63.0663 54.5326C62.5345 53.3317 61.3447 52.5573 60.0314 52.5573C58.7179 52.5573 57.5281 53.3317 56.9963 54.5326L48.5825 73.5331C47.9877 74.8764 48.9712 76.3875 50.4402 76.3875C51.249 76.3875 51.9808 75.9078 52.3034 75.1661L53.9032 71.4878C53.9917 71.2844 54.1924 71.1528 54.4142 71.1528H65.632C65.8538 71.1528 66.0545 71.2843 66.143 71.4878L67.7407 75.1615C68.0644 75.906 68.7988 76.3875 69.6107 76.3875C71.0853 76.3875 72.0725 74.8708 71.4754 73.5225L63.0663 54.5326ZM63.6522 67.6464H56.4438C56.0426 67.6464 55.7728 67.2352 55.9327 66.8672L59.537 58.5697C59.7311 58.1228 60.365 58.1228 60.5591 58.5698L64.1632 66.8672C64.323 67.2352 64.0534 67.6464 63.6522 67.6464Z" fill="#2C5DE4"/>
<path d="M77.6954 52.5573C76.5299 52.5573 75.585 53.5021 75.585 54.6677V74.277C75.585 75.4426 76.5299 76.3875 77.6954 76.3875C78.861 76.3875 79.8059 75.4426 79.8059 74.277V54.6677C79.8059 53.5021 78.861 52.5573 77.6954 52.5573Z" fill="#2C5DE4"/>
</svg>
