<svg width="130" height="130" viewBox="0 0 130 130" fill="none" xmlns="http://www.w3.org/2000/svg">
<g clip-path="url(#clip0_899_115)">
<mask id="mask0_899_115" style="mask-type:luminance" maskUnits="userSpaceOnUse" x="0" y="0" width="130" height="130">
<path d="M130 0H0V130H130V0Z" fill="white"/>
</mask>
<g mask="url(#mask0_899_115)">
<path opacity="0.1" d="M43.6925 58.8528C43.6925 60.3997 43.8155 61.6371 44.1231 62.689C44.4306 63.4314 44.8612 64.4214 45.4148 65.5351C45.6608 65.7826 45.7223 66.1538 45.7223 66.4632C45.7223 66.8963 45.4763 67.2676 44.9227 67.7007L42.3393 69.4331C41.9702 69.6806 41.6012 69.8043 41.2936 69.8043C40.8631 69.8043 40.494 69.5569 40.0635 69.1856C39.5099 68.5669 39.0178 67.9482 38.5872 67.2676C38.2182 66.587 37.7876 65.7826 37.357 64.8545C34.1585 68.6288 30.1604 70.5468 25.3012 70.5468C21.8566 70.5468 19.1502 69.5569 17.1204 67.5769C15.1521 65.597 14.1064 62.9365 14.1064 59.5953C14.1064 56.1923 15.3366 53.408 17.797 51.1806C20.3189 49.0769 23.6404 47.9632 27.823 47.9632C29.2378 47.9632 30.5295 48.087 32.1902 48.3345C33.6049 48.5201 35.2657 48.8294 36.865 49.2007V46.2308C36.865 43.0753 36.2499 41.0334 34.9582 39.6104C33.6049 38.311 31.4521 37.7542 28.3151 37.7542C26.8389 37.7542 25.3627 37.9398 23.8864 38.2492C22.3487 38.6204 20.8725 39.0535 19.4577 39.6722C18.7811 39.9197 18.2276 40.1054 18.043 40.1672C17.7355 40.291 17.5509 40.291 17.3664 40.291C16.8128 40.291 16.5053 39.9197 16.5053 39.0535V37.0117C16.5053 36.393 16.5668 35.898 16.8128 35.5886C16.9974 35.2793 17.3664 35.0318 17.92 34.8462C19.3962 33.9799 21.057 33.3612 23.0868 32.8662C25.1734 32.3098 27.3252 32.0392 29.4838 32.0619C34.3431 32.0619 37.9106 33.1756 40.1865 35.403C42.4623 37.6304 43.5695 41.0334 43.5695 45.5502V58.8528H43.6925ZM27.0849 65.1639C28.4381 65.1639 29.7914 64.9164 31.2676 64.4214C32.7438 63.9264 34.0355 62.9983 35.1427 61.7609C35.8193 60.9565 36.3114 60.0903 36.6804 59.1003C36.6804 58.1104 36.988 56.9348 36.988 55.5117V53.8411C35.7578 53.408 34.5276 53.408 33.1744 53.0987C31.9075 52.9585 30.635 52.8759 29.3608 52.8512C26.5929 52.8512 24.6245 53.408 23.2713 54.5217C21.9181 55.6355 21.303 57.1823 21.303 59.2241C21.303 61.204 21.7336 62.689 22.7793 63.6171C23.7634 64.6689 25.1781 65.1639 27.0849 65.1639ZM59.931 69.5569C59.3351 69.5799 58.743 69.4522 58.2088 69.1856C58.0243 68.8763 57.7167 68.3194 57.4707 67.5769L47.8752 35.7742C47.6291 34.8462 47.5061 34.413 47.5061 34.1037C47.5061 33.4231 47.8137 33.0518 48.4903 33.0518H52.4884C53.288 33.0518 53.8416 33.1756 54.0876 33.485C54.4567 33.7324 54.7027 34.2893 54.9488 35.0936L61.7763 62.3177L68.1733 35.0936C68.3579 34.2893 68.6039 33.7324 68.973 33.485C69.2805 33.2375 69.8341 33.0518 70.5107 33.0518H73.8937C74.6318 33.0518 75.1854 33.1756 75.493 33.485C75.8005 33.7324 76.1081 34.2893 76.2926 35.0936L82.8126 62.689L89.8247 35.0936C90.0707 34.2893 90.3783 33.7324 90.6243 33.485C90.9934 33.2375 91.4855 33.0518 92.2236 33.0518H96.0372C96.7138 33.0518 97.0828 33.4231 97.0828 34.1037C97.0828 34.2893 97.0213 34.5368 96.9598 34.8462C96.9598 34.8462 96.8368 35.3411 96.7138 35.7742L86.8107 67.5769C86.5647 68.4431 86.3187 68.8763 85.8881 69.1856C85.6421 69.4331 85.0885 69.6187 84.4119 69.6187H80.9058C80.1062 69.6187 79.7371 69.495 79.2451 69.1856C78.8314 68.7445 78.5723 68.1797 78.5069 67.5769L72.1715 41.0334L65.836 67.515C65.6514 68.3194 65.4054 68.8763 65.0979 69.1856C64.5912 69.4672 64.0146 69.5961 63.4371 69.5569H59.931ZM112.522 70.6706C110.492 70.6706 108.216 70.4231 106.186 69.9281C104.156 69.4331 102.557 68.8763 101.512 68.3194C100.977 68.0621 100.528 67.6536 100.22 67.1438C100.051 66.7975 99.9666 66.4157 99.9738 66.0301V63.9264C99.9738 63.0602 100.281 62.689 100.896 62.689H101.635C101.881 62.689 102.25 62.9983 102.68 63.1839C104.033 63.8027 105.571 64.2977 107.17 64.607C108.831 64.9164 110.492 65.102 112.03 65.102C114.613 65.102 116.643 64.6689 117.996 63.7408C119.411 62.689 120.149 61.5134 120.149 59.8428C120.149 58.6672 119.718 57.7391 119.042 56.9348C118.304 56.1923 116.889 55.4498 114.921 54.8311L108.954 52.9749C106.002 51.985 103.787 50.6237 102.434 48.7676C101.114 47.0493 100.399 44.9377 100.404 42.7659C100.404 41.0334 100.773 39.5485 101.512 38.2492C102.25 36.888 103.234 35.7742 104.341 34.8462C105.694 33.9181 107.047 33.2375 108.708 32.7425C110.307 32.2475 112.03 32 113.875 32C114.736 32 115.659 32.0619 116.643 32.1856C117.504 32.3094 118.365 32.495 119.226 32.6187C120.087 32.8662 120.826 33.0518 121.564 33.2993C122.302 33.5468 122.794 33.7943 123.286 34.0418C123.84 34.3512 124.27 34.6605 124.516 35.0318C124.762 35.403 124.885 35.8361 124.885 36.393V38.3729C124.885 39.2391 124.578 39.6722 123.963 39.6722C123.655 39.6722 123.101 39.4866 122.363 39.1773C120.087 38.1254 117.443 37.5686 114.552 37.5686C112.214 37.5686 110.492 37.9398 109.077 38.7441C107.847 39.4866 107.17 40.7241 107.17 42.3946C107.17 43.5702 107.601 44.5602 108.401 45.3027C109.2 46.107 110.738 46.8495 112.891 47.592L118.734 49.4482C121.687 50.3144 123.778 51.6756 125.07 53.408C126.3 55.0786 126.915 56.9967 126.915 59.1622C126.915 60.8947 126.546 62.5033 125.869 63.9264C125.131 65.2876 124.147 66.5251 122.794 67.515C121.625 68.5669 120.087 69.3094 118.365 69.8662C116.643 70.4231 114.552 70.6706 112.522 70.6706ZM120.21 90.7174C106.74 100.679 87.1798 106 70.5107 106C46.8295 106 25.6087 97.214 9.5547 82.6739C8.263 81.4983 9.43168 79.9515 10.9694 80.8796C28.3151 90.9649 49.6589 97.0903 71.8024 97.0903C86.7492 97.0903 103.172 93.9967 118.242 87.4381C120.518 86.51 122.425 89.0468 120.21 90.7174ZM125.869 84.3445C124.086 82.0552 114.429 83.2308 110.061 83.7257C108.77 83.9114 108.585 82.7358 109.754 81.8696C117.442 76.4866 130.113 78.1572 131.528 79.8278C133.004 81.684 131.159 94.4298 123.963 100.493C122.794 101.421 121.748 100.926 122.24 99.8127C123.901 95.6054 127.53 86.4482 125.869 84.3445Z" fill="#2C5DE4"/>
<path d="M37.6925 54.8528C37.6925 56.3997 37.8155 57.6371 38.1231 58.689C38.4306 59.4314 38.8612 60.4214 39.4148 61.5351C39.6608 61.7826 39.7223 62.1538 39.7223 62.4632C39.7223 62.8963 39.4763 63.2676 38.9227 63.7007L36.3393 65.4331C35.9702 65.6806 35.6012 65.8043 35.2936 65.8043C34.8631 65.8043 34.494 65.5569 34.0635 65.1856C33.5099 64.5669 33.0178 63.9482 32.5872 63.2676C32.2182 62.587 31.7876 61.7826 31.357 60.8545C28.1585 64.6288 24.1604 66.5468 19.3012 66.5468C15.8566 66.5468 13.1502 65.5569 11.1204 63.5769C9.15207 61.597 8.10641 58.9365 8.10641 55.5953C8.10641 52.1923 9.3366 49.408 11.797 47.1806C14.3189 45.0769 17.6404 43.9632 21.823 43.9632C23.2378 43.9632 24.5295 44.087 26.1902 44.3345C27.6049 44.5201 29.2657 44.8294 30.865 45.2007V42.2308C30.865 39.0753 30.2499 37.0334 28.9582 35.6104C27.6049 34.311 25.4521 33.7542 22.3151 33.7542C20.8389 33.7542 19.3627 33.9398 17.8864 34.2492C16.3487 34.6204 14.8725 35.0535 13.4577 35.6722C12.7811 35.9197 12.2276 36.1054 12.043 36.1672C11.7355 36.291 11.5509 36.291 11.3664 36.291C10.8128 36.291 10.5053 35.9197 10.5053 35.0535V33.0117C10.5053 32.393 10.5668 31.898 10.8128 31.5886C10.9974 31.2793 11.3664 31.0318 11.92 30.8462C13.3962 29.9799 15.057 29.3612 17.0868 28.8662C19.1734 28.3098 21.3252 28.0392 23.4838 28.0619C28.3431 28.0619 31.9106 29.1756 34.1865 31.403C36.4623 33.6304 37.5695 37.0334 37.5695 41.5502V54.8528H37.6925ZM21.0849 61.1639C22.4381 61.1639 23.7914 60.9164 25.2676 60.4214C26.7438 59.9264 28.0355 58.9983 29.1427 57.7609C29.8193 56.9565 30.3114 56.0903 30.6804 55.1003C30.6804 54.1104 30.988 52.9348 30.988 51.5117V49.8411C29.7578 49.408 28.5276 49.408 27.1744 49.0987C25.9075 48.9585 24.635 48.8759 23.3608 48.8512C20.5929 48.8512 18.6245 49.408 17.2713 50.5217C15.9181 51.6355 15.303 53.1823 15.303 55.2241C15.303 57.204 15.7336 58.689 16.7793 59.6171C17.7634 60.6689 19.1781 61.1639 21.0849 61.1639ZM53.931 65.5569C53.3351 65.5799 52.743 65.4522 52.2088 65.1856C52.0243 64.8763 51.7167 64.3194 51.4707 63.5769L41.8752 31.7742C41.6291 30.8462 41.5061 30.413 41.5061 30.1037C41.5061 29.4231 41.8137 29.0518 42.4903 29.0518H46.4884C47.288 29.0518 47.8416 29.1756 48.0876 29.485C48.4567 29.7324 48.7027 30.2893 48.9488 31.0936L55.7763 58.3177L62.1733 31.0936C62.3579 30.2893 62.6039 29.7324 62.973 29.485C63.2805 29.2375 63.8341 29.0518 64.5107 29.0518H67.8937C68.6318 29.0518 69.1854 29.1756 69.493 29.485C69.8005 29.7324 70.1081 30.2893 70.2926 31.0936L76.8126 58.689L83.8247 31.0936C84.0707 30.2893 84.3783 29.7324 84.6243 29.485C84.9934 29.2375 85.4855 29.0518 86.2236 29.0518H90.0372C90.7138 29.0518 91.0828 29.4231 91.0828 30.1037C91.0828 30.2893 91.0213 30.5368 90.9598 30.8462C90.9598 30.8462 90.8368 31.3411 90.7138 31.7742L80.8107 63.5769C80.5647 64.4431 80.3187 64.8763 79.8881 65.1856C79.6421 65.4331 79.0885 65.6187 78.4119 65.6187H74.9058C74.1062 65.6187 73.7371 65.495 73.2451 65.1856C72.8314 64.7445 72.5723 64.1797 72.5069 63.5769L66.1715 37.0334L59.836 63.515C59.6514 64.3194 59.4054 64.8763 59.0979 65.1856C58.5912 65.4672 58.0146 65.5961 57.4371 65.5569H53.931ZM106.522 66.6706C104.492 66.6706 102.216 66.4231 100.186 65.9281C98.1564 65.4331 96.5572 64.8763 95.5115 64.3194C94.9765 64.0621 94.5277 63.6536 94.2198 63.1438C94.0509 62.7975 93.9666 62.4157 93.9738 62.0301V59.9264C93.9738 59.0602 94.2813 58.689 94.8964 58.689H95.6345C95.8806 58.689 96.2496 58.9983 96.6802 59.1839C98.0334 59.8027 99.5712 60.2977 101.17 60.607C102.831 60.9164 104.492 61.102 106.03 61.102C108.613 61.102 110.643 60.6689 111.996 59.7408C113.411 58.689 114.149 57.5134 114.149 55.8428C114.149 54.6672 113.718 53.7391 113.042 52.9348C112.304 52.1923 110.889 51.4498 108.921 50.8311L102.954 48.9749C100.002 47.985 97.7874 46.6237 96.4342 44.7676C95.1136 43.0493 94.3994 40.9377 94.4044 38.7659C94.4044 37.0334 94.7734 35.5485 95.5115 34.2492C96.2496 32.888 97.2338 31.7742 98.341 30.8462C99.6942 29.9181 101.047 29.2375 102.708 28.7425C104.307 28.2475 106.03 28 107.875 28C108.736 28 109.659 28.0619 110.643 28.1856C111.504 28.3094 112.365 28.495 113.226 28.6187C114.087 28.8662 114.826 29.0518 115.564 29.2993C116.302 29.5468 116.794 29.7943 117.286 30.0418C117.84 30.3512 118.27 30.6605 118.516 31.0318C118.762 31.403 118.885 31.8361 118.885 32.393V34.3729C118.885 35.2391 118.578 35.6722 117.963 35.6722C117.655 35.6722 117.101 35.4866 116.363 35.1773C114.087 34.1254 111.443 33.5686 108.552 33.5686C106.214 33.5686 104.492 33.9398 103.077 34.7441C101.847 35.4866 101.17 36.7241 101.17 38.3946C101.17 39.5702 101.601 40.5602 102.401 41.3027C103.2 42.107 104.738 42.8495 106.891 43.592L112.734 45.4482C115.687 46.3144 117.778 47.6756 119.07 49.408C120.3 51.0786 120.915 52.9967 120.915 55.1622C120.915 56.8947 120.546 58.5033 119.869 59.9264C119.131 61.2876 118.147 62.5251 116.794 63.515C115.625 64.5669 114.087 65.3094 112.365 65.8662C110.643 66.4231 108.552 66.6706 106.522 66.6706ZM114.21 86.7174C100.74 96.6789 81.1798 102 64.5107 102C40.8295 102 19.6087 93.214 3.5547 78.6739C2.263 77.4983 3.43168 75.9515 4.96942 76.8796C22.3151 86.9649 43.6589 93.0903 65.8024 93.0903C80.7492 93.0903 97.1723 89.9967 112.242 83.4381C114.518 82.51 116.425 85.0468 114.21 86.7174ZM119.869 80.3445C118.086 78.0552 108.429 79.2308 104.061 79.7257C102.77 79.9114 102.585 78.7358 103.754 77.8696C111.442 72.4866 124.113 74.1572 125.528 75.8278C127.004 77.684 125.159 90.4298 117.963 96.4933C116.794 97.4214 115.748 96.9264 116.24 95.8127C117.901 91.6054 121.53 82.4482 119.869 80.3445Z" fill="#2C5DE4"/>
</g>
</g>
<defs>
<clipPath id="clip0_899_115">
<rect width="130" height="130" fill="white"/>
</clipPath>
</defs>
</svg>
