<svg width="130" height="130" viewBox="0 0 130 130" fill="none" xmlns="http://www.w3.org/2000/svg">
<path d="M67.6696 60.5116L61.9912 69.4884" stroke="#2C5DE4" stroke-width="4" stroke-miterlimit="10" stroke-linecap="round" stroke-linejoin="round"/>
<path d="M56.0384 69.4884L51.7119 65L56.0384 60.5116" stroke="#2C5DE4" stroke-width="4" stroke-miterlimit="10" stroke-linecap="round" stroke-linejoin="round"/>
<path d="M73.9609 60.5116L78.2874 65L73.9609 69.4884" stroke="#2C5DE4" stroke-width="4" stroke-miterlimit="10" stroke-linecap="round" stroke-linejoin="round"/>
<path d="M86.0839 76.3301V45.7214C86.0839 44.5764 85.1557 43.6482 84.0107 43.6482H45.9892C44.8442 43.6482 43.916 44.5764 43.916 45.7214V83.7429C43.916 84.8879 44.8442 85.8161 45.9892 85.8161H76.4826" stroke="#2C5DE4" stroke-width="4" stroke-miterlimit="10" stroke-linecap="round" stroke-linejoin="round"/>
<path d="M113.927 74.2731H99.5273C98.3823 74.2731 97.4541 73.3449 97.4541 72.1999V57.7999C97.4541 56.6548 98.3823 55.7267 99.5273 55.7267H113.927C115.072 55.7267 116 56.6548 116 57.7999V72.1999C116 73.3449 115.072 74.2731 113.927 74.2731Z" stroke="#2C5DE4" stroke-width="4" stroke-miterlimit="10" stroke-linecap="round" stroke-linejoin="round"/>
<path d="M86.6523 65H96.2171" stroke="#2C5DE4" stroke-width="4" stroke-miterlimit="10" stroke-linecap="round" stroke-linejoin="round"/>
<path d="M16.0732 55.7269H30.4732C31.6182 55.7269 32.5464 56.6551 32.5464 57.8001V72.2001C32.5464 73.3452 31.6182 74.2733 30.4732 74.2733H16.0732C14.9282 74.2733 14 73.3452 14 72.2001V57.8001C14 56.6551 14.9282 55.7269 16.0732 55.7269Z" stroke="#2C5DE4" stroke-width="4" stroke-miterlimit="10" stroke-linecap="round" stroke-linejoin="round"/>
<path d="M43.348 65H33.7832" stroke="#2C5DE4" stroke-width="4" stroke-miterlimit="10" stroke-linecap="round" stroke-linejoin="round"/>
<path d="M74.2729 16.0732V30.4732C74.2729 31.6182 73.3448 32.5464 72.1998 32.5464H57.7997C56.6547 32.5464 55.7266 31.6182 55.7266 30.4732V16.0732C55.7266 14.9282 56.6547 14 57.7997 14H72.1998C73.3448 14 74.2729 14.9282 74.2729 16.0732Z" stroke="#2C5DE4" stroke-width="4" stroke-miterlimit="10" stroke-linecap="round" stroke-linejoin="round"/>
<path d="M65 43.3474V33.7826" stroke="#2C5DE4" stroke-width="4" stroke-miterlimit="10" stroke-linecap="round" stroke-linejoin="round"/>
<path d="M55.7266 113.927V99.5268C55.7266 98.3818 56.6547 97.4536 57.7997 97.4536H72.1998C73.3448 97.4536 74.2729 98.3818 74.2729 99.5268V113.927C74.2729 115.072 73.3448 116 72.1998 116H57.7997C56.6547 116 55.7266 115.072 55.7266 113.927Z" stroke="#2C5DE4" stroke-width="4" stroke-miterlimit="10" stroke-linecap="round" stroke-linejoin="round"/>
<path d="M65 86.6526V96.2174" stroke="#2C5DE4" stroke-width="4" stroke-miterlimit="10" stroke-linecap="round" stroke-linejoin="round"/>
<path d="M32.5464 16.0732V30.4732C32.5464 31.6182 31.6182 32.5464 30.4732 32.5464H16.0732C14.9282 32.5464 14 31.6182 14 30.4732V16.0732C14 14.9282 14.9282 14 16.0732 14H30.4732C31.6182 14 32.5464 14.9282 32.5464 16.0732Z" stroke="#2C5DE4" stroke-width="4" stroke-miterlimit="10" stroke-linecap="round" stroke-linejoin="round"/>
<path d="M23.2734 33.7826V54.8274" stroke="#2C5DE4" stroke-width="4" stroke-miterlimit="10" stroke-linecap="round" stroke-linejoin="round"/>
<path d="M33.7832 23.2731H54.6258" stroke="#2C5DE4" stroke-width="4" stroke-miterlimit="10" stroke-linecap="round" stroke-linejoin="round"/>
<path d="M97.4541 16.0732V30.4732C97.4541 31.6182 98.3823 32.5464 99.5273 32.5464H113.927C115.072 32.5464 116 31.6182 116 30.4732V16.0732C116 14.9282 115.072 14 113.927 14H99.5273C98.3823 14 97.4541 14.9282 97.4541 16.0732Z" stroke="#2C5DE4" stroke-width="4" stroke-miterlimit="10" stroke-linecap="round" stroke-linejoin="round"/>
<path d="M106.727 33.7826V54.8274" stroke="#2C5DE4" stroke-width="4" stroke-miterlimit="10" stroke-linecap="round" stroke-linejoin="round"/>
<path d="M96.2176 23.2731H75.375" stroke="#2C5DE4" stroke-width="4" stroke-miterlimit="10" stroke-linecap="round" stroke-linejoin="round"/>
<path d="M32.5464 113.927V99.5268C32.5464 98.3818 31.6182 97.4536 30.4732 97.4536H16.0732C14.9282 97.4536 14 98.3818 14 99.5268V113.927C14 115.072 14.9282 116 16.0732 116H30.4732C31.6182 116 32.5464 115.072 32.5464 113.927Z" stroke="#2C5DE4" stroke-width="4" stroke-miterlimit="10" stroke-linecap="round" stroke-linejoin="round"/>
<path d="M23.2734 96.2174V75.1726" stroke="#2C5DE4" stroke-width="4" stroke-miterlimit="10" stroke-linecap="round" stroke-linejoin="round"/>
<path d="M33.7832 106.727H54.6258" stroke="#2C5DE4" stroke-width="4" stroke-miterlimit="10" stroke-linecap="round" stroke-linejoin="round"/>
<path d="M97.4541 113.927V99.5268C97.4541 98.3818 98.3823 97.4536 99.5273 97.4536H113.927C115.072 97.4536 116 98.3818 116 99.5268V113.927C116 115.072 115.072 116 113.927 116H99.5273C98.3823 116 97.4541 115.072 97.4541 113.927Z" stroke="#2C5DE4" stroke-width="4" stroke-miterlimit="10" stroke-linecap="round" stroke-linejoin="round"/>
<path d="M106.727 96.2174V75.1726" stroke="#2C5DE4" stroke-width="4" stroke-miterlimit="10" stroke-linecap="round" stroke-linejoin="round"/>
<path d="M96.2176 106.727H75.375" stroke="#2C5DE4" stroke-width="4" stroke-miterlimit="10" stroke-linecap="round" stroke-linejoin="round"/>
<circle cx="85.7958" cy="85.695" r="2.07317" fill="#2C5DE4"/>
<rect opacity="0.1" x="20.0918" y="19.2754" width="12.2477" height="12.2477" rx="2" fill="#2C5DE4"/>
<rect opacity="0.1" x="20.0918" y="103.376" width="12.2477" height="12.2477" rx="2" fill="#2C5DE4"/>
<rect opacity="0.1" x="20.0918" y="61.7339" width="12.2477" height="12.2477" rx="2" fill="#2C5DE4"/>
<rect opacity="0.1" x="50.3027" y="49.4863" width="30.2109" height="30.2109" rx="2" fill="#2C5DE4"/>
<rect opacity="0.1" x="103.376" y="61.7339" width="12.2477" height="12.2477" rx="2" fill="#2C5DE4"/>
<rect opacity="0.1" x="61.7344" y="19.2754" width="12.2477" height="12.2477" rx="2" fill="#2C5DE4"/>
<rect opacity="0.1" x="61.7344" y="103.376" width="12.2477" height="12.2477" rx="2" fill="#2C5DE4"/>
<rect opacity="0.1" x="103.376" y="19.2754" width="12.2477" height="12.2477" rx="2" fill="#2C5DE4"/>
<rect opacity="0.1" x="103.376" y="103.376" width="12.2477" height="12.2477" rx="2" fill="#2C5DE4"/>
</svg>
