<svg width="130" height="130" viewBox="0 0 130 130" fill="none" xmlns="http://www.w3.org/2000/svg">
<path d="M104.041 87.1203H99.775C98.6578 87.1203 97.7438 86.2062 97.7438 85.0891C97.7438 83.9719 98.6578 83.0578 99.775 83.0578H104.041C112.186 83.0578 118.808 76.4359 118.808 68.2906C118.808 61.75 114.623 56.0625 108.388 54.1531C107.372 53.8281 106.762 52.7922 107.006 51.7359C107.23 50.8219 107.331 49.8062 107.331 48.6484C107.331 40.5844 100.791 33.9422 92.7672 33.8406C92.0156 33.8203 91.3453 33.4141 91 32.7437C85.0484 21.3281 73.3484 14.2188 60.4703 14.2188C43.9766 14.2188 29.7578 25.9594 26.65 42.1484C26.4469 43.2047 25.4719 43.9156 24.3953 43.7734C24.1719 43.7531 23.9281 43.7531 23.7047 43.7531C12.8781 43.7531 4.0625 52.5687 4.0625 63.4156C4.0625 74.2422 12.8781 83.0578 23.7047 83.0578H25.8172C26.9344 83.0578 27.8484 83.9719 27.8484 85.0891C27.8484 86.2062 26.9344 87.1203 25.8172 87.1203H23.7047C10.6234 87.1203 0 76.4766 0 63.4156C0 50.5578 10.2781 40.0562 23.0344 39.6906C27.1375 22.4656 42.6156 10.1562 60.4703 10.1562C74.4656 10.1562 87.2219 17.6719 94.0266 29.8391C103.695 30.5906 111.394 38.7969 111.394 48.6484C111.394 49.4203 111.353 50.1719 111.272 50.8625C118.28 53.7672 122.85 60.5516 122.85 68.2906C122.891 78.6703 114.441 87.1203 104.041 87.1203Z" fill="#2C5DE4"/>
<path d="M93.2143 118.097H32.3986C27.6455 118.097 23.7861 114.238 23.7861 109.484V65.8937C23.7861 61.1406 27.6455 57.2812 32.3986 57.2812H93.2143C97.9674 57.2812 101.827 61.1406 101.827 65.8937V109.484C101.827 114.238 97.9674 118.097 93.2143 118.097ZM32.3986 61.3438C29.9002 61.3438 27.8486 63.375 27.8486 65.8937V109.484C27.8486 111.983 29.8799 114.034 32.3986 114.034H93.2143C95.7127 114.034 97.7643 112.003 97.7643 109.484V65.8937C97.7643 63.3953 95.733 61.3438 93.2143 61.3438H32.3986Z" fill="#2C5DE4"/>
<path d="M99.7955 74.6078H25.8174C24.7002 74.6078 23.7861 73.6937 23.7861 72.5765C23.7861 71.4594 24.7002 70.5453 25.8174 70.5453H99.7752C100.892 70.5453 101.806 71.4594 101.806 72.5765C101.806 73.6937 100.913 74.6078 99.7955 74.6078Z" fill="#2C5DE4"/>
<path d="M82.8758 68.0265H81.2305C80.1133 68.0265 79.1992 67.1125 79.1992 65.9953C79.1992 64.8781 80.1133 63.9641 81.2305 63.9641H82.8758C83.993 63.9641 84.907 64.8781 84.907 65.9953C84.907 67.1125 83.993 68.0265 82.8758 68.0265Z" fill="#2C5DE4"/>
<path d="M90.574 68.0265H88.9287C87.8115 68.0265 86.8975 67.1125 86.8975 65.9953C86.8975 64.8781 87.8115 63.9641 88.9287 63.9641H90.574C91.6912 63.9641 92.6053 64.8781 92.6053 65.9953C92.6053 67.1125 91.6912 68.0265 90.574 68.0265Z" fill="#2C5DE4"/>
<path d="M49.97 104.325C49.5434 104.325 49.0965 104.183 48.7309 103.898L38.7981 96.1999C38.3106 95.814 38.0262 95.2453 38.0059 94.6359C37.9856 94.0265 38.27 93.4374 38.7372 93.0312L48.67 84.7437C49.5231 84.0328 50.8231 84.1343 51.534 85.0078C52.245 85.8609 52.1434 87.1406 51.27 87.8718L43.2872 94.5343L51.209 100.669C52.1028 101.359 52.2653 102.639 51.5747 103.512C51.1684 104.061 50.559 104.325 49.97 104.325Z" fill="#2C5DE4"/>
<path d="M55.7568 109.952C55.513 109.952 55.2692 109.911 55.0255 109.809C53.9896 109.403 53.4614 108.225 53.8677 107.189L64.4505 79.9704C64.8567 78.9344 66.0349 78.4063 67.0708 78.8126C68.1067 79.2188 68.6349 80.3969 68.2286 81.4329L57.6458 108.652C57.3411 109.444 56.5693 109.952 55.7568 109.952Z" fill="#2C5DE4"/>
<path d="M72.1301 104.325C71.5207 104.325 70.9317 104.061 70.5254 103.533C69.8348 102.639 69.9973 101.38 70.891 100.689L78.8129 94.5547L70.8301 87.8922C69.977 87.1813 69.8551 85.9016 70.566 85.0282C71.277 84.1751 72.5567 84.0532 73.4301 84.7641L83.3426 93.0516C83.8098 93.4376 84.0739 94.0266 84.0739 94.6563C84.0535 95.2657 83.7692 95.8547 83.2817 96.2204L73.3692 103.919C73.0035 104.183 72.5567 104.325 72.1301 104.325Z" fill="#2C5DE4"/>
<path opacity="0.1" d="M29.5792 95.5969H68.1729H116.924C122.002 92.55 127.08 89.5032 128.096 78.3313C128.908 69.3938 120.986 63.774 116.924 62.0813C117.736 46.6438 105.752 42.1073 99.6582 41.7688C90.5176 25.5188 75.2832 22.4719 66.1426 22.4719C42.5801 23.2844 33.304 42.4459 31.6113 51.925C24.8402 52.2636 10.8917 56.8 9.26667 72.2375C7.64167 87.675 22.1312 94.2428 29.5792 95.5969Z" fill="#2C5DE4"/>
</svg>
