<svg width="130" height="130" viewBox="0 0 130 130" fill="none" xmlns="http://www.w3.org/2000/svg">
<path opacity="0.1" d="M50.7134 129.991C42.8334 126.622 35.4597 118.059 35.4421 109.296C35.4207 99.7435 41.5408 91.6329 49.1528 86.3029C48.2377 89.7229 47.7386 92.8512 50.0058 95.9103C52.1133 98.7544 55.8046 100.136 59.29 99.3864C67.4341 97.6227 67.8078 88.7665 62.9796 83.6068C58.206 78.4972 53.5881 72.7257 55.4051 65.3157C56.3147 61.6012 58.6203 58.1219 61.5412 55.6348C59.2961 61.4711 65.676 67.2268 69.8795 70.0938C77.1713 75.0679 85.1717 78.827 91.8763 84.6579C98.9287 90.786 104.136 99.0717 103.085 108.682C101.945 119.098 93.5778 126.343 84.1923 130C104.025 125.67 124.518 110.443 124.938 88.6854C125.286 70.7851 112.872 57.0092 97.4946 49.1225L96.6912 48.6886C97.1133 49.7016 97.2514 50.5633 97.2355 51.3346C97.378 50.7586 97.4642 50.1704 97.493 49.5781C97.4893 50.2946 97.3946 51.0078 97.2113 51.7009L97.2355 51.3346C97.0071 52.285 96.6225 53.1917 96.0969 54.0187L96.3225 53.7786C93.2548 58.8121 84.9494 59.9051 80.8466 54.6931C74.2509 46.3094 80.9847 37.2702 81.9268 28.3922C83.106 17.2656 76.052 6.46391 67.3059 0C72.123 7.70825 65.7767 17.9063 60.6993 23.6076C55.776 29.1341 49.7884 33.7484 44.3533 38.7699C38.5149 44.1631 32.902 49.8442 28.1031 56.1742C18.5052 68.844 12.6293 84.7787 16.9473 100.585C21.2626 116.38 35.0944 126.435 50.714 129.991L50.7134 129.991Z" fill="#2C5DE4"/>
<path d="M60.5113 5.91736C66.3748 12.0202 70.2868 20.107 69.4311 28.1814C69.2161 30.2066 68.6651 32.2874 68.0088 34.4993C67.8729 34.9573 67.7316 35.4235 67.5885 35.8959C67.0575 37.6479 66.501 39.4844 66.1004 41.2962C65.0609 45.9975 64.9436 51.0687 68.7679 55.9297L68.7682 55.9302C71.2995 59.1457 75.1012 60.369 78.6341 60.0708C82.137 59.7751 85.6062 57.9654 87.5235 54.8195L87.4696 54.7785C87.9387 53.9825 88.3042 53.1306 88.5574 52.2432C102.351 60.0865 112.74 72.7474 112.432 88.6465V88.6468C112.234 98.8613 107.334 107.62 99.9815 114.409C96.5331 117.593 92.5623 120.324 88.3286 122.545C91.6453 118.835 93.9774 114.281 94.5662 108.899C95.7178 98.3752 89.9888 89.4982 82.6819 83.1488L60.5113 5.91736ZM60.5113 5.91736C60.5488 8.43292 59.9662 10.943 59.0738 13.272C57.3379 17.8024 54.3176 21.9827 51.686 24.9377L51.6858 24.9379C48.2827 28.7581 44.3095 32.2188 40.4644 35.568C38.6585 37.141 36.8808 38.6894 35.2037 40.2389L35.2036 40.239C29.4046 45.5957 23.8879 51.1859 19.1905 57.3819C9.80343 69.7733 4.27566 85.0713 8.36978 100.058C11.3184 110.851 19.0115 118.896 28.7883 123.816C28.5327 123.512 28.2834 123.204 28.0409 122.89C25.018 118.985 22.9452 114.236 22.9353 109.3M60.5113 5.91736L22.9353 109.3M22.9353 109.3C22.912 98.8496 29.5881 90.2038 37.4988 84.6646L41.9976 81.5144L40.578 86.8198C39.6779 90.1837 39.4364 92.4669 41.1058 94.7195L41.1058 94.7195C42.7417 96.9272 45.6372 98.0176 48.3624 97.4311M22.9353 109.3L48.3624 97.4311M48.3624 97.4311C51.634 96.7218 53.1455 94.7106 53.5192 92.4446C53.9161 90.0386 53.0456 87.1461 51.0124 84.9733L51.0113 84.9722C46.3023 79.9316 40.8553 73.4055 42.9558 64.8394C43.5154 62.5549 45.2811 59.8461 46.6891 57.9071C47.4272 56.8907 48.1334 55.9981 48.6544 55.36C48.9155 55.0403 49.1315 54.7829 49.2835 54.6039C49.3595 54.5144 49.4196 54.4444 49.4615 54.3959L49.5103 54.3396L49.5239 54.3239L49.5279 54.3194L49.5291 54.3179L49.5296 54.3173C49.5298 54.3171 49.53 54.317 51.0344 55.6348L49.53 54.317L51.774 51.7553L52.918 54.9625L52.918 54.9626L52.9181 54.9629L52.9182 54.9632L52.9198 54.9677L52.9275 54.9889L52.9601 55.0787C52.9895 55.159 53.0339 55.2793 53.0923 55.4347C53.2092 55.7456 53.382 56.1962 53.6027 56.7471C54.045 57.8511 54.6756 59.3476 55.4311 60.9255C56.1896 62.5096 57.0569 64.14 57.968 65.527C58.9061 66.9549 59.7789 67.95 60.4996 68.4415L60.4998 68.4416C63.1119 70.2235 65.796 71.8339 68.5344 73.4769C69.5602 74.0924 70.5937 74.7124 71.6338 75.3478C75.4076 77.6529 79.1994 80.1202 82.6813 83.1482L48.3624 97.4311Z" stroke="#2C5DE4" stroke-width="4"/>
</svg>
