<svg width="130" height="130" viewBox="0 0 130 130" fill="none" xmlns="http://www.w3.org/2000/svg">
<g clip-path="url(#clip0_1255_247)">
<path d="M62.0708 47.7197H9.44963C8.30153 47.7197 7.53613 46.7629 7.53613 45.8062V33.5598C7.53613 28.202 11.9372 23.6096 17.4863 23.6096H68.5767C69.7248 23.6096 70.4902 24.5664 70.4902 25.5231C70.4902 26.4799 69.5334 27.4366 68.5767 27.4366H17.295C14.042 27.4366 11.3631 30.1155 11.3631 33.3685V43.7013H62.0708C63.2189 43.7013 63.9843 44.6581 63.9843 45.6148C63.9843 46.5716 63.2189 47.7197 62.0708 47.7197Z" fill="#2C5DE4"/>
<path d="M17.295 118.519C14.6161 118.519 12.1285 117.562 10.4064 115.649C8.49288 113.735 7.53613 111.248 7.53613 108.569V45.6148C7.53613 44.4667 8.49288 43.7013 9.44963 43.7013H62.0708C63.2189 43.7013 63.9843 44.658 63.9843 45.6148C63.9843 46.5715 63.0275 47.5283 62.0708 47.5283H11.3631V108.377C11.3631 109.908 11.9372 111.439 13.0853 112.587C14.2334 113.735 15.7642 114.309 17.295 114.309H107.038C110.291 114.309 112.97 111.63 112.97 108.377V70.1075C112.97 68.9594 113.927 68.1941 114.883 68.1941C115.84 68.1941 116.797 69.1508 116.797 70.1075V108.377C116.797 113.735 112.396 118.328 106.847 118.328H17.295V118.519Z" fill="#2C5DE4"/>
<path d="M24.758 37.5781H20.5483C19.4002 37.5781 18.6348 36.6213 18.6348 35.6646C18.6348 34.7078 19.5915 33.7511 20.5483 33.7511H24.758C25.9061 33.7511 26.6715 34.7078 26.6715 35.6646C26.6715 36.6213 25.9061 37.5781 24.758 37.5781Z" fill="#2C5DE4"/>
<path d="M34.1339 37.5781H29.9242C28.7761 37.5781 28.0107 36.6213 28.0107 35.6646C28.0107 34.7078 28.9675 33.7511 29.9242 33.7511H34.1339C35.282 33.7511 36.0474 34.7078 36.0474 35.6646C36.0474 36.6213 35.282 37.5781 34.1339 37.5781Z" fill="#2C5DE4"/>
<path d="M43.5099 37.5781H39.3002C38.1521 37.5781 37.3867 36.6213 37.3867 35.6646C37.3867 34.7078 38.3435 33.7511 39.3002 33.7511H43.5099C44.658 33.7511 45.4234 34.7078 45.4234 35.6646C45.4234 36.6213 44.658 37.5781 43.5099 37.5781Z" fill="#2C5DE4"/>
<path d="M54.6081 82.354H26.6711C23.4182 82.354 20.7393 79.6751 20.7393 76.4222V59.7747C20.7393 56.5218 23.4182 53.8429 26.6711 53.8429H54.6081C57.8611 53.8429 60.54 56.5218 60.54 59.7747V76.4222C60.54 79.6751 57.8611 82.354 54.6081 82.354ZM54.6081 57.6699H26.6711C25.523 57.6699 24.7576 58.6266 24.7576 59.5834V76.4222C24.7576 77.5703 25.7143 78.3356 26.6711 78.3356H54.6081C55.7562 78.3356 56.5216 77.3789 56.5216 76.4222V59.7747C56.5216 58.6266 55.5649 57.6699 54.6081 57.6699Z" fill="#2C5DE4"/>
<path d="M74.7 70.4903H72.5951C71.447 70.4903 70.6816 69.5336 70.6816 68.5768C70.6816 67.6201 71.6384 66.6633 72.5951 66.6633H74.7C75.8481 66.6633 76.6135 67.6201 76.6135 68.5768C76.6135 69.5336 75.6567 70.4903 74.7 70.4903Z" fill="#2C5DE4"/>
<path d="M102.828 83.1194H72.5951C71.447 83.1194 70.6816 82.1626 70.6816 81.2059C70.6816 80.2491 71.6384 79.2924 72.5951 79.2924H102.828C103.976 79.2924 104.742 80.2491 104.742 81.2059C104.742 82.1626 103.785 83.1194 102.828 83.1194Z" fill="#2C5DE4"/>
<path d="M102.828 95.7484H21.6957C20.5476 95.7484 19.7822 94.7916 19.7822 93.8349C19.7822 92.8781 20.739 91.9214 21.6957 91.9214H102.828C103.976 91.9214 104.741 92.8781 104.741 93.8349C104.741 94.7916 103.785 95.7484 102.828 95.7484Z" fill="#2C5DE4"/>
<path d="M102.828 108.378H21.6957C20.5476 108.378 19.7822 107.421 19.7822 106.464C19.7822 105.507 20.739 104.551 21.6957 104.551H102.828C103.976 104.551 104.741 105.507 104.741 106.464C104.741 107.421 103.785 108.378 102.828 108.378Z" fill="#2C5DE4"/>
<path d="M100.149 71.2557H97.0877C94.6002 71.2557 92.4953 69.3422 92.1126 67.046L91.3472 62.2623C91.3472 61.8796 90.9645 61.6882 90.7732 61.4969C90.0078 61.3055 89.4338 60.9228 88.6684 60.7315C88.2857 60.5401 88.0943 60.5401 87.7116 60.7315L83.8846 63.6017C81.9711 64.9411 79.1009 64.7498 77.3787 63.0276L75.0825 60.7315C73.3604 59.0093 73.169 56.3304 74.5085 54.2256L77.3787 50.3986C77.5701 50.0159 77.5701 49.6332 77.3787 49.4418C76.996 48.8678 76.8047 48.1024 76.422 47.337C76.2306 46.9543 76.0393 46.7629 75.6566 46.7629L71.0642 45.9975C68.5766 45.6148 66.8545 43.51 66.8545 41.0224V37.7695C66.8545 35.282 68.5766 33.1771 71.0642 32.7944L75.6566 32.029C76.0393 32.029 76.2306 31.6463 76.422 31.455C76.6133 30.6896 76.996 30.1155 77.3787 29.3501C77.5701 28.9674 77.5701 28.5847 77.3787 28.3934L74.5085 24.5664C72.9777 22.6529 73.3604 19.974 74.8912 18.0605L77.1874 15.7643C78.9095 14.0421 81.7798 13.8508 83.6933 15.3816L87.3289 18.2518C87.7116 18.6345 88.0943 18.4432 88.2857 18.2518C89.0511 17.8691 89.6251 17.6778 90.3905 17.2951C90.7732 17.1037 90.9645 16.9124 91.1559 16.5297L91.9213 11.7459C92.4953 9.44975 94.6002 7.53625 97.0877 7.53625H100.149C102.637 7.53625 104.742 9.44975 105.124 11.7459L105.89 16.5297C105.89 16.9124 106.273 17.1037 106.464 17.2951C107.229 17.4864 107.803 17.8691 108.569 18.0605C108.951 18.2518 109.143 18.2518 109.525 18.0605L113.352 15.1902C115.266 13.6594 118.136 14.0421 119.858 15.7643L122.155 18.0605C123.877 19.7826 124.068 22.4615 122.729 24.5664L119.858 28.3934C119.667 28.7761 119.667 29.1588 119.858 29.3501C120.241 29.9242 120.432 30.6896 120.815 31.455C121.006 31.8377 121.198 32.029 121.58 32.029L126.173 32.7944C128.66 33.1771 130.383 35.282 130.383 37.7695V41.0224C130.383 43.51 128.66 45.6148 126.173 45.9975L121.58 46.7629C121.198 46.7629 121.006 47.1456 120.815 47.337C120.624 48.1024 120.241 48.6764 120.05 49.4418C119.858 49.8245 119.858 50.2072 120.05 50.5899L122.92 54.4169C124.259 56.3304 124.068 59.0093 122.537 60.9228L119.667 63.0276C117.945 64.7498 115.075 64.9411 113.161 63.4104L109.525 60.5401C109.143 60.1574 108.76 60.3488 108.569 60.5401C107.803 60.9228 107.229 61.1142 106.464 61.4969C106.081 61.6882 105.89 61.8796 105.89 62.2623L105.124 67.046C104.742 69.3422 102.637 71.2557 100.149 71.2557ZM88.0943 56.5218C88.8597 56.5218 89.6251 56.7131 90.1991 57.0958C90.7732 57.2872 91.3472 57.6699 91.9213 57.8612C93.6434 58.4353 94.7915 59.9661 95.1742 61.6882L95.9396 66.4719C95.9396 67.046 96.5137 67.4287 96.8964 67.4287H99.958C100.532 67.4287 100.915 67.046 100.915 66.6633L101.68 61.8796C101.871 60.1574 103.211 58.6266 104.933 58.0526C105.507 57.8612 106.081 57.6699 106.655 57.2872C108.186 56.5218 110.291 56.7131 111.822 57.8612L115.649 60.7315C116.223 61.1142 116.605 60.9228 116.988 60.5401L119.284 58.2439C119.667 57.8612 119.667 57.2872 119.284 56.9045L116.414 53.0775C115.266 51.5467 115.075 49.6332 115.84 48.1024C116.031 47.5283 116.414 46.9543 116.605 46.3802C117.179 44.6581 118.71 43.3186 120.432 43.1273L125.025 42.3619C125.599 42.3619 125.79 41.7878 125.79 41.4051V38.1522C125.79 37.5781 125.407 37.1954 125.025 37.1954L120.432 36.4301C118.71 36.2387 117.179 34.8993 116.605 33.1771C116.414 32.6031 116.223 32.029 115.84 31.455C115.075 29.7328 115.266 27.8193 116.223 26.2885L119.093 22.4615C119.476 22.0788 119.284 21.5048 119.093 21.1221L116.797 18.8259C116.605 18.6345 116.223 18.4432 116.031 18.4432C115.84 18.4432 115.649 18.4432 115.457 18.6345L111.822 21.5048C110.482 22.6529 108.377 22.8442 106.655 22.0788C106.081 21.8875 105.507 21.5048 104.933 21.3134C103.211 20.7394 102.063 19.2086 101.68 17.4864L100.915 12.7027C100.915 12.1286 100.341 11.7459 99.958 11.7459H96.8964C96.3223 11.7459 95.9396 12.1286 95.9396 12.5113L95.3656 17.1037C95.1742 18.8259 93.8348 20.3567 92.1126 20.9307C91.5386 21.1221 90.9645 21.3134 90.3905 21.6961C88.8597 22.4615 86.7549 22.2702 85.2241 21.1221L81.3971 18.2518C80.823 17.6778 80.4403 18.0605 80.0576 18.4432L77.7614 20.7394C77.3787 21.1221 77.3787 21.6961 77.7614 22.0788L80.6317 25.9058C81.5884 27.4366 81.7798 29.3501 81.0144 30.8809C80.823 31.455 80.4403 32.029 80.249 32.6031C79.6749 34.3252 78.1441 35.6647 76.422 35.856L71.8296 36.6214C71.2555 36.6214 71.0642 37.1955 71.0642 37.5781V40.8311C71.0642 41.4051 71.4469 41.7878 71.8296 41.7878L76.422 42.5532C78.1441 42.7446 79.6749 44.084 80.249 45.8062C80.4403 46.3802 80.6317 46.9543 81.0144 47.5283C81.7798 49.2505 81.5884 51.164 80.4403 52.6948L77.5701 56.5218C77.1874 56.9045 77.3787 57.4785 77.5701 57.8612L79.8663 60.1574C80.249 60.5401 80.6317 60.7315 81.2057 60.3488L85.0327 57.4785C85.9895 56.9045 87.1376 56.5218 88.0943 56.5218Z" fill="#2C5DE4"/>
<path d="M98.6183 52.1207C91.5383 52.1207 85.7979 46.3802 85.7979 39.3003C85.7979 32.2203 91.5383 26.4799 98.6183 26.4799C105.698 26.4799 111.439 32.2203 111.439 39.3003C111.439 46.3802 105.698 52.1207 98.6183 52.1207ZM98.6183 30.4982C93.6432 30.4982 89.8162 34.5165 89.8162 39.3003C89.8162 44.2754 93.8345 48.1024 98.6183 48.1024C103.402 48.1024 107.42 44.084 107.42 39.3003C107.42 34.5165 103.402 30.4982 98.6183 30.4982Z" fill="#2C5DE4"/>
<rect opacity="0.1" y="30.0566" width="94.2029" height="92.3188" rx="8" fill="#2C5DE4"/>
</g>
<defs>
<clipPath id="clip0_1255_247">
<rect width="130" height="130" fill="white"/>
</clipPath>
</defs>
</svg>
