<svg width="130" height="130" viewBox="0 0 130 130" fill="none" xmlns="http://www.w3.org/2000/svg">
<g clip-path="url(#clip0_1053_189)">
<path opacity="0.1" d="M76.6829 82.8232C76.8926 83.8731 76.9977 85.7101 76.9977 88.3347V108.9H71.3287V88.5551C71.3287 86.2453 71.1083 84.5196 70.6676 83.3744C70.2265 82.2301 69.4445 81.3168 68.3212 80.6343C67.1979 79.953 65.8804 79.6108 64.3687 79.6108C61.954 79.6108 59.8702 80.3773 58.117 81.9099C56.3638 83.4427 55.4873 86.3507 55.4873 90.6339V108.9H49.8183V75.4536H54.9203V80.2092C57.3768 76.5347 60.9252 74.6977 65.5653 74.6977C67.5808 74.6977 69.4338 75.0598 71.1241 75.7842C72.8143 76.5086 74.0796 77.4587 74.9192 78.6345C75.7589 79.8104 76.3467 81.2066 76.6829 82.8232ZM131.533 109.106C129.938 109.442 128.51 109.61 127.25 109.61C125.192 109.61 123.597 109.285 122.463 108.634C121.329 107.983 120.531 107.127 120.069 106.067C119.607 105.008 119.376 102.776 119.376 99.3746V79.1784H107.068C107.097 79.2088 107.128 79.234 107.156 79.2645C109.991 82.3088 111.408 86.5919 111.408 92.1141C111.408 92.4498 111.398 92.9541 111.377 93.6256H86.4334C86.6433 97.3002 87.6826 100.114 89.5511 102.066C91.4198 104.019 93.7504 104.995 96.5429 104.995C98.6216 104.995 100.396 104.449 101.866 103.357C103.335 102.266 104.501 100.523 105.362 98.1294L111.219 98.8538C110.295 102.276 108.584 104.932 106.086 106.822C103.587 108.712 100.396 109.657 96.5114 109.657C91.6191 109.657 87.7402 108.15 84.8744 105.137C82.0083 102.125 80.5752 97.8984 80.5752 92.4605C80.5752 86.8334 82.024 82.4662 84.9213 79.3587C87.8189 76.2513 91.5772 74.6977 96.1963 74.6977C96.7546 74.6977 97.3018 74.7218 97.835 74.769H119.376V67.5127H125.014V74.769H130.714V79.1781H125.014V99.6892C125.014 101.306 125.113 102.345 125.313 102.807C125.512 103.269 125.838 103.637 126.289 103.909C126.74 104.182 127.386 104.319 128.226 104.319C128.856 104.319 129.685 104.245 130.714 104.098L131.533 109.106ZM105.425 88.9647C105.172 86.1511 104.458 84.0409 103.283 82.6343C101.477 80.4504 99.136 79.3589 96.2595 79.3589C93.656 79.3589 91.467 80.2303 89.693 81.9729C87.919 83.7157 86.9371 86.0463 86.7482 88.9647H105.425ZM41.7471 102.09C40.7226 102.09 39.8532 102.455 39.1372 103.196C38.4212 103.932 38.0665 104.822 38.0665 105.874C38.0665 106.899 38.4212 107.786 39.1372 108.533C39.8532 109.281 40.7226 109.657 41.7471 109.657C42.798 109.657 43.6926 109.281 44.4284 108.533C45.1662 107.786 45.5329 106.899 45.5329 105.874C45.5329 104.847 45.1665 103.957 44.4284 103.211C43.6923 102.46 42.798 102.09 41.7471 102.09ZM78.0979 69.5335C75.1584 70.8249 71.4526 71.4706 66.9806 71.4706C59.1278 71.4706 53.6899 69.9588 50.6663 66.9353C50.6537 66.9226 50.642 66.9091 50.6293 66.8967L52.0522 70.6832H37.1123L34.8015 63.0614H18.6051L16.3542 70.6832H1.78711L19.1406 24.5126H34.703L46.2946 55.3607L59.107 54.5581C59.401 56.7628 59.9992 58.4429 60.9021 59.5974C62.3719 61.4664 64.4715 62.4003 67.201 62.4003C69.2376 62.4003 70.8072 61.9232 71.9094 60.9672C73.0119 60.0118 73.5631 58.9042 73.5631 57.6446C73.5631 56.4477 73.0383 55.3767 71.9884 54.4322C70.9385 53.4871 68.5028 52.5952 64.6817 51.755C58.425 50.3489 53.9633 48.4798 51.2968 46.1492C48.6092 43.8184 47.2655 40.8477 47.2655 37.2361C47.2655 34.8636 47.9531 32.6221 49.3285 30.5122C50.7037 28.402 52.772 26.744 55.533 25.5361C58.2939 24.3288 62.0784 23.725 66.8866 23.725C72.7867 23.725 77.2851 24.8226 80.382 27.0161C83.4789 29.2104 85.3213 32.7011 85.9093 37.488L72.4612 38.2756C72.1044 36.1969 71.3536 34.6851 70.2093 33.7403C69.0652 32.7956 67.4851 32.3233 65.4696 32.3233C63.8108 32.3233 62.5616 32.6749 61.7217 33.3783C60.8818 34.0818 60.4621 34.9373 60.4621 35.9448C60.4621 36.6801 60.8084 37.3417 61.5013 37.9288C62.1731 38.5381 63.7689 39.1051 66.2884 39.6294C72.5244 40.9734 76.9911 42.3333 79.6891 43.7079C82.3871 45.0831 84.3503 46.7896 85.5785 48.8257C86.2079 49.869 86.6733 50.9768 86.9803 52.1465V24.5126H110.695C115.86 24.5126 119.729 25.7408 122.301 28.1973C124.873 30.6541 126.159 34.1496 126.159 38.6852C126.159 43.3461 124.757 46.9892 121.954 49.6135C119.151 52.2387 114.873 53.5504 109.12 53.5504H101.31V70.6834H86.9798V59.2912C86.5801 60.8872 85.9093 62.4069 84.964 63.8493C83.326 66.3477 81.0373 68.2424 78.0979 69.5335ZM101.309 44.1964H104.805C107.556 44.1964 109.487 43.7191 110.6 42.7631C111.713 41.808 112.269 40.5854 112.269 39.0942C112.269 37.6454 111.786 36.4173 110.821 35.4093C109.855 34.4015 108.038 33.8975 105.372 33.8975H101.309V44.1964ZM31.8422 53.0778L26.7463 36.4805L21.703 53.0778H31.8422Z" fill="#2C5DE4"/>
<path d="M74.1561 81.0819C74.3581 82.096 74.4594 83.8703 74.4594 86.4054V106.269H68.9978V86.6183C68.9978 84.3873 68.7855 82.7204 68.3608 81.6143C67.9359 80.509 67.1825 79.6269 66.1003 78.9677C65.0181 78.3097 63.7488 77.9791 62.2923 77.9791C59.966 77.9791 57.9584 78.7195 56.2693 80.1998C54.5802 81.6803 53.7358 84.4891 53.7358 88.6261V106.269H48.2742V73.9637H53.1896V78.5571C55.5563 75.008 58.9748 73.2336 63.4452 73.2336C65.387 73.2336 67.1722 73.5834 68.8006 74.283C70.4291 74.9827 71.648 75.9004 72.457 77.0361C73.2659 78.1719 73.8322 79.5205 74.1561 81.0819ZM127 106.468C125.463 106.793 124.087 106.955 122.874 106.955C120.891 106.955 119.354 106.641 118.262 106.012C117.169 105.383 116.401 104.557 115.955 103.533C115.511 102.51 115.288 100.354 115.288 97.0686V77.5615H103.43C103.457 77.5909 103.488 77.6152 103.515 77.6446C106.246 80.5851 107.611 84.7221 107.611 90.0559C107.611 90.3801 107.601 90.8671 107.581 91.5158H83.5499C83.7522 95.065 84.7534 97.7825 86.5536 99.6684C88.354 101.554 90.5993 102.497 93.2896 102.497C95.2923 102.497 97.0015 101.97 98.4176 100.916C99.8334 99.861 100.956 98.1779 101.786 95.8659L107.429 96.5656C106.539 99.8713 104.891 102.437 102.483 104.262C100.076 106.087 97.0015 107 93.2593 107C88.546 107 84.809 105.544 82.0479 102.634C79.2867 99.7253 77.9061 95.6428 77.9061 90.3904C77.9061 84.9553 79.3019 80.7371 82.0932 77.7356C84.8848 74.7343 88.5056 73.2336 92.9557 73.2336C93.4936 73.2336 94.0208 73.2569 94.5345 73.3026H115.288V66.2937H120.719V73.3026H126.211V77.5612H120.719V97.3725C120.719 98.9339 120.815 99.938 121.007 100.384C121.199 100.83 121.513 101.185 121.948 101.449C122.383 101.712 123.005 101.844 123.814 101.844C124.421 101.844 125.22 101.773 126.211 101.631L127 106.468ZM101.846 87.0139C101.603 84.2963 100.916 82.2581 99.783 80.8995C98.0433 78.7901 95.7879 77.7358 93.0166 77.7358C90.5083 77.7358 88.3995 78.5775 86.6903 80.2606C84.9812 81.9439 84.0352 84.195 83.8532 87.0139H101.846ZM40.4983 99.6917C39.5113 99.6917 38.6737 100.044 37.9839 100.76C37.294 101.47 36.9523 102.33 36.9523 103.346C36.9523 104.336 37.294 105.193 37.9839 105.915C38.6737 106.637 39.5113 107 40.4983 107C41.5108 107 42.3726 106.637 43.0815 105.915C43.7923 105.193 44.1455 104.336 44.1455 103.346C44.1455 102.355 43.7926 101.495 43.0815 100.774C42.3723 100.049 41.5108 99.6917 40.4983 99.6917ZM75.5193 68.2456C72.6874 69.4929 69.1172 70.1166 64.8087 70.1166C57.2431 70.1166 52.0042 68.6564 49.0912 65.736C49.079 65.7238 49.0678 65.7108 49.0555 65.6988L50.4264 69.3561H36.033L33.8068 61.9944H18.2028L16.0342 69.3561H2L18.7187 24.7607H33.7118L44.8794 54.5564L57.2231 53.7812C57.5064 55.9106 58.0827 57.5334 58.9525 58.6485C60.3686 60.4538 62.3914 61.3558 65.021 61.3558C66.9831 61.3558 68.4954 60.8949 69.5572 59.9716C70.6194 59.0487 71.1504 57.979 71.1504 56.7623C71.1504 55.6063 70.6448 54.5718 69.6333 53.6595C68.6218 52.7467 66.2752 51.8852 62.5939 51.0737C56.566 49.7155 52.2676 47.9103 49.6986 45.6592C47.1093 43.4078 45.8148 40.5385 45.8148 37.0501C45.8148 34.7586 46.4773 32.5936 47.8023 30.5556C49.1272 28.5174 51.1199 26.9159 53.7798 25.7493C56.4398 24.5832 60.0859 24 64.7182 24C70.4024 24 74.7363 25.0602 77.7199 27.1788C80.7035 29.2982 82.4785 32.6699 83.045 37.2934L70.0888 38.0542C69.7451 36.0464 69.0218 34.5862 67.9193 33.6736C66.817 32.7611 65.2948 32.3049 63.353 32.3049C61.7549 32.3049 60.5514 32.6446 59.7422 33.3239C58.933 34.0035 58.5286 34.8297 58.5286 35.8028C58.5286 36.5131 58.8623 37.1522 59.5298 37.7192C60.1771 38.3078 61.7145 38.8554 64.1419 39.3618C70.1497 40.6599 74.453 41.9734 77.0523 43.3012C79.6517 44.6294 81.5431 46.2777 82.7263 48.2443C83.3327 49.252 83.7811 50.322 84.0768 51.4518V24.7607H106.924C111.9 24.7607 115.627 25.947 118.105 28.3197C120.583 30.6927 121.822 34.069 121.822 38.4498C121.822 42.9517 120.472 46.4704 117.772 49.0053C115.071 51.5409 110.949 52.8078 105.407 52.8078H97.8821V69.3563H84.0763V58.3527C83.6913 59.8943 83.045 61.3621 82.1343 62.7554C80.5563 65.1686 78.3513 66.9986 75.5193 68.2456ZM97.8816 43.773H101.25C103.899 43.773 105.761 43.312 106.833 42.3886C107.905 41.466 108.441 40.2852 108.441 38.8448C108.441 37.4455 107.976 36.2592 107.045 35.2856C106.114 34.3122 104.365 33.8254 101.796 33.8254H97.8816V43.773ZM30.9557 52.3514L26.0462 36.3203L21.1874 52.3514H30.9557Z" fill="#2C5DE4"/>
</g>
<defs>
<clipPath id="clip0_1053_189">
<rect width="130" height="130" fill="white"/>
</clipPath>
</defs>
</svg>
