<svg width="130" height="130" viewBox="0 0 130 130" fill="none" xmlns="http://www.w3.org/2000/svg">
<path opacity="0.1" d="M106.5 20.5625H42.5C36.9772 20.5625 32.5 25.0397 32.5 30.5625V109.562C32.5 115.085 36.9772 119.562 42.5 119.562H106.5C112.023 119.562 116.5 115.085 116.5 109.562V30.5625C116.5 25.0397 112.023 20.5625 106.5 20.5625Z" fill="#2C5DE4"/>
<path d="M105.563 40.1247C105.801 40.3629 105.989 40.6458 106.118 40.9568C106.247 41.2679 106.313 41.6013 106.312 41.9379M105.563 40.1247L105.812 41.9375ZM105.563 40.1247L76.6878 11.2497C76.4496 11.0118 76.1667 10.823 75.8557 10.6944C75.5447 10.5658 75.2115 10.4998 74.875 10.5M105.563 40.1247L105.209 40.4783L76.3342 11.6033C76.1425 11.4118 75.915 11.26 75.6646 11.1565C75.4143 11.053 75.1459 10.9998 74.875 11M106.312 41.9379L105.812 41.9375ZM106.312 41.9379L105.812 41.9375ZM106.312 41.9379V107.938C106.312 109.711 105.608 111.412 104.354 112.666C103.1 113.92 101.399 114.625 99.625 114.625H87.25C86.5704 114.625 85.9186 114.355 85.438 113.874C84.9575 113.394 84.6875 112.742 84.6875 112.062C84.6875 111.383 84.9575 110.731 85.438 110.251C85.9186 109.77 86.5704 109.5 87.25 109.5H99.625C100.039 109.5 100.437 109.335 100.73 109.042C101.023 108.749 101.188 108.352 101.188 107.938V44.5M105.812 41.9375V107.938C105.812 109.579 105.161 111.152 104 112.313C102.84 113.473 101.266 114.125 99.625 114.125H87.25C86.703 114.125 86.1784 113.908 85.7916 113.521C85.4048 113.134 85.1875 112.61 85.1875 112.062C85.1875 111.515 85.4048 110.991 85.7916 110.604C86.1784 110.217 86.703 110 87.25 110H99.625C100.172 110 100.697 109.783 101.083 109.396C101.47 109.009 101.688 108.485 101.688 107.938V44.5H101.188M101.188 44.5V44H74.875C74.328 44 73.8034 43.7827 73.4166 43.3959C73.0298 43.0091 72.8125 42.4845 72.8125 41.9375V15.625H72.3125M101.188 44.5H74.875C74.1954 44.5 73.5436 44.23 73.063 43.7495C72.5825 43.2689 72.3125 42.6171 72.3125 41.9375V15.625M72.3125 15.625V15.125H25.375C24.828 15.125 24.3034 15.3423 23.9166 15.7291C23.5298 16.1159 23.3125 16.6405 23.3125 17.1875V54.3125C23.3125 54.8595 23.0952 55.3841 22.7084 55.7709C22.3216 56.1577 21.797 56.375 21.25 56.375C20.703 56.375 20.1784 56.1577 19.7916 55.7709C19.4048 55.3841 19.1875 54.8595 19.1875 54.3125V17.1875C19.1875 15.5465 19.8394 13.9727 20.9998 12.8123C22.1602 11.6519 23.734 11 25.375 11H74.875M72.3125 15.625H25.375C24.9606 15.625 24.5632 15.7896 24.2701 16.0826C23.9771 16.3757 23.8125 16.7731 23.8125 17.1875V54.3125C23.8125 54.9921 23.5425 55.6439 23.062 56.1245C22.5814 56.605 21.9296 56.875 21.25 56.875C20.5704 56.875 19.9186 56.605 19.438 56.1245C18.9575 55.6439 18.6875 54.9921 18.6875 54.3125V17.1875C18.6875 15.4139 19.3921 13.7129 20.6462 12.4587C21.9004 11.2046 23.6014 10.5 25.375 10.5H74.875M74.875 10.5C74.8751 10.5 74.8749 10.5 74.875 10.5V11ZM74.875 10.5V11ZM67.1154 104.336L67.1127 104.338C64.7295 105.917 61.7206 106.365 58.9886 106.365H58.9851C56.4743 106.347 53.9754 106.018 51.5458 105.384L51.5326 105.381L51.5197 105.377C50.8879 105.175 50.3591 104.736 50.0442 104.152C49.7294 103.569 49.6532 102.885 49.8315 102.247C50.0099 101.608 50.429 101.063 51.0007 100.727C51.5723 100.391 52.2521 100.289 52.897 100.444L52.9056 100.446L52.9141 100.448C53.9689 100.741 56.0646 101.158 58.2876 101.236C60.5316 101.315 62.7939 101.044 64.2734 100.061C64.7875 99.7136 65.2161 99.2541 65.5272 98.717C65.8385 98.1796 66.024 97.5786 66.0696 96.9592L66.0706 96.9456L66.0724 96.9321C66.1702 96.1719 66.0857 95.5761 65.8525 95.0789C65.6184 94.5797 65.2131 94.1344 64.5926 93.7123C63.3265 92.8512 61.2844 92.1623 58.3652 91.3198L58.3179 91.3061C55.8532 90.5932 52.9905 89.7651 50.85 88.2852C49.7632 87.5337 48.8411 86.601 48.2486 85.4099C47.6548 84.2164 47.4093 82.7977 47.6223 81.1049C47.7552 79.7829 48.1762 78.5061 48.8558 77.3643C49.5365 76.2207 50.4601 75.2404 51.5612 74.4929L51.5628 74.4918C54.0405 72.8237 57.4868 72.1556 61.7234 72.438C63.574 72.5601 65.4106 72.8422 67.2126 73.2812L67.2223 73.2836C67.8798 73.4577 68.441 73.886 68.7827 74.474C69.1245 75.062 69.2186 75.7616 69.0445 76.419C68.8704 77.0765 68.4422 77.6378 67.8542 77.9795C67.2664 78.3212 66.5671 78.4154 65.9098 78.2415C64.8368 77.9588 62.7086 77.5632 60.4587 77.5076C58.1861 77.4514 55.9023 77.746 54.4271 78.7444L54.4254 78.7456C53.9324 79.0762 53.5217 79.5154 53.2247 80.0293C52.9278 80.5433 52.7524 81.1184 52.7121 81.7106L52.7111 81.7254L52.7093 81.74C52.6343 82.3274 52.711 82.7784 52.9104 83.1572C53.1131 83.5423 53.468 83.9013 54.0331 84.2561C55.1853 84.9795 57.0558 85.5949 59.7883 86.3941L67.1154 104.336ZM67.1154 104.336C68.2462 103.575 69.1955 102.575 69.8954 101.406C70.5942 100.239 71.0274 98.9322 71.1643 97.5788C71.4057 95.6974 71.1387 94.1261 70.4967 92.809C69.8556 91.494 68.857 90.4656 67.6871 89.6411C65.3955 88.0261 62.3698 87.1455 59.8833 86.4218L59.7883 86.3941L67.1154 104.336ZM77.4375 39.375V19.2456L97.5622 39.375H77.4375ZM36.1875 94.5312V74.9375C36.1875 74.2579 35.9175 73.6061 35.437 73.1255C34.9564 72.645 34.3046 72.375 33.625 72.375C32.9454 72.375 32.2936 72.645 31.813 73.1255C31.3325 73.6061 31.0625 74.2579 31.0625 74.9375V94.5312C31.0625 96.3132 30.3546 98.0221 29.0946 99.2821C27.8346 100.542 26.1257 101.25 24.3438 101.25C22.5618 101.25 20.8529 100.542 19.5929 99.2821C18.3329 98.0221 17.625 96.3132 17.625 94.5312C17.625 93.8516 17.355 93.1999 16.8745 92.7193C16.3939 92.2387 15.7421 91.9688 15.0625 91.9688C14.3829 91.9688 13.7311 92.2387 13.2505 92.7193C12.77 93.1999 12.5 93.8516 12.5 94.5312C12.5 97.6724 13.7478 100.685 15.969 102.906C18.1901 105.127 21.2026 106.375 24.3438 106.375C27.4849 106.375 30.4974 105.127 32.7185 102.906C34.9397 100.685 36.1875 97.6724 36.1875 94.5312Z" fill="#2C5DE4"/>
<path d="M105.563 40.1247C105.801 40.3629 105.989 40.6458 106.118 40.9568C106.247 41.2679 106.313 41.6013 106.312 41.9379M105.563 40.1247L105.812 41.9375M105.563 40.1247L76.6878 11.2497C76.4496 11.0118 76.1667 10.823 75.8557 10.6944C75.5447 10.5658 75.2115 10.4998 74.875 10.5M105.563 40.1247L105.209 40.4783L76.3342 11.6033C76.1425 11.4118 75.915 11.26 75.6646 11.1565C75.4143 11.053 75.1459 10.9998 74.875 11M106.312 41.9379L105.812 41.9375M106.312 41.9379V107.938C106.312 109.711 105.608 111.412 104.354 112.666C103.1 113.92 101.399 114.625 99.625 114.625H87.25C86.5704 114.625 85.9186 114.355 85.438 113.874C84.9575 113.394 84.6875 112.742 84.6875 112.062C84.6875 111.383 84.9575 110.731 85.438 110.251C85.9186 109.77 86.5704 109.5 87.25 109.5H99.625C100.039 109.5 100.437 109.335 100.73 109.042C101.023 108.749 101.188 108.352 101.188 107.938V44.5M105.812 41.9375V107.938C105.812 109.579 105.161 111.152 104 112.313C102.84 113.473 101.266 114.125 99.625 114.125H87.25C86.703 114.125 86.1784 113.908 85.7916 113.521C85.4048 113.134 85.1875 112.61 85.1875 112.062C85.1875 111.515 85.4048 110.991 85.7916 110.604C86.1784 110.217 86.703 110 87.25 110H99.625C100.172 110 100.697 109.783 101.083 109.396C101.47 109.009 101.688 108.485 101.688 107.938V44.5H101.188M74.875 10.5H25.375C23.6014 10.5 21.9004 11.2046 20.6462 12.4587C19.3921 13.7129 18.6875 15.4139 18.6875 17.1875V54.3125C18.6875 54.9921 18.9575 55.6439 19.438 56.1245C19.9186 56.605 20.5704 56.875 21.25 56.875C21.9296 56.875 22.5814 56.605 23.062 56.1245C23.5425 55.6439 23.8125 54.9921 23.8125 54.3125V17.1875C23.8125 16.7731 23.9771 16.3757 24.2701 16.0826C24.5632 15.7896 24.9606 15.625 25.375 15.625H72.3125M74.875 10.5C74.8749 10.5 74.8751 10.5 74.875 10.5ZM74.875 10.5V11M74.875 11H25.375C23.734 11 22.1602 11.6519 20.9998 12.8123C19.8394 13.9727 19.1875 15.5465 19.1875 17.1875V54.3125C19.1875 54.8595 19.4048 55.3841 19.7916 55.7709C20.1784 56.1577 20.703 56.375 21.25 56.375C21.797 56.375 22.3216 56.1577 22.7084 55.7709C23.0952 55.3841 23.3125 54.8595 23.3125 54.3125V17.1875C23.3125 16.6405 23.5298 16.1159 23.9166 15.7291C24.3034 15.3423 24.828 15.125 25.375 15.125H72.3125V15.625M101.188 44.5V44H74.875C74.328 44 73.8034 43.7827 73.4166 43.3959C73.0298 43.0091 72.8125 42.4845 72.8125 41.9375V15.625H72.3125M101.188 44.5H74.875C74.1954 44.5 73.5436 44.23 73.063 43.7495C72.5825 43.2689 72.3125 42.6171 72.3125 41.9375V15.625M67.1154 104.336L67.1127 104.338C64.7295 105.917 61.7206 106.365 58.9886 106.365H58.9851C56.4743 106.347 53.9754 106.018 51.5458 105.384L51.5326 105.381L51.5197 105.377C50.8879 105.175 50.3591 104.736 50.0442 104.152C49.7294 103.569 49.6532 102.885 49.8315 102.247C50.0099 101.608 50.429 101.063 51.0007 100.727C51.5723 100.391 52.2521 100.289 52.897 100.444L52.9056 100.446L52.9141 100.448C53.9689 100.741 56.0646 101.158 58.2876 101.236C60.5316 101.315 62.7939 101.044 64.2734 100.061C64.7875 99.7136 65.2161 99.2541 65.5272 98.717C65.8385 98.1796 66.024 97.5786 66.0696 96.9592L66.0706 96.9456L66.0724 96.9321C66.1702 96.1719 66.0857 95.5761 65.8525 95.0789C65.6184 94.5797 65.2131 94.1344 64.5926 93.7123C63.3265 92.8512 61.2844 92.1623 58.3652 91.3198L58.3179 91.3061C55.8532 90.5932 52.9905 89.7651 50.85 88.2852C49.7632 87.5337 48.8411 86.601 48.2486 85.4099C47.6548 84.2164 47.4093 82.7977 47.6223 81.1049C47.7552 79.7829 48.1762 78.5061 48.8558 77.3643C49.5365 76.2207 50.4601 75.2404 51.5612 74.4929L51.5628 74.4918C54.0405 72.8237 57.4868 72.1556 61.7234 72.438C63.574 72.5601 65.4106 72.8422 67.2126 73.2812L67.2223 73.2836C67.8798 73.4577 68.441 73.886 68.7827 74.474C69.1245 75.062 69.2186 75.7616 69.0445 76.419C68.8704 77.0765 68.4422 77.6378 67.8542 77.9795C67.2664 78.3212 66.5671 78.4154 65.9098 78.2415C64.8368 77.9588 62.7086 77.5632 60.4587 77.5076C58.1861 77.4514 55.9023 77.746 54.4271 78.7444L54.4254 78.7456C53.9324 79.0762 53.5217 79.5154 53.2247 80.0293C52.9278 80.5433 52.7524 81.1184 52.7121 81.7106L52.7111 81.7254L52.7093 81.74C52.6343 82.3274 52.711 82.7784 52.9104 83.1572C53.1131 83.5423 53.468 83.9013 54.0331 84.2561C55.1853 84.9795 57.0558 85.5949 59.7883 86.3941M67.1154 104.336L59.7883 86.3941M67.1154 104.336C68.2462 103.575 69.1955 102.575 69.8954 101.406C70.5942 100.239 71.0274 98.9322 71.1643 97.5788C71.4057 95.6974 71.1387 94.1261 70.4967 92.809C69.8556 91.494 68.857 90.4656 67.6871 89.6411C65.3955 88.0261 62.3698 87.1455 59.8833 86.4218L59.7883 86.3941M77.4375 39.375V19.2456L97.5622 39.375H77.4375ZM36.1875 94.5312V74.9375C36.1875 74.2579 35.9175 73.6061 35.437 73.1255C34.9564 72.645 34.3046 72.375 33.625 72.375C32.9454 72.375 32.2936 72.645 31.813 73.1255C31.3325 73.6061 31.0625 74.2579 31.0625 74.9375V94.5312C31.0625 96.3132 30.3546 98.0221 29.0946 99.2821C27.8346 100.542 26.1257 101.25 24.3438 101.25C22.5618 101.25 20.8529 100.542 19.5929 99.2821C18.3329 98.0221 17.625 96.3132 17.625 94.5312C17.625 93.8516 17.355 93.1999 16.8745 92.7193C16.3939 92.2387 15.7421 91.9688 15.0625 91.9688C14.3829 91.9688 13.7311 92.2387 13.2505 92.7193C12.77 93.1999 12.5 93.8516 12.5 94.5312C12.5 97.6724 13.7478 100.685 15.969 102.906C18.1901 105.127 21.2026 106.375 24.3438 106.375C27.4849 106.375 30.4974 105.127 32.7185 102.906C34.9397 100.685 36.1875 97.6724 36.1875 94.5312Z" stroke="#2C5DE4"/>
</svg>
