<svg width="130" height="130" viewBox="0 0 130 130" fill="none" xmlns="http://www.w3.org/2000/svg">
<path opacity="0.1" d="M20.9958 36.5633L71.6122 4.6192C72.219 4.23627 72.9843 4.20771 73.618 4.54435L126.936 32.8719C128.296 33.5949 128.363 35.5204 127.055 36.3354L106.438 49.1852L126.92 59.9867C128.285 60.7067 128.355 62.6366 127.045 63.4531L103.266 78.2731L127.022 91.5734C128.355 92.3199 128.393 94.2255 127.09 95.0238L77.4897 125.414C76.8955 125.778 76.1546 125.806 75.5342 125.489L20.7506 97.4714C19.4594 96.811 19.2783 95.0389 20.4093 94.1311L41.6386 77.0892L21.1517 66.6117C19.7663 65.9031 19.6851 63.9534 21.007 63.1322L41.6386 50.3148L21.1662 40.0422C19.7749 39.3441 19.6793 37.3941 20.9958 36.5633Z" fill="#2C5DE4"/>
<path d="M28.6386 50.3148L62.5303 67.3209C63.1532 67.6335 63.8938 67.5993 64.4852 67.2307L93.4385 49.1852M28.6386 50.3148L8.16623 40.0422C6.77488 39.3441 6.67935 37.3941 7.99579 36.5633L58.6122 4.6192C59.219 4.23627 59.9843 4.20771 60.618 4.54435L113.936 32.8719C115.296 33.5949 115.363 35.5204 114.055 36.3354L93.4385 49.1852M28.6386 50.3148L8.00699 63.1322C6.68516 63.9534 6.76627 65.9031 8.15173 66.6117L28.6386 77.0892M93.4385 49.1852L113.92 59.9867C115.285 60.7067 115.355 62.6366 114.045 63.4531L90.2667 78.2731M28.6386 77.0892L62.5252 94.4197C63.1505 94.7395 63.8977 94.7079 64.4938 94.3364L90.2667 78.2731M28.6386 77.0892L7.4093 94.1311C6.27836 95.0389 6.45944 96.811 7.75064 97.4714L62.5342 125.489C63.1546 125.806 63.8955 125.778 64.4897 125.414L114.09 95.0238C115.393 94.2255 115.355 92.3199 114.022 91.5734L90.2667 78.2731" stroke="#2C5DE4" stroke-width="4"/>
</svg>
