<svg width="130" height="130" viewBox="0 0 130 130" fill="none" xmlns="http://www.w3.org/2000/svg">
<path opacity="0.1" d="M58.5802 24.2231C52.3172 27.3496 47.4176 32.916 44.8904 39.7752C44.6042 39.7012 44.5258 39.6253 44.0072 39.5514C37.7371 39.1725 31.6553 42.203 27.9189 47.691C24.1174 53.2746 23.3431 60.5262 25.7774 66.8358C26.7649 66.3637 27.8555 66.0806 29.0199 66.0806H94.0538C98.3584 66.0806 101.806 69.681 101.806 74.0337V79.109H102.091C108.971 79.109 114.995 74.1865 116.775 67.1062C118.556 60.0258 115.653 52.5526 109.695 48.8875C105.702 46.432 101.007 46.1056 96.8789 47.7097C96.2415 40.145 92.8249 33.1561 87.3723 28.2634C82.4921 23.8999 76.3213 21.5131 69.9501 21.5254C66.0206 21.5327 62.1416 22.4541 58.5802 24.2231ZM70.8816 37.4318C71.7191 37.457 72.385 38.1622 72.3849 39.023V45.3818H78.5764C80.6433 45.3818 80.6433 48.5675 78.5764 48.5675H72.3849V54.9263C72.4317 57.0961 69.2402 57.0961 69.2876 54.9263V48.5675H63.0991C61.0322 48.5675 61.0322 45.3818 63.0991 45.3818H69.2876V39.023C69.2874 38.1258 70.0088 37.4057 70.8816 37.4318ZM29.0229 69.2631C26.449 69.2631 24.377 71.3922 24.377 74.0368V86.7669C24.377 89.4115 26.449 91.5407 29.0229 91.5407H47.6066V69.2631H29.0229ZM50.7039 69.2631V91.5407H94.0568C96.6306 91.5407 98.7027 89.4115 98.7027 86.7669V74.0368C98.7027 71.3922 96.6306 69.2631 94.0568 69.2631H50.7039ZM36.7692 75.6312C39.3167 75.6312 41.412 77.7811 41.412 80.3988C41.412 83.0164 39.3167 85.1818 36.7692 85.1818C34.2216 85.1818 32.1171 83.0164 32.1171 80.3988C32.1171 77.7811 34.2216 75.6312 36.7692 75.6312ZM55.3498 78.8106H89.4169C91.4364 78.8569 91.4364 81.9471 89.4169 81.9931H55.3498C53.3303 81.9468 53.3303 78.8567 55.3498 78.8106ZM36.7692 78.8138C35.8955 78.8138 35.2144 79.5012 35.2144 80.3988C35.2144 81.2965 35.8955 81.9963 36.7692 81.9963C37.6428 81.9963 38.3117 81.2965 38.3117 80.3988C38.3117 79.5012 37.6428 78.8138 36.7692 78.8138ZM29.0229 94.7232C26.449 94.7232 24.377 96.8523 24.377 99.4969V112.227C24.377 114.872 26.449 117.001 29.0229 117.001H47.6066V94.7232H29.0229ZM50.7039 94.7232V117.001H94.0568C96.6306 117.001 98.7027 114.872 98.7027 112.227V99.4969C98.7027 96.8523 96.6306 94.7232 94.0568 94.7232H50.7039ZM36.7692 101.091C39.3167 101.091 41.412 103.241 41.412 105.859C41.412 108.476 39.3167 110.642 36.7692 110.642C34.2216 110.642 32.1171 108.476 32.1171 105.859C32.1171 103.241 34.2216 101.091 36.7692 101.091ZM55.3498 104.271H89.4169C91.4364 104.317 91.4364 107.407 89.4169 107.453H55.3498C53.3303 107.407 53.3303 104.317 55.3498 104.271ZM36.7692 104.274C35.8955 104.274 35.2144 104.961 35.2144 105.859C35.2144 106.757 35.8955 107.456 36.7692 107.456C37.6428 107.456 38.3117 106.757 38.3117 105.859C38.3117 104.961 37.6428 104.274 36.7692 104.274Z" fill="#2C5DE4"/>
<path d="M84.9016 36.0166H56.7705V59.033H84.9016V36.0166Z" fill="#E1E6F4"/>
<path d="M96.8356 76.9355H52.5078V85.4601H96.8356V76.9355Z" fill="#E1E6F4"/>
<path d="M96.8356 101.656H52.5078V110.181H96.8356V101.656Z" fill="#E1E6F4"/>
<path opacity="0.1" d="M93.5737 63H32C27.5817 63 24 66.5817 24 71V108.705C24 113.123 27.5817 116.705 32 116.705H93.5737C97.992 116.705 101.574 113.123 101.574 108.705V71C101.574 66.5817 97.992 63 93.5737 63Z" fill="#E1E6F4"/>
<path d="M48.2972 13.9629L48.3008 13.9611C52.1358 12.0221 56.3219 11.008 60.5692 11.0001M48.2972 13.9629L60.5692 11.0001M48.2972 13.9629C42.0342 17.1452 37.0757 22.6126 34.2464 29.3272C27.4076 29.0879 20.8884 32.5275 16.8795 38.5209C12.7093 44.7555 11.8726 52.8169 14.5303 59.8284L15.1298 61.4098C13.8093 62.6754 13 64.4833 13 66.4492V79.4065C13 82.3508 14.8154 84.9407 17.4443 85.8852C14.8154 86.8297 13 89.4196 13 92.3639V105.321C13 109.032 15.8839 112.18 19.6459 112.18H38.2296H39.3269H40.2296H41.3269H84.6798C88.4418 112.18 91.3258 109.032 91.3258 105.321V92.3639C91.3258 89.4196 89.5104 86.8297 86.8814 85.8852C89.5104 84.9407 91.3258 82.3508 91.3258 79.4065V73.6118H92.4291H92.7135C100.612 73.6118 107.363 67.875 109.34 59.8745C111.312 51.8931 108.125 43.379 101.379 39.1556C97.6052 36.793 93.2634 36.1296 89.2024 37.0413C88.0663 29.8071 84.6006 23.1826 79.3442 18.3816L79.3415 18.3792M48.2972 13.9629L79.3415 18.3792M60.5692 11.0001C67.4589 10.9865 74.1067 13.6151 79.3415 18.3792M60.5692 11.0001C56 13.5 79.3415 18.3792 79.3415 18.3792" stroke="#2C5DE4" stroke-width="4"/>
<path d="M25.5551 76.9813C27.9177 76.9813 29.8329 75.0661 29.8329 72.7036C29.8329 70.341 27.9177 68.4258 25.5551 68.4258C23.1926 68.4258 21.2773 70.341 21.2773 72.7036C21.2773 75.0661 23.1926 76.9813 25.5551 76.9813Z" stroke="#2C5DE4" stroke-width="3"/>
<path d="M25.5551 102.981C27.9177 102.981 29.8329 101.066 29.8329 98.7036C29.8329 96.341 27.9177 94.4258 25.5551 94.4258C23.1926 94.4258 21.2773 96.341 21.2773 98.7036C21.2773 101.066 23.1926 102.981 25.5551 102.981Z" stroke="#2C5DE4" stroke-width="3"/>
<path d="M42.8887 73.1299H77.5554" stroke="#2C5DE4" stroke-width="3"/>
<path d="M42.8887 99.1299H77.5554" stroke="#2C5DE4" stroke-width="3"/>
<path d="M60.5 23V47" stroke="#2C5DE4" stroke-width="3"/>
<path d="M48 34.5H72" stroke="#2C5DE4" stroke-width="3"/>
</svg>
