<svg width="130" height="130" viewBox="0 0 130 130" fill="none" xmlns="http://www.w3.org/2000/svg">
<g clip-path="url(#clip0_931_49)">
<path d="M109.34 84.726C105.825 84.726 102.648 86.0808 100.185 88.2414L80.9785 73.4461C82.9161 70.1057 84.1076 66.2724 84.1076 62.1325C84.1076 58.1551 82.9937 54.4698 81.1948 51.2201L94.3613 41.4919C96.8501 43.7639 100.118 45.1873 103.733 45.1873C111.462 45.1873 117.751 38.8522 117.751 31.0664C117.751 23.2806 111.462 16.9452 103.733 16.9452C96.0038 16.9452 89.7149 23.2803 89.7149 31.0661C89.7149 33.1705 90.2054 35.1507 91.0283 36.9466L77.9167 46.6345C73.8262 42.2876 68.0798 39.539 61.679 39.539C59.8922 39.539 58.1761 39.8048 56.5092 40.2044L53.2803 31.5273C58.2773 28.5863 61.679 23.1845 61.679 16.9455C61.679 7.60126 54.1335 0.000277042 44.8575 0.000277042C35.5814 0.000277042 28.0359 7.60126 28.0359 16.9455C28.0359 26.2897 35.5814 33.8907 44.8575 33.8907C45.9509 33.8907 47.0145 33.7673 48.0504 33.5655L51.2772 42.237C45.3264 45.4094 40.9362 51.1234 39.6651 57.9989L27.8338 57.2994C26.855 50.47 21.0642 45.1873 14.0178 45.1873C6.28888 45.1873 0 51.5224 0 59.3082C0 67.094 6.28888 73.4291 14.0178 73.4291C20.4939 73.4291 25.9057 68.9588 27.5074 62.9366L39.4015 63.6398C39.7868 69.3893 42.2375 74.5602 46.1114 78.3371L35.7 92.322C33.391 91.1189 30.8104 90.3741 28.0359 90.3741C18.7599 90.3741 11.2144 97.975 11.2144 107.319C11.2144 116.663 18.7599 124.264 28.0359 124.264C37.312 124.264 44.8575 116.663 44.8575 107.319C44.8575 102.805 43.0699 98.723 40.2042 95.6829L50.6328 81.6751C53.9077 83.5616 57.6442 84.7257 61.679 84.7257C67.92 84.7257 73.5628 82.1347 77.6326 77.9765L96.7694 92.7181C95.8708 94.5794 95.322 96.6417 95.322 98.8467C95.322 106.632 101.611 112.968 109.34 112.968C117.069 112.968 123.358 106.632 123.358 98.8467C123.358 91.0609 117.069 84.726 109.34 84.726ZM103.733 22.5935C108.371 22.5935 112.144 26.394 112.144 31.0661C112.144 35.7382 108.371 39.5387 103.733 39.5387C99.0947 39.5387 95.322 35.7382 95.322 31.0661C95.322 26.394 99.0947 22.5935 103.733 22.5935ZM14.0178 67.7808C9.37983 67.7808 5.60708 63.9803 5.60708 59.3082C5.60708 54.6361 9.37983 50.8356 14.0178 50.8356C18.6558 50.8356 22.4286 54.6361 22.4286 59.3082C22.4286 63.9803 18.6558 67.7808 14.0178 67.7808ZM28.0359 118.616C21.8509 118.616 16.8215 113.55 16.8215 107.32C16.8215 101.089 21.8509 96.0226 28.0359 96.0226C34.221 96.0226 39.2504 101.089 39.2504 107.32C39.2504 113.55 34.2207 118.616 28.0359 118.616ZM44.8575 28.2421C38.6724 28.2421 33.643 23.1755 33.643 16.9452C33.643 10.7149 38.6724 5.64832 44.8575 5.64832C51.0425 5.64832 56.0716 10.7149 56.0716 16.9452C56.0716 23.1755 51.0423 28.2421 44.8575 28.2421ZM61.679 79.0777C52.403 79.0777 44.8575 71.4767 44.8575 62.1325C44.8575 52.7883 52.403 45.1873 61.679 45.1873C70.955 45.1873 78.5005 52.7883 78.5005 62.1325C78.5005 71.4767 70.9547 79.0777 61.679 79.0777ZM109.34 107.32C104.702 107.32 100.929 103.519 100.929 98.8469C100.929 94.1748 104.702 90.3743 109.34 90.3743C113.978 90.3743 117.751 94.1748 117.751 98.8469C117.751 103.519 113.978 107.32 109.34 107.32Z" fill="#2C5DE4"/>
<path d="M109.34 84.726C105.825 84.726 102.648 86.0808 100.185 88.2414L80.9785 73.4461C82.9161 70.1057 84.1076 66.2724 84.1076 62.1325C84.1076 58.1551 82.9937 54.4698 81.1948 51.2201L94.3613 41.4919C96.8501 43.7639 100.118 45.1873 103.733 45.1873C111.462 45.1873 117.751 38.8522 117.751 31.0664C117.751 23.2806 111.462 16.9452 103.733 16.9452C96.0038 16.9452 89.7149 23.2803 89.7149 31.0661C89.7149 33.1705 90.2054 35.1507 91.0283 36.9466L77.9167 46.6345C73.8262 42.2876 68.0798 39.539 61.679 39.539C59.8922 39.539 58.1761 39.8048 56.5092 40.2044L53.2803 31.5273C58.2773 28.5863 61.679 23.1845 61.679 16.9455C61.679 7.60126 54.1335 0.000277042 44.8575 0.000277042C35.5814 0.000277042 28.0359 7.60126 28.0359 16.9455C28.0359 26.2897 35.5814 33.8907 44.8575 33.8907C45.9509 33.8907 47.0145 33.7673 48.0504 33.5655L51.2772 42.237C45.3264 45.4094 40.9362 51.1234 39.6651 57.9989L27.8338 57.2994C26.855 50.47 21.0642 45.1873 14.0178 45.1873C6.28888 45.1873 0 51.5224 0 59.3082C0 67.094 6.28888 73.4291 14.0178 73.4291C20.4939 73.4291 25.9057 68.9588 27.5074 62.9366L39.4015 63.6398C39.7868 69.3893 42.2375 74.5602 46.1114 78.3371L35.7 92.322C33.391 91.1189 30.8104 90.3741 28.0359 90.3741C18.7599 90.3741 11.2144 97.975 11.2144 107.319C11.2144 116.663 18.7599 124.264 28.0359 124.264C37.312 124.264 44.8575 116.663 44.8575 107.319C44.8575 102.805 43.0699 98.723 40.2042 95.6829L50.6328 81.6751C53.9077 83.5616 57.6442 84.7257 61.679 84.7257C67.92 84.7257 73.5628 82.1347 77.6326 77.9765L96.7694 92.7181C95.8708 94.5794 95.322 96.6417 95.322 98.8467C95.322 106.632 101.611 112.968 109.34 112.968C117.069 112.968 123.358 106.632 123.358 98.8467C123.358 91.0609 117.069 84.726 109.34 84.726ZM103.733 22.5935C108.371 22.5935 112.144 26.394 112.144 31.0661C112.144 35.7382 108.371 39.5387 103.733 39.5387C99.0947 39.5387 95.322 35.7382 95.322 31.0661C95.322 26.394 99.0947 22.5935 103.733 22.5935ZM14.0178 67.7808C9.37983 67.7808 5.60708 63.9803 5.60708 59.3082C5.60708 54.6361 9.37983 50.8356 14.0178 50.8356C18.6558 50.8356 22.4286 54.6361 22.4286 59.3082C22.4286 63.9803 18.6558 67.7808 14.0178 67.7808ZM28.0359 118.616C21.8509 118.616 16.8215 113.55 16.8215 107.32C16.8215 101.089 21.8509 96.0226 28.0359 96.0226C34.221 96.0226 39.2504 101.089 39.2504 107.32C39.2504 113.55 34.2207 118.616 28.0359 118.616ZM44.8575 28.2421C38.6724 28.2421 33.643 23.1755 33.643 16.9452C33.643 10.7149 38.6724 5.64832 44.8575 5.64832C51.0425 5.64832 56.0716 10.7149 56.0716 16.9452C56.0716 23.1755 51.0423 28.2421 44.8575 28.2421ZM61.679 79.0777C52.403 79.0777 44.8575 71.4767 44.8575 62.1325C44.8575 52.7883 52.403 45.1873 61.679 45.1873C70.955 45.1873 78.5005 52.7883 78.5005 62.1325C78.5005 71.4767 70.9547 79.0777 61.679 79.0777ZM109.34 107.32C104.702 107.32 100.929 103.519 100.929 98.8469C100.929 94.1748 104.702 90.3743 109.34 90.3743C113.978 90.3743 117.751 94.1748 117.751 98.8469C117.751 103.519 113.978 107.32 109.34 107.32Z" fill="#2C5DE4"/>
</g>
<g opacity="0.1" clip-path="url(#clip1_931_49)">
<path d="M115.982 90.4613C112.468 90.4613 109.29 91.8161 106.827 93.9766L87.6211 79.1814C89.5587 75.841 90.7501 72.0077 90.7501 67.8678C90.7501 63.8904 89.6362 60.2051 87.8374 56.9553L101.004 47.2272C103.493 49.4992 106.76 50.9226 110.375 50.9226C118.104 50.9226 124.393 44.5875 124.393 36.8017C124.393 29.0159 118.104 22.6805 110.375 22.6805C102.646 22.6805 96.3575 29.0156 96.3575 36.8014C96.3575 38.9058 96.8479 40.886 97.6709 42.6819L84.5593 52.3698C80.4688 48.0228 74.7224 45.2743 68.3215 45.2743C66.5348 45.2743 64.8187 45.5401 63.1518 45.9396L59.9229 37.2626C64.9199 34.3216 68.3215 28.9198 68.3215 22.6808C68.3215 13.3366 60.776 5.73557 51.5 5.73557C42.224 5.73557 34.6785 13.3366 34.6785 22.6808C34.6785 32.025 42.224 39.626 51.5 39.626C52.5934 39.626 53.6571 39.5026 54.693 39.3008L57.9198 47.9723C51.9689 51.1447 47.5788 56.8587 46.3077 63.7342L34.4764 63.0347C33.4976 56.2053 27.7068 50.9226 20.6604 50.9226C12.9315 50.9226 6.64258 57.2577 6.64258 65.0435C6.64258 72.8293 12.9315 79.1644 20.6604 79.1644C27.1364 79.1644 32.5482 74.6941 34.15 68.6719L46.0441 69.3751C46.4294 75.1246 48.8801 80.2955 52.754 84.0724L42.3426 98.0573C40.0335 96.8541 37.453 96.1094 34.6785 96.1094C25.4025 96.1094 17.857 103.71 17.857 113.055C17.857 122.399 25.4025 130 34.6785 130C43.9545 130 51.5 122.399 51.5 113.055C51.5 108.541 49.7125 104.458 46.8468 101.418L57.2753 87.4104C60.5503 89.2969 64.2867 90.461 68.3215 90.461C74.5626 90.461 80.2054 87.87 84.2752 83.7118L103.412 98.4533C102.513 100.315 101.965 102.377 101.965 104.582C101.965 112.368 108.253 118.703 115.982 118.703C123.711 118.703 130 112.368 130 104.582C130 96.7962 123.711 90.4613 115.982 90.4613Z" fill="#2C5DE4"/>
</g>
<defs>
<clipPath id="clip0_931_49">
<rect width="123.358" height="124.265" fill="white"/>
</clipPath>
<clipPath id="clip1_931_49">
<rect width="123.358" height="124.265" fill="white" transform="translate(6.64258 5.73529)"/>
</clipPath>
</defs>
</svg>
