<svg width="130" height="130" viewBox="0 0 130 130" fill="none" xmlns="http://www.w3.org/2000/svg">
<g clip-path="url(#clip0_897_10)">
<mask id="mask0_897_10" style="mask-type:luminance" maskUnits="userSpaceOnUse" x="0" y="0" width="130" height="130">
<path d="M130 0H0V130H130V0Z" fill="white"/>
</mask>
<g mask="url(#mask0_897_10)">
<path opacity="0.1" d="M105.534 118.665C99.1239 124.88 92.1243 123.898 85.3864 120.955C78.256 117.945 71.7143 117.815 64.1914 120.955C54.7714 125.01 49.7997 123.833 44.1739 118.665C12.2506 85.7604 16.9606 35.6513 53.2014 33.8196C62.0326 34.2775 68.1818 38.6604 73.3497 39.0529C81.0689 37.4829 88.461 32.9692 96.7035 33.5579C106.581 34.3429 114.038 38.2679 118.945 45.3329C98.5351 57.5658 103.375 84.4521 122.085 91.975C118.356 101.788 113.515 111.535 105.469 118.73L105.534 118.665ZM72.6956 33.4271C71.7143 18.8392 83.5547 6.8025 97.1614 5.625C99.0585 22.5025 81.8539 35.0625 72.6956 33.4271Z" fill="#2C5DE4"/>
<path d="M81.027 119.182C84.7219 119.003 88.3261 117.569 91.6756 114.358C99.695 107.156 104.441 97.4757 108.024 88.0064L108.717 86.1766L106.903 85.4441C90.4658 78.8072 86.3301 55.1873 104.197 44.434L106.022 43.3352L104.81 41.5828C99.7428 34.2554 92.0499 30.2624 82.1556 29.4728L82.1477 29.4721L82.1396 29.4716C77.8182 29.1616 73.7955 30.2014 70.0749 31.4176C68.9778 31.7763 67.9209 32.1441 66.8887 32.5034C64.4078 33.367 62.069 34.1811 59.6531 34.6993C57.9491 34.5155 56.0806 33.8176 53.6469 32.9087C53.1792 32.734 52.6906 32.5515 52.1783 32.3634C49.0001 31.1964 45.2074 29.9541 40.6974 29.7192L40.5947 29.7139L40.4921 29.7191C31.3756 30.1818 24.1247 33.7143 18.9531 39.351C13.8069 44.9601 10.8304 52.5283 9.97941 60.9236C8.27951 77.6933 15.0071 98.0957 30.5631 114.197L30.603 114.239L30.6454 114.278C33.4784 116.891 36.3625 118.696 39.8971 119.188C43.3883 119.675 47.2065 118.837 51.8363 116.836C58.4834 114.053 64.1438 114.17 70.4336 116.832C73.7692 118.295 77.3621 119.359 81.027 119.182ZM57.1514 31.4751L57.2558 33.0342L58.7939 33.31C61.4834 33.7923 64.5493 33.2075 67.4967 31.9589C70.4727 30.6981 73.4857 28.6963 76.13 26.1243C81.4084 20.9901 85.4084 13.3777 84.42 4.54704L84.2029 2.60812L82.2592 2.77703C68.3309 3.98743 56.1377 16.3419 57.1514 31.4751Z" stroke="#2C5DE4" stroke-width="4"/>
</g>
</g>
<defs>
<clipPath id="clip0_897_10">
<rect width="130" height="130" fill="white"/>
</clipPath>
</defs>
</svg>
