<svg width="130" height="130" viewBox="0 0 130 130" fill="none" xmlns="http://www.w3.org/2000/svg">
<circle opacity="0.1" cx="52" cy="52" r="52" transform="matrix(-1 0 0 1 109 13)" fill="#2C5DE4"/>
<path d="M79.7129 45.1257C79.0633 45.1257 78.4127 44.8773 77.9167 44.3804C66.5693 33.0098 48.1026 33.0098 36.7552 44.3804C35.7634 45.3742 34.1556 45.3742 33.1638 44.3804C32.172 43.3877 32.172 41.7768 33.1638 40.783C46.4919 27.4278 68.179 27.4278 81.5081 40.783C82.5 41.7758 82.5 43.3867 81.5081 44.3804C81.0122 44.8773 80.3626 45.1257 79.7129 45.1257Z" fill="#2C5DE4"/>
<path d="M88.3997 36.4214C87.746 36.4214 87.0934 36.171 86.5965 35.6691L86.5658 35.6383C85.57 34.6485 85.563 33.0376 86.5509 32.0399C87.5388 31.0431 89.1465 31.0362 90.1413 32.026L90.2018 32.0856C91.1897 33.0833 91.1827 34.6942 90.1869 35.684C89.692 36.1759 89.0453 36.4214 88.3997 36.4214Z" fill="#2C5DE4"/>
<path d="M26.2715 36.4214C25.6218 36.4214 24.9722 36.1729 24.4763 35.6761C23.4845 34.6833 23.4845 33.0724 24.4763 32.0786C32.0042 24.536 41.5634 19.922 52.1203 18.7334C62.3658 17.5807 72.8236 19.8991 81.5685 25.2604C82.7636 25.9938 83.1405 27.56 82.4086 28.7585C81.6766 29.957 80.1135 30.3336 78.9174 29.6002C62.5592 19.5702 41.6487 22.0675 28.0667 35.6761C27.5718 36.1729 26.9211 36.4214 26.2715 36.4214Z" fill="#2C5DE4"/>
<path d="M57.3355 99.1099C48.5816 99.1099 39.8278 95.7719 33.1638 89.0938C32.172 88.101 32.172 86.4901 33.1638 85.4964C34.1556 84.5026 35.7634 84.5026 36.7552 85.4964C48.1026 96.867 66.5693 96.867 77.9167 85.4964C78.9086 84.5026 80.5163 84.5026 81.5081 85.4964C82.5 86.4901 82.5 88.101 81.5081 89.0938C74.8441 95.7719 66.0893 99.1099 57.3355 99.1099Z" fill="#2C5DE4"/>
<path d="M57.3655 111.435C48.2874 111.435 39.3362 108.773 31.7606 103.762C30.5913 102.988 30.2689 101.408 31.0416 100.237C31.8142 99.0642 33.3892 98.7422 34.5596 99.5153C50.8711 110.309 72.7586 108.073 86.6044 94.2007C87.5952 93.2069 89.203 93.2069 90.1948 94.2007C91.1866 95.1945 91.1866 96.8054 90.1948 97.7981C82.5786 105.429 72.4908 110.197 61.787 111.224C60.3142 111.364 58.8374 111.435 57.3655 111.435Z" fill="#2C5DE4"/>
<path d="M26.3594 98.6319C25.7147 98.6319 25.07 98.3874 24.5751 97.8975L24.468 97.7912C23.4811 96.7934 23.4881 95.1826 24.4839 94.1928C25.4797 93.204 27.0864 93.2109 28.0743 94.2087L28.1427 94.2772C29.1405 95.264 29.1514 96.8749 28.1655 97.8757C27.6696 98.3785 27.014 98.6319 26.3594 98.6319Z" fill="#2C5DE4"/>
<path d="M57.2997 74.3414C52.1253 74.3414 47.915 70.1228 47.915 64.9384C47.915 59.7539 52.1253 55.5364 57.2997 55.5364C62.474 55.5364 66.6833 59.7539 66.6833 64.9384C66.6833 70.1228 62.474 74.3414 57.2997 74.3414ZM57.2997 60.6245C54.9252 60.6245 52.9932 62.5593 52.9932 64.9384C52.9932 67.3175 54.9252 69.2533 57.2997 69.2533C59.6741 69.2533 61.6051 67.3175 61.6051 64.9384C61.6051 62.5593 59.6741 60.6245 57.2997 60.6245Z" fill="#2C5DE4"/>
<path d="M9.38461 89.8391C4.20929 89.8391 0 85.6216 0 80.4371V49.4407C0 44.2562 4.20929 40.0377 9.38461 40.0377C14.5589 40.0377 18.7682 44.2562 18.7682 49.4407V80.4371C18.7682 85.6216 14.5589 89.8391 9.38461 89.8391ZM9.38461 45.1258C7.01019 45.1258 5.07812 47.0616 5.07812 49.4407V80.4371C5.07812 82.8162 7.01019 84.751 9.38461 84.751C11.758 84.751 13.6901 82.8162 13.6901 80.4371V49.4407C13.6901 47.0616 11.758 45.1258 9.38461 45.1258Z" fill="#2C5DE4"/>
<path d="M110.776 89.8391C106.231 89.8391 102.532 86.1344 102.532 81.5799V56.7389H99.7948C95.2503 56.7389 91.5518 53.0331 91.5518 48.4797C91.5518 43.9253 95.2503 40.2206 99.7948 40.2206H121.757C126.302 40.2206 130 43.9253 130 48.4797C130 53.0331 126.302 56.7389 121.757 56.7389H119.019V81.5799C119.019 86.1344 115.321 89.8391 110.776 89.8391ZM99.7948 45.3086C98.0502 45.3086 96.6299 46.7307 96.6299 48.4797C96.6299 50.2287 98.0502 51.6508 99.7948 51.6508H105.071C106.474 51.6508 107.61 52.7897 107.61 54.1948V81.5799C107.61 83.329 109.031 84.751 110.776 84.751C112.521 84.751 113.941 83.329 113.941 81.5799V54.1948C113.941 52.7897 115.078 51.6508 116.48 51.6508H121.757C123.502 51.6508 124.922 50.2277 124.922 48.4797C124.922 46.7307 123.502 45.3086 121.757 45.3086H99.7948Z" fill="#2C5DE4"/>
<path d="M57.2997 86.6859C45.3314 86.6859 35.5947 76.9301 35.5947 64.9384C35.5947 52.9476 45.3314 43.1909 57.2997 43.1909C69.2681 43.1909 79.0048 52.9476 79.0048 64.9384C79.0048 76.9301 69.2681 86.6859 57.2997 86.6859ZM57.2997 48.279C48.1313 48.279 40.6729 55.752 40.6729 64.9384C40.6729 74.1247 48.1313 81.5978 57.2997 81.5978C66.4671 81.5978 73.9266 74.1247 73.9266 64.9384C73.9266 55.752 66.4671 48.279 57.2997 48.279Z" fill="#2C5DE4"/>
</svg>
