<svg width="130" height="130" viewBox="0 0 130 130" fill="none" xmlns="http://www.w3.org/2000/svg">
<g clip-path="url(#clip0_899_71)">
<path opacity="0.1" d="M129.933 38.4037C129.977 38.5616 129.999 38.7243 130 38.8877V64.2968C130 64.6229 129.911 64.9433 129.742 65.2254C129.572 65.5077 129.329 65.7417 129.037 65.9039L106.966 78.1823V102.519C106.966 103.182 106.602 103.793 106.008 104.127L59.9382 129.753C59.8328 129.811 59.7178 129.848 59.6028 129.887C59.5596 129.902 59.5189 129.927 59.4733 129.938C59.1513 130.021 58.8128 130.021 58.4907 129.938C58.438 129.924 58.39 129.897 58.3397 129.878C58.2343 129.841 58.1241 129.808 58.0234 129.753L11.9634 104.127C11.6708 103.964 11.4277 103.73 11.2586 103.447C11.0894 103.165 11.0002 102.845 11 102.519V26.2921C11 26.1253 11.024 25.9632 11.0671 25.8057C11.0815 25.7525 11.115 25.7038 11.1342 25.6506C11.1702 25.5533 11.2037 25.4537 11.2564 25.3634C11.2924 25.3032 11.3451 25.2546 11.3882 25.199C11.4434 25.1249 11.4937 25.0485 11.5584 24.9836C11.6135 24.9304 11.6854 24.891 11.7477 24.8447C11.8172 24.7891 11.8795 24.7289 11.9586 24.6849L34.9922 11.8715C35.2838 11.7094 35.6144 11.624 35.9509 11.624C36.2873 11.624 36.6179 11.7094 36.9095 11.8715L59.9407 24.6849H59.9454C60.0221 24.7312 60.0868 24.7891 60.1563 24.8423C60.2187 24.8886 60.2882 24.9304 60.3432 24.9813C60.4104 25.0485 60.4583 25.1249 60.5158 25.199C60.5566 25.2546 60.6117 25.3032 60.6453 25.3634C60.7004 25.4561 60.7315 25.5533 60.7698 25.6506C60.7891 25.7038 60.8226 25.7525 60.837 25.808C60.8811 25.9659 60.9036 26.1286 60.9041 26.2921V73.9028L80.096 63.2245V38.8854C80.096 38.7233 80.1202 38.5589 80.1632 38.4037C80.18 38.3482 80.2109 38.2995 80.2304 38.2462C80.2688 38.149 80.3017 38.0494 80.3548 37.9591C80.3904 37.8989 80.4436 37.8503 80.4839 37.7946C80.5417 37.7206 80.5895 37.6441 80.6567 37.5793C80.7118 37.526 80.7811 37.4867 80.8436 37.4404C80.9155 37.3848 80.9781 37.3246 81.0547 37.2806L104.09 24.4672C104.382 24.3048 104.713 24.2193 105.049 24.2193C105.386 24.2193 105.716 24.3048 106.008 24.4672L129.039 37.2806C129.121 37.3269 129.182 37.3848 129.254 37.438C129.314 37.4843 129.384 37.526 129.439 37.577C129.507 37.6441 129.554 37.7206 129.612 37.7946C129.655 37.8503 129.708 37.8989 129.741 37.9591C129.796 38.0494 129.827 38.149 129.866 38.2462C129.887 38.2995 129.919 38.3482 129.933 38.4037Z" fill="#2C5DE4"/>
<path d="M119.933 28.7797C119.977 28.9375 119.999 29.1002 120 29.2637V54.6728C120 54.9989 119.911 55.3192 119.742 55.6014C119.572 55.8836 119.329 56.1177 119.037 56.2799L96.9664 68.5582V92.8951C96.9664 93.5575 96.602 94.1688 96.0077 94.5026L49.9382 120.129C49.8328 120.187 49.7178 120.224 49.6028 120.263C49.5596 120.277 49.5189 120.303 49.4733 120.314C49.1513 120.396 48.8128 120.396 48.4907 120.314C48.438 120.3 48.39 120.273 48.3397 120.254C48.2343 120.217 48.1241 120.184 48.0234 120.129L1.96343 94.5026C1.67082 94.3396 1.4277 94.1061 1.25855 93.8234C1.08941 93.5414 1.00023 93.2212 1 92.8951V16.6681C1 16.5013 1.02397 16.3392 1.0671 16.1817C1.08148 16.1284 1.11504 16.0798 1.13421 16.0266C1.17016 15.9293 1.20371 15.8297 1.25643 15.7394C1.29238 15.6792 1.34511 15.6306 1.38825 15.575C1.44337 15.5009 1.4937 15.4245 1.5584 15.3596C1.61353 15.3063 1.68542 15.267 1.74774 15.2206C1.81723 15.1651 1.87954 15.1048 1.95864 15.0609L24.9922 2.24749C25.2838 2.08534 25.6144 2 25.9509 2C26.2873 2 26.6179 2.08534 26.9095 2.24749L49.9407 15.0609H49.9454C50.0221 15.1072 50.0868 15.1651 50.1563 15.2183C50.2187 15.2646 50.2882 15.3063 50.3432 15.3573C50.4104 15.4245 50.4583 15.5009 50.5158 15.575C50.5566 15.6306 50.6117 15.6792 50.6453 15.7394C50.7004 15.8321 50.7315 15.9293 50.7698 16.0266C50.7891 16.0798 50.8226 16.1284 50.837 16.184C50.8811 16.3418 50.9036 16.5045 50.9041 16.6681V64.2787L70.096 53.6005V29.2614C70.096 29.0993 70.1202 28.9349 70.1632 28.7797C70.18 28.7241 70.2109 28.6755 70.2304 28.6222C70.2688 28.525 70.3017 28.4254 70.3548 28.3351C70.3904 28.2748 70.4436 28.2263 70.4839 28.1706C70.5417 28.0966 70.5895 28.0201 70.6567 27.9553C70.7118 27.902 70.7811 27.8627 70.8436 27.8163C70.9155 27.7608 70.9781 27.7006 71.0547 27.6566L94.0903 14.8432C94.3821 14.6808 94.7128 14.5953 95.049 14.5953C95.3858 14.5953 95.7159 14.6808 96.0077 14.8432L119.039 27.6566C119.121 27.7029 119.182 27.7608 119.254 27.814C119.314 27.8603 119.384 27.902 119.439 27.953C119.507 28.0201 119.554 28.0966 119.612 28.1706C119.655 28.2263 119.708 28.2748 119.741 28.3351C119.796 28.4254 119.827 28.525 119.866 28.6222C119.887 28.6755 119.919 28.7241 119.933 28.7797ZM116.16 53.6005V32.4711L108.101 36.9545L96.9664 43.1493V64.2787L116.163 53.6005H116.16ZM93.1295 91.8226V70.6793L82.1768 76.7236L50.9017 93.9722V115.315L93.1295 91.8226ZM4.83933 19.8754V91.8226L47.0623 115.312V93.9741L25.0042 81.9114L24.997 81.9069L24.9874 81.9017C24.9131 81.8603 24.8508 81.8002 24.7813 81.7491C24.7214 81.7031 24.6519 81.6656 24.5992 81.6152L24.5944 81.608C24.5321 81.5498 24.4889 81.478 24.4362 81.4133C24.3883 81.3506 24.3307 81.2976 24.2924 81.2329L24.29 81.2257C24.2469 81.1565 24.2205 81.0731 24.1893 80.9942C24.1582 80.925 24.1175 80.8596 24.0983 80.7859C24.0743 80.6979 24.0695 80.6028 24.0599 80.5123C24.0504 80.443 24.0312 80.3738 24.0312 80.304V30.5536L12.8991 24.3565L4.83933 19.8754ZM25.9532 5.99447L6.76379 16.6681L25.9485 27.3416L45.1355 16.6657L25.9485 5.99447H25.9532ZM35.9326 72.6063L47.0648 66.4139V19.8754L39.005 24.3588L27.8705 30.5536V77.0923L35.9326 72.6063ZM95.049 18.5901L75.8624 29.2637L95.049 39.9372L114.234 29.2614L95.049 18.5901ZM93.1295 43.1493L81.9953 36.9545L73.9356 32.4711V53.6005L85.0671 59.793L93.1295 64.2787V43.1493ZM48.9796 90.7644L77.123 75.2397L91.1906 67.4812L72.0181 56.8149L49.943 69.0958L29.8237 80.2878L48.9796 90.7644Z" fill="#2C5DE4"/>
</g>
<defs>
<clipPath id="clip0_899_71">
<rect width="130" height="130" fill="white"/>
</clipPath>
</defs>
</svg>
