<svg width="130" height="130" viewBox="0 0 130 130" fill="none" xmlns="http://www.w3.org/2000/svg">
<g clip-path="url(#clip0_1175_16)">
<path d="M0.949219 21.0182L10.4857 103.573L61.6791 129.858L112.967 103.62L122.409 20.9234C122.409 20.9234 90.431 0 61.7266 0C33.0222 0 0.949219 21.0182 0.949219 21.0182Z" fill="#2C5DE4"/>
<path d="M4.88672 23.438L13.8064 99.1131L61.7261 123.215L109.693 99.1606L118.518 23.3905C118.518 23.3905 88.5802 4.22263 61.7261 4.22263C34.8721 4.22263 4.88672 23.438 4.88672 23.438Z" fill="white"/>
<path opacity="0.1" d="M21.3506 36.5328L29.7958 107.511L75.0586 130.095L120.369 107.558L128.672 36.4854C128.672 36.4854 100.394 18.5036 75.0112 18.5036C49.628 18.5036 21.3506 36.5328 21.3506 36.5328Z" fill="#2C5DE4"/>
<path d="M28.2305 95.2226V25.0986L44.9786 25.0037L61.6794 69.0803L79.756 25.2409L96.267 25.0986V95.2226H82.6502L83.3619 45.9745L61.6794 95.2226L40.756 46.0694L41.8473 95.2226H28.2305Z" fill="#2C5DE4"/>
</g>
<defs>
<clipPath id="clip0_1175_16">
<rect width="130" height="130" fill="white"/>
</clipPath>
</defs>
</svg>
