<svg width="130" height="130" viewBox="0 0 130 130" fill="none" xmlns="http://www.w3.org/2000/svg">
<path opacity="0.1" d="M128 68.5C128 100.809 101.809 127 69.5002 127C37.1913 127 11 100.809 11 68.5C11 36.1914 37.1913 10 69.5002 10C101.809 10 128 36.1914 128 68.5Z" fill="#2C5DE4"/>
<path d="M60.6938 3C28.2783 3 2 29.2783 2 61.6938C2 94.1092 28.2783 120.388 60.6938 120.388C93.1092 120.388 119.388 94.1092 119.388 61.6938C119.388 29.2783 93.1092 3 60.6938 3ZM60.6938 5.3505C68.301 5.3505 75.6795 6.83986 82.6246 9.77729C89.3336 12.6148 95.3593 16.6779 100.534 21.8531C105.71 27.0282 109.773 33.054 112.61 39.7629C115.548 46.708 117.037 54.0865 117.037 61.6938C117.037 69.301 115.548 76.6795 112.61 83.6241C109.773 90.3336 105.71 96.3593 100.534 101.534C95.3593 106.71 89.3336 110.773 82.6246 113.61C75.6795 116.548 68.301 118.037 60.6938 118.037C53.0865 118.037 45.708 116.548 38.7629 113.61C32.054 110.773 26.0282 106.71 20.8531 101.534C15.6779 96.3593 11.6148 90.3336 8.77729 83.6241C5.83986 76.6795 4.3505 69.301 4.3505 61.6938C4.3505 54.0865 5.83986 46.708 8.77729 39.7629C11.6148 33.054 15.6779 27.0282 20.8531 21.8531C26.0282 16.6779 32.054 12.6148 38.7629 9.77729C45.708 6.83986 53.0865 5.3505 60.6938 5.3505ZM46.3656 82.4273V36.4949H54.1026L60.6644 57.6489L67.3853 36.4944H74.7679V82.4273H69.4304V44.3296L63.8596 62.4481H57.616L51.9484 44.3296V82.4273H46.3656Z" fill="#2C5DE4"/>
<circle cx="60.5" cy="61.5" r="56" stroke="#2C5DE4" stroke-width="3"/>
</svg>
