<svg width="130" height="130" viewBox="0 0 130 130" fill="none" xmlns="http://www.w3.org/2000/svg">
<g clip-path="url(#clip0_1252_186)">
<mask id="mask0_1252_186" style="mask-type:luminance" maskUnits="userSpaceOnUse" x="0" y="0" width="130" height="130">
<path d="M130 0H0V130H130V0Z" fill="white"/>
</mask>
<g mask="url(#mask0_1252_186)">
<path opacity="0.1" d="M98.8106 16.2256H53.0527C49.739 16.2256 47.0527 18.9119 47.0527 22.2256V114.017C47.0527 117.33 49.739 120.017 53.0527 120.017H98.8106C102.124 120.017 104.811 117.33 104.811 114.017V22.2256C104.811 18.9119 102.124 16.2256 98.8106 16.2256Z" fill="#2C5DE4"/>
<mask id="mask1_1252_186" style="mask-type:luminance" maskUnits="userSpaceOnUse" x="10" y="10" width="112" height="132">
<path d="M121.157 10H10V141.814H121.157V10Z" fill="white"/>
</mask>
<g mask="url(#mask1_1252_186)">
<path d="M67.9636 17H61.8443C61.3415 17.0326 60.8728 17.2108 60.5312 17.4991C60.1896 17.7875 60 18.165 60 18.5569C60 18.9487 60.1896 19.3262 60.5312 19.6146C60.8728 19.9029 61.3415 20.0811 61.8443 20.1137H67.9636C68.4664 20.0811 68.9351 19.9029 69.2767 19.6146C69.6183 19.3262 69.8079 18.9487 69.8079 18.5569C69.8079 18.165 69.6183 17.7875 69.2767 17.4991C68.9351 17.2108 68.4664 17.0326 67.9636 17Z" fill="#2C5DE4"/>
<path d="M64.211 108.596H66.7653C67.0188 108.614 67.2739 108.587 67.5146 108.517C67.7552 108.447 67.9763 108.336 68.1635 108.19C68.3507 108.044 68.5001 107.867 68.6023 107.67C68.7046 107.473 68.7574 107.26 68.7574 107.044C68.7574 106.829 68.7046 106.616 68.6023 106.419C68.5001 106.221 68.3507 106.044 68.1635 105.898C67.9763 105.753 67.7552 105.641 67.5146 105.571C67.2739 105.502 67.0188 105.475 66.7653 105.493H64.211C63.9575 105.475 63.7023 105.502 63.4617 105.571C63.221 105.641 63 105.753 62.8128 105.898C62.6256 106.044 62.476 106.221 62.3738 106.419C62.2715 106.616 62.2188 106.829 62.2188 107.044C62.2188 107.26 62.2715 107.473 62.3738 107.67C62.476 107.867 62.6256 108.044 62.8128 108.19C63 108.336 63.221 108.447 63.4617 108.517C63.7023 108.587 63.9575 108.614 64.211 108.596Z" fill="#2C5DE4"/>
<mask id="mask2_1252_186" style="mask-type:luminance" maskUnits="userSpaceOnUse" x="45" y="63" width="10" height="10">
<path d="M54 63H46C45.4477 63 45 63.4477 45 64V72C45 72.5523 45.4477 73 46 73H54C54.5523 73 55 72.5523 55 72V64C55 63.4477 54.5523 63 54 63Z" fill="white"/>
</mask>
<g mask="url(#mask2_1252_186)">
<path d="M54 63H46C45.4477 63 45 63.4477 45 64V72C45 72.5523 45.4477 73 46 73H54C54.5523 73 55 72.5523 55 72V64C55 63.4477 54.5523 63 54 63Z" stroke="#2C5DE4" stroke-width="4"/>
</g>
<mask id="mask3_1252_186" style="mask-type:luminance" maskUnits="userSpaceOnUse" x="58" y="63" width="10" height="10">
<path d="M67 63H59C58.4477 63 58 63.4477 58 64V72C58 72.5523 58.4477 73 59 73H67C67.5523 73 68 72.5523 68 72V64C68 63.4477 67.5523 63 67 63Z" fill="white"/>
</mask>
<g mask="url(#mask3_1252_186)">
<path d="M67 63H59C58.4477 63 58 63.4477 58 64V72C58 72.5523 58.4477 73 59 73H67C67.5523 73 68 72.5523 68 72V64C68 63.4477 67.5523 63 67 63Z" stroke="#2C5DE4" stroke-width="4"/>
</g>
<mask id="mask4_1252_186" style="mask-type:luminance" maskUnits="userSpaceOnUse" x="71" y="63" width="10" height="10">
<path d="M80 63H72C71.4477 63 71 63.4477 71 64V72C71 72.5523 71.4477 73 72 73H80C80.5523 73 81 72.5523 81 72V64C81 63.4477 80.5523 63 80 63Z" fill="white"/>
</mask>
<g mask="url(#mask4_1252_186)">
<path d="M80 63H72C71.4477 63 71 63.4477 71 64V72C71 72.5523 71.4477 73 72 73H80C80.5523 73 81 72.5523 81 72V64C81 63.4477 80.5523 63 80 63Z" stroke="#2C5DE4" stroke-width="4"/>
</g>
<mask id="mask5_1252_186" style="mask-type:luminance" maskUnits="userSpaceOnUse" x="45" y="77" width="10" height="10">
<path d="M54 77H46C45.4477 77 45 77.4477 45 78V86C45 86.5523 45.4477 87 46 87H54C54.5523 87 55 86.5523 55 86V78C55 77.4477 54.5523 77 54 77Z" fill="white"/>
</mask>
<g mask="url(#mask5_1252_186)">
<path d="M54 77H46C45.4477 77 45 77.4477 45 78V86C45 86.5523 45.4477 87 46 87H54C54.5523 87 55 86.5523 55 86V78C55 77.4477 54.5523 77 54 77Z" stroke="#2C5DE4" stroke-width="4"/>
</g>
<path d="M63 79H90" stroke="#2C5DE4" stroke-width="2"/>
<path d="M63 84H80" stroke="#2C5DE4" stroke-width="2"/>
<path d="M89 12H43C40.2386 12 38 14.2386 38 17V109C38 111.761 40.2386 114 43 114H89C91.7614 114 94 111.761 94 109V17C94 14.2386 91.7614 12 89 12Z" stroke="#2C5DE4" stroke-width="4"/>
<path d="M36 23.5H96" stroke="#2C5DE4" stroke-width="3"/>
<path d="M36 99.5H96" stroke="#2C5DE4" stroke-width="3"/>
</g>
</g>
</g>
<defs>
<clipPath id="clip0_1252_186">
<rect width="130" height="130" fill="white"/>
</clipPath>
</defs>
</svg>
