<svg width="130" height="130" viewBox="0 0 130 130" fill="none" xmlns="http://www.w3.org/2000/svg">
<path opacity="0.1" d="M40.3704 42H54.6296C55.2583 42 55.8612 42.2499 56.3058 42.6944C56.7501 43.1388 57 43.7419 57 44.3706V58.6296C57 59.2583 56.7501 59.8612 56.3058 60.3058C55.8612 60.7503 55.2583 61 54.6296 61H40.3704C39.7429 61.0002 39.1412 60.7514 38.6968 60.3084C38.2525 59.8654 38.0018 59.2643 38 58.6369V44.3706C38 43.7419 38.2497 43.1388 38.6942 42.6944C39.1388 42.2499 39.7417 42 40.3704 42Z" fill="#2C5DE4"/>
<path d="M85.2786 77.1385C85.2786 77.1385 85.1471 45.9716 85.2786 24.8111C85.4267 18.2038 85.323 13.016 76.8429 12.0017C68.7526 12.0188 43.5453 12.1002 34.3237 12.0017C25.102 11.903 22.4329 16.1535 23.096 24.8111C23.096 37.9959 23.096 98.7361 23.096 107.703C23.096 117.231 29.644 118.179 34.3237 117.977H72.8792H74.7859C74.3941 108.485 76.8673 99.097 81.8762 91.0629C77.5017 86.6344 73.6292 82.5555 68.5448 77.1406C67.7565 75.9816 67.3966 74.5786 67.5281 73.1778C67.6595 71.7771 68.2742 70.468 69.2642 69.48C70.254 68.4923 71.556 67.8891 72.9415 67.7762C74.327 67.6632 75.7074 68.0479 76.8408 68.8625C81.3911 72.9137 95 87.0914 95 87.0914" stroke="#2C5DE4" stroke-width="3" stroke-linecap="round" stroke-linejoin="round"/>
<path d="M24 27H85" stroke="#2C5DE4" stroke-width="3" stroke-linecap="round"/>
<path d="M24 102H57" stroke="#2C5DE4" stroke-width="3" stroke-linecap="round"/>
<path d="M89 55C89 55 101.711 64.8507 102.603 67.982C103.496 71.1134 102.603 118 102.603 118" stroke="#2C5DE4" stroke-width="3" stroke-linecap="round" stroke-linejoin="round"/>
<path d="M37.2456 39H50.7544C51.3499 39 51.9211 39.2367 52.3423 39.6579C52.7633 40.0789 53 40.6502 53 41.2458V54.7544C53 55.3499 52.7633 55.9211 52.3423 56.3423C51.9211 56.7635 51.3499 57 50.7544 57H37.2456C36.6512 57.0002 36.0812 56.7644 35.6602 56.3448C35.2392 55.9251 35.0017 55.3557 35 54.7612V41.2458C35 40.6502 35.2365 40.0789 35.6577 39.6579C36.0789 39.2367 36.65 39 37.2456 39Z" stroke="#2C5DE4" stroke-width="3"/>
</svg>
