<svg width="130" height="130" viewBox="0 0 130 130" fill="none" xmlns="http://www.w3.org/2000/svg">
<path opacity="0.1" fill-rule="evenodd" clip-rule="evenodd" d="M75.4348 7.5958C74.6488 7.60886 73.87 7.75737 73.129 8.03553C74.4969 8.98482 75.4786 10.445 75.8793 12.1264C75.907 12.3449 75.9673 12.5021 75.9974 12.7207C76.0314 12.907 76.0507 13.096 76.0552 13.2857C76.1732 16.0466 75.3745 16.3931 74.8144 18.0241C74.4088 19.0138 74.2347 20.0929 74.3068 21.1695C74.379 22.246 74.6953 23.2881 75.2288 24.207C75.3232 24.4498 75.442 24.6812 75.583 24.8972C74.4577 16.9581 80.6994 15.7668 81.8624 13.2857C81.9503 11.1216 80.2649 9.6772 78.9337 8.67248C77.889 7.9744 76.6793 7.60477 75.4448 7.60646L75.4348 7.5958ZM84.8388 9.38404C84.7838 9.68411 84.7644 9.9903 84.7811 10.2955C84.7509 10.546 84.7509 10.8605 84.7208 11.111C84.6661 11.3656 84.5973 11.6165 84.5148 11.8625C84.449 12.1183 84.3702 12.37 84.2787 12.6167C84.1607 12.8672 84.0702 13.0884 83.9522 13.339C83.8643 13.4642 83.804 13.5895 83.7161 13.7147L83.5377 13.9919C83.3895 14.2131 83.2439 14.4316 83.0957 14.6208C82.9322 14.8235 82.7542 15.0124 82.5632 15.1858V15.2151C82.3848 15.3724 82.2065 15.5616 82.0005 15.7188C81.3801 16.2199 80.6693 16.5956 80.0187 17.0673C79.8096 17.2064 79.6122 17.3642 79.4285 17.5391C79.2276 17.6885 79.0394 17.8561 78.8658 18.0401C78.6721 18.2248 78.4931 18.4262 78.3308 18.6424C78.1661 18.8373 78.0173 19.0468 77.8863 19.2687C77.7381 19.4899 77.5924 19.7084 77.4718 19.9296C77.3512 20.1508 77.2683 20.388 77.1503 20.6545C77.0586 20.8902 76.9798 21.1314 76.9142 21.3767C76.8238 21.6592 76.766 21.9097 76.7057 22.1762C76.6781 22.3015 76.6781 22.4587 76.6479 22.584C76.6178 22.7092 76.6178 22.8345 76.5877 22.9597C76.5877 23.2103 76.5575 23.4927 76.5575 23.7433C76.5525 23.9322 76.5625 24.1212 76.5877 24.3082C76.5887 24.5776 76.619 24.8458 76.6781 25.1078C76.7121 25.3612 76.7608 25.6122 76.8238 25.8593C76.9142 26.1258 76.972 26.363 77.0624 26.6135C77.1202 26.7707 77.2106 26.928 77.2683 27.0532L70.4665 24.2283C69.3136 23.8818 68.1883 23.57 67.0354 23.2875L65.1717 22.8158C63.3983 22.4401 61.5924 22.1576 59.7889 21.9683C59.7312 21.9683 59.701 21.9364 59.6407 21.9364C57.8674 21.7498 56.1243 21.6539 54.3459 21.6539C53.0448 21.6539 51.7437 21.7178 50.4728 21.8111C48.6693 21.9364 46.8634 22.1869 45.0599 22.5014C44.6153 22.5653 44.1733 22.6586 43.7287 22.7519C42.8119 22.9411 41.9252 23.1596 41.0662 23.3808L39.7375 23.7566C39.2929 23.9458 38.8784 24.1643 38.464 24.3536L37.4894 24.8226C37.4291 24.8546 37.3714 24.8546 37.3412 24.8866C37.0448 25.0438 36.7786 25.1691 36.5123 25.3263C36.4415 25.3515 36.3726 25.3827 36.3064 25.4196C35.9799 25.5768 35.6558 25.766 35.3896 25.9233C35.1811 26.0165 34.9751 26.1418 34.7968 26.2351C34.7113 26.2935 34.6224 26.346 34.5306 26.3923C34.2643 26.5495 33.9981 26.7068 33.762 26.864C33.5177 27.0075 33.2804 27.164 33.0511 27.3331C32.8452 27.4903 32.6392 27.6156 32.4609 27.7728C32.4307 27.8048 32.4006 27.8048 32.3729 27.8368C32.1783 27.9729 31.9905 28.1196 31.8103 28.2765L31.75 28.3378L31.308 28.7162C31.2477 28.7455 31.1899 28.8095 31.1296 28.8415C30.9814 28.9667 30.8332 29.124 30.685 29.2492C30.6574 29.3105 30.5971 29.3425 30.567 29.3745C30.3912 29.5637 30.2128 29.7183 30.0345 29.9075C30.0069 29.9075 30.0069 29.9395 29.9767 29.9714C29.7984 30.126 29.6226 30.3152 29.4442 30.5045C29.4141 30.5364 29.4141 30.5658 29.3839 30.5658C29.2357 30.723 29.0901 30.8802 28.9419 31.0694C28.8816 31.1307 28.7937 31.1947 28.7334 31.256C28.5852 31.4452 28.4094 31.6344 28.231 31.821C28.2009 31.8849 28.1431 31.9169 28.113 31.9782C27.8769 32.2287 27.6684 32.4819 27.4323 32.7324L27.3444 32.8257C26.8707 33.369 26.3675 33.8825 25.8373 34.3634C25.3132 34.8597 24.7604 35.3208 24.1821 35.7439C23.5893 36.1836 23.0292 36.5594 22.4062 36.9379C21.8031 37.2886 21.1817 37.6027 20.545 37.8786C19.9221 38.1611 19.2716 38.4116 18.621 38.6302C17.3802 38.9126 16.1092 39.4483 15.0141 39.5416C14.7656 39.5569 14.5181 39.588 14.2731 39.6349C14.0069 39.6988 13.7708 39.7601 13.5347 39.8241L12.8213 40.1092C12.5797 40.2105 12.3432 40.3253 12.113 40.453C11.9045 40.6103 11.6684 40.7355 11.4625 40.8928C11.252 41.0537 11.0539 41.232 10.8697 41.4258C10.6596 41.5978 10.4622 41.7867 10.2794 41.9908C10.1011 42.212 9.92274 42.3985 9.77705 42.6197C9.63137 42.8409 9.45052 43.0914 9.33247 43.3419C9.1763 43.5705 9.03771 43.812 8.91803 44.0642C8.79998 44.3467 8.68192 44.5972 8.5915 44.8797C8.50107 45.1622 8.41567 45.4127 8.34032 45.6952C8.27534 45.9419 8.22583 46.193 8.19213 46.4467C8.19213 46.4787 8.16199 46.5107 8.16199 46.5426C8.1017 46.8251 8.1017 47.2009 8.07407 47.3901C8.035 47.5958 8.01065 47.8042 8.00123 48.0137C7.99625 48.1504 8.00637 48.2873 8.03137 48.4215C8.05315 48.6239 8.09267 48.8238 8.14943 49.0185C8.20488 49.2119 8.27372 49.4008 8.35539 49.5835V49.6154C8.45467 49.8098 8.56367 49.9984 8.68192 50.1804C8.80062 50.3758 8.92889 50.5643 9.06622 50.7454C9.21442 50.9026 9.39024 51.0892 9.56858 51.2464C9.74147 51.4311 9.92978 51.5988 10.1312 51.7475C10.8395 52.4084 11.0179 52.6269 11.9347 53.1306C12.0829 53.2239 12.2311 53.2852 12.4094 53.3811C12.437 53.3811 12.4672 53.4131 12.4973 53.4131C12.4924 53.4667 12.5029 53.5206 12.5274 53.5677C12.5609 53.8223 12.6104 54.0743 12.6756 54.3219C12.7308 54.5809 12.8098 54.8335 12.9117 55.0761C12.9997 55.2626 13.0599 55.4519 13.1479 55.6411C13.1703 55.6967 13.1999 55.7487 13.2358 55.7957C13.3538 56.0488 13.4719 56.2674 13.5924 56.4859C13.713 56.7044 13.8863 56.9256 14.0345 57.1468C14.1827 57.368 14.361 57.5546 14.5369 57.7411C14.7127 57.9277 14.8935 58.0876 15.0995 58.2741C15.1162 58.2904 15.1373 58.3006 15.1598 58.3034C15.3294 58.4605 15.5071 58.6073 15.6923 58.7432C15.8979 58.8983 16.1155 59.0347 16.3428 59.1509C16.5593 59.2865 16.7861 59.4024 17.021 59.4974C17.2119 59.5893 17.4103 59.6625 17.6138 59.7159C17.6439 59.7479 17.6716 59.7479 17.7318 59.7799C17.8499 59.8119 17.9981 59.8412 18.1161 59.8732C18.0282 61.5681 17.9981 63.1698 18.2342 63.7348C18.5004 64.3611 19.8066 62.4502 21.1026 60.2543C20.9268 62.4183 20.8088 64.9607 21.1026 65.7123C21.3965 66.4638 23.2025 64.0493 24.7422 61.3523C45.7105 56.2061 64.8476 71.5807 66.8571 93.298C66.4728 89.9081 62.5393 88.0239 60.7359 88.501C59.8492 90.8222 58.3396 93.8044 55.9158 95.6566C56.127 93.561 56.027 91.4432 55.6194 89.3804C54.9578 92.2668 53.7077 94.9641 51.9572 97.2823C49.1466 97.5008 46.3384 96.059 44.859 93.8923C44.7409 93.7991 44.7108 93.6098 44.6229 93.4846C44.5303 93.2708 44.4506 93.0509 44.3842 92.8263C44.298 92.6163 44.2388 92.3949 44.2084 92.1681C44.1827 91.9391 44.1726 91.7084 44.1783 91.4778V91.0114C44.2134 90.7887 44.2629 90.5687 44.3265 90.3532C44.3815 90.1283 44.4503 89.9076 44.5324 89.6922C44.6405 89.4664 44.7595 89.2467 44.8891 89.034C45.3915 87.5282 45.3915 86.305 44.4747 85.5828C44.2962 85.4606 44.1079 85.3554 43.912 85.2683C43.794 85.2363 43.6458 85.175 43.5277 85.143C43.4097 85.1111 43.3795 85.0817 43.2916 85.0498C43.0862 84.9784 42.8764 84.9223 42.6637 84.8819C42.4622 84.8194 42.2532 84.788 42.0433 84.7886C41.8281 84.7514 41.6107 84.7301 41.3927 84.7246C41.2445 84.7246 41.0963 84.7566 40.9481 84.7566C40.7283 84.7555 40.5093 84.7869 40.2976 84.8499C39.8711 84.905 39.4536 85.0215 39.0568 85.1963C38.8483 85.2896 38.6725 85.3829 38.464 85.4788C38.2555 85.5748 38.1098 85.6974 37.9039 85.7906C31.0116 90.5611 35.1233 101.733 39.8254 104.966C38.0496 105.309 36.2461 105.72 35.7437 106.128L35.6835 106.189C36.9602 107.001 38.2956 107.704 39.6772 108.292C41.5711 108.95 43.5805 109.547 44.4696 109.797V109.829C46.9198 110.362 49.4253 110.552 51.9221 110.394C65.0235 109.422 75.7613 98.8466 77.7129 84.9138C77.7707 85.1963 77.831 85.4468 77.8888 85.7293C77.9792 86.2943 78.0972 86.8913 78.155 87.4856V87.5176C78.2153 87.8001 78.2454 88.0826 78.2756 88.3331V88.4583C78.3032 88.7408 78.3333 89.0233 78.3333 89.2738C78.3635 89.6203 78.3936 89.9667 78.3936 90.3105V90.8116C78.3936 90.9688 78.4212 91.158 78.4212 91.3153C78.4212 91.4725 78.3936 91.691 78.3936 91.8802V92.32C78.3936 92.5385 78.3635 92.7277 78.3635 92.9463C78.3673 93.0829 78.3572 93.2196 78.3333 93.354C78.3333 93.5752 78.3032 93.7937 78.3032 94.0443C78.2785 94.136 78.2683 94.2315 78.2731 94.3267C78.2454 94.5773 78.2153 94.7985 78.1852 95.049C78.1901 95.1443 78.1799 95.2397 78.155 95.3315C78.1249 95.6459 78.0671 95.9284 78.0369 96.2429V96.3042C77.9792 96.5867 77.9189 96.9012 77.8611 97.1837V97.2769C77.8008 97.5594 77.7406 97.8419 77.6828 98.1244C77.6828 98.1564 77.6526 98.2177 77.6526 98.2497C77.5982 98.5358 77.5294 98.8187 77.4467 99.0972V99.1904C77.3563 99.5049 77.2684 99.7874 77.1955 100.07C77.1796 100.087 77.1698 100.11 77.1679 100.134C77.0775 100.446 76.9895 100.76 76.9016 101.075C76.8137 101.389 76.6932 101.672 76.5751 101.983C76.4571 102.295 76.3691 102.612 76.2511 102.895C76.133 103.177 76.0125 103.492 75.8944 103.804H75.8668C75.7462 104.086 75.6282 104.401 75.48 104.683C75.4573 104.759 75.4278 104.832 75.3921 104.902C75.3619 104.934 75.3619 104.966 75.3343 104.998C73.3799 109.154 70.5351 112.766 67.0279 115.546C66.7917 115.703 66.5531 115.892 66.317 116.079C66.2593 116.143 66.1688 116.175 66.1111 116.236C65.9026 116.393 65.6966 116.55 65.4605 116.708L65.5484 116.897H65.5786L66.8194 116.708H66.8495C67.6181 116.582 68.3892 116.425 69.1578 116.268C69.3777 116.231 69.595 116.178 69.8084 116.111L70.2228 116.017C70.4288 115.985 70.6348 115.924 70.8432 115.892C71.0517 115.86 71.1974 115.796 71.3757 115.735C74.3067 114.977 77.1753 113.969 79.9534 112.721C75.201 119.591 68.8801 125.066 61.5848 128.631C64.9991 128.392 68.3801 127.772 71.6721 126.782C83.5539 123.074 93.5897 114.567 99.6206 103.089C98.403 110.352 95.6884 117.239 91.6708 123.258C97.0871 119.468 101.696 114.517 105.2 108.723C108.704 102.929 111.026 96.421 112.016 89.6176C113.025 94.5844 113.314 99.6852 112.873 104.744C134.233 73.1557 114.654 40.3891 106.463 31.7597C106.433 31.6957 106.402 31.6664 106.402 31.6025C106.375 31.6344 106.375 31.6344 106.375 31.6664C106.375 31.6344 106.375 31.6344 106.345 31.6025C106.345 31.9782 106.314 32.3567 106.284 32.7324C106.196 33.4547 106.109 34.1449 105.99 34.8351C105.872 35.5254 105.664 36.2156 105.488 36.9059C105.312 37.5961 105.046 38.2544 104.78 38.9153C104.514 39.5762 104.217 40.1999 103.893 40.8288C103.569 41.4578 103.212 42.0521 102.828 42.617C102.444 43.182 102.029 43.779 101.615 44.312C101.201 44.845 100.698 45.378 100.223 45.8817C99.9296 46.1642 99.6633 46.4147 99.3669 46.6652C99.1308 46.8838 98.9223 47.073 98.6862 47.2942C98.1573 47.7357 97.6046 48.1441 97.031 48.5174C96.4683 48.8932 95.8781 49.269 95.2853 49.5835C94.6925 49.8979 94.0294 50.1804 93.4215 50.4629C92.8137 50.7454 92.1506 50.932 91.5 51.1212C90.8495 51.3104 90.1688 51.4676 89.5183 51.5929C88.8677 51.7181 88.1569 51.7794 87.5088 51.8434C87.0366 51.8754 86.5619 51.9047 86.0897 51.9047C85.409 51.9047 84.7283 51.8434 84.0803 51.7794C82.7257 51.645 81.3881 51.3609 80.0891 50.932H80.0589C80.7095 50.8707 81.36 50.8067 82.0106 50.6814C82.6611 50.5562 83.3418 50.399 83.9924 50.2124C84.6429 50.0258 85.2935 49.802 85.9139 49.5515C86.5503 49.2969 87.1725 49.0042 87.7776 48.6747C88.398 48.3602 88.9606 48.0137 89.5534 47.638C90.1462 47.2622 90.6762 46.8225 91.2087 46.3827C91.7381 45.9455 92.2414 45.4738 92.7157 44.9703C93.2078 44.4882 93.6717 43.9746 94.1048 43.4325C94.5493 42.8676 94.9613 42.3026 95.3606 41.7376C95.4184 41.6443 95.4787 41.5191 95.5365 41.4258C95.8329 40.9221 96.1292 40.4211 96.3955 39.9174C96.7195 39.2911 97.0159 38.6621 97.2822 38.0039C97.5484 37.3456 97.7845 36.6873 97.993 35.9944C98.2015 35.3015 98.3471 34.6459 98.4953 33.9557C98.6435 33.2654 98.7314 32.5432 98.7892 31.853C98.847 31.1627 98.9098 30.4112 98.9098 29.7209C98.9098 29.2199 98.8796 28.7189 98.8495 28.2152C98.7892 27.493 98.7013 26.8027 98.6134 26.1125C98.5255 25.4222 98.3471 24.7 98.1688 24.0098C97.9905 23.3195 97.7544 22.6613 97.5183 22.003C97.2728 21.3402 96.9962 20.6909 96.6894 20.0575C96.3653 19.4286 96.0388 18.8023 95.6847 18.192C95.3305 17.5817 94.9161 17.03 94.5016 16.465C94.0872 15.9001 93.615 15.399 93.1402 14.866C92.9041 14.6155 92.6379 14.333 92.3716 14.0825C91.0404 12.9818 89.6514 11.9505 88.2624 11.0071C88.0713 10.889 87.8733 10.784 87.6696 10.6926C86.792 10.1226 85.8468 9.67898 84.8589 9.37338L84.8388 9.38404Z" fill="#2C5DE4"/>
<mask id="path-2-inside-1_974_74" fill="white">
<path fill-rule="evenodd" clip-rule="evenodd" d="M76.323 1.6C75.4684 1.61337 74.6216 1.76557 73.8158 2.05063C75.3033 3.02345 76.3707 4.5198 76.8064 6.24286C76.8364 6.46681 76.902 6.62794 76.9347 6.85189C76.9717 7.04281 76.9927 7.23648 76.9976 7.43088C77.1259 10.2603 76.2574 10.6153 75.6484 12.2868C75.2074 13.3011 75.0181 14.4069 75.0966 15.5101C75.175 16.6133 75.519 17.6812 76.099 18.6229C76.2017 18.8718 76.3308 19.1089 76.4841 19.3303C75.2606 11.1943 82.0474 9.97353 83.3119 7.43088C83.4074 5.21324 81.5749 3.73298 80.1274 2.70336C78.9916 1.98798 77.6762 1.60919 76.3339 1.61092L76.323 1.6ZM86.5482 3.43256C86.4883 3.74006 86.4672 4.05385 86.4854 4.3666C86.4526 4.62332 86.4526 4.94559 86.4198 5.20231C86.3603 5.4632 86.2856 5.72037 86.1959 5.97248C86.1243 6.23455 86.0386 6.49256 85.9392 6.74538C85.8108 7.0021 85.7125 7.22878 85.5841 7.4855C85.4885 7.61386 85.423 7.74223 85.3274 7.87059L85.1335 8.15462C84.9724 8.3813 84.8139 8.60525 84.6528 8.79916C84.4751 9.00689 84.2816 9.20047 84.0738 9.37815V9.40819C83.8799 9.56933 83.686 9.76323 83.4621 9.92437C82.7875 10.4378 82.0146 10.8229 81.3072 11.3063C81.0799 11.4488 80.8652 11.6105 80.6654 11.7897C80.447 11.9428 80.2424 12.1146 80.0537 12.3031C79.843 12.4924 79.6484 12.6989 79.4719 12.9204C79.2928 13.1201 79.131 13.3348 78.9885 13.5622C78.8274 13.7889 78.669 14.0128 78.5379 14.2395C78.4068 14.4662 78.3167 14.7092 78.1883 14.9824C78.0886 15.2239 78.0029 15.471 77.9316 15.7225C77.8333 16.012 77.7705 16.2687 77.7049 16.5418C77.6749 16.6702 77.6749 16.8313 77.6421 16.9597C77.6093 17.088 77.6093 17.2164 77.5766 17.3447C77.5766 17.6015 77.5438 17.891 77.5438 18.1477C77.5383 18.3413 77.5492 18.535 77.5766 18.7267C77.5777 19.0027 77.6107 19.2776 77.6749 19.546C77.7119 19.8057 77.7648 20.0629 77.8333 20.3162C77.9316 20.5893 77.9944 20.8324 78.0927 21.0891C78.1555 21.2502 78.2539 21.4113 78.3167 21.5397L70.9209 18.6447C69.6673 18.2897 68.4438 17.9702 67.1902 17.6807L65.1637 17.1973C63.2356 16.8122 61.2719 16.5227 59.311 16.3288C59.2482 16.3288 59.2154 16.296 59.1499 16.296C57.2217 16.1048 55.3263 16.0065 53.3927 16.0065C51.978 16.0065 50.5633 16.0721 49.1814 16.1676C47.2205 16.296 45.2568 16.5527 43.2959 16.875C42.8125 16.9405 42.3318 17.0361 41.8484 17.1317C40.8516 17.3256 39.8875 17.5496 38.9534 17.7763L37.5087 18.1613C37.0253 18.3553 36.5747 18.5792 36.124 18.7731L35.0644 19.2538C34.9988 19.2866 34.936 19.2866 34.9032 19.3193C34.581 19.4805 34.2915 19.6088 34.002 19.77C33.9249 19.7958 33.85 19.8278 33.778 19.8655C33.423 20.0267 33.0707 20.2206 32.7812 20.3817C32.5545 20.4773 32.3305 20.6057 32.1366 20.7013C32.0437 20.7611 31.947 20.8149 31.8471 20.8624C31.5576 21.0235 31.2681 21.1847 31.0114 21.3458C30.7458 21.4928 30.4878 21.6532 30.2385 21.8265C30.0146 21.9876 29.7906 22.116 29.5967 22.2771C29.5639 22.3099 29.5312 22.3099 29.5011 22.3426C29.2895 22.4821 29.0853 22.6325 28.8894 22.7933L28.8238 22.8561L28.3431 23.2439C28.2776 23.2739 28.2148 23.3395 28.1492 23.3723C27.9881 23.5006 27.827 23.6618 27.6658 23.7901C27.6358 23.8529 27.5702 23.8857 27.5375 23.9185C27.3463 24.1124 27.1524 24.2708 26.9585 24.4647C26.9284 24.4647 26.9284 24.4975 26.8957 24.5303C26.7018 24.6887 26.5106 24.8826 26.3167 25.0765C26.2839 25.1092 26.2839 25.1393 26.2511 25.1393C26.09 25.3004 25.9316 25.4616 25.7705 25.6555C25.7049 25.7183 25.6093 25.7838 25.5438 25.8466C25.3826 26.0405 25.1915 26.2345 24.9976 26.4256C24.9648 26.4912 24.902 26.5239 24.8692 26.5868C24.6125 26.8435 24.3858 27.1029 24.1291 27.3597L24.0335 27.4552C23.5185 28.012 22.9713 28.5382 22.3948 29.0311C21.825 29.5397 21.2239 30.0122 20.595 30.4458C19.9505 30.8964 19.3415 31.2815 18.6642 31.6693C18.0084 32.0288 17.3327 32.3506 16.6404 32.6334C15.9631 32.9229 15.2558 33.1796 14.5484 33.4036C13.1992 33.6931 11.8173 34.242 10.6265 34.3376C10.3563 34.3533 10.0873 34.3852 9.82088 34.4332C9.53138 34.4987 9.27466 34.5616 9.01794 34.6271L8.24231 34.9193C7.97956 35.0231 7.72248 35.1407 7.47214 35.2716C7.24546 35.4328 6.98873 35.5611 6.76479 35.7223C6.53601 35.8872 6.3205 36.0699 6.12025 36.2685C5.8918 36.4448 5.67723 36.6383 5.47844 36.8475C5.28453 37.0742 5.09063 37.2653 4.93222 37.492C4.77382 37.7187 4.57718 37.9754 4.44882 38.2321C4.27901 38.4664 4.12832 38.7139 3.99819 38.9723C3.86983 39.2618 3.74147 39.5185 3.64315 39.808C3.54483 40.0975 3.45197 40.3542 3.37004 40.6437C3.29938 40.8966 3.24555 41.1539 3.2089 41.4139C3.2089 41.4466 3.17613 41.4794 3.17613 41.5122C3.11058 41.8017 3.11058 42.1868 3.08054 42.3807C3.03806 42.5914 3.01158 42.805 3.00134 43.0197C2.99593 43.1598 3.00693 43.3001 3.03411 43.4376C3.05779 43.6451 3.10077 43.8499 3.16247 44.0494C3.22277 44.2476 3.29762 44.4411 3.38642 44.6284V44.6611C3.49438 44.8603 3.61289 45.0536 3.74147 45.2401C3.87052 45.4403 4.01 45.6336 4.15932 45.8191C4.32046 45.9802 4.51163 46.1714 4.70554 46.3326C4.89353 46.5218 5.09829 46.6937 5.31731 46.846C6.08747 47.5233 6.28138 47.7473 7.27823 48.2634C7.43936 48.359 7.6005 48.4218 7.79441 48.5202C7.82445 48.5202 7.85722 48.5529 7.89 48.5529C7.88467 48.6078 7.8961 48.6631 7.92277 48.7113C7.95914 48.9723 8.01297 49.2305 8.0839 49.4842C8.14383 49.7497 8.22983 50.0086 8.34062 50.2571C8.43621 50.4483 8.50176 50.6422 8.59735 50.8361C8.62172 50.8931 8.65389 50.9464 8.69294 50.9945C8.8213 51.254 8.94966 51.4779 9.08075 51.7019C9.21184 51.9258 9.40029 52.1525 9.56142 52.3792C9.72256 52.6059 9.91647 52.7971 10.1076 52.9882C10.2988 53.1794 10.4955 53.3433 10.7194 53.5345C10.7376 53.5511 10.7605 53.5616 10.785 53.5645C10.9693 53.7255 11.1626 53.8759 11.3639 54.0151C11.5875 54.1741 11.8242 54.3139 12.0713 54.433C12.3066 54.5719 12.5533 54.6907 12.8087 54.788C13.0162 54.8822 13.232 54.9572 13.4532 55.012C13.486 55.0447 13.516 55.0447 13.5816 55.0775C13.71 55.1103 13.8711 55.1403 13.9994 55.1731C13.9039 56.9101 13.8711 58.5515 14.1278 59.1305C14.4173 59.7723 15.8375 57.8141 17.2467 55.5636C17.0555 57.7813 16.9272 60.3868 17.2467 61.1569C17.5663 61.9271 19.5299 59.4527 21.2041 56.6889C44.0032 51.4151 64.8114 67.1708 66.9963 89.4265C66.5784 85.9525 62.3015 84.0216 60.3406 84.5105C59.3765 86.8893 57.7352 89.9454 55.0997 91.8435C55.3293 89.6959 55.2206 87.5256 54.7774 85.4118C54.058 88.3696 52.6988 91.1338 50.7955 93.5094C47.7394 93.7334 44.686 92.2559 43.0774 90.0355C42.949 89.9399 42.9163 89.746 42.8207 89.6176C42.72 89.3985 42.6333 89.1732 42.5612 88.9431C42.4674 88.7278 42.4031 88.5009 42.37 88.2685C42.3421 88.0338 42.3311 87.7974 42.3373 87.5611V87.0832C42.3754 86.8549 42.4292 86.6295 42.4984 86.4086C42.5582 86.1782 42.633 85.9519 42.7223 85.7313C42.8398 85.4998 42.9692 85.2747 43.1102 85.0567C43.6564 83.5137 43.6564 82.2601 42.6595 81.52C42.4655 81.3948 42.2608 81.2869 42.0478 81.1977C41.9194 81.1649 41.7583 81.1021 41.6299 81.0693C41.5015 81.0366 41.4688 81.0065 41.3732 80.9737C41.1499 80.9006 40.9217 80.8431 40.6904 80.8017C40.4713 80.7376 40.2441 80.7055 40.0158 80.7061C39.7818 80.668 39.5455 80.6461 39.3085 80.6405C39.1474 80.6405 38.9862 80.6733 38.8251 80.6733C38.586 80.6722 38.3479 80.7043 38.1177 80.7689C37.654 80.8254 37.2001 80.9448 36.7686 81.1239C36.5419 81.2195 36.3507 81.3151 36.124 81.4134C35.8974 81.5118 35.7389 81.6374 35.515 81.733C28.0209 86.6216 32.4917 98.0704 37.6043 101.383C35.6734 101.735 33.7125 102.156 33.1663 102.574L33.1007 102.637C34.4889 103.469 35.9409 104.189 37.4431 104.792C39.5024 105.466 41.6873 106.078 42.6541 106.335V106.367C45.3182 106.914 48.0425 107.108 50.7572 106.946C65.0026 105.95 76.678 95.1126 78.8001 80.8345C78.8629 81.1239 78.9284 81.3807 78.9913 81.6702C79.0896 82.2492 79.2179 82.8609 79.2808 83.4699V83.5027C79.3463 83.7922 79.3791 84.0817 79.4118 84.3384V84.4668C79.4419 84.7563 79.4747 85.0458 79.4747 85.3025C79.5074 85.6576 79.5402 86.0126 79.5402 86.3649V86.8784C79.5402 87.0395 79.5703 87.2334 79.5703 87.3945C79.5703 87.5557 79.5402 87.7796 79.5402 87.9735V88.4242C79.5402 88.6481 79.5074 88.842 79.5074 89.066C79.5116 89.206 79.5006 89.3461 79.4747 89.4838C79.4747 89.7105 79.4419 89.9344 79.4419 90.1912C79.415 90.2852 79.4039 90.383 79.4091 90.4807C79.3791 90.7374 79.3463 90.9641 79.3135 91.2208C79.3189 91.3184 79.3078 91.4163 79.2808 91.5103C79.248 91.8326 79.1852 92.1221 79.1524 92.4443V92.5071C79.0896 92.7966 79.024 93.1189 78.9612 93.4084V93.504C78.8957 93.7935 78.8301 94.083 78.7673 94.3725C78.7673 94.4052 78.7345 94.4681 78.7345 94.5008C78.6753 94.7941 78.6005 95.084 78.5106 95.3693V95.4649C78.4123 95.7872 78.3167 96.0767 78.2375 96.3662C78.2202 96.3839 78.2095 96.407 78.2074 96.4317C78.1091 96.7513 78.0135 97.0735 77.9179 97.3958C77.8223 97.7181 77.6913 98.0076 77.5629 98.3271C77.4345 98.6466 77.339 98.9716 77.2106 99.2611C77.0822 99.5506 76.9511 99.8729 76.8228 100.192H76.7927C76.6616 100.482 76.5333 100.804 76.3721 101.094C76.3475 101.171 76.3155 101.246 76.2766 101.318C76.2438 101.35 76.2438 101.383 76.2137 101.416C74.0887 105.675 70.9955 109.377 67.182 112.226C66.9253 112.387 66.6658 112.581 66.4091 112.772C66.3463 112.837 66.248 112.87 66.1852 112.933C65.9585 113.094 65.7345 113.255 65.4778 113.416L65.5734 113.61H65.6062L66.9553 113.416H66.9881C67.8238 113.288 68.6623 113.127 69.498 112.966C69.737 112.927 69.9733 112.874 70.2053 112.805L70.656 112.709C70.8799 112.676 71.1039 112.613 71.3305 112.581C71.5572 112.548 71.7156 112.482 71.9095 112.42C75.0964 111.642 78.2155 110.609 81.2362 109.331C76.0688 116.371 69.196 121.982 61.2637 125.635C64.9761 125.39 68.6524 124.755 72.2318 123.74C85.1511 119.941 96.0631 111.222 102.621 99.4605C101.297 106.903 98.3451 113.96 93.9768 120.129C99.8659 116.245 104.877 111.171 108.687 105.234C112.497 99.2962 115.021 92.6269 116.099 85.6548C117.195 90.7447 117.509 95.972 117.03 101.157C140.255 68.7849 118.966 35.2061 110.06 26.3628C110.027 26.2973 109.995 26.2672 109.995 26.2017C109.965 26.2345 109.965 26.2345 109.965 26.2672C109.965 26.2345 109.965 26.2345 109.932 26.2017C109.932 26.5868 109.899 26.9746 109.866 27.3597C109.771 28.0998 109.675 28.8071 109.547 29.5145C109.418 30.2218 109.192 30.9292 109.001 31.6366C108.809 32.3439 108.52 33.0185 108.23 33.6958C107.941 34.3731 107.619 35.0122 107.266 35.6567C106.914 36.3013 106.526 36.9103 106.108 37.4893C105.69 38.0683 105.24 38.68 104.789 39.2263C104.339 39.7725 103.792 40.3187 103.276 40.8349C102.957 41.1244 102.667 41.3811 102.345 41.6378C102.088 41.8618 101.861 42.0557 101.605 42.2824C101.03 42.7348 100.429 43.1534 99.8049 43.5359C99.1932 43.921 98.5513 44.3061 97.9068 44.6284C97.2623 44.9506 96.5413 45.2401 95.8803 45.5296C95.2194 45.8191 94.4984 46.0103 93.7911 46.2042C93.0837 46.3981 92.3436 46.5592 91.6362 46.6876C90.9289 46.816 90.156 46.8788 89.4513 46.9443C88.9379 46.9771 88.4217 47.0071 87.9083 47.0071C87.1682 47.0071 86.428 46.9443 85.7234 46.8788C84.2506 46.741 82.7961 46.4499 81.3837 46.0103H81.3509C82.0583 45.9475 82.7656 45.8819 83.473 45.7536C84.1803 45.6252 84.9205 45.4641 85.6278 45.2729C86.3352 45.0817 87.0425 44.8523 87.7171 44.5956C88.4091 44.3347 89.0856 44.0347 89.7436 43.6971C90.4182 43.3748 91.0299 43.0197 91.6745 42.6347C92.319 42.2496 92.8952 41.7989 93.4742 41.3483C94.0499 40.9002 94.5972 40.4168 95.1129 39.9008C95.6479 39.4068 96.1523 38.8805 96.6232 38.325C97.1066 37.746 97.5545 37.167 97.9887 36.588C98.0516 36.4924 98.1171 36.3641 98.1799 36.2685C98.5022 35.7523 98.8245 35.2389 99.114 34.7227C99.4663 34.0809 99.7885 33.4363 100.078 32.7618C100.368 32.0872 100.624 31.4126 100.851 30.7025C101.078 29.9924 101.236 29.3206 101.397 28.6132C101.558 27.9059 101.654 27.1658 101.717 26.4584C101.78 25.751 101.848 24.9809 101.848 24.2735C101.848 23.7601 101.815 23.2466 101.782 22.7305C101.717 21.9903 101.621 21.283 101.526 20.5756C101.43 19.8683 101.236 19.1282 101.042 18.4208C100.848 17.7134 100.591 17.0389 100.335 16.3643C100.068 15.6851 99.7671 15.0197 99.4335 14.3706C99.0812 13.726 98.7261 13.0842 98.341 12.4588C97.956 11.8334 97.5053 11.2681 97.0547 10.6891C96.6041 10.1101 96.0906 9.59664 95.5745 9.05042C95.3177 8.7937 95.0282 8.5042 94.7387 8.24748C93.2913 7.11954 91.781 6.0626 90.2707 5.0958C90.0629 4.97482 89.8476 4.86718 89.6261 4.77353C88.6719 4.18942 87.6442 3.73481 86.57 3.42164L86.5482 3.43256Z"/>
</mask>
<path fill-rule="evenodd" clip-rule="evenodd" d="M76.323 1.6C75.4684 1.61337 74.6216 1.76557 73.8158 2.05063C75.3033 3.02345 76.3707 4.5198 76.8064 6.24286C76.8364 6.46681 76.902 6.62794 76.9347 6.85189C76.9717 7.04281 76.9927 7.23648 76.9976 7.43088C77.1259 10.2603 76.2574 10.6153 75.6484 12.2868C75.2074 13.3011 75.0181 14.4069 75.0966 15.5101C75.175 16.6133 75.519 17.6812 76.099 18.6229C76.2017 18.8718 76.3308 19.1089 76.4841 19.3303C75.2606 11.1943 82.0474 9.97353 83.3119 7.43088C83.4074 5.21324 81.5749 3.73298 80.1274 2.70336C78.9916 1.98798 77.6762 1.60919 76.3339 1.61092L76.323 1.6ZM86.5482 3.43256C86.4883 3.74006 86.4672 4.05385 86.4854 4.3666C86.4526 4.62332 86.4526 4.94559 86.4198 5.20231C86.3603 5.4632 86.2856 5.72037 86.1959 5.97248C86.1243 6.23455 86.0386 6.49256 85.9392 6.74538C85.8108 7.0021 85.7125 7.22878 85.5841 7.4855C85.4885 7.61386 85.423 7.74223 85.3274 7.87059L85.1335 8.15462C84.9724 8.3813 84.8139 8.60525 84.6528 8.79916C84.4751 9.00689 84.2816 9.20047 84.0738 9.37815V9.40819C83.8799 9.56933 83.686 9.76323 83.4621 9.92437C82.7875 10.4378 82.0146 10.8229 81.3072 11.3063C81.0799 11.4488 80.8652 11.6105 80.6654 11.7897C80.447 11.9428 80.2424 12.1146 80.0537 12.3031C79.843 12.4924 79.6484 12.6989 79.4719 12.9204C79.2928 13.1201 79.131 13.3348 78.9885 13.5622C78.8274 13.7889 78.669 14.0128 78.5379 14.2395C78.4068 14.4662 78.3167 14.7092 78.1883 14.9824C78.0886 15.2239 78.0029 15.471 77.9316 15.7225C77.8333 16.012 77.7705 16.2687 77.7049 16.5418C77.6749 16.6702 77.6749 16.8313 77.6421 16.9597C77.6093 17.088 77.6093 17.2164 77.5766 17.3447C77.5766 17.6015 77.5438 17.891 77.5438 18.1477C77.5383 18.3413 77.5492 18.535 77.5766 18.7267C77.5777 19.0027 77.6107 19.2776 77.6749 19.546C77.7119 19.8057 77.7648 20.0629 77.8333 20.3162C77.9316 20.5893 77.9944 20.8324 78.0927 21.0891C78.1555 21.2502 78.2539 21.4113 78.3167 21.5397L70.9209 18.6447C69.6673 18.2897 68.4438 17.9702 67.1902 17.6807L65.1637 17.1973C63.2356 16.8122 61.2719 16.5227 59.311 16.3288C59.2482 16.3288 59.2154 16.296 59.1499 16.296C57.2217 16.1048 55.3263 16.0065 53.3927 16.0065C51.978 16.0065 50.5633 16.0721 49.1814 16.1676C47.2205 16.296 45.2568 16.5527 43.2959 16.875C42.8125 16.9405 42.3318 17.0361 41.8484 17.1317C40.8516 17.3256 39.8875 17.5496 38.9534 17.7763L37.5087 18.1613C37.0253 18.3553 36.5747 18.5792 36.124 18.7731L35.0644 19.2538C34.9988 19.2866 34.936 19.2866 34.9032 19.3193C34.581 19.4805 34.2915 19.6088 34.002 19.77C33.9249 19.7958 33.85 19.8278 33.778 19.8655C33.423 20.0267 33.0707 20.2206 32.7812 20.3817C32.5545 20.4773 32.3305 20.6057 32.1366 20.7013C32.0437 20.7611 31.947 20.8149 31.8471 20.8624C31.5576 21.0235 31.2681 21.1847 31.0114 21.3458C30.7458 21.4928 30.4878 21.6532 30.2385 21.8265C30.0146 21.9876 29.7906 22.116 29.5967 22.2771C29.5639 22.3099 29.5312 22.3099 29.5011 22.3426C29.2895 22.4821 29.0853 22.6325 28.8894 22.7933L28.8238 22.8561L28.3431 23.2439C28.2776 23.2739 28.2148 23.3395 28.1492 23.3723C27.9881 23.5006 27.827 23.6618 27.6658 23.7901C27.6358 23.8529 27.5702 23.8857 27.5375 23.9185C27.3463 24.1124 27.1524 24.2708 26.9585 24.4647C26.9284 24.4647 26.9284 24.4975 26.8957 24.5303C26.7018 24.6887 26.5106 24.8826 26.3167 25.0765C26.2839 25.1092 26.2839 25.1393 26.2511 25.1393C26.09 25.3004 25.9316 25.4616 25.7705 25.6555C25.7049 25.7183 25.6093 25.7838 25.5438 25.8466C25.3826 26.0405 25.1915 26.2345 24.9976 26.4256C24.9648 26.4912 24.902 26.5239 24.8692 26.5868C24.6125 26.8435 24.3858 27.1029 24.1291 27.3597L24.0335 27.4552C23.5185 28.012 22.9713 28.5382 22.3948 29.0311C21.825 29.5397 21.2239 30.0122 20.595 30.4458C19.9505 30.8964 19.3415 31.2815 18.6642 31.6693C18.0084 32.0288 17.3327 32.3506 16.6404 32.6334C15.9631 32.9229 15.2558 33.1796 14.5484 33.4036C13.1992 33.6931 11.8173 34.242 10.6265 34.3376C10.3563 34.3533 10.0873 34.3852 9.82088 34.4332C9.53138 34.4987 9.27466 34.5616 9.01794 34.6271L8.24231 34.9193C7.97956 35.0231 7.72248 35.1407 7.47214 35.2716C7.24546 35.4328 6.98873 35.5611 6.76479 35.7223C6.53601 35.8872 6.3205 36.0699 6.12025 36.2685C5.8918 36.4448 5.67723 36.6383 5.47844 36.8475C5.28453 37.0742 5.09063 37.2653 4.93222 37.492C4.77382 37.7187 4.57718 37.9754 4.44882 38.2321C4.27901 38.4664 4.12832 38.7139 3.99819 38.9723C3.86983 39.2618 3.74147 39.5185 3.64315 39.808C3.54483 40.0975 3.45197 40.3542 3.37004 40.6437C3.29938 40.8966 3.24555 41.1539 3.2089 41.4139C3.2089 41.4466 3.17613 41.4794 3.17613 41.5122C3.11058 41.8017 3.11058 42.1868 3.08054 42.3807C3.03806 42.5914 3.01158 42.805 3.00134 43.0197C2.99593 43.1598 3.00693 43.3001 3.03411 43.4376C3.05779 43.6451 3.10077 43.8499 3.16247 44.0494C3.22277 44.2476 3.29762 44.4411 3.38642 44.6284V44.6611C3.49438 44.8603 3.61289 45.0536 3.74147 45.2401C3.87052 45.4403 4.01 45.6336 4.15932 45.8191C4.32046 45.9802 4.51163 46.1714 4.70554 46.3326C4.89353 46.5218 5.09829 46.6937 5.31731 46.846C6.08747 47.5233 6.28138 47.7473 7.27823 48.2634C7.43936 48.359 7.6005 48.4218 7.79441 48.5202C7.82445 48.5202 7.85722 48.5529 7.89 48.5529C7.88467 48.6078 7.8961 48.6631 7.92277 48.7113C7.95914 48.9723 8.01297 49.2305 8.0839 49.4842C8.14383 49.7497 8.22983 50.0086 8.34062 50.2571C8.43621 50.4483 8.50176 50.6422 8.59735 50.8361C8.62172 50.8931 8.65389 50.9464 8.69294 50.9945C8.8213 51.254 8.94966 51.4779 9.08075 51.7019C9.21184 51.9258 9.40029 52.1525 9.56142 52.3792C9.72256 52.6059 9.91647 52.7971 10.1076 52.9882C10.2988 53.1794 10.4955 53.3433 10.7194 53.5345C10.7376 53.5511 10.7605 53.5616 10.785 53.5645C10.9693 53.7255 11.1626 53.8759 11.3639 54.0151C11.5875 54.1741 11.8242 54.3139 12.0713 54.433C12.3066 54.5719 12.5533 54.6907 12.8087 54.788C13.0162 54.8822 13.232 54.9572 13.4532 55.012C13.486 55.0447 13.516 55.0447 13.5816 55.0775C13.71 55.1103 13.8711 55.1403 13.9994 55.1731C13.9039 56.9101 13.8711 58.5515 14.1278 59.1305C14.4173 59.7723 15.8375 57.8141 17.2467 55.5636C17.0555 57.7813 16.9272 60.3868 17.2467 61.1569C17.5663 61.9271 19.5299 59.4527 21.2041 56.6889C44.0032 51.4151 64.8114 67.1708 66.9963 89.4265C66.5784 85.9525 62.3015 84.0216 60.3406 84.5105C59.3765 86.8893 57.7352 89.9454 55.0997 91.8435C55.3293 89.6959 55.2206 87.5256 54.7774 85.4118C54.058 88.3696 52.6988 91.1338 50.7955 93.5094C47.7394 93.7334 44.686 92.2559 43.0774 90.0355C42.949 89.9399 42.9163 89.746 42.8207 89.6176C42.72 89.3985 42.6333 89.1732 42.5612 88.9431C42.4674 88.7278 42.4031 88.5009 42.37 88.2685C42.3421 88.0338 42.3311 87.7974 42.3373 87.5611V87.0832C42.3754 86.8549 42.4292 86.6295 42.4984 86.4086C42.5582 86.1782 42.633 85.9519 42.7223 85.7313C42.8398 85.4998 42.9692 85.2747 43.1102 85.0567C43.6564 83.5137 43.6564 82.2601 42.6595 81.52C42.4655 81.3948 42.2608 81.2869 42.0478 81.1977C41.9194 81.1649 41.7583 81.1021 41.6299 81.0693C41.5015 81.0366 41.4688 81.0065 41.3732 80.9737C41.1499 80.9006 40.9217 80.8431 40.6904 80.8017C40.4713 80.7376 40.2441 80.7055 40.0158 80.7061C39.7818 80.668 39.5455 80.6461 39.3085 80.6405C39.1474 80.6405 38.9862 80.6733 38.8251 80.6733C38.586 80.6722 38.3479 80.7043 38.1177 80.7689C37.654 80.8254 37.2001 80.9448 36.7686 81.1239C36.5419 81.2195 36.3507 81.3151 36.124 81.4134C35.8974 81.5118 35.7389 81.6374 35.515 81.733C28.0209 86.6216 32.4917 98.0704 37.6043 101.383C35.6734 101.735 33.7125 102.156 33.1663 102.574L33.1007 102.637C34.4889 103.469 35.9409 104.189 37.4431 104.792C39.5024 105.466 41.6873 106.078 42.6541 106.335V106.367C45.3182 106.914 48.0425 107.108 50.7572 106.946C65.0026 105.95 76.678 95.1126 78.8001 80.8345C78.8629 81.1239 78.9284 81.3807 78.9913 81.6702C79.0896 82.2492 79.2179 82.8609 79.2808 83.4699V83.5027C79.3463 83.7922 79.3791 84.0817 79.4118 84.3384V84.4668C79.4419 84.7563 79.4747 85.0458 79.4747 85.3025C79.5074 85.6576 79.5402 86.0126 79.5402 86.3649V86.8784C79.5402 87.0395 79.5703 87.2334 79.5703 87.3945C79.5703 87.5557 79.5402 87.7796 79.5402 87.9735V88.4242C79.5402 88.6481 79.5074 88.842 79.5074 89.066C79.5116 89.206 79.5006 89.3461 79.4747 89.4838C79.4747 89.7105 79.4419 89.9344 79.4419 90.1912C79.415 90.2852 79.4039 90.383 79.4091 90.4807C79.3791 90.7374 79.3463 90.9641 79.3135 91.2208C79.3189 91.3184 79.3078 91.4163 79.2808 91.5103C79.248 91.8326 79.1852 92.1221 79.1524 92.4443V92.5071C79.0896 92.7966 79.024 93.1189 78.9612 93.4084V93.504C78.8957 93.7935 78.8301 94.083 78.7673 94.3725C78.7673 94.4052 78.7345 94.4681 78.7345 94.5008C78.6753 94.7941 78.6005 95.084 78.5106 95.3693V95.4649C78.4123 95.7872 78.3167 96.0767 78.2375 96.3662C78.2202 96.3839 78.2095 96.407 78.2074 96.4317C78.1091 96.7513 78.0135 97.0735 77.9179 97.3958C77.8223 97.7181 77.6913 98.0076 77.5629 98.3271C77.4345 98.6466 77.339 98.9716 77.2106 99.2611C77.0822 99.5506 76.9511 99.8729 76.8228 100.192H76.7927C76.6616 100.482 76.5333 100.804 76.3721 101.094C76.3475 101.171 76.3155 101.246 76.2766 101.318C76.2438 101.35 76.2438 101.383 76.2137 101.416C74.0887 105.675 70.9955 109.377 67.182 112.226C66.9253 112.387 66.6658 112.581 66.4091 112.772C66.3463 112.837 66.248 112.87 66.1852 112.933C65.9585 113.094 65.7345 113.255 65.4778 113.416L65.5734 113.61H65.6062L66.9553 113.416H66.9881C67.8238 113.288 68.6623 113.127 69.498 112.966C69.737 112.927 69.9733 112.874 70.2053 112.805L70.656 112.709C70.8799 112.676 71.1039 112.613 71.3305 112.581C71.5572 112.548 71.7156 112.482 71.9095 112.42C75.0964 111.642 78.2155 110.609 81.2362 109.331C76.0688 116.371 69.196 121.982 61.2637 125.635C64.9761 125.39 68.6524 124.755 72.2318 123.74C85.1511 119.941 96.0631 111.222 102.621 99.4605C101.297 106.903 98.3451 113.96 93.9768 120.129C99.8659 116.245 104.877 111.171 108.687 105.234C112.497 99.2962 115.021 92.6269 116.099 85.6548C117.195 90.7447 117.509 95.972 117.03 101.157C140.255 68.7849 118.966 35.2061 110.06 26.3628C110.027 26.2973 109.995 26.2672 109.995 26.2017C109.965 26.2345 109.965 26.2345 109.965 26.2672C109.965 26.2345 109.965 26.2345 109.932 26.2017C109.932 26.5868 109.899 26.9746 109.866 27.3597C109.771 28.0998 109.675 28.8071 109.547 29.5145C109.418 30.2218 109.192 30.9292 109.001 31.6366C108.809 32.3439 108.52 33.0185 108.23 33.6958C107.941 34.3731 107.619 35.0122 107.266 35.6567C106.914 36.3013 106.526 36.9103 106.108 37.4893C105.69 38.0683 105.24 38.68 104.789 39.2263C104.339 39.7725 103.792 40.3187 103.276 40.8349C102.957 41.1244 102.667 41.3811 102.345 41.6378C102.088 41.8618 101.861 42.0557 101.605 42.2824C101.03 42.7348 100.429 43.1534 99.8049 43.5359C99.1932 43.921 98.5513 44.3061 97.9068 44.6284C97.2623 44.9506 96.5413 45.2401 95.8803 45.5296C95.2194 45.8191 94.4984 46.0103 93.7911 46.2042C93.0837 46.3981 92.3436 46.5592 91.6362 46.6876C90.9289 46.816 90.156 46.8788 89.4513 46.9443C88.9379 46.9771 88.4217 47.0071 87.9083 47.0071C87.1682 47.0071 86.428 46.9443 85.7234 46.8788C84.2506 46.741 82.7961 46.4499 81.3837 46.0103H81.3509C82.0583 45.9475 82.7656 45.8819 83.473 45.7536C84.1803 45.6252 84.9205 45.4641 85.6278 45.2729C86.3352 45.0817 87.0425 44.8523 87.7171 44.5956C88.4091 44.3347 89.0856 44.0347 89.7436 43.6971C90.4182 43.3748 91.0299 43.0197 91.6745 42.6347C92.319 42.2496 92.8952 41.7989 93.4742 41.3483C94.0499 40.9002 94.5972 40.4168 95.1129 39.9008C95.6479 39.4068 96.1523 38.8805 96.6232 38.325C97.1066 37.746 97.5545 37.167 97.9887 36.588C98.0516 36.4924 98.1171 36.3641 98.1799 36.2685C98.5022 35.7523 98.8245 35.2389 99.114 34.7227C99.4663 34.0809 99.7885 33.4363 100.078 32.7618C100.368 32.0872 100.624 31.4126 100.851 30.7025C101.078 29.9924 101.236 29.3206 101.397 28.6132C101.558 27.9059 101.654 27.1658 101.717 26.4584C101.78 25.751 101.848 24.9809 101.848 24.2735C101.848 23.7601 101.815 23.2466 101.782 22.7305C101.717 21.9903 101.621 21.283 101.526 20.5756C101.43 19.8683 101.236 19.1282 101.042 18.4208C100.848 17.7134 100.591 17.0389 100.335 16.3643C100.068 15.6851 99.7671 15.0197 99.4335 14.3706C99.0812 13.726 98.7261 13.0842 98.341 12.4588C97.956 11.8334 97.5053 11.2681 97.0547 10.6891C96.6041 10.1101 96.0906 9.59664 95.5745 9.05042C95.3177 8.7937 95.0282 8.5042 94.7387 8.24748C93.2913 7.11954 91.781 6.0626 90.2707 5.0958C90.0629 4.97482 89.8476 4.86718 89.6261 4.77353C88.6719 4.18942 87.6442 3.73481 86.57 3.42164L86.5482 3.43256Z" stroke="#2C5DE4" stroke-width="6" mask="url(#path-2-inside-1_974_74)"/>
</svg>
