<svg width="130" height="130" viewBox="0 0 130 130" fill="none" xmlns="http://www.w3.org/2000/svg">
<g clip-path="url(#clip0_899_149)">
<mask id="mask0_899_149" style="mask-type:luminance" maskUnits="userSpaceOnUse" x="0" y="0" width="130" height="130">
<path d="M130 0H0V130H130V0Z" fill="white"/>
</mask>
<g mask="url(#mask0_899_149)">
<g opacity="0.1">
<path fill-rule="evenodd" clip-rule="evenodd" d="M123.071 34.1975L73.0353 5L23 34.1975V84.8025L30.7439 89.321L46.5782 82.9165C48.709 82.0537 50.5337 80.5744 51.8187 78.6682C53.1037 76.762 53.7904 74.5156 53.791 72.2167V32.5579H61.4887V72.2167C61.4881 76.0489 60.3435 79.7937 58.2013 82.9712C56.0592 86.1488 53.0171 88.6145 49.4648 90.0523L39.1499 94.2245L73.0353 114L123.071 84.8102V34.1975ZM69.1864 47.9534C69.1864 43.8703 70.8085 39.9544 73.6957 37.0671C76.5829 34.1799 80.4988 32.5579 84.5819 32.5579H93.5652C101.355 32.5579 107.675 38.8701 107.675 46.6679V47.9534H99.9774V46.6679C99.9774 45.8258 99.8115 44.992 99.4893 44.214C99.1671 43.436 98.6947 42.7292 98.0993 42.1337C97.5039 41.5383 96.797 41.066 96.019 40.7438C95.2411 40.4215 94.4072 40.2556 93.5652 40.2556H84.5819C82.5403 40.2556 80.5824 41.0667 79.1388 42.5103C77.6952 43.9539 76.8842 45.9118 76.8842 47.9534C76.8842 49.995 77.6952 51.9529 79.1388 53.3965C80.5824 54.8401 82.5403 55.6511 84.5819 55.6511H92.2797C96.3628 55.6511 100.279 57.2731 103.166 60.1604C106.053 63.0476 107.675 66.9635 107.675 71.0466C107.675 75.1297 106.053 79.0456 103.166 81.9329C100.279 84.8201 96.3628 86.4421 92.2797 86.4421H84.5819C80.4988 86.4421 76.5829 84.8201 73.6957 81.9329C70.8085 79.0456 69.1864 75.1297 69.1864 71.0466H76.8842C76.8842 73.0882 77.6952 75.0461 79.1388 76.4897C80.5824 77.9333 82.5403 78.7443 84.5819 78.7443H92.2797C94.3212 78.7443 96.2792 77.9333 97.7228 76.4897C99.1664 75.0461 99.9774 73.0882 99.9774 71.0466C99.9774 69.005 99.1664 67.0471 97.7228 65.6035C96.2792 64.1599 94.3212 63.3489 92.2797 63.3489H84.5819C80.4988 63.3489 76.5829 61.7269 73.6957 58.8396C70.8085 55.9524 69.1864 52.0365 69.1864 47.9534Z" fill="#2C5DE4"/>
<path d="M73 114L23 84.5L61.5 18L118 37.5L124 84.5L73 114Z" fill="#2C5DE4"/>
</g>
<path d="M60.75 10.0205C59.2875 10.0205 57.7708 10.3997 56.525 11.1038L16.225 34.3955C13.625 35.9122 12 38.7288 12 41.7622V88.2372C12 91.2705 13.625 94.0872 16.225 95.6038L26.7875 101.671C31.9333 104.162 33.6667 104.216 36.05 104.216C43.6333 104.216 48.0208 99.6122 48.0208 91.5955V45.7163C48.0208 45.0663 47.4792 44.5247 46.8292 44.5247H41.7917C41.0875 44.5247 40.5458 45.0663 40.5458 45.7163V91.5955C40.5458 95.1705 36.8625 98.6913 30.9583 95.7122L19.8542 89.3747C19.6718 89.2459 19.5227 89.0756 19.4191 88.8778C19.3155 88.68 19.2604 88.4604 19.2583 88.2372V41.7622C19.2583 41.2747 19.475 40.8413 19.8542 40.6247L60.1542 17.3872C60.4792 17.1705 61.0208 17.1705 61.3458 17.3872L101.646 40.6247C102.025 40.8413 102.242 41.2747 102.242 41.7622V88.2372C102.242 88.6705 102.025 89.1038 101.646 89.3747L61.3458 112.612C61.0208 112.829 60.4792 112.829 60.1 112.612L49.9167 106.437C49.4833 106.275 49.05 106.22 48.7792 106.383C45.9083 108.008 45.3667 108.333 42.7125 109.146C42.0625 109.362 41.0333 109.741 43.0917 110.879L56.525 118.841C57.825 119.6 59.2333 119.979 60.75 119.979C62.2667 119.979 63.675 119.6 64.975 118.841L105.275 95.6038C107.875 94.0872 109.5 91.2705 109.5 88.2372V41.7622C109.5 38.7288 107.875 35.9122 105.275 34.3955L64.975 11.1038C63.7292 10.3997 62.2667 10.0205 60.75 10.0205ZM71.5833 43.333C60.1 43.333 53.2208 48.1538 53.2208 56.2788C53.2208 64.9997 60.0458 67.5455 71.0958 68.6288C84.2583 69.9288 85.2875 71.8788 85.2875 74.4788C85.2875 78.9747 81.6583 80.8705 73.2083 80.8705C62.4833 80.8705 60.2083 78.2163 59.3958 72.908C59.3388 72.6336 59.1894 72.3872 58.9725 72.2097C58.7556 72.0322 58.4844 71.9346 58.2042 71.933H53.0042C52.3542 71.933 51.8667 72.4205 51.8667 73.1247C51.8667 79.8413 55.55 87.9663 73.2083 87.9663C85.9375 87.9663 93.25 82.9288 93.25 74.1538C93.25 65.433 87.4 63.158 74.9958 61.4788C62.4833 59.8538 61.2375 58.9872 61.2375 56.0622C61.2375 53.6247 62.3208 50.3747 71.5833 50.3747C79.7083 50.3747 82.9042 52.1622 84.15 57.7413C84.2583 58.283 84.7458 58.6622 85.2875 58.6622H90.5417C90.8125 58.6622 91.1375 58.5538 91.3542 58.283C91.5708 58.0663 91.7333 57.7413 91.625 57.4163C90.8667 47.7747 84.475 43.333 71.5833 43.333Z" fill="#2C5DE4"/>
</g>
</g>
<defs>
<clipPath id="clip0_899_149">
<rect width="130" height="130" fill="white"/>
</clipPath>
</defs>
</svg>
