<svg width="130" height="130" viewBox="0 0 130 130" fill="none" xmlns="http://www.w3.org/2000/svg">
<path opacity="0.1" d="M68 97C100.585 97 127 84.2401 127 68.5C127 52.7599 100.585 40 68 40C35.4152 40 9 52.7599 9 68.5C9 84.2401 35.4152 97 68 97Z" fill="#2C5DE4"/>
<path d="M62.5 35.1943C94.9053 35.1943 119.824 48.9222 119.824 64C119.824 79.0778 94.8864 92.8057 62.5 92.8057C30.0947 92.8057 5.17625 79.0778 5.17625 64C5.17625 48.9222 30.1136 35.1943 62.5 35.1943ZM62.5 32C29.0927 32 2 46.3173 2 64C2 81.6827 29.0927 96 62.5 96C95.9073 96 123 81.6827 123 64C123 46.3173 95.9073 32 62.5 32ZM43.2534 61.4332C41.7598 69.1337 36.485 68.3351 30.0002 68.3351L32.5903 54.9115C39.7747 54.9115 44.6525 54.1319 43.2534 61.4332ZM20.4147 81.9299H27.3533L28.9981 73.4118C36.7686 73.4118 41.5897 73.9822 46.0516 69.7802C50.9861 65.2169 52.2717 57.098 48.7552 53.0291C46.9213 50.8996 43.9719 49.8538 39.9638 49.8538H26.597L20.4147 81.9299ZM55.5236 41.3167H62.4244L60.7795 49.8348C66.735 49.8348 72.2556 49.3975 74.9214 51.8693C77.7195 54.4551 76.3772 57.7635 73.3522 73.3737H66.3569C69.2684 58.2769 69.8167 57.022 68.758 55.8812C67.737 54.7784 65.4116 55.0065 59.7964 55.0065L56.242 73.3737H49.3413L55.5236 41.3167ZM97.4766 61.4332C95.9641 69.2478 90.538 68.3351 84.2233 68.3351L86.8134 54.9115C94.0356 54.9115 98.8756 54.1319 97.4766 61.4332ZM74.6378 81.9299H81.5953L83.2402 73.4118C91.4077 73.4118 95.9263 73.8871 100.294 69.7802C105.228 65.2169 106.514 57.098 102.997 53.0291C101.163 50.8996 98.2139 49.8538 94.2058 49.8538H80.8391L74.6378 81.9299Z" fill="#2C5DE4"/>
</svg>
