<svg width="130" height="130" viewBox="0 0 130 130" fill="none" xmlns="http://www.w3.org/2000/svg">
<rect opacity="0.1" width="58.6523" height="106.895" rx="24" fill="#2C5DE4"/>
<rect opacity="0.1" x="65" y="41.6406" width="65" height="62.4609" rx="24" fill="#2C5DE4"/>
<path d="M41.86 100.1C41.0834 100.244 40.2849 100.22 39.5187 100.028C38.7525 99.8358 38.0367 99.481 37.4199 98.9876C36.8031 98.4942 36.2999 97.8737 35.9444 97.1683C35.589 96.463 35.3896 95.6893 35.36 94.9V35.1C35.3682 34.3718 35.522 33.6525 35.8124 32.9846C36.1027 32.3167 36.5238 31.7137 37.0507 31.211C37.5777 30.7082 38.1999 30.316 38.8807 30.0574C39.5615 29.7988 40.2872 29.6789 41.015 29.705H65.897C66.184 29.6866 66.4545 29.5643 66.6579 29.3609C66.8613 29.1575 66.9836 28.887 67.002 28.6V18.2C67.0072 17.3825 66.85 16.5721 66.5395 15.8159C66.2291 15.0596 65.7716 14.3725 65.1935 13.7945C64.6154 13.2164 63.9284 12.7589 63.1721 12.4485C62.4159 12.138 61.6055 11.9808 60.788 11.986H18.2C17.3863 11.9877 16.5809 12.1499 15.8299 12.4632C15.079 12.7766 14.3972 13.235 13.8236 13.8122C13.25 14.3894 12.7959 15.0741 12.4873 15.827C12.1787 16.5799 12.0216 17.3863 12.025 18.2V111.8C12.0319 113.434 12.6851 115 13.842 116.154C14.9989 117.309 16.5656 117.959 18.2 117.962H60.788C61.6011 117.967 62.4072 117.812 63.16 117.504C63.9129 117.197 64.5976 116.744 65.175 116.172C65.7524 115.599 66.211 114.918 66.5245 114.168C66.838 113.418 67.0003 112.613 67.002 111.8V107.51C67.05 106.81 67.362 106.155 67.8747 105.676C68.3875 105.197 69.0629 104.931 69.7645 104.931C70.4661 104.931 71.1415 105.197 71.6542 105.676C72.167 106.155 72.479 106.81 72.527 107.51V111.8C72.527 114.903 71.2943 117.879 69.1001 120.073C66.906 122.267 63.93 123.5 60.827 123.5H18.2C15.097 123.5 12.121 122.267 9.92685 120.073C7.73267 117.879 6.5 114.903 6.5 111.8V18.2C6.5 15.097 7.73267 12.121 9.92685 9.92685C12.121 7.73267 15.097 6.5 18.2 6.5H60.788C63.891 6.5 66.867 7.73267 69.0611 9.92685C71.2553 12.121 72.488 15.097 72.488 18.2V28.6C72.5064 28.887 72.6287 29.1575 72.8321 29.3609C73.0355 29.5643 73.306 29.6866 73.593 29.705H117.793C119.209 29.7377 120.576 30.2254 121.693 31.096C122.245 31.6096 122.69 32.2283 123 32.9158C123.31 33.6034 123.48 34.3459 123.5 35.1V94.9C123.465 95.6995 123.257 96.482 122.891 97.1938C122.525 97.9056 122.01 98.5298 121.38 99.0238C120.75 99.5177 120.021 99.8696 119.243 100.055C118.464 100.241 117.655 100.256 116.87 100.1L109.824 98.306C108.869 98.0403 107.992 97.5466 107.27 96.8672C106.547 96.1879 106.001 95.3433 105.677 94.406L105.547 94.263C105.404 93.99 104.442 91.663 104.247 91.221C103.78 90.3131 103.56 89.2987 103.608 88.2791C103.656 87.2594 103.97 86.2701 104.52 85.41L108.524 78.637C108.593 78.5626 108.631 78.4651 108.631 78.364C108.631 78.2628 108.593 78.1654 108.524 78.091L104.624 74.191C104.523 74.1199 104.403 74.0818 104.279 74.0818C104.156 74.0818 104.036 74.1199 103.935 74.191L97.305 78.195C96.4219 78.6814 95.4395 78.9599 94.4325 79.0095C93.4256 79.059 92.4206 78.8783 91.494 78.481C90.4875 77.9869 89.4546 77.5486 88.4 77.168C87.428 76.8629 86.5546 76.3048 85.8693 75.5509C85.1839 74.7971 84.7114 73.8746 84.5 72.878L82.563 65.273C82.563 65 82.29 64.857 82.004 64.857H76.7C76.6439 64.8508 76.5871 64.8573 76.5338 64.876C76.4805 64.8948 76.4321 64.9252 76.3922 64.9652C76.3522 65.0051 76.3218 65.0535 76.303 65.1068C76.2843 65.16 76.2778 65.2169 76.284 65.273L74.347 72.878C74.1085 73.8626 73.6263 74.7715 72.9449 75.5211C72.2634 76.2707 71.4045 76.837 70.447 77.168C69.342 77.584 68.237 78 67.262 78.468C66.3584 78.923 65.3565 79.148 64.3451 79.123C63.3337 79.0981 62.3441 78.824 61.464 78.325L54.691 74.321C54.6166 74.2525 54.5191 74.2144 54.418 74.2144C54.3169 74.2144 54.2194 74.2525 54.145 74.321L50.245 78.221C50.1816 78.2978 50.1469 78.3944 50.1469 78.494C50.1469 78.5936 50.1816 78.6901 50.245 78.767L54.262 85.54C54.7785 86.3967 55.0792 87.3661 55.138 88.3648C55.1969 89.3635 55.0123 90.3615 54.6 91.273C54.0776 92.2591 53.6131 93.2748 53.209 94.315C52.9014 95.2957 52.3462 96.1805 51.597 96.8841C50.8479 97.5878 49.93 98.0864 48.932 98.332C46.579 98.878 44.239 99.632 41.886 100.126L41.86 100.1ZM21.281 22.399C20.9023 22.425 20.5223 22.3728 20.1646 22.2458C19.8069 22.1187 19.4791 21.9195 19.2016 21.6604C18.9242 21.4013 18.7029 21.088 18.5517 20.7398C18.4004 20.3917 18.3224 20.0161 18.3224 19.6365C18.3224 19.2569 18.4004 18.8813 18.5517 18.5332C18.7029 18.185 18.9242 17.8717 19.2016 17.6126C19.4791 17.3535 19.8069 17.1543 20.1646 17.0272C20.5223 16.9002 20.9023 16.848 21.281 16.874H22.243C22.9429 16.922 23.5985 17.234 24.0773 17.7467C24.5561 18.2595 24.8224 18.9349 24.8224 19.6365C24.8224 20.3381 24.5561 21.0135 24.0773 21.5263C23.5985 22.039 22.9429 22.351 22.243 22.399H21.281ZM31.915 22.399C28.327 22.399 28.327 16.874 31.915 16.874H47.112C50.7 16.874 50.7 22.399 47.112 22.399H31.915ZM31.915 112.58C28.327 112.58 28.327 107.042 31.915 107.042H47.112C50.7 107.042 50.7 112.58 47.112 112.58H31.915ZM65.624 99.58C64.8907 99.5766 64.1883 99.2837 63.6698 98.7652C63.1512 98.2466 62.8584 97.5443 62.855 96.811C62.855 74.958 95.875 75.101 95.875 96.811C95.8716 97.5443 95.5787 98.2466 95.0602 98.7652C94.5416 99.2837 93.8393 99.5766 93.106 99.58H65.624ZM70.317 94.042H88.4C88.5957 94.0365 88.7872 93.9841 88.9585 93.8892C89.1297 93.7943 89.2756 93.6596 89.3839 93.4965C89.4922 93.3334 89.5597 93.1466 89.5808 92.952C89.6019 92.7574 89.5759 92.5605 89.505 92.378C88.6327 90.434 87.2169 88.7837 85.4282 87.6258C83.6395 86.4679 81.5542 85.8519 79.4235 85.8519C77.2928 85.8519 75.2075 86.4679 73.4188 87.6258C71.6301 88.7837 70.2143 90.434 69.342 92.378C69.2705 92.5497 69.2396 92.7355 69.2516 92.9211C69.2636 93.1067 69.3183 93.287 69.4114 93.448C69.5045 93.609 69.6334 93.7463 69.7882 93.8493C69.9431 93.9524 70.1196 94.0183 70.304 94.042H70.317ZM117.832 93.08V36.4C117.834 36.2544 117.806 36.1099 117.751 35.9751C117.697 35.8402 117.615 35.7177 117.512 35.6148C117.409 35.5118 117.287 35.4305 117.152 35.3756C117.017 35.3206 116.873 35.2933 116.727 35.295H42.133C41.8251 35.2872 41.5259 35.3973 41.2964 35.6026C41.0669 35.808 40.9244 36.0932 40.898 36.4V44.564C40.899 44.7201 40.9326 44.8743 40.9968 45.0166C41.0609 45.1589 41.1542 45.2862 41.2705 45.3903C41.3868 45.4944 41.5237 45.573 41.6722 45.621C41.8208 45.669 41.9777 45.6853 42.133 45.669H104.533C104.912 45.643 105.292 45.6952 105.649 45.8222C106.007 45.9493 106.335 46.1485 106.612 46.4076C106.89 46.6667 107.111 46.98 107.262 47.3282C107.414 47.6763 107.492 48.0519 107.492 48.4315C107.492 48.8111 107.414 49.1867 107.262 49.5348C107.111 49.883 106.89 50.1963 106.612 50.4554C106.335 50.7145 106.007 50.9137 105.649 51.0408C105.292 51.1678 104.912 51.22 104.533 51.194H42.133C41.7996 51.2107 41.4854 51.355 41.2555 51.597C41.0256 51.839 40.8976 52.1602 40.898 52.494V93.08C40.8805 93.2546 40.9069 93.4309 40.9748 93.5927C41.0428 93.7545 41.1501 93.8968 41.287 94.0066C41.4239 94.1164 41.5861 94.1903 41.7588 94.2214C41.9316 94.2526 42.1093 94.24 42.276 94.185L47.255 92.885C47.4401 92.8918 47.6225 92.8385 47.7748 92.733C47.9271 92.6276 48.0412 92.4757 48.1 92.3C48.5032 91.213 48.9676 90.1496 49.491 89.115C49.5673 88.959 49.5945 88.7835 49.569 88.6118C49.5434 88.44 49.4664 88.28 49.348 88.153L45.448 81.653C44.7314 80.4696 44.4377 79.0781 44.6148 77.706C44.7919 76.334 45.4294 75.0626 46.423 74.1L50.154 70.369C51.1094 69.395 52.3638 68.7696 53.7166 68.5929C55.0694 68.4161 56.4424 68.6982 57.616 69.394L64.376 73.411C64.4002 73.4433 64.4316 73.4695 64.4677 73.4875C64.5038 73.5056 64.5436 73.515 64.584 73.515C64.6244 73.515 64.6642 73.5056 64.7003 73.4875C64.7364 73.4695 64.7678 73.4433 64.792 73.411C66.092 72.852 67.275 72.306 68.523 71.89C68.796 71.89 68.796 71.747 68.939 71.474L70.876 63.869C71.2092 62.5756 71.9613 61.429 73.0149 60.6082C74.0686 59.7874 75.3644 59.3386 76.7 59.332H82.082C83.4388 59.3231 84.7598 59.767 85.8359 60.5935C86.912 61.42 87.6816 62.5818 88.023 63.895L89.817 71.227C89.8805 71.4213 89.9889 71.598 90.1335 71.7425C90.278 71.8871 90.4547 71.9955 90.649 72.059C91.611 72.462 92.716 72.878 93.691 73.359C93.856 73.4643 94.0477 73.5203 94.2435 73.5203C94.4393 73.5203 94.631 73.4643 94.796 73.359L101.296 69.459C102.443 68.7579 103.796 68.4721 105.128 68.6496C106.461 68.8271 107.692 69.4571 108.615 70.434L112.515 74.165C113.459 75.1412 114.062 76.3961 114.236 77.7429C114.409 79.0898 114.143 80.4566 113.477 81.64L109.278 88.4V88.816C109.824 90.116 110.383 91.299 110.786 92.547C110.929 92.82 111.072 92.82 111.202 92.963L116.402 94.263C116.569 94.318 116.746 94.3306 116.919 94.2994C117.092 94.2683 117.254 94.1944 117.391 94.0846C117.528 93.9748 117.635 93.8325 117.703 93.6707C117.771 93.5089 117.798 93.3326 117.78 93.158L117.832 93.08ZM111.332 51.168C110.953 51.194 110.573 51.1418 110.216 51.0148C109.858 50.8877 109.53 50.6885 109.253 50.4294C108.975 50.1703 108.754 49.857 108.603 49.5088C108.451 49.1607 108.373 48.7851 108.373 48.4055C108.373 48.0259 108.451 47.6503 108.603 47.3022C108.754 46.954 108.975 46.6407 109.253 46.3816C109.53 46.1225 109.858 45.9233 110.216 45.7962C110.573 45.6692 110.953 45.617 111.332 45.643H113.399C114.099 45.691 114.754 46.003 115.233 46.5157C115.712 47.0285 115.978 47.7039 115.978 48.4055C115.978 49.1071 115.712 49.7825 115.233 50.2952C114.754 50.808 114.099 51.12 113.399 51.168H111.332ZM64.532 43.147C63.7804 43.147 63.0595 42.8484 62.5281 42.3169C61.9966 41.7855 61.698 41.0646 61.698 40.313C61.698 39.5614 61.9966 38.8405 62.5281 38.3091C63.0595 37.7776 63.7804 37.479 64.532 37.479H66.17C69.771 37.479 69.771 43.147 66.17 43.147H64.532ZM47.541 43.147C43.953 43.147 43.953 37.479 47.541 37.479H49.192C49.9436 37.479 50.6645 37.7776 51.1959 38.3091C51.7274 38.8405 52.026 39.5614 52.026 40.313C52.026 41.0646 51.7274 41.7855 51.1959 42.3169C50.6645 42.8484 49.9436 43.147 49.192 43.147H47.541ZM56.108 43.147C55.3564 43.147 54.6355 42.8484 54.1041 42.3169C53.5726 41.7855 53.274 41.0646 53.274 40.313C53.274 39.5614 53.5726 38.8405 54.1041 38.3091C54.6355 37.7776 55.3564 37.479 56.108 37.479H57.759C61.347 37.479 61.347 43.147 57.759 43.147H56.108Z" fill="#2C5DE4"/>
</svg>
