<svg width="130" height="130" viewBox="0 0 130 130" fill="none" xmlns="http://www.w3.org/2000/svg">
<g clip-path="url(#clip0_899_79)">
<mask id="mask0_899_79" style="mask-type:luminance" maskUnits="userSpaceOnUse" x="0" y="0" width="130" height="130">
<path d="M130 0H0V130H130V0Z" fill="white"/>
</mask>
<g mask="url(#mask0_899_79)">
<mask id="mask1_899_79" style="mask-type:luminance" maskUnits="userSpaceOnUse" x="2" y="2" width="126" height="126">
<path d="M128 2H2V128H128V2Z" fill="white"/>
</mask>
<g mask="url(#mask1_899_79)">
<mask id="mask2_899_79" style="mask-type:luminance" maskUnits="userSpaceOnUse" x="12" y="11" width="123" height="123">
<path d="M135 11H12V134H135V11Z" fill="white"/>
</mask>
<g mask="url(#mask2_899_79)">
<path opacity="0.1" d="M36.6 109.4H24.3C21.0378 109.4 17.9093 108.104 15.6026 105.797C13.2959 103.491 12 100.362 12 97.1V56.1C12 52.8378 13.2959 49.7093 15.6026 47.4026C17.9093 45.0959 21.0378 43.8 24.3 43.8H77.6V35.6H69.4V27.4H61.2V35.6H44.8V23.3C44.8 20.0378 46.0959 16.9093 48.4026 14.6026C50.7093 12.2959 53.8378 11 57.1 11H89.9C93.1622 11 96.2907 12.2959 98.5974 14.6026C100.904 16.9093 102.2 20.0378 102.2 23.3V64.3C102.2 65.3874 101.768 66.4302 100.999 67.1991C100.23 67.968 99.1874 68.4 98.1 68.4H48.9C45.6378 68.4 42.5093 69.6959 40.2026 72.0026C37.8959 74.3093 36.6 77.4378 36.6 80.7V109.4Z" fill="#2C5DE4"/>
<path opacity="0.1" d="M110.4 35.5996V64.2996C110.4 67.5618 109.104 70.6903 106.797 72.997C104.491 75.3037 101.362 76.5996 98.0998 76.5996H48.8998C47.8124 76.5996 46.7696 77.0316 46.0007 77.8005C45.2318 78.5694 44.7998 79.6122 44.7998 80.6996V121.7C44.7998 124.962 46.0957 128.09 48.4024 130.397C50.7091 132.704 53.8376 134 57.0998 134H89.8998C93.162 134 96.2905 132.704 98.5972 130.397C100.904 128.09 102.2 124.962 102.2 121.7V109.4H85.7998V117.6H77.5998V109.4H69.3998V101.2H122.7C125.962 101.2 129.091 99.9037 131.397 97.597C133.704 95.2903 135 92.1618 135 88.8996V47.8996C135 44.6374 133.704 41.5089 131.397 39.2022C129.091 36.8955 125.962 35.5996 122.7 35.5996H110.4Z" fill="#2C5DE4"/>
</g>
<path d="M52.4002 23.0012H60.8002M39.8002 35.6012V14.6012C39.8002 12.3734 40.6852 10.2368 42.2605 8.66148C43.8358 7.08617 45.9724 6.20117 48.2002 6.20117H81.8002C84.028 6.20117 86.1646 7.08617 87.7399 8.66148C89.3152 10.2368 90.2002 12.3734 90.2002 14.6012V56.6012C90.2002 58.829 89.3152 60.9656 87.7399 62.5409C86.1646 64.1162 84.028 65.0012 81.8002 65.0012H48.2002C45.9724 65.0012 43.8358 65.8862 42.2605 67.4615C40.6852 69.0368 39.8002 71.1734 39.8002 73.4012V115.401C39.8002 117.629 40.6852 119.766 42.2605 121.341C43.8358 122.916 45.9724 123.801 48.2002 123.801H81.8002C84.028 123.801 86.1646 122.916 87.7399 121.341C89.3152 119.766 90.2002 117.629 90.2002 115.401V94.4012M69.2002 39.8012H14.6002C12.3724 39.8012 10.2358 40.6862 8.6605 42.2615C7.08519 43.8368 6.2002 45.9734 6.2002 48.2012V90.2012C6.2002 92.429 7.08519 94.5656 8.6605 96.1409C10.2358 97.7162 12.3724 98.6012 14.6002 98.6012H39.8002M60.8002 90.2012H115.4C117.628 90.2012 119.764 89.3162 121.339 87.7409C122.915 86.1656 123.8 84.029 123.8 81.8012V39.8012C123.8 37.5734 122.915 35.4368 121.339 33.8615C119.764 32.2862 117.628 31.4012 115.4 31.4012H90.2002M69.2002 107.001H77.6002" stroke="#2C5DE4" stroke-width="4"/>
</g>
</g>
</g>
<defs>
<clipPath id="clip0_899_79">
<rect width="130" height="130" fill="white"/>
</clipPath>
</defs>
</svg>
