<svg width="130" height="130" viewBox="0 0 130 130" fill="none" xmlns="http://www.w3.org/2000/svg">
<path opacity="0.1" d="M125 30H11C10.4477 30 10 30.4477 10 31V119C10 119.552 10.4477 120 11 120H125C125.552 120 126 119.552 126 119V31C126 30.4477 125.552 30 125 30Z" fill="#2C5DE4"/>
<path d="M84.2201 107.112H5.1389C3.95816 107.112 3.00098 106.155 3.00098 104.974V24.6811M3.00098 24.6811V9.84788C3.00098 8.66714 3.95816 7.70996 5.1389 7.70996H38.1555M3.00098 24.6811H38.1555M119.374 107.112V24.6811M119.374 24.6811V9.84788C119.374 8.66714 118.417 7.70996 117.236 7.70996H38.1555M119.374 24.6811H38.1555M38.1555 7.70996V24.6811" stroke="#2C5DE4" stroke-width="4" stroke-linecap="round"/>
<path d="M45.4277 16.1943H113.312" stroke="#2C5DE4" stroke-width="4" stroke-linecap="round"/>
<path d="M10.7702 18.8069C12.1091 18.8069 13.1946 17.7214 13.1946 16.3825C13.1946 15.0435 12.1091 13.958 10.7702 13.958C9.43117 13.958 8.3457 15.0435 8.3457 16.3825C8.3457 17.7214 9.43117 18.8069 10.7702 18.8069Z" fill="#2C5DE4"/>
<path d="M20.4674 18.8069C21.8064 18.8069 22.8919 17.7214 22.8919 16.3825C22.8919 15.0435 21.8064 13.958 20.4674 13.958C19.1284 13.958 18.043 15.0435 18.043 16.3825C18.043 17.7214 19.1284 18.8069 20.4674 18.8069Z" fill="#2C5DE4"/>
<path d="M30.1647 18.8069C31.5037 18.8069 32.5891 17.7214 32.5891 16.3825C32.5891 15.0435 31.5037 13.958 30.1647 13.958C28.8257 13.958 27.7402 15.0435 27.7402 16.3825C27.7402 17.7214 28.8257 18.8069 30.1647 18.8069Z" fill="#2C5DE4"/>
<path d="M61.1869 90.5671C75.4807 90.5671 87.0681 78.9797 87.0681 64.6859C87.0681 50.3921 75.4807 38.8047 61.1869 38.8047C46.8931 38.8047 35.3057 50.3921 35.3057 64.6859C35.3057 78.9797 46.8931 90.5671 61.1869 90.5671Z" stroke="#2C5DE4" stroke-width="4"/>
<path d="M55.1253 58.624L42.3134 65.03C41.5986 65.3874 41.5986 66.4074 42.3134 66.7648L55.1253 73.1707" stroke="#2C5DE4" stroke-width="4" stroke-linecap="round"/>
<path d="M67.248 73.1689L80.0599 66.763C80.7747 66.4056 80.7747 65.3856 80.0599 65.0282L67.248 58.6222" stroke="#2C5DE4" stroke-width="4" stroke-linecap="round"/>
<path d="M58.7637 76.8077L63.6126 53.7754" stroke="#2C5DE4" stroke-width="4" stroke-linecap="round"/>
<path d="M76.9463 86.5045L83.0074 92.5656L89.0685 86.5045L83.0074 80.4434" stroke="#2C5DE4" stroke-width="4" stroke-linecap="round"/>
<path d="M91.2161 88.0841L110.669 109.069C112.631 112.7 109.333 117.002 105.271 115.97L105.036 115.91L84.3408 94.8687C83.4696 93.9829 83.4698 92.5621 84.3413 91.6766L87.9249 88.0351C88.8353 87.11 90.3337 87.1322 91.2161 88.0841Z" stroke="#2C5DE4" stroke-width="4" stroke-linecap="round"/>
</svg>
