<svg width="130" height="130" viewBox="0 0 130 130" fill="none" xmlns="http://www.w3.org/2000/svg">
<g clip-path="url(#clip0_899_127)">
<mask id="mask0_899_127" style="mask-type:luminance" maskUnits="userSpaceOnUse" x="0" y="0" width="130" height="130">
<path d="M130 0H0V130H130V0Z" fill="white"/>
</mask>
<g mask="url(#mask0_899_127)">
<g opacity="0.1">
<path d="M70.9715 54.4014C65.4009 54.4014 60.8644 58.951 60.8644 64.5377C60.8644 70.1244 65.4009 74.6741 70.9715 74.6741C76.5421 74.6741 81.0786 70.1244 81.0786 64.5377C81.0786 58.951 76.5421 54.4014 70.9715 54.4014ZM42.6759 84.6825L40.4449 84.1285C23.8429 79.9092 14.3096 72.7704 14.3096 64.52C14.3096 56.2695 23.8465 49.1307 40.4449 44.9114L42.6759 44.3574L43.3028 46.5771C44.9869 52.3912 47.1401 58.0582 49.741 63.5219L50.2191 64.52L49.741 65.5357C47.1347 70.9971 44.9813 76.6646 43.3028 82.4805L42.6759 84.6825ZM39.4143 50.0897C26.7964 53.6413 19.0515 59.0966 19.0515 64.52C19.0515 69.9433 26.8 75.3773 39.4143 78.9502C40.9607 74.0228 42.8275 69.2024 45.0026 64.52C42.8244 59.8388 40.9576 55.0182 39.4143 50.0897ZM99.267 84.6825L98.6402 82.4628C96.959 76.6535 94.8057 70.9921 92.202 65.5357L91.7239 64.52L92.202 63.5042C94.8083 58.0428 96.9616 52.3753 98.6402 46.5594L99.267 44.3574L101.498 44.9114C118.1 49.1307 127.633 56.2695 127.633 64.52C127.633 72.7704 118.096 79.9092 101.498 84.1285L99.267 84.6825ZM96.9403 64.52C99.1227 69.1993 100.989 74.0202 102.528 78.9502C115.164 75.3808 122.891 69.9433 122.891 64.52C122.891 59.0966 115.142 53.6626 102.528 50.0897C100.978 55.0158 99.112 59.836 96.9403 64.52ZM39.3754 50.0719L38.7486 47.8522C34.081 31.3513 35.5011 19.5137 42.6405 15.3867C49.6489 11.3343 60.8821 16.1255 72.6678 28.2614L74.272 29.9093L72.6678 31.5573C68.4824 35.9244 64.6582 40.6257 61.2327 45.6146L60.5882 46.5203L59.4797 46.6126C53.454 47.0896 47.4767 48.0553 41.6065 49.5001L39.3754 50.0719ZM48.3386 18.6826C47.0672 18.6826 45.9411 18.9419 44.9991 19.496C40.3139 22.2165 39.4852 31.6496 42.7114 44.3751C47.7452 43.2458 52.8475 42.4485 57.9853 41.9884C60.9432 37.7633 64.1777 33.74 67.6674 29.9448C60.3084 22.7492 53.3355 18.6826 48.3386 18.6826ZM93.6221 115.092C93.6044 115.092 93.6044 115.092 93.6221 115.092C86.8899 115.092 78.2384 110.023 69.2752 100.775L67.6709 99.127L69.2752 97.4791C73.4605 93.1119 77.2848 88.4106 80.7102 83.4217L81.3371 82.5161L82.4455 82.406C88.479 81.945 94.4635 80.9791 100.336 79.5185L102.567 78.9644L103.194 81.1842C107.861 97.6851 106.441 109.505 99.3024 113.628C97.5763 114.623 95.6126 115.131 93.6221 115.092ZM74.272 99.0915C81.631 106.287 88.604 110.357 93.6008 110.357H93.6185C94.8722 110.357 95.9983 110.08 96.9403 109.544C101.625 106.823 102.475 97.3903 99.2281 84.6648C94.1952 85.7953 89.0924 86.5867 83.9541 87.0337C80.9964 91.2645 77.7619 95.2903 74.272 99.0915ZM102.567 50.0719L100.336 49.5001C94.4593 48.0601 88.4765 47.0945 82.4455 46.6126L81.3371 46.5203L80.7102 45.6146C77.2848 40.6257 73.4605 35.9244 69.2752 31.5573L67.6709 29.9093L69.2752 28.2614C81.0608 16.1255 92.2941 11.3343 99.3024 15.3867C106.441 19.5102 107.861 31.3513 103.194 47.8522L102.567 50.0719ZM48.3386 115.092C46.3448 115.127 44.3723 114.63 42.6405 113.632C35.5011 109.508 34.081 97.6851 38.7486 81.1877L39.3754 78.968L41.6065 79.522C47.0672 80.9107 53.0805 81.8697 59.4797 82.4095L60.5882 82.5196L61.215 83.4253C64.6404 88.4142 68.4647 93.1155 72.6501 97.4826L74.2543 99.1306L72.6501 100.779C63.7046 110.027 55.053 115.095 48.3386 115.095V115.092ZM42.7149 84.6648C39.4675 97.3903 40.3174 106.827 45.0026 109.544C49.6701 112.208 58.4315 108.102 67.6709 99.0915C64.1811 95.2903 60.9466 91.261 57.9888 87.0302C52.8504 86.5845 47.7476 85.7966 42.7149 84.6648ZM70.9715 87.641C67.0795 87.641 63.0955 87.4741 59.0937 87.1403L57.9853 87.0479L57.3408 86.1245C55.0803 82.8672 52.9572 79.5163 50.9769 76.0805C48.9925 72.6446 47.1529 69.1265 45.463 65.5357L44.9849 64.52L45.463 63.5042C48.8487 56.3241 52.8215 49.4377 57.3408 42.9154L57.9853 41.992L59.0937 41.8996C66.9982 41.2319 74.9447 41.2319 82.8492 41.8996L83.9577 41.992L84.6022 42.9154C89.1273 49.4339 93.1004 56.3209 96.48 63.5042L96.958 64.52L96.48 65.5357C93.1072 72.7226 89.1338 79.6101 84.6022 86.1245L83.9577 87.0479L82.8492 87.1403C78.8986 87.4718 74.9359 87.6389 70.9715 87.641ZM60.6059 82.4983C67.5789 83.0346 74.3641 83.0346 81.3548 82.4983C85.2535 76.7727 88.7184 70.7619 91.7204 64.5164C88.7311 58.2606 85.2595 52.2484 81.3371 46.5345C74.437 45.9982 67.5059 45.9982 60.6059 46.5345C56.6807 52.2466 53.2089 58.259 50.2226 64.5164C53.2254 70.765 56.6965 76.7762 60.6059 82.4983Z" fill="#2C5DE4"/>
<path d="M39.1534 49.2852C28.6927 49.9825 23.4624 55.8231 17.3604 62.7968L20.8472 70.6423L25.6417 77.1802L40.0251 80.2313L46.1272 63.2327L39.1534 49.2852Z" fill="#2C5DE4"/>
<path d="M42.6405 46.6683C54.5578 46.3115 62.4773 40.6769 69.633 33.7225L65.9114 25.5431L60.6623 18.6619L44.4005 15.0332L36.9336 32.2859L42.6405 46.6683Z" fill="#2C5DE4"/>
<path d="M98.9417 81.9049C87.0244 82.2618 79.1049 87.8964 71.9492 94.8507L75.6708 103.03L80.92 109.911L97.1817 113.54L104.649 96.2873L98.9417 81.9049Z" fill="#2C5DE4"/>
<path d="M103.294 47.2766C95.7938 56.545 96.0808 62.8598 96.6881 72.8196L103.293 80.2295L112.778 79.2014L126.132 69.2376L117.92 52.327L103.294 47.2766Z" fill="#2C5DE4"/>
<path d="M38.4862 104.887L38.4976 105.075L45.1026 112.485L54.5874 111.457L70.5356 98.9722L59.729 84.5822L45.1026 81.9738C37.6503 91.1837 37.8871 95.0658 38.4862 104.887Z" fill="#2C5DE4"/>
<path d="M69.6635 99.407C87.9581 99.407 102.789 83.9908 102.789 64.974C102.789 45.9571 87.9581 30.541 69.6635 30.541C51.3688 30.541 36.5381 45.9571 36.5381 64.974C36.5381 83.9908 51.3688 99.407 69.6635 99.407Z" fill="#2C5DE4"/>
</g>
<path d="M58.5 51.7779C52.9453 51.7779 48.4218 56.3671 48.4218 62.0024C48.4218 67.6378 52.9453 72.227 58.5 72.227C64.0547 72.227 68.5782 67.6378 68.5782 62.0024C68.5782 56.3671 64.0547 51.7779 58.5 51.7779ZM30.2853 82.3227L28.0606 81.7638C11.5061 77.5077 2 70.3068 2 61.9845C2 53.6623 11.5097 46.4614 28.0606 42.2053L30.2853 41.6464L30.9103 43.8855C32.5897 49.7502 34.7367 55.4665 37.3302 60.9778L37.8069 61.9845L37.3302 63.0091C34.7313 68.5181 32.5841 74.2349 30.9103 80.1015L30.2853 82.3227ZM27.033 47.4286C14.4512 51.0112 6.72834 56.514 6.72834 61.9845C6.72834 67.4551 14.4547 72.9364 27.033 76.5404C28.575 71.5701 30.4364 66.7077 32.6053 61.9845C30.4334 57.2626 28.5718 52.4 27.033 47.4286ZM86.7147 82.3227L86.0897 80.0836C84.4132 74.2237 82.2661 68.5131 79.6698 63.0091L79.1931 61.9845L79.6698 60.9599C82.2687 55.4509 84.4159 49.7342 86.0897 43.8676L86.7147 41.6464L88.9394 42.2053C105.494 46.4614 115 53.6623 115 61.9845C115 70.3068 105.49 77.5077 88.9394 81.7638L86.7147 82.3227ZM84.3947 61.9845C86.5708 66.7046 88.4324 71.5675 89.967 76.5404C102.566 72.94 110.272 67.4551 110.272 61.9845C110.272 56.514 102.545 51.0327 89.967 47.4286C88.4214 52.3976 86.5601 57.2598 84.3947 61.9845ZM26.9942 47.4107L26.3692 45.1716C21.715 28.5271 23.131 16.5865 30.25 12.4236C37.2383 8.33587 48.4395 13.1687 60.1915 25.4103L61.7911 27.0726L60.1915 28.7349C56.0181 33.1401 52.2047 37.8823 48.7891 42.9146L48.1464 43.8282L47.0411 43.9213C41.0326 44.4025 35.0724 45.3765 29.2189 46.8339L26.9942 47.4107ZM35.9318 15.7482C34.6641 15.7482 33.5411 16.0097 32.6018 16.5686C27.93 19.3128 27.1037 28.8281 30.3206 41.6643C35.3401 40.5252 40.4278 39.721 45.5509 39.2568C48.5004 34.995 51.7256 30.9366 55.2053 27.1084C47.8674 19.8502 40.9144 15.7482 35.9318 15.7482ZM81.0859 112.996C81.0682 112.996 81.0682 112.996 81.0859 112.996C74.373 112.996 65.7461 107.884 56.8085 98.5552L55.2089 96.8929L56.8085 95.2306C60.9819 90.8254 64.7953 86.0832 68.2109 81.0508L68.836 80.1373L69.9412 80.0262C75.9575 79.5612 81.9249 78.587 87.7811 77.1136L90.0058 76.5547L90.6308 78.7938C95.285 95.4384 93.869 107.361 86.75 111.52C85.0288 112.524 83.0707 113.037 81.0859 112.996ZM61.7911 96.857C69.1291 104.115 76.0821 108.221 81.0647 108.221H81.0823C82.3324 108.221 83.4553 107.941 84.3947 107.4C89.0665 104.656 89.914 95.141 86.6758 82.3047C81.6573 83.445 76.5692 84.2433 71.4456 84.6943C68.4962 88.9619 65.271 93.0227 61.7911 96.857ZM90.0058 47.4107L87.7811 46.8339C81.9207 45.3814 75.955 44.4074 69.9412 43.9213L68.836 43.8282L68.2109 42.9146C64.7953 37.8823 60.9819 33.1401 56.8085 28.7349L55.2089 27.0726L56.8085 25.4103C68.5605 13.1687 79.7617 8.33587 86.75 12.4236C93.869 16.5829 95.285 28.5271 90.6308 45.1716L90.0058 47.4107ZM71.4491 39.2568C76.5724 39.7197 81.6601 40.5239 86.6794 41.6643C89.9175 28.8281 89.07 19.3092 84.3982 16.5686C79.744 13.8458 70.99 18.0231 61.7947 27.112C65.265 30.9484 68.4897 35.0062 71.4491 39.2604V39.2568ZM35.9318 112.996C33.9437 113.032 31.9768 112.531 30.25 111.524C23.131 107.365 21.715 95.4384 26.3692 78.7974L26.9942 76.5583L29.2189 77.1172C34.6641 78.518 40.6601 79.4853 47.0411 80.0298L48.1464 80.1409L48.7714 81.0544C52.187 86.0868 56.0004 90.829 60.1738 95.2341L61.7735 96.8964L60.1738 98.5588C51.2539 107.888 42.627 113 35.9318 113V112.996ZM30.3242 82.3047C27.086 95.141 27.9335 104.66 32.6053 107.4C37.2595 110.087 45.9958 105.946 55.2089 96.857C51.729 93.0227 48.5038 88.9583 45.5544 84.6907C40.4307 84.2411 35.3424 83.4464 30.3242 82.3047ZM58.5 85.3069C54.6192 85.3069 50.6465 85.1385 46.6562 84.8018L45.5509 84.7086L44.9082 83.7772C42.6543 80.4915 40.5372 77.1114 38.5626 73.6457C36.5838 70.1799 34.7495 66.6312 33.0644 63.0091L32.5877 61.9845L33.0644 60.9599C36.4404 53.7174 40.4019 46.7709 44.9082 40.1919L45.5509 39.2604L46.6562 39.1673C54.5381 38.4938 62.4619 38.4938 70.3438 39.1673L71.4491 39.2604L72.0918 40.1919C76.604 46.7672 80.5657 53.7141 83.9356 60.9599L84.4123 61.9845L83.9356 63.0091C80.5725 70.2585 76.6104 77.206 72.0918 83.7772L71.4491 84.7086L70.3438 84.8018C66.4045 85.1362 62.4531 85.3047 58.5 85.3069ZM48.164 80.1194C55.1171 80.6603 61.8829 80.6603 68.8536 80.1194C72.7412 74.344 76.1962 68.2808 79.1896 61.9809C76.2089 55.6707 72.7472 49.6061 68.836 43.8425C61.9556 43.3015 55.0444 43.3015 48.164 43.8425C44.2501 49.6043 40.7882 55.6691 37.8104 61.9809C40.8046 68.284 44.2658 74.3475 48.164 80.1194Z" fill="#2C5DE4"/>
</g>
</g>
<defs>
<clipPath id="clip0_899_127">
<rect width="130" height="130" fill="white"/>
</clipPath>
</defs>
</svg>
