<svg width="130" height="130" viewBox="0 0 130 130" fill="none" xmlns="http://www.w3.org/2000/svg">
<g clip-path="url(#clip0_987_80)">
<path opacity="0.1" fill-rule="evenodd" clip-rule="evenodd" d="M70.6865 40.2253L44.4549 40.2255L44.4545 66.4568L70.6865 40.2253ZM47.8425 35.4355L74.0738 9.20421L74.0738 35.4351L47.8425 35.4355ZM39.6646 69.8443L13.4337 69.8443L39.665 43.613L39.6646 69.8443ZM108.482 9.20421L79.3752 38.3112L108.483 96.5256L108.482 9.20421ZM99.9967 103.814L42.5397 75.1468L13.4548 104.232L99.9967 103.814ZM10.0463 100.865L36.2775 74.6343L10.0465 74.6343L10.0463 100.865ZM78.8637 5.81665L78.8634 32.048L105.095 5.81665L78.8637 5.81665ZM105.498 101.222L46.1 71.5864L75.8199 41.8665L105.498 101.222Z" fill="#2C5DE4"/>
<path d="M110.893 15.7193L78.3479 15.7197C77.6007 15.7197 76.8838 16.0161 76.3554 16.5446L11.2651 81.6349C10.7366 82.1633 10.4401 82.8802 10.4399 83.6277L10.4399 116.173C10.4399 116.922 10.7384 117.641 11.2702 118.17C11.8016 118.699 12.522 118.994 13.2714 118.991L110.907 118.519C111.68 118.515 112.38 118.201 112.886 117.694C113.397 117.184 113.712 116.479 113.711 115.701L113.711 18.5371C113.711 17.7893 113.414 17.0726 112.886 16.5442C112.357 16.0157 111.641 15.7191 110.893 15.7193ZM77.5762 55.8389L104.551 109.789L50.5626 82.8526L77.5762 55.8389ZM48.6213 76.8236V53.9004L71.5445 53.9004L48.6213 76.8236ZM52.606 48.2642L75.5301 25.3402L75.5301 48.2642L52.606 48.2642ZM42.9851 80.8092L20.061 80.8092L42.9853 57.8849L42.9851 80.8092ZM46.3607 87.0545L98.2509 112.944L20.0935 113.322L46.3607 87.0545ZM81.7765 51.6386L108.075 25.3398L108.076 104.236L81.7765 51.6386ZM81.166 44.2789L81.1664 21.3548L104.09 21.3546L81.166 44.2789ZM16.0757 86.4455L38.9996 86.4453L16.0757 109.369L16.0757 86.4455Z" fill="#2C5DE4"/>
</g>
<defs>
<clipPath id="clip0_987_80">
<rect width="130" height="130" fill="white"/>
</clipPath>
</defs>
</svg>
