<svg width="133" height="130" viewBox="0 0 133 130" fill="none" xmlns="http://www.w3.org/2000/svg">
<g clip-path="url(#clip0_1193_62)">
<circle opacity="0.1" cx="73" cy="58" r="36" fill="#2C5DE4"/>
<path opacity="0.1" d="M31.0416 49.7699H19.2676V46.652C19.2676 45.1935 19.1091 44.2634 18.8132 43.8618C18.5172 43.4602 18.0205 43.2699 17.3229 43.2699C16.562 43.2699 15.9912 43.5341 15.6002 44.0837C15.2091 44.6122 15.0189 45.426 15.0189 46.5146C15.0189 47.9203 15.2408 48.9772 15.6847 49.6854C16.1181 50.3829 17.3124 51.2496 19.2676 52.2642C24.8904 55.1707 28.4311 57.5593 29.8896 59.4089C31.3587 61.2691 32.088 64.2602 32.088 68.3821C32.088 71.3837 31.6758 73.5927 30.862 75.0195C30.0481 76.4463 28.4839 77.6301 26.1587 78.5919C23.8335 79.5642 21.1384 80.0398 18.0416 80.0398C14.6489 80.0398 11.7636 79.4797 9.35383 78.3699C6.95464 77.2602 5.40098 75.8545 4.65057 74.1317C3.91074 72.4089 3.54082 69.9675 3.54082 66.8179V64.0488H15.3148V69.1748C15.3148 70.7496 15.4839 71.7748 15.8115 72.2187C16.1392 72.6732 16.7311 72.8951 17.566 72.8951C18.4115 72.8951 19.0351 72.6098 19.4473 72.039C19.8595 71.4683 20.0603 70.6228 20.0603 69.5024C20.0603 67.0293 19.6693 65.4016 18.8872 64.6406C18.0733 63.8797 16.1075 62.6008 12.9579 60.8041C9.8083 58.9967 7.73675 57.6862 6.71155 56.8724C5.69691 56.0585 4.84082 54.9276 4.17496 53.4902C3.50911 52.0423 3.1709 50.2033 3.1709 47.9626C3.1709 44.739 3.64651 42.3715 4.59773 40.8813C5.54895 39.3911 7.08147 38.2285 9.21643 37.3829C11.3408 36.5374 13.8985 36.1252 16.9107 36.1252C20.1977 36.1252 22.9985 36.5902 25.3132 37.4992C27.6278 38.4187 29.1603 39.5813 29.9107 40.9764C30.6611 42.3715 31.0416 44.739 31.0416 48.0894V49.7699ZM75.379 12.6829C87.9246 12.6829 99.2758 17.7667 107.499 25.9894C115.711 34.2016 120.794 45.5634 120.794 58.1089C120.794 67.2829 118.078 75.8228 113.386 82.9675L133.044 104.391L119.494 116.778L100.544 95.9252C93.3465 100.724 84.6904 103.535 75.3896 103.535C62.8441 103.535 51.4929 98.4512 43.2701 90.2285C41.9807 88.939 40.7652 87.565 39.6343 86.1276H46.3351C46.5042 86.2967 46.6733 86.4764 46.8424 86.6455C54.1457 93.9488 64.2392 98.4618 75.379 98.4618C86.5189 98.4618 96.6124 93.9488 103.916 86.6455C111.219 79.3423 115.732 69.2488 115.732 58.1089C115.732 46.9691 111.229 36.8756 103.926 29.5724C96.6229 22.2691 86.5294 17.7561 75.3896 17.7561C64.2498 17.7561 54.1563 22.2691 46.853 29.5724C46.7156 29.7098 46.5676 29.8577 46.4303 29.9951H39.6977C40.8075 28.5894 41.9912 27.2472 43.2595 25.9894C51.4823 17.7667 62.8335 12.6829 75.379 12.6829ZM36.601 36.9813H58.3205V45.3943H49.305V53.4374H57.7603V61.4276H49.305V70.6967H59.1766V79.1098H36.601V36.9813ZM92.7652 61.6813C92.7652 65.9195 92.649 68.9106 92.4164 70.665C92.1945 72.4301 91.4758 74.0366 90.2603 75.4951C89.0449 76.9537 87.4067 78.074 85.3351 78.8561C83.2636 79.6382 80.8644 80.0293 78.1164 80.0293C75.5059 80.0293 73.1701 79.6593 71.0985 78.9195C69.027 78.1797 67.3465 77.0805 66.0888 75.6114C64.8205 74.1423 64.0701 72.5252 63.827 70.8024C63.5945 69.0585 63.4676 66.0252 63.4676 61.6919V54.4837C63.4676 50.2455 63.5839 47.2545 63.8164 45.5C64.0384 43.735 64.7676 42.1285 65.9725 40.6699C67.1774 39.2114 68.8262 38.0911 70.8977 37.3089C72.9693 36.5268 75.3685 36.1358 78.1164 36.1358C80.727 36.1358 83.0628 36.5057 85.1343 37.2455C87.2059 37.9854 88.8864 39.0846 90.1441 40.5537C91.4124 42.0333 92.1628 43.6398 92.4059 45.3626C92.6384 47.1065 92.7652 50.1398 92.7652 54.4732V61.6813ZM80.0611 47.8463C80.0611 45.8911 79.9343 44.6439 79.6912 44.0943C79.4481 43.5553 78.9408 43.2805 78.1798 43.2805C77.5351 43.2805 77.0384 43.5024 76.6896 43.9463C76.3514 44.3797 76.1717 45.6902 76.1717 47.8569V67.526C76.1717 69.9675 76.288 71.4789 76.5099 72.0496C76.7319 72.6309 77.2603 72.9057 78.0847 72.9057C78.9302 72.9057 79.4693 72.578 79.7124 71.9228C79.9555 71.2675 80.0611 69.6927 80.0611 67.2195V47.8463Z" fill="#2C5DE4"/>
<path d="M27.8707 49.7699H16.0967V46.652C16.0967 45.1935 15.9382 44.2634 15.6423 43.8618C15.3463 43.4602 14.8496 43.2699 14.152 43.2699C13.3911 43.2699 12.8203 43.5341 12.4293 44.0837C12.0382 44.6122 11.848 45.426 11.848 46.5146C11.848 47.9203 12.0699 48.9772 12.5138 49.6854C12.9472 50.3829 14.1415 51.2496 16.0967 52.2642C21.7195 55.1707 25.2602 57.5593 26.7187 59.4089C28.1878 61.2691 28.9171 64.2602 28.9171 68.3821C28.9171 71.3837 28.5049 73.5927 27.6911 75.0195C26.8772 76.4463 25.313 77.6301 22.9878 78.5919C20.6626 79.5642 17.9675 80.0398 14.8707 80.0398C11.478 80.0398 8.59268 79.4797 6.18293 78.3699C3.78374 77.2602 2.23008 75.8545 1.47967 74.1317C0.739837 72.4089 0.369919 69.9675 0.369919 66.8179V64.0488H12.1439V69.1748C12.1439 70.7496 12.313 71.7748 12.6407 72.2187C12.9683 72.6732 13.5602 72.8951 14.3951 72.8951C15.2407 72.8951 15.8642 72.6098 16.2764 72.039C16.6886 71.4683 16.8894 70.6228 16.8894 69.5024C16.8894 67.0293 16.4984 65.4016 15.7163 64.6406C14.9024 63.8797 12.9366 62.6008 9.78699 60.8041C6.6374 58.9967 4.56585 57.6862 3.54065 56.8724C2.52602 56.0585 1.66992 54.9276 1.00407 53.4902C0.338211 52.0423 0 50.2033 0 47.9626C0 44.739 0.47561 42.3715 1.42683 40.8813C2.37805 39.3911 3.91057 38.2285 6.04553 37.3829C8.16992 36.5374 10.7276 36.1252 13.7398 36.1252C17.0268 36.1252 19.8276 36.5902 22.1423 37.4992C24.4569 38.4187 25.9894 39.5813 26.7398 40.9764C27.4902 42.3715 27.8707 44.739 27.8707 48.0894V49.7699ZM72.2081 12.6829C84.7537 12.6829 96.1049 17.7667 104.328 25.9894C112.54 34.2016 117.624 45.5634 117.624 58.1089C117.624 67.2829 114.907 75.8228 110.215 82.9675L129.873 104.391L116.324 116.778L97.3732 95.9252C90.1756 100.724 81.5195 103.535 72.2187 103.535C59.6732 103.535 48.322 98.4512 40.0992 90.2285C38.8098 88.939 37.5943 87.565 36.4634 86.1276H43.1642C43.3333 86.2967 43.5024 86.4764 43.6715 86.6455C50.9748 93.9488 61.0683 98.4618 72.2081 98.4618C83.348 98.4618 93.4415 93.9488 100.745 86.6455C108.048 79.3423 112.561 69.2488 112.561 58.1089C112.561 46.9691 108.059 36.8756 100.755 29.5724C93.452 22.2691 83.3585 17.7561 72.2187 17.7561C61.0789 17.7561 50.9854 22.2691 43.6821 29.5724C43.5447 29.7098 43.3968 29.8577 43.2594 29.9951H36.5268C37.6366 28.5894 38.8203 27.2472 40.0886 25.9894C48.3114 17.7667 59.6626 12.6829 72.2081 12.6829ZM33.4301 36.9813H55.1496V45.3943H46.1342V53.4374H54.5894V61.4276H46.1342V70.6967H56.0057V79.1098H33.4301V36.9813ZM89.5943 61.6813C89.5943 65.9195 89.4781 68.9106 89.2455 70.665C89.0236 72.4301 88.3049 74.0366 87.0894 75.4951C85.874 76.9537 84.2358 78.074 82.1642 78.8561C80.0927 79.6382 77.6935 80.0293 74.9455 80.0293C72.335 80.0293 69.9992 79.6593 67.9276 78.9195C65.8561 78.1797 64.1756 77.0805 62.9179 75.6114C61.6496 74.1423 60.8992 72.5252 60.6561 70.8024C60.4236 69.0585 60.2968 66.0252 60.2968 61.6919V54.4837C60.2968 50.2455 60.413 47.2545 60.6455 45.5C60.8675 43.735 61.5967 42.1285 62.8016 40.6699C64.0065 39.2114 65.6553 38.0911 67.7268 37.3089C69.7984 36.5268 72.1976 36.1358 74.9455 36.1358C77.5561 36.1358 79.8919 36.5057 81.9634 37.2455C84.035 37.9854 85.7155 39.0846 86.9732 40.5537C88.2415 42.0333 88.9919 43.6398 89.235 45.3626C89.4675 47.1065 89.5943 50.1398 89.5943 54.4732V61.6813ZM76.8902 47.8463C76.8902 45.8911 76.7634 44.6439 76.5203 44.0943C76.2772 43.5553 75.7699 43.2805 75.0089 43.2805C74.3642 43.2805 73.8675 43.5024 73.5187 43.9463C73.1805 44.3797 73.0008 45.6902 73.0008 47.8569V67.526C73.0008 69.9675 73.1171 71.4789 73.339 72.0496C73.561 72.6309 74.0894 72.9057 74.9138 72.9057C75.7594 72.9057 76.2984 72.578 76.5415 71.9228C76.7846 71.2675 76.8902 69.6927 76.8902 67.2195V47.8463Z" fill="#2C5DE4"/>
</g>
<defs>
<clipPath id="clip0_1193_62">
<rect width="132.114" height="130" fill="white"/>
</clipPath>
</defs>
</svg>
