<svg width="130" height="130" viewBox="0 0 130 130" fill="none" xmlns="http://www.w3.org/2000/svg">
<path opacity="0.1" d="M91.9802 16.3791C91.9802 16.3791 90.6684 16.7726 88.4384 17.4939C88.0449 16.3135 87.5202 14.8053 86.7332 13.3627C84.2408 8.57579 80.5679 6.08397 76.1079 6.01839C75.78 6.01839 75.5176 6.01839 75.1897 6.08397C75.0585 5.95282 74.9273 5.7561 74.7962 5.62495C72.8941 3.52658 70.4018 2.54297 67.4503 2.60854C61.7442 2.80526 56.0381 6.93643 51.3813 14.2807C48.1019 19.4611 45.6752 25.9529 44.9537 30.9366C38.3949 32.9694 33.8038 34.412 33.6726 34.412C30.3276 35.4612 30.262 35.5923 29.8029 38.6743C29.475 41.035 20.8174 108.183 20.8174 108.183L92.8328 120.642V16.248C92.5049 16.248 92.177 16.3135 91.9802 16.3791ZM75.3209 21.5595C71.5168 22.7398 67.3192 24.0513 63.1871 25.2972C64.3677 20.7726 66.5977 16.3135 69.3524 13.3627C70.4018 12.2479 71.7791 11.0676 73.4844 10.3463C75.0585 13.6906 75.3865 18.3463 75.3209 21.5595ZM67.5159 6.41184C68.8277 6.41184 70.0083 6.67414 70.9921 7.32988C69.418 8.11677 67.975 9.2971 66.5321 10.8053C62.9248 14.6742 60.1045 20.7726 58.9895 26.6087C55.5133 27.6579 52.1684 28.707 49.0202 29.6907C50.9878 20.4447 58.7272 6.67414 67.5159 6.41184ZM79.125 20.3791C79.0594 17.4939 78.7314 13.4283 77.3541 9.95284C81.6829 10.8053 83.8473 15.6578 84.7655 18.6086C83.1258 19.1332 81.2238 19.7234 79.125 20.3791ZM92.8328 120.642L125.102 112.97C125.102 112.97 112.247 26.0185 112.181 25.4283C112.116 24.8382 111.591 24.5103 111.132 24.4447C110.673 24.3792 102.277 24.248 102.277 24.248C102.277 24.248 94.8005 18.1496 92.8328 16.248V120.642Z" fill="#2C5DE4"/>
<path fill-rule="evenodd" clip-rule="evenodd" d="M81.3206 23.2318C80.9936 23.2318 80.6665 23.2972 80.4702 23.3626C80.4702 23.3626 80.1926 23.4459 79.6756 23.6061C79.1365 23.7732 78.3369 24.024 77.3206 24.3511C77.2485 24.3743 77.1754 24.3979 77.1011 24.4219C77.0472 24.4393 76.9927 24.4569 76.9377 24.4747C76.9349 24.4664 76.9322 24.4581 76.9294 24.4497C76.5378 23.2759 76.0164 21.7825 75.2369 20.3535C73.1298 16.3056 70.1766 13.9028 66.6164 13.2248C66.0241 13.112 65.415 13.0469 64.7902 13.03C64.74 13.0286 64.6898 13.0275 64.6394 13.0268C64.5605 13.0268 64.4853 13.0268 64.4122 13.0277C64.1822 13.0306 63.9717 13.0426 63.7236 13.0922C63.6581 13.0268 63.5927 12.945 63.5273 12.8633C63.4619 12.7815 63.3965 12.6997 63.3311 12.6343C63.29 12.589 63.2487 12.5442 63.2071 12.5C63.1473 12.4363 63.0869 12.3738 63.026 12.3123C62.5946 11.8772 62.1351 11.4958 61.6487 11.1674C60.0592 10.0943 58.1833 9.58795 56.0698 9.62385C56.048 9.62422 56.0262 9.62465 56.0044 9.62513C55.9885 9.62568 55.9725 9.62626 55.9566 9.62687C50.2813 9.84448 44.6089 13.9631 39.9773 21.2693C37.1354 25.7595 34.9356 31.2373 33.9354 35.8578C33.7845 36.5552 33.6609 37.2331 33.5665 37.8851C33.4596 37.9183 33.3531 37.9513 33.2473 37.9841C31.5666 38.5053 30.0208 38.9858 28.6534 39.411C24.8371 40.5975 22.4096 41.3522 22.3148 41.3522C18.9786 42.3989 18.9132 42.5297 18.4552 45.6043C18.1282 47.9593 9.49316 114.946 9.49316 114.946L81.3206 127.375V23.2318ZM74.3746 29.4345L74.3968 29.5009L77.3206 28.555V122.624L13.9502 111.658L14.8146 104.954C15.6293 98.6374 16.7188 90.1907 17.8186 81.6703C20.0102 64.692 22.235 47.4787 22.4147 46.173C22.4548 45.9036 22.4884 45.6813 22.5195 45.4889C22.7535 45.4094 23.0273 45.3215 23.3627 45.2158C23.377 45.2121 23.3896 45.2089 23.4001 45.2061C23.4912 45.1824 23.5881 45.155 23.6737 45.1304C23.852 45.0791 24.0888 45.0084 24.368 44.9238C24.9313 44.7532 25.7312 44.5065 26.7207 44.1999C27.5862 43.9316 28.6407 43.6038 29.83 43.2341C30.5995 42.9948 31.4254 42.738 32.2931 42.4685L32.2863 42.5005L38.8154 40.4601C39.0992 40.3715 39.3843 40.2823 39.6707 40.1928C42.561 39.2892 45.5879 38.343 48.7217 37.3969L51.0402 36.697L51.0493 36.6493L52.9073 36.0889C56.3683 35.0451 59.8763 33.9551 63.144 32.9397C63.3537 32.8745 63.5624 32.8097 63.7701 32.7452L63.7703 32.7558L68.8417 31.171C69.2646 31.0388 69.6807 30.9089 70.0894 30.7814C71.6433 30.2964 73.0876 29.8457 74.3746 29.4345ZM63.6756 28.5861C63.7353 28.5675 63.7949 28.549 63.8544 28.5306C63.8615 28.1825 63.864 27.8176 63.8607 27.4391C63.8445 25.5441 63.685 23.3118 63.2454 21.1838C63.0404 20.191 62.7744 19.2209 62.4335 18.3183C62.4299 18.3086 62.4262 18.2989 62.4225 18.2893C62.3232 18.0278 62.2175 17.7721 62.1051 17.5231C62.0781 17.4631 62.0506 17.4035 62.0227 17.3443C61.9404 17.3791 61.8588 17.4151 61.778 17.452C61.6293 17.5199 61.4833 17.5912 61.3399 17.6656C61.3034 17.6846 61.267 17.7037 61.2308 17.723C60.244 18.2504 59.3821 18.9207 58.6453 19.6103C58.3813 19.8575 58.1334 20.1071 57.9015 20.3535C57.8897 20.3661 57.8779 20.3788 57.8661 20.3915C57.8551 20.4034 57.844 20.4153 57.833 20.4273C56.0787 22.3289 54.5409 24.843 53.3571 27.5912C52.7083 29.0976 52.1658 30.6744 51.7523 32.2593C51.8291 32.2361 51.9059 32.213 51.9827 32.1898C53.4449 31.7482 54.9142 31.2989 56.3702 30.8505C58.2687 30.266 60.1446 29.6831 61.9527 29.1212C62.5345 28.9404 63.1093 28.7618 63.6756 28.5861ZM55.0886 17.8022C55.1011 17.7891 55.1136 17.7761 55.1261 17.7631C55.1297 17.7593 55.1334 17.7555 55.1371 17.7517C55.2133 17.6724 55.2895 17.594 55.3658 17.5165C55.6 17.2786 55.8345 17.0494 56.0698 16.8293C56.1028 16.7984 56.1358 16.7677 56.1689 16.7372C57.1939 15.7902 58.2354 15.0154 59.3397 14.4362C59.4052 14.4018 59.4709 14.3681 59.5369 14.3351C59.4685 14.2896 59.3992 14.2459 59.329 14.2041C58.4078 13.6558 57.3266 13.4275 56.1352 13.4195C56.1197 13.4194 56.1042 13.4193 56.0887 13.4193C56.0824 13.4193 56.0761 13.4193 56.0698 13.4193C55.1325 13.4473 54.2071 13.6294 53.2994 13.9435C49.474 15.2676 45.9634 18.9381 43.1989 23.3083L43.1974 23.3106C41.4472 26.0779 39.996 29.1255 38.9535 32.0354C38.3801 33.6358 37.9303 35.1946 37.6223 36.6422C37.7066 36.6159 37.791 36.5895 37.8756 36.5631C38.0759 36.5005 38.277 36.4376 38.4789 36.3745C39.6634 36.0042 40.8745 35.6256 42.1086 35.2421C43.7835 34.7217 45.501 34.1922 47.2525 33.6623C47.3567 33.6307 47.4611 33.5992 47.5656 33.5676C47.7094 32.8148 47.8817 32.0576 48.0804 31.3014C49.4183 26.2094 51.9559 21.1627 55.0886 17.8022ZM67.2531 22.3529C67.2969 22.654 67.3361 22.9531 67.3713 23.2491C67.5479 24.7371 67.6212 26.1482 67.6486 27.3531C67.7191 27.331 67.7894 27.309 67.8596 27.2871C68.2142 27.1764 68.563 27.0675 68.9058 26.9605C69.8562 26.6639 70.7598 26.3819 71.6096 26.1145C72.1303 25.9507 72.6308 25.7923 73.1095 25.6395C73.1648 25.6219 73.2197 25.6043 73.2744 25.5868C73.2387 25.4722 73.2012 25.3547 73.1617 25.2348C72.8587 24.3136 72.4415 23.2434 71.8857 22.1814C71.8742 22.1596 71.8627 22.1377 71.8512 22.1159C71.81 22.038 71.768 21.9602 71.7253 21.8825C71.5184 21.5059 71.2936 21.1323 71.0499 20.7686C69.8999 19.0524 68.3287 17.558 66.2208 17.0277C66.1095 16.9996 65.9967 16.9743 65.8823 16.9518C65.9118 17.0263 65.9408 17.101 65.9694 17.176C66.6029 18.8403 67.0025 20.6297 67.2531 22.3529ZM83.6756 127.113L113.506 119.721C113.506 119.721 100.684 32.9789 100.619 32.3901C100.554 31.8014 100.03 31.4743 99.5719 31.4089C99.114 31.3435 90.7406 31.2126 90.7406 31.2126C90.7406 31.2126 89.3119 29.8205 87.6756 28.2285C86.8936 27.4675 86.0641 26.6609 85.3206 25.9388C84.6801 25.3167 84.1033 24.7573 83.6756 24.3439V127.113ZM87.6756 33.8111L87.9483 34.0767L87.9491 34.0775L89.0881 35.1873L90.6781 35.2121L90.7406 31.2126C90.6781 35.2121 90.6781 35.2121 90.6781 35.2121L91.0369 35.2179C91.266 35.2216 91.594 35.2269 91.989 35.2335C92.7795 35.2468 93.8372 35.2651 94.9085 35.2855C95.6295 35.2992 96.3535 35.3138 97.0048 35.3283C97.9411 41.7217 100.55 59.3907 103.13 76.861C104.737 87.7407 106.342 98.602 107.545 106.743L109.018 116.713L87.6756 122.001V33.8111ZM96.643 32.8319C96.6448 32.8475 96.6517 32.8979 96.6635 32.9817C96.6555 32.9325 96.6487 32.8825 96.643 32.8319ZM57.1466 60.0759C55.7 59.7788 53.9482 59.5679 52.0794 59.6689C45.0144 60.1268 44.8836 64.5751 44.949 65.6872C45.1038 68.0873 47.7021 69.7543 50.848 71.7727C55.6765 74.8707 61.7953 78.7964 62.3498 87.471C63.0694 98.7226 56.3969 106.442 46.7152 107.031C35.2019 107.75 28.7911 100.947 28.7911 100.947L31.2115 90.5455C31.2115 90.5455 32.692 91.6635 34.7964 92.7886C37.071 94.0047 40.0744 95.2292 42.7248 95.0593C46.0611 94.863 47.2386 92.1155 47.1731 90.2185C46.9439 86.7227 44.305 84.8461 41.3453 82.7413C37.548 80.0408 33.2226 76.9649 32.7815 69.6122C32.0619 58.5568 39.3231 47.436 55.2848 46.3893C57.5066 46.249 59.3354 46.3595 60.7682 46.5594C60.8507 46.5709 60.9319 46.5827 61.0118 46.5948C63.4249 46.9596 64.6394 47.5668 64.6394 47.5668L60.9761 61.2389C60.9761 61.2389 59.4472 60.5484 57.1466 60.0759ZM59.3434 64.8906L63.6211 66.8224L69.348 45.4489L66.4282 43.9891L64.6394 47.5668C66.4282 43.9891 66.4251 43.9875 66.4251 43.9875L66.4219 43.9859L66.4152 43.9826L66.4009 43.9755L66.3687 43.9599C66.3456 43.9487 66.3192 43.9362 66.2896 43.9224C66.2304 43.8949 66.1583 43.8624 66.0732 43.8258C65.903 43.7525 65.6811 43.663 65.4076 43.5644C64.8603 43.3673 64.1078 43.1345 63.1516 42.9242C61.2352 42.5028 58.5226 42.1768 55.0327 42.3972L55.0231 42.3979C46.1164 42.9819 39.2629 46.4263 34.7549 51.6278C30.2833 56.7873 28.3705 63.3898 28.7893 69.8618C29.0304 73.8517 30.2354 76.9867 32.0108 79.523C33.7393 81.9922 35.8936 83.7224 37.71 85.0544C38.2795 85.4721 38.7885 85.8343 39.2491 86.1622C40.4141 86.9913 41.2702 87.6006 42.017 88.3311C42.8278 89.1242 43.1118 89.7072 43.1751 90.3953C43.1726 90.4486 43.1624 90.533 43.1339 90.631C43.0981 90.7539 43.0502 90.8421 43.0114 90.8945C42.9791 90.938 42.9539 90.9575 42.9246 90.9734C42.8987 90.9875 42.7785 91.0492 42.4899 91.0662L42.4794 91.0668L42.4689 91.0675C41.0695 91.1572 39.0195 90.4823 36.9054 89.379C35.9341 88.872 35.0923 88.3513 34.4943 87.9571C34.1974 87.7614 33.966 87.6005 33.8148 87.493C33.7394 87.4393 33.6843 87.3992 33.6514 87.3751L33.6219 87.3534L33.6196 87.3516L33.6161 87.349L28.7105 83.6447L24.4091 102.129L25.8799 103.69L28.7911 100.947C25.8799 103.69 25.8825 103.693 25.8825 103.693L25.8853 103.696L25.8913 103.702L25.9052 103.717L25.9404 103.753C25.9672 103.781 26.0006 103.815 26.0406 103.855C26.1206 103.934 26.227 104.038 26.3595 104.162C26.6245 104.409 26.9952 104.738 27.4694 105.118C28.4161 105.878 29.787 106.853 31.5637 107.793C35.1287 109.681 40.3373 111.436 46.958 111.023C52.8434 110.665 57.9927 108.107 61.5295 103.781C65.0519 99.474 66.7558 93.6916 66.3417 87.2157C65.7665 78.2181 60.2742 73.3413 55.728 70.198C54.7826 69.5444 53.8358 68.937 52.9955 68.398C52.8433 68.3004 52.6946 68.205 52.5501 68.112C51.5669 67.4794 50.7801 66.9597 50.1361 66.4667C49.2923 65.8208 49.0184 65.458 48.9412 65.3363C48.9479 65.1572 48.9917 64.9075 49.1268 64.7128L49.1291 64.7094C49.1847 64.6281 49.7269 63.8339 52.3167 63.6619C54.1903 63.5637 55.9733 63.8691 57.327 64.2246C57.9956 64.4002 58.5315 64.5806 58.8862 64.711C59.0629 64.776 59.1925 64.8278 59.2689 64.8592C59.3071 64.875 59.3318 64.8855 59.3422 64.89L59.347 64.8921C59.347 64.8921 59.3454 64.8914 59.3434 64.8906Z" fill="#2C5DE4"/>
</svg>
