<svg width="130" height="130" viewBox="0 0 130 130" fill="none" xmlns="http://www.w3.org/2000/svg">
<g clip-path="url(#clip0_1211_109)">
<g opacity="0.1">
<path d="M113.303 81.2239C114.907 76.2732 115.722 71.1098 115.722 65.8484C115.722 60.6064 114.913 55.4615 113.319 50.5263C116.825 49.2097 120.012 47.1018 122.659 44.2988C127.233 39.4568 129.647 33.1225 129.456 26.4649C129.062 12.7195 117.561 1.85976 103.813 2.25201C97.1547 2.44231 90.9699 5.2143 86.3959 10.0573C84.0861 12.503 82.3287 15.3294 81.1782 18.3858C76.242 16.7925 71.0971 15.9838 65.8531 15.9838C60.6063 15.9838 55.4575 16.7945 50.5184 18.3897C46.9561 8.96303 37.8391 2.24133 27.1803 2.24133C13.4292 2.24133 2.24219 13.4283 2.24219 27.1785C2.24219 37.8363 8.96485 46.9523 18.3915 50.5136C16.7953 55.4537 15.9856 60.6025 15.9856 65.8484C15.9856 71.1098 16.8002 76.2732 18.4042 81.2239C8.97068 84.7823 2.24219 93.9022 2.24219 104.565C2.24219 108.318 3.05582 111.927 4.66075 115.291C5.10447 116.22 6.21714 116.614 7.14632 116.17C8.07452 115.727 8.46871 114.614 8.02597 113.685C6.66183 110.826 5.97053 107.758 5.97053 104.565C5.97053 92.8711 15.4856 83.357 27.1803 83.357C38.876 83.357 48.3911 92.8711 48.3911 104.565C48.3911 116.26 38.876 125.774 27.1803 125.774C21.8461 125.774 16.7478 123.786 12.8252 120.177C12.0669 119.48 10.8873 119.53 10.1911 120.287C9.494 121.045 9.54255 122.224 10.3008 122.921C14.9137 127.165 20.9082 129.502 27.1803 129.502C37.8546 129.502 46.9832 122.76 50.5339 113.312C55.4672 114.904 60.6111 115.713 65.8531 115.713C71.0961 115.713 76.241 114.904 81.1743 113.313C84.7249 122.761 93.8535 129.502 104.528 129.502C118.279 129.502 129.466 118.315 129.466 104.565C129.466 93.9022 122.738 84.7814 113.303 81.2239ZM89.1067 12.6166C92.9962 8.49796 98.2576 6.14056 103.921 5.97841C104.127 5.97259 104.331 5.96967 104.537 5.96967C115.953 5.96967 125.401 15.0876 125.729 26.5707C125.891 32.2331 123.839 37.6198 119.949 41.7394C116.06 45.8581 110.798 48.2155 105.135 48.3776C104.929 48.3834 104.724 48.3863 104.519 48.3863C93.103 48.3863 83.655 39.2684 83.3268 27.7853C83.1637 22.1229 85.2172 16.7353 89.1067 12.6166ZM80.1286 109.732C75.5352 111.225 70.7417 111.985 65.8531 111.985C60.9665 111.985 56.173 111.225 51.5796 109.732C51.932 108.064 52.1194 106.336 52.1194 104.565C52.1194 90.8147 40.9315 79.6287 27.1803 79.6287C25.3987 79.6287 23.6607 79.818 21.9839 80.1743C20.478 75.5644 19.7139 70.7535 19.7139 65.8484C19.7139 60.9588 20.4742 56.1634 21.9704 51.5651C23.651 51.9244 25.3938 52.1147 27.1803 52.1147C31.4524 52.1147 35.6672 51.0156 39.3712 48.9369C40.2684 48.433 40.5878 47.297 40.0839 46.3989C39.58 45.5008 38.444 45.1823 37.5459 45.6862C34.3982 47.4523 30.8135 48.3863 27.1803 48.3863C15.4846 48.3863 5.97053 38.8723 5.97053 27.1775C5.97053 15.4837 15.4856 5.96967 27.1803 5.96967C38.876 5.96967 48.3911 15.4837 48.3911 27.1785C48.3911 32.071 46.6852 36.844 43.5879 40.6199C42.9345 41.4151 43.051 42.5899 43.8472 43.2434C44.6424 43.8958 45.8172 43.7803 46.4706 42.9841C50.1125 38.5441 52.1194 32.9302 52.1194 27.1775C52.1194 25.392 51.9282 23.6492 51.5699 21.9685C56.1672 20.4723 60.9636 19.7121 65.8531 19.7121C70.7417 19.7121 75.5361 20.4714 80.1315 21.9656C79.7247 23.89 79.5422 25.8755 79.5994 27.8921C79.9868 41.3947 91.0942 52.1157 104.518 52.1147C104.758 52.1147 105 52.1118 105.241 52.104C106.77 52.0603 108.273 51.8788 109.738 51.569C111.233 56.1654 111.993 60.9608 111.993 65.8484C111.993 70.7535 111.228 75.5644 109.723 80.1743C108.046 79.817 106.309 79.6287 104.528 79.6287C90.7767 79.6287 79.5897 90.8147 79.5897 104.565C79.5897 106.337 79.7761 108.065 80.1286 109.732ZM104.528 125.774C92.8321 125.774 83.3181 116.26 83.3181 104.566C83.3181 92.8711 92.8321 83.357 104.528 83.357C116.224 83.357 125.738 92.8711 125.738 104.566C125.738 116.26 116.224 125.774 104.528 125.774Z" fill="#2C5DE4"/>
<path d="M39.8742 16.1741C39.2315 15.7372 38.3858 15.744 37.7508 16.1925C37.1158 16.6401 36.4362 17.0139 35.7216 17.3101C33.1603 15.3061 29.4484 15.3294 26.9056 17.5402C25.5842 18.6897 24.7579 20.2791 24.5657 21.9957C21.8306 21.5889 19.3586 20.083 17.7372 17.7742C17.3508 17.2246 16.6983 16.9265 16.0313 16.9906C15.3623 17.0557 14.7807 17.4751 14.5079 18.0887C14.4545 18.2091 13.2001 21.0753 13.3603 24.5832C13.4826 27.2678 14.4428 30.7282 17.945 33.4002C16.6837 33.807 15.3516 33.9954 14.0244 33.942C13.1603 33.908 12.3884 34.4701 12.1553 35.3012C11.9223 36.1324 12.2903 37.0149 13.0447 37.4344C15.9691 39.0587 19.1023 39.8723 22.1636 39.8723C25.1045 39.8723 27.9785 39.1209 30.5359 37.6169C33.7428 35.7304 36.073 32.8419 37.3382 29.3145C37.378 29.2252 37.411 29.132 37.4372 29.0359C38.0877 27.1203 38.4285 25.0221 38.4285 22.7967C38.4285 22.6996 38.4256 22.6016 38.4217 22.5045C39.4858 21.2501 40.2451 19.7636 40.6373 18.1567C40.8199 17.4013 40.517 16.611 39.8742 16.1741ZM34.6429 22.2152C34.6798 22.4093 34.6992 22.6103 34.6992 22.8026C34.6992 24.6298 34.4273 26.3222 33.9098 27.8514C33.8817 27.9213 33.8584 27.9941 33.839 28.0688C32.8709 30.7777 31.1087 32.9536 28.6455 34.4031C26.391 35.7304 23.8035 36.2955 21.1665 36.1042C21.7704 35.8052 22.3539 35.4653 22.9122 35.0867C23.4714 34.7061 23.7821 34.0526 23.7219 33.3778C23.6617 32.7031 23.2404 32.1147 22.6219 31.8399C19.1411 30.2932 17.2799 27.8329 17.0905 24.5289C17.0517 23.8521 17.0857 23.2026 17.1585 22.6074C19.7227 24.7502 23.0073 25.9192 26.4357 25.8309C27.4464 25.8047 28.2523 24.9784 28.2523 23.9677V22.8365C28.2523 22.8288 28.2523 22.82 28.2523 22.8113C28.2396 21.8685 28.6397 20.9724 29.3523 20.3539C30.6844 19.1956 32.7098 19.3364 33.8681 20.6685C34.1011 20.9355 34.3982 21.1248 34.7225 21.2248C34.6089 21.5374 34.5788 21.8782 34.6429 22.2152Z" fill="#2C5DE4"/>
<path d="M98.3935 28.6485H101.036V39.7646C101.036 40.7937 101.871 41.6287 102.9 41.6287C103.931 41.6287 104.765 40.7937 104.765 39.7646V28.6485H107.643C108.673 28.6485 109.508 27.8135 109.508 26.7843C109.508 25.7551 108.673 24.9201 107.643 24.9201H104.765V19.7043C104.765 17.914 106.222 16.4566 108.013 16.4566H110.427C111.456 16.4566 112.291 15.6216 112.291 14.5924C112.291 13.5623 111.456 12.7283 110.427 12.7283H108.013C104.167 12.7283 101.036 15.8576 101.036 19.7043V24.9201H98.3935C97.3643 24.9201 96.5293 25.7551 96.5293 26.7843C96.5293 27.8135 97.3643 28.6485 98.3935 28.6485Z" fill="#2C5DE4"/>
<path d="M22.9509 114.206C23.3946 114.206 23.8383 114.092 24.2335 113.863L36.9225 106.534C37.7138 106.078 38.2051 105.226 38.2051 104.312C38.2051 103.4 37.7138 102.548 36.9225 102.092L24.2335 94.7624C23.4432 94.3051 22.4606 94.3051 21.6693 94.7624C20.878 95.2187 20.3857 96.0702 20.3857 96.9839V111.642C20.3857 112.556 20.878 113.407 21.6693 113.863C22.0645 114.093 22.5072 114.206 22.9509 114.206ZM24.1141 98.9995L33.3145 104.313L24.1141 109.627V98.9995Z" fill="#2C5DE4"/>
<path d="M112.628 91.3622H96.4274C93.6137 91.3622 91.3242 93.6517 91.3242 96.4664V112.664C91.3242 115.479 93.6137 117.768 96.4274 117.768H112.628C115.442 117.768 117.731 115.479 117.731 112.664V96.4664C117.731 93.6517 115.442 91.3622 112.628 91.3622ZM114.003 112.664C114.003 113.424 113.386 114.04 112.628 114.04H96.4274C95.6691 114.04 95.0526 113.424 95.0526 112.664V96.4664C95.0526 95.7081 95.6691 95.0906 96.4274 95.0906H112.628C113.386 95.0906 114.003 95.7081 114.003 96.4664V112.664Z" fill="#2C5DE4"/>
<path d="M104.528 98.9306C101.421 98.9306 98.8926 101.459 98.8926 104.566C98.8926 107.673 101.421 110.2 104.528 110.2C107.635 110.2 110.163 107.673 110.163 104.566C110.163 101.459 107.635 98.9306 104.528 98.9306ZM104.528 106.472C103.476 106.472 102.621 105.616 102.621 104.566C102.621 103.514 103.476 102.659 104.528 102.659C105.579 102.659 106.435 103.514 106.435 104.566C106.435 105.616 105.579 106.472 104.528 106.472Z" fill="#2C5DE4"/>
<path d="M79.3452 46.5076C78.3151 46.5076 77.481 47.3426 77.481 48.3717V49.2077C74.8537 50.7563 72.0914 52.0933 69.2515 53.1875C66.9776 54.0633 64.6289 54.7915 62.2531 55.3614C61.888 55.0808 61.4336 54.9109 60.9385 54.9109H52.4031C50.3408 54.9109 48.6641 56.5887 48.6641 58.6499V68.4397C48.6641 70.502 50.3408 72.1787 52.4031 72.1787H54.109L54.7556 84.6085C54.8071 85.6037 55.6304 86.3756 56.6159 86.3756C56.648 86.3756 56.681 86.3746 56.714 86.3727C57.7422 86.3193 58.5325 85.4425 58.4791 84.4143L57.8422 72.1787H60.9385C61.4327 72.1787 61.888 72.0098 62.2521 71.7292C63.7648 72.0943 65.2697 72.5234 66.7407 73.0118C67.7184 73.3351 68.7728 72.806 69.0971 71.8292C69.4214 70.8515 68.8913 69.7961 67.9145 69.4728C66.3348 68.9485 64.7192 68.4873 63.0939 68.096V58.9956C65.6397 58.3858 68.1553 57.6042 70.5914 56.6663C72.9468 55.7585 75.2537 54.6954 77.4801 53.4914V73.6031C76.6606 73.1604 75.8324 72.738 74.9984 72.337C74.0702 71.8904 72.9565 72.2807 72.5109 73.2089C72.0643 74.1371 72.4546 75.2507 73.3828 75.6974C74.7712 76.3654 76.1441 77.1013 77.4801 77.8858V78.7179C77.4801 79.7481 78.3151 80.5821 79.3442 80.5821C80.3734 80.5821 81.2084 79.7481 81.2084 78.7179V48.3717C81.2094 47.3426 80.3744 46.5076 79.3452 46.5076ZM59.3665 68.4494L52.3924 68.4397L52.4031 58.6392H59.3665V68.4494Z" fill="#2C5DE4"/>
</g>
<path d="M111.435 79.3561C113.039 74.4054 113.853 69.242 113.853 63.9806C113.853 58.7386 113.045 53.5937 111.45 48.6585C114.956 47.3419 118.144 45.234 120.791 42.431C125.365 37.589 127.778 31.2547 127.588 24.5971C127.194 10.8517 115.692 -0.00803717 101.945 0.384215C95.2865 0.574516 89.1017 3.3465 84.5277 8.18946C82.2179 10.6352 80.4605 13.4616 79.31 16.518C74.3738 14.9247 69.2289 14.116 63.985 14.116C58.7381 14.116 53.5893 14.9267 48.6502 16.5219C45.0879 7.09523 35.9709 0.373535 25.3122 0.373535C11.561 0.373535 0.374023 11.5605 0.374023 25.3107C0.374023 35.9685 7.09669 45.0845 16.5234 48.6458C14.9272 53.5859 14.1174 58.7347 14.1174 63.9806C14.1174 69.242 14.932 74.4054 16.536 79.3561C7.10251 82.9145 0.374023 92.0344 0.374023 102.697C0.374023 106.451 1.18766 110.06 2.79259 113.423C3.2363 114.352 4.34898 114.746 5.27815 114.303C6.20635 113.859 6.60055 112.746 6.15781 111.817C4.79366 108.959 4.10236 105.89 4.10236 102.697C4.10236 91.0033 13.6174 81.4892 25.3122 81.4892C37.0079 81.4892 46.5229 91.0033 46.5229 102.697C46.5229 114.392 37.0079 123.906 25.3122 123.906C19.9779 123.906 14.8796 121.918 10.9571 118.31C10.1988 117.612 9.01911 117.662 8.32296 118.419C7.62584 119.178 7.67439 120.356 8.43268 121.053C13.0455 125.297 19.04 127.634 25.3122 127.634C35.9865 127.634 45.1151 120.892 48.6657 111.444C53.599 113.036 58.7429 113.845 63.985 113.845C69.2279 113.845 74.3729 113.036 79.3061 111.445C82.8568 120.893 91.9854 127.634 102.66 127.634C116.411 127.634 127.598 116.447 127.598 102.697C127.598 92.0344 120.869 82.9136 111.435 79.3561ZM87.2385 10.7488C91.1281 6.63016 96.3895 4.27276 102.053 4.11061C102.259 4.10479 102.463 4.10188 102.668 4.10188C114.085 4.10188 123.533 13.2198 123.861 24.7029C124.023 30.3653 121.97 35.752 118.081 39.8716C114.191 43.9903 108.93 46.3477 103.267 46.5098C103.061 46.5156 102.856 46.5186 102.651 46.5186C91.2349 46.5186 81.7868 37.4006 81.4586 25.9175C81.2955 20.2551 83.349 14.8675 87.2385 10.7488ZM78.2604 107.864C73.667 109.358 68.8735 110.117 63.985 110.117C59.0983 110.117 54.3049 109.358 49.7114 107.864C50.0639 106.196 50.2513 104.468 50.2513 102.697C50.2513 88.9469 39.0633 77.7609 25.3122 77.7609C23.5305 77.7609 21.7926 77.9502 20.1158 78.3065C18.6099 73.6966 17.8458 68.8857 17.8458 63.9806C17.8458 59.091 18.606 54.2956 20.1022 49.6973C21.7829 50.0566 23.5257 50.2469 25.3122 50.2469C29.5842 50.2469 33.799 49.1478 37.5031 47.0691C38.4002 46.5652 38.7196 45.4292 38.2157 44.5311C37.7118 43.633 36.5758 43.3145 35.6777 43.8184C32.53 45.5845 28.9453 46.5186 25.3122 46.5186C13.6164 46.5186 4.10236 37.0045 4.10236 25.3097C4.10236 13.6159 13.6174 4.10188 25.3122 4.10188C37.0079 4.10188 46.5229 13.6159 46.5229 25.3107C46.5229 30.2032 44.817 34.9762 41.7198 38.7521C41.0663 39.5473 41.1829 40.7221 41.979 41.3756C42.7742 42.028 43.949 41.9125 44.6024 41.1163C48.2444 36.6763 50.2513 31.0624 50.2513 25.3097C50.2513 23.5242 50.06 21.7814 49.7017 20.1007C54.299 18.6045 59.0954 17.8443 63.985 17.8443C68.8735 17.8443 73.668 18.6036 78.2633 20.0978C77.8565 22.0222 77.674 24.0077 77.7313 26.0243C78.1187 39.5269 89.226 50.2479 102.65 50.2469C102.89 50.2469 103.132 50.244 103.373 50.2362C104.902 50.1925 106.405 50.011 107.87 49.7012C109.365 54.2976 110.125 59.093 110.125 63.9806C110.125 68.8857 109.36 73.6966 107.855 78.3065C106.178 77.9492 104.44 77.7609 102.66 77.7609C88.9085 77.7609 77.7216 88.9469 77.7216 102.697C77.7216 104.469 77.908 106.197 78.2604 107.864ZM102.66 123.906C90.964 123.906 81.4499 114.392 81.4499 102.698C81.4499 91.0033 90.964 81.4892 102.66 81.4892C114.355 81.4892 123.869 91.0033 123.869 102.698C123.869 114.392 114.355 123.906 102.66 123.906Z" fill="#2C5DE4"/>
<path d="M38.006 14.3063C37.3633 13.8694 36.5176 13.8762 35.8826 14.3247C35.2476 14.7723 34.568 15.1461 33.8534 15.4423C31.2921 13.4383 27.5803 13.4616 25.0374 15.6724C23.716 16.8219 22.8898 18.4113 22.6975 20.1279C19.9624 19.7211 17.4905 18.2152 15.869 15.9064C15.4826 15.3568 14.8301 15.0587 14.1631 15.1228C13.4941 15.1879 12.9126 15.6073 12.6397 16.2209C12.5863 16.3413 11.3319 19.2075 11.4921 22.7154C11.6144 25.4 12.5747 28.8604 16.0768 31.5324C14.8156 31.9392 13.4835 32.1276 12.1562 32.0742C11.2921 32.0402 10.5202 32.6023 10.2872 33.4334C10.0542 34.2646 10.4221 35.1471 11.1765 35.5666C14.101 37.1909 17.2341 38.0045 20.2954 38.0045C23.2364 38.0045 26.1103 37.2531 28.6677 35.7491C31.8747 33.8626 34.2049 30.9741 35.47 27.4467C35.5098 27.3574 35.5428 27.2642 35.569 27.1681C36.2195 25.2525 36.5603 23.1543 36.5603 20.9289C36.5603 20.8318 36.5574 20.7338 36.5535 20.6367C37.6177 19.3823 38.3769 17.8958 38.7692 16.2889C38.9517 15.5335 38.6488 14.7432 38.006 14.3063ZM32.7747 20.3474C32.8116 20.5415 32.831 20.7425 32.831 20.9348C32.831 22.762 32.5592 24.4544 32.0417 25.9836C32.0135 26.0535 31.9902 26.1263 31.9708 26.201C31.0028 28.9099 29.2406 31.0858 26.7773 32.5353C24.5228 33.8626 21.9353 34.4277 19.2983 34.2364C19.9022 33.9374 20.4858 33.5975 21.044 33.2189C21.6033 32.8383 21.914 32.1848 21.8538 31.51C21.7936 30.8353 21.3722 30.2469 20.7537 29.9721C17.273 28.4254 15.4117 25.9651 15.2224 22.6611C15.1835 21.9843 15.2175 21.3348 15.2903 20.7396C17.8546 22.8824 21.1392 24.0514 24.5675 23.9631C25.5782 23.9369 26.3841 23.1106 26.3841 22.0999V20.9687C26.3841 20.961 26.3841 20.9522 26.3841 20.9435C26.3715 20.0007 26.7715 19.1046 27.4842 18.4861C28.8163 17.3278 30.8416 17.4686 31.9999 18.8007C32.2329 19.0677 32.53 19.257 32.8543 19.357C32.7407 19.6697 32.7106 20.0104 32.7747 20.3474Z" fill="#2C5DE4"/>
<path d="M96.5253 26.7807H99.1682V37.8968C99.1682 38.9259 100.003 39.7609 101.032 39.7609C102.062 39.7609 102.896 38.9259 102.896 37.8968V26.7807H105.775C106.804 26.7807 107.639 25.9457 107.639 24.9165C107.639 23.8873 106.804 23.0523 105.775 23.0523H102.896V17.8365C102.896 16.0462 104.354 14.5888 106.145 14.5888H108.559C109.588 14.5888 110.423 13.7538 110.423 12.7246C110.423 11.6945 109.588 10.8605 108.559 10.8605H106.145C102.298 10.8605 99.1682 13.9898 99.1682 17.8365V23.0523H96.5253C95.4961 23.0523 94.6611 23.8873 94.6611 24.9165C94.6611 25.9457 95.4961 26.7807 96.5253 26.7807Z" fill="#2C5DE4"/>
<path d="M21.0828 112.338C21.5265 112.338 21.9702 112.224 22.3653 111.996L35.0543 104.666C35.8456 104.21 36.3369 103.358 36.3369 102.445C36.3369 101.532 35.8456 100.68 35.0543 100.224L22.3653 92.8946C21.575 92.4373 20.5924 92.4373 19.8011 92.8946C19.0098 93.3509 18.5176 94.2024 18.5176 95.1161V109.774C18.5176 110.688 19.0098 111.539 19.8011 111.996C20.1963 112.225 20.639 112.338 21.0828 112.338ZM22.2459 97.1317L31.4464 102.446L22.2459 107.759V97.1317Z" fill="#2C5DE4"/>
<path d="M110.76 89.4944H94.5592C91.7455 89.4944 89.4561 91.7839 89.4561 94.5986V110.796C89.4561 113.611 91.7455 115.901 94.5592 115.901H110.76C113.574 115.901 115.863 113.611 115.863 110.796V94.5986C115.863 91.7839 113.574 89.4944 110.76 89.4944ZM112.135 110.796C112.135 111.556 111.518 112.172 110.76 112.172H94.5592C93.8009 112.172 93.1844 111.556 93.1844 110.796V94.5986C93.1844 93.8403 93.8009 93.2228 94.5592 93.2228H110.76C111.518 93.2228 112.135 93.8403 112.135 94.5986V110.796Z" fill="#2C5DE4"/>
<path d="M102.66 97.0628C99.5527 97.0628 97.0244 99.5911 97.0244 102.698C97.0244 105.805 99.5527 108.332 102.66 108.332C105.767 108.332 108.295 105.805 108.295 102.698C108.295 99.5911 105.767 97.0628 102.66 97.0628ZM102.66 104.604C101.608 104.604 100.753 103.749 100.753 102.698C100.753 101.647 101.608 100.791 102.66 100.791C103.711 100.791 104.567 101.647 104.567 102.698C104.567 103.749 103.711 104.604 102.66 104.604Z" fill="#2C5DE4"/>
<path d="M77.477 44.6398C76.4469 44.6398 75.6129 45.4748 75.6129 46.5039V47.3399C72.9856 48.8885 70.2233 50.2255 67.3833 51.3197C65.1094 52.1955 62.7608 52.9237 60.3849 53.4936C60.0199 53.213 59.5655 53.0431 59.0703 53.0431H50.5349C48.4727 53.0431 46.7959 54.7209 46.7959 56.7821V66.5719C46.7959 68.6342 48.4727 70.311 50.5349 70.311H52.2408L52.8875 82.7407C52.9389 83.7359 53.7623 84.5078 54.7478 84.5078C54.7798 84.5078 54.8128 84.5068 54.8458 84.5049C55.874 84.4515 56.6644 83.5747 56.611 82.5465L55.974 70.311H59.0703C59.5645 70.311 60.0199 70.142 60.384 69.8614C61.8967 70.2265 63.4016 70.6556 64.8725 71.144C65.8502 71.4673 66.9047 70.9382 67.229 69.9614C67.5532 68.9837 67.0231 67.9283 66.0464 67.605C64.4667 67.0807 62.8511 66.6195 61.2257 66.2282V57.1278C63.7715 56.518 66.2872 55.7364 68.7232 54.7985C71.0787 53.8907 73.3856 52.8276 75.6119 51.6236V71.7353C74.7924 71.2926 73.9642 70.8702 73.1302 70.4692C72.202 70.0226 71.0884 70.4129 70.6427 71.3411C70.1961 72.2693 70.5864 73.3829 71.5146 73.8296C72.903 74.4976 74.2759 75.2335 75.6119 76.018V76.8501C75.6119 77.8803 76.4469 78.7143 77.4761 78.7143C78.5052 78.7143 79.3402 77.8803 79.3402 76.8501V46.5039C79.3412 45.4748 78.5062 44.6398 77.477 44.6398ZM57.4984 66.5816L50.5242 66.5719L50.5349 56.7714H57.4984V66.5816Z" fill="#2C5DE4"/>
</g>
<defs>
<clipPath id="clip0_1211_109">
<rect width="130" height="130" fill="white"/>
</clipPath>
</defs>
</svg>
