<svg width="130" height="130" viewBox="0 0 130 130" fill="none" xmlns="http://www.w3.org/2000/svg">
<path opacity="0.1" d="M118.05 87.8139C120.637 79.5306 126.466 48.9051 83.6551 21.5825C82.9294 21.1187 82.0631 20.9225 81.2068 21.0278C80.3506 21.1331 79.5586 21.5333 78.9685 22.1589C78.3878 22.7696 78.0537 23.5716 78.0302 24.4116C78.0066 25.2516 78.2953 26.0708 78.8409 26.7127C79.0149 26.9202 94.7913 46.023 89.1826 67.8407C79.479 61.206 40.9023 30.8168 40.9023 30.8168L63.198 67.1202L21.7966 40.6046C21.7966 40.6046 51.0641 76.3142 68.9749 89.7449C60.3037 92.8403 41.4649 96.1144 16.5823 80.7469C15.8933 80.3197 15.082 80.13 14.2736 80.2071C13.4653 80.2842 12.705 80.6238 12.1104 81.1734C11.5266 81.7073 11.1465 82.4254 11.0345 83.2059C10.9224 83.9864 11.0853 84.7815 11.4956 85.4563C12.325 86.8339 32.2717 118.999 74.4444 118.999C86.0157 118.999 92.7729 115.724 98.2134 113.096C101.554 111.488 104.193 110.208 107.076 110.208C114.245 110.208 118.949 117.281 118.989 117.344C119.351 117.896 119.856 118.341 120.452 118.63C121.047 118.919 121.711 119.043 122.371 118.987C123.027 118.943 123.658 118.721 124.196 118.344C124.734 117.968 125.158 117.453 125.422 116.854C130.601 104.899 121.681 92.2466 118.05 87.8081V87.8139Z" fill="#2C5DE4"/>
<path d="M109.05 76.8139C111.637 68.5306 117.466 37.9051 74.6551 10.5825C73.9294 10.1187 73.0631 9.92245 72.2068 10.0278C71.3506 10.1331 70.5586 10.5333 69.9685 11.1589C69.3878 11.7696 69.0537 12.5716 69.0302 13.4116C69.0066 14.2516 69.2953 15.0708 69.8409 15.7127C70.0149 15.9202 85.7913 35.023 80.1826 56.8407C70.479 50.206 31.9023 19.8168 31.9023 19.8168L54.198 56.1202L12.7966 29.6046C12.7966 29.6046 42.0641 65.3142 59.9749 78.7449C51.3037 81.8403 32.4649 85.1144 7.5823 69.7469C6.89334 69.3197 6.08196 69.13 5.27362 69.2071C4.46529 69.2842 3.70502 69.6238 3.1104 70.1734C2.52663 70.7073 2.14653 71.4254 2.03448 72.2059C1.92244 72.9864 2.08534 73.7815 2.49559 74.4563C3.325 75.8339 23.2717 107.999 65.4444 107.999C77.0157 107.999 83.7729 104.724 89.2134 102.096C92.5543 100.488 95.1933 99.208 98.076 99.208C105.245 99.208 109.949 106.281 109.989 106.344C110.351 106.896 110.856 107.341 111.452 107.63C112.047 107.919 112.711 108.043 113.371 107.987C114.027 107.943 114.658 107.721 115.196 107.344C115.734 106.968 116.158 106.453 116.422 105.854C121.601 93.8992 112.681 81.2466 109.05 76.8081V76.8139Z" stroke="#2C5DE4" stroke-width="4" stroke-linecap="round" stroke-linejoin="round"/>
</svg>
