<svg width="130" height="130" viewBox="0 0 130 130" fill="none" xmlns="http://www.w3.org/2000/svg">
<path opacity="0.1" d="M125 30H11C10.4477 30 10 30.4477 10 31V119C10 119.552 10.4477 120 11 120H125C125.552 120 126 119.552 126 119V31C126 30.4477 125.552 30 125 30Z" fill="#2C5DE4"/>
<path d="M84.2201 107.112H5.1389C3.95816 107.112 3.00098 106.155 3.00098 104.974V24.6811M3.00098 24.6811V9.84788C3.00098 8.66714 3.95816 7.70996 5.1389 7.70996H38.1555M3.00098 24.6811H38.1555M119.374 107.112V24.6811M119.374 24.6811V9.84788C119.374 8.66714 118.417 7.70996 117.236 7.70996H38.1555M119.374 24.6811H38.1555M38.1555 7.70996V24.6811" stroke="#2C5DE4" stroke-width="4" stroke-linecap="round"/>
<path d="M45.4277 16.1943H113.312Z" fill="#2C5DE4"/>
<path d="M45.4277 16.1943H113.312" stroke="#2C5DE4" stroke-width="4" stroke-linecap="round"/>
<path d="M10.7702 18.8069C12.1091 18.8069 13.1946 17.7214 13.1946 16.3825C13.1946 15.0435 12.1091 13.958 10.7702 13.958C9.43117 13.958 8.3457 15.0435 8.3457 16.3825C8.3457 17.7214 9.43117 18.8069 10.7702 18.8069Z" fill="#2C5DE4"/>
<path d="M20.4674 18.8069C21.8064 18.8069 22.8919 17.7214 22.8919 16.3825C22.8919 15.0435 21.8064 13.958 20.4674 13.958C19.1284 13.958 18.043 15.0435 18.043 16.3825C18.043 17.7214 19.1284 18.8069 20.4674 18.8069Z" fill="#2C5DE4"/>
<path d="M30.1647 18.8069C31.5037 18.8069 32.5891 17.7214 32.5891 16.3825C32.5891 15.0435 31.5037 13.958 30.1647 13.958C28.8257 13.958 27.7402 15.0435 27.7402 16.3825C27.7402 17.7214 28.8257 18.8069 30.1647 18.8069Z" fill="#2C5DE4"/>
<path d="M33.3269 54.1746C33.3269 53.6223 33.7746 53.1746 34.3269 53.1746H36.17C36.7223 53.1746 37.17 53.6223 37.17 54.1746V69.655C37.17 71.4086 36.7526 72.9625 35.9179 74.3165C35.0832 75.6623 33.9096 76.7227 32.3971 77.4976C30.8847 78.2643 29.1119 78.6476 27.0788 78.6476C25.0539 78.6476 23.2853 78.2643 21.7729 77.4976C20.2604 76.7227 19.0868 75.6623 18.2521 74.3165C17.4174 72.9625 17 71.4086 17 69.655V54.1746C17 53.6223 17.4477 53.1746 18 53.1746H19.8307C20.383 53.1746 20.8307 53.6223 20.8307 54.1746V69.3491C20.8307 70.4829 21.0828 71.4902 21.5869 72.3711C22.0993 73.252 22.8225 73.9454 23.7564 74.4511C24.6903 74.9486 25.7978 75.1974 27.0788 75.1974C28.3681 75.1974 29.4797 74.9486 30.4136 74.4511C31.3558 73.9454 32.0748 73.252 32.5707 72.3711C33.0748 71.4902 33.3269 70.4829 33.3269 69.3491V54.1746Z" fill="#2C5DE4"/>
<path d="M46.2682 53.1746C46.8204 53.1746 47.2682 53.6223 47.2682 54.1746V77.2316C47.2682 77.7839 46.8204 78.2316 46.2682 78.2316H44.4375C43.8852 78.2316 43.4375 77.7839 43.4375 77.2316V54.1746C43.4375 53.6223 43.8852 53.1746 44.4375 53.1746H46.2682Z" fill="#2C5DE4"/>
<path d="M61.6085 52C62.2679 52 62.7468 52.627 62.5733 53.2631L54.9367 81.2631C54.8181 81.6982 54.4229 82 53.972 82H52.735C52.0756 82 51.5967 81.373 51.7702 80.7369L59.4068 52.7369C59.5255 52.3018 59.9206 52 60.3716 52H61.6085Z" fill="#2C5DE4"/>
<path d="M83.3884 54.1746C83.3884 53.6223 83.8361 53.1746 84.3884 53.1746H86.2315C86.7838 53.1746 87.2315 53.6223 87.2315 54.1746V69.655C87.2315 71.4086 86.8141 72.9625 85.9794 74.3165C85.1446 75.6623 83.971 76.7227 82.4586 77.4976C80.9462 78.2643 79.1734 78.6476 77.1403 78.6476C75.1154 78.6476 73.3468 78.2643 71.8343 77.4976C70.3219 76.7227 69.1483 75.6623 68.3136 74.3165C67.4788 72.9625 67.0615 71.4086 67.0615 69.655V54.1746C67.0615 53.6223 67.5092 53.1746 68.0615 53.1746H69.8922C70.4444 53.1746 70.8922 53.6223 70.8922 54.1746V69.3491C70.8922 70.4829 71.1442 71.4902 71.6484 72.3711C72.1608 73.252 72.884 73.9454 73.8179 74.4511C74.7518 74.9486 75.8592 75.1974 77.1403 75.1974C78.4296 75.1974 79.5412 74.9486 80.4751 74.4511C81.4173 73.9454 82.1363 73.252 82.6322 72.3711C83.1363 71.4902 83.3884 70.4829 83.3884 69.3491V54.1746Z" fill="#2C5DE4"/>
<path d="M95.6076 53.1746C95.9537 53.1746 96.2752 53.3535 96.4576 53.6477L102.187 62.8904C102.22 62.9428 102.277 62.9747 102.339 62.9747C102.4 62.9747 102.457 62.9428 102.49 62.8904L108.219 53.6477C108.401 53.3535 108.723 53.1746 109.069 53.1746H111.137C111.924 53.1746 112.402 54.0425 111.982 54.7084L105.379 65.1676C105.173 65.4946 105.173 65.9113 105.381 66.2376L112.024 76.6954C112.447 77.3612 111.969 78.2316 111.18 78.2316H109.088C108.745 78.2316 108.426 78.0556 108.243 77.7653L102.491 68.6499C102.458 68.5977 102.4 68.5661 102.339 68.5661C102.277 68.5661 102.219 68.5977 102.186 68.6499L96.4338 77.7653C96.2506 78.0556 95.9313 78.2316 95.5881 78.2316H93.5133C92.7211 78.2316 92.2435 77.3543 92.6734 76.6889L99.4223 66.2441C99.6351 65.9147 99.6357 65.4911 99.4238 65.1611L92.7154 54.7149C92.288 54.0494 92.7659 53.1746 93.5568 53.1746H95.6076Z" fill="#2C5DE4"/>
</svg>
