<svg width="130" height="130" viewBox="0 0 130 130" fill="none" xmlns="http://www.w3.org/2000/svg">
<path opacity="0.1" d="M103.734 81.078V58.1133C103.734 57.0961 102.952 56.5486 102.169 57.0961L78.6958 70.6324C78.1872 70.9062 77.6786 71.6887 77.6786 72.4714V99.583C77.6786 100.639 78.4611 101.148 79.2435 100.639L99.0393 89.1763L118.366 100.365L68.0154 129.433L67.8981 129.511L67.7416 129.433L33.6661 109.715L17.5087 100.326L36.7179 89.176L56.5526 100.639C57.3348 101.148 58.1173 100.365 57.8434 99.3483V72.1973C57.8434 71.4148 57.5698 70.9062 56.7874 70.3976L33.314 56.8222C32.8055 56.5484 31.7492 57.0958 31.7492 57.8783V80.8041L12.4619 92.0322V33.6228L63.3208 4.3985V26.8155L43.4858 38.3174C42.7034 38.5522 42.7034 39.8823 43.4858 40.1171L66.9591 53.6925C67.5068 53.9663 68.2893 54.201 69.0717 53.6925L92.5451 40.1171C93.3275 39.8823 93.3275 38.826 92.5451 38.3174L72.7101 26.8155V4.3985L123.06 33.6228V91.9148L103.734 81.078Z" fill="#2C5DE4"/>
<path d="M93.4193 87.8219L108.75 96.6976L62.2594 123.537L29.0509 104.321L29.0477 104.319L15.8709 96.6617L31.1 87.8219L49.8975 98.6855C51.0536 99.4036 52.4615 99.2412 53.3881 98.3147C54.1555 97.5474 54.3998 96.4699 54.2233 95.4719V68.5318C54.2233 67.8979 54.1097 67.2046 53.7217 66.531C53.3444 65.876 52.8062 65.4122 52.2572 65.0553L52.2136 65.027L52.1685 65.0009L28.6952 51.4255L28.6689 51.4103L28.6421 51.3959C28.023 51.0625 27.3926 51.0517 26.9443 51.1175C26.4787 51.1858 26.0454 51.3573 25.6771 51.5827C24.9995 51.9971 24.129 52.8803 24.129 54.2129V75.9888L8.8418 84.8883V31.1148L55.7006 4.18898V21.9979L37.0113 32.8356C35.7105 33.3723 35.2789 34.6724 35.2789 35.5518C35.2789 36.4316 35.7108 37.7323 37.0126 38.2687L60.3377 51.7584L60.3903 51.7887L60.4446 51.8159C61.198 52.1926 62.8212 52.7887 64.4909 51.7364L87.7768 38.2694C88.9245 37.7993 89.5118 36.7116 89.5118 35.6545C89.5118 34.5776 88.9367 33.5743 88.0149 32.9751L87.9722 32.9474L87.9282 32.9219L69.09 21.9979V4.20639L115.44 31.109V84.835L100.114 76.2411V54.4478C100.114 53.4614 99.7261 52.3495 98.7341 51.6883C97.6796 50.9854 96.4336 51.1168 95.4912 51.7319L72.0954 65.2235C71.4488 65.5815 70.9644 66.1456 70.6478 66.6896C70.315 67.2614 70.0585 67.9964 70.0585 68.8059V95.9176C70.0585 96.9069 70.4354 98.0281 71.4382 98.6966C72.4934 99.3999 73.7313 99.2634 74.6601 98.6845L93.4193 87.8219Z" stroke="#2C5DE4" stroke-width="4"/>
</svg>
