<svg width="130" height="130" viewBox="0 0 130 130" fill="none" xmlns="http://www.w3.org/2000/svg">
<rect opacity="0.1" x="21.1602" y="20.6367" width="102.578" height="102.578" rx="8" fill="#2C5DE4"/>
<path d="M9.32143 39.5C9.93711 39.5 10.5276 39.2554 10.9629 38.8201C11.3983 38.3847 11.6429 37.7943 11.6429 37.1786V19.1271C11.6453 17.1429 12.4346 15.2407 13.8377 13.8377C15.2407 12.4346 17.1429 11.6453 19.1271 11.6429H37.1786C37.7943 11.6429 38.3847 11.3983 38.8201 10.9629C39.2554 10.5276 39.5 9.93711 39.5 9.32143C39.5 8.70575 39.2554 8.11528 38.8201 7.67993C38.3847 7.24458 37.7943 7 37.1786 7H19.1271C15.912 7.00369 12.8295 8.28255 10.556 10.556C8.28255 12.8295 7.00369 15.912 7 19.1271V37.1786C7 37.7943 7.24458 38.3847 7.67993 38.8201C8.11528 39.2554 8.70575 39.5 9.32143 39.5Z" fill="#2C5DE4"/>
<path d="M101.659 7H83.6076C82.9919 7 82.4014 7.24458 81.9661 7.67993C81.5307 8.11528 81.2861 8.70575 81.2861 9.32143C81.2861 9.93711 81.5307 10.5276 81.9661 10.9629C82.4014 11.3983 82.9919 11.6429 83.6076 11.6429H101.659C103.643 11.6453 105.545 12.4346 106.948 13.8377C108.352 15.2407 109.141 17.1429 109.143 19.1271V37.1786C109.143 37.7943 109.388 38.3847 109.823 38.8201C110.259 39.2554 110.849 39.5 111.465 39.5C112.08 39.5 112.671 39.2554 113.106 38.8201C113.542 38.3847 113.786 37.7943 113.786 37.1786V19.1271C113.782 15.912 112.504 12.8295 110.23 10.556C107.957 8.28255 104.874 7.00369 101.659 7Z" fill="#2C5DE4"/>
<path d="M37.1786 109.143H19.1271C17.1429 109.14 15.2407 108.351 13.8377 106.948C12.4346 105.545 11.6453 103.643 11.6429 101.659V83.6071C11.6429 82.9915 11.3983 82.401 10.9629 81.9656C10.5276 81.5303 9.93711 81.2857 9.32143 81.2857C8.70575 81.2857 8.11528 81.5303 7.67993 81.9656C7.24458 82.401 7 82.9915 7 83.6071V101.659C7.00369 104.874 8.28255 107.956 10.556 110.23C12.8295 112.503 15.912 113.782 19.1271 113.786H37.1786C37.7943 113.786 38.3847 113.541 38.8201 113.106C39.2554 112.67 39.5 112.08 39.5 111.464C39.5 110.849 39.2554 110.258 38.8201 109.823C38.3847 109.387 37.7943 109.143 37.1786 109.143Z" fill="#2C5DE4"/>
<path d="M111.465 81.2857C110.849 81.2857 110.259 81.5303 109.823 81.9656C109.388 82.401 109.143 82.9915 109.143 83.6071V101.659C109.141 103.643 108.352 105.545 106.948 106.948C105.545 108.351 103.643 109.14 101.659 109.143H83.6076C82.9919 109.143 82.4014 109.387 81.9661 109.823C81.5307 110.258 81.2861 110.849 81.2861 111.464C81.2861 112.08 81.5307 112.67 81.9661 113.106C82.4014 113.541 82.9919 113.786 83.6076 113.786H101.659C104.874 113.782 107.957 112.503 110.23 110.23C112.504 107.956 113.782 104.874 113.786 101.659V83.6071C113.786 82.9915 113.542 82.401 113.106 81.9656C112.671 81.5303 112.08 81.2857 111.465 81.2857Z" fill="#2C5DE4"/>
<path d="M92.8928 77.8036V42.9821C92.8928 42.5747 92.7855 42.1744 92.5818 41.8215C92.378 41.4686 92.085 41.1755 91.7321 40.9718L61.5535 23.5611C61.2006 23.3573 60.8003 23.2501 60.3928 23.2501C59.9853 23.2501 59.585 23.3573 59.2321 23.5611L29.0767 40.9718C28.7238 41.1755 28.4308 41.4686 28.227 41.8215C28.0233 42.1744 27.916 42.5747 27.916 42.9821V77.8036C27.916 78.2111 28.0233 78.6114 28.227 78.9642C28.4308 79.3171 28.7238 79.6102 29.0767 79.8139L59.2553 97.2246C59.6082 97.4284 60.0085 97.5357 60.416 97.5357C60.8235 97.5357 61.2238 97.4284 61.5767 97.2246L91.7553 79.8139C92.1039 79.6073 92.3923 79.313 92.5918 78.9603C92.7914 78.6076 92.8952 78.2088 92.8928 77.8036ZM60.3928 28.2504L85.9285 42.9821L60.3928 57.7139L34.8803 42.9821L60.3928 28.2504ZM32.5589 47.0029L58.0714 61.7346V91.1936L32.5589 76.4618V47.0029ZM62.7142 91.1936V61.7346L88.25 47.0029V76.4618L62.7142 91.1936Z" fill="#2C5DE4"/>
</svg>
