<svg width="130" height="130" viewBox="0 0 130 130" fill="none" xmlns="http://www.w3.org/2000/svg">
<path opacity="0.1" d="M72.2856 113.974L24.6926 29.986C23.9371 28.6528 24.9002 27 26.4326 27H64.8829C65.5774 27 66.2222 27.3603 66.5862 27.9518L72.2418 37.142C73.0358 38.4323 74.9203 38.4056 75.6774 37.0933L80.9233 28.0006C81.2804 27.3814 81.9409 27 82.6556 27H123.018C124.562 27 125.523 28.6744 124.745 30.0077L75.7532 113.995C74.9758 115.328 73.0462 115.316 72.2856 113.974Z" fill="#2C5DE4"/>
<path d="M121.492 19.8225C121.266 19.4277 120.94 19.0998 120.546 18.872C120.152 18.6443 119.705 18.5248 119.25 18.5257L93.4684 18.5102L93.4323 18.4999L72.7656 18.3655H72.7501C72.3016 18.3646 71.8606 18.4809 71.4709 18.7029C71.0812 18.925 70.7563 19.245 70.5284 19.6314L64.9898 28.9572L59.4614 19.7605C59.2361 19.3804 58.9166 19.0647 58.5338 18.8439C58.151 18.6231 57.7178 18.5046 57.2759 18.4999L36.6093 18.3604H36.5834C36.4049 18.3877 36.23 18.4345 36.0616 18.4999H10.7501C10.2956 18.4997 9.84903 18.6195 9.45559 18.8472C9.06216 19.0748 8.73575 19.4022 8.50933 19.7964C8.28291 20.1905 8.16449 20.6374 8.16603 21.092C8.16757 21.5465 8.28902 21.9926 8.51811 22.3852L62.7681 115.385C62.9955 115.775 63.3213 116.099 63.713 116.324C64.1046 116.549 64.5484 116.668 65.0001 116.668C65.4518 116.668 65.8956 116.549 66.2873 116.324C66.6789 116.099 67.0047 115.775 67.2321 115.385L121.482 22.411C121.711 22.0186 121.833 21.5726 121.835 21.1182C121.837 20.6637 121.719 20.2168 121.492 19.8225ZM55.7828 23.6562L62.7836 35.3277C63.0131 35.7106 63.3379 36.0276 63.7264 36.2476C64.1148 36.4677 64.5537 36.5833 65.0001 36.5832H65.0053C65.4527 36.5822 65.8922 36.465 66.2808 36.2431C66.6693 36.0212 66.9936 35.7022 67.2218 35.3174L74.2123 23.5374L88.8339 23.6407L73.3029 49.0452L65.0001 62.6232L41.2024 23.558L55.7828 23.6562ZM65.0001 108.958L15.2451 23.6665H35.1368L62.7939 68.9265C62.9931 69.2214 63.2518 69.4714 63.5534 69.6602C63.6258 69.7119 63.6619 69.7945 63.7343 69.8358C64.3174 70.1642 65.0052 70.2535 65.6528 70.0848C66.3005 69.9162 66.8574 69.5028 67.2063 68.9317L94.8635 23.6769L114.755 23.6872L65.0001 108.958Z" fill="#2C5DE4"/>
</svg>
