<svg width="130" height="130" viewBox="0 0 130 130" fill="none" xmlns="http://www.w3.org/2000/svg">
<path d="M51.5925 103.828H84.8768L82.3179 117.427C82.2099 117.972 81.9165 118.462 81.4874 118.815C81.0584 119.168 80.5203 119.362 79.9643 119.365H56.5051C55.9492 119.362 55.4112 119.168 54.9824 118.815C54.5536 118.462 54.2604 117.971 54.1524 117.427L51.5925 103.828ZM99.9042 62.1234H96.5383V75.4306H99.9042C100.46 75.4284 100.991 75.2072 101.384 74.8154C101.776 74.4236 101.998 73.8928 102 73.3387V64.216C101.998 63.6618 101.776 63.1308 101.384 62.7389C100.991 62.3469 100.46 62.1257 99.9042 62.1234ZM94.8209 41.5282V96.0258C94.8205 97.6402 94.178 99.1883 93.0348 100.33C91.8916 101.471 90.3411 102.113 88.7244 102.113H47.7459C46.1292 102.113 44.5788 101.471 43.4355 100.33C42.2923 99.1883 41.6499 97.6402 41.6494 96.0258V41.5282C41.6499 39.9139 42.2923 38.3658 43.4355 37.2243C44.5788 36.0828 46.1292 35.4413 47.7459 35.4408H88.7239C90.3407 35.4412 91.8912 36.0826 93.0345 37.2242C94.1778 38.3657 94.8205 39.9138 94.8209 41.5282ZM91.4545 42.1113C91.4541 41.5278 91.2229 40.968 90.8113 40.5538C90.3997 40.1395 89.8409 39.9043 89.2565 39.8993H47.2138C46.924 39.9003 46.6372 39.9584 46.3699 40.0702C46.1026 40.1819 45.8599 40.3452 45.6558 40.5506C45.4516 40.756 45.29 40.9996 45.1802 41.2674C45.0704 41.5351 45.0145 41.8219 45.0157 42.1113V95.4426C45.0145 95.732 45.0704 96.0188 45.1802 96.2866C45.29 96.5544 45.4516 96.798 45.6557 97.0034C45.8598 97.2088 46.1025 97.3721 46.3699 97.4839C46.6372 97.5956 46.924 97.6537 47.2138 97.6548H89.2564C89.839 97.6537 90.3975 97.422 90.8094 97.0106C91.2214 96.5992 91.4533 96.0415 91.4543 95.4598L91.4545 42.1113ZM89.737 42.1113V95.4598C89.7344 95.5862 89.6829 95.7068 89.5934 95.7962C89.5038 95.8857 89.3831 95.9371 89.2565 95.9398H47.2138C47.1493 95.9395 47.0856 95.9262 47.0263 95.9009C46.967 95.8755 46.9133 95.8386 46.8685 95.7923C46.8238 95.746 46.7887 95.6912 46.7654 95.6311C46.7421 95.571 46.7311 95.5069 46.733 95.4426V42.1113C46.7322 41.9821 46.782 41.8578 46.8719 41.7648C46.9618 41.6719 47.0845 41.6179 47.2138 41.6142H89.2564C89.3856 41.6179 89.5083 41.6721 89.5981 41.765C89.6879 41.8579 89.7378 41.9822 89.737 42.1113ZM65.6771 54.1666C65.6734 55.3659 66.0861 56.5295 66.8449 57.4592L73.9716 65.4504C74.0565 65.5374 74.158 65.6065 74.2701 65.6536C74.3822 65.7007 74.5027 65.7248 74.6243 65.7246C74.7431 65.7231 74.8604 65.6981 74.9695 65.651C75.0785 65.6039 75.1771 65.5358 75.2596 65.4504L82.3863 57.4247C83.235 56.3899 83.6446 55.0647 83.5275 53.7323C83.4103 52.4 82.7758 51.1662 81.7596 50.2949C80.7433 49.4236 79.426 48.9838 78.0893 49.0697C76.7526 49.1555 75.5025 49.7601 74.6064 50.7542C73.9143 49.9848 73.0048 49.443 71.998 49.2005C70.9911 48.958 69.9343 49.026 68.967 49.3957C67.9997 49.7653 67.1674 50.4193 66.58 51.271C65.9926 52.1228 65.6778 53.1324 65.6771 54.1666ZM84.6199 79.4604C84.6185 78.8576 84.4042 78.2746 84.0147 77.8139C83.6252 77.3533 83.0855 77.0446 82.4905 76.9422C81.8956 76.8398 81.2835 76.9502 80.762 77.2539C80.2405 77.5577 79.843 78.0354 79.6395 78.603H69.7639C69.5731 78.6029 69.3878 78.6672 69.2382 78.7855C69.0886 78.9038 68.9834 79.0691 68.9396 79.2546L67.7712 83.7818L64.3363 66.6849C64.2984 66.4904 64.1934 66.3154 64.0397 66.1901C63.886 66.0648 63.6932 65.9972 63.4948 65.9989C63.2946 66.0002 63.101 66.0711 62.9475 66.1994C62.7939 66.3278 62.69 66.5055 62.6534 66.7021L60.0257 80.0434L58.4625 75.0352C58.4112 74.8744 58.314 74.7319 58.1829 74.6253C58.0517 74.5187 57.8924 74.4525 57.7242 74.4349C57.5555 74.4183 57.3857 74.4518 57.236 74.5312C57.0864 74.6105 56.9634 74.7322 56.8827 74.8809L54.7874 78.6023H52.7102C52.4835 78.6058 52.2671 78.6973 52.1068 78.8574C51.9465 79.0174 51.8549 79.2335 51.8514 79.4598C51.8521 79.687 51.9428 79.9046 52.1037 80.0652C52.2646 80.2259 52.4826 80.3164 52.7102 80.3171H55.3028C55.4537 80.3212 55.6027 80.2833 55.7331 80.2076C55.8636 80.1318 55.9703 80.0212 56.0413 79.8882L57.4153 77.4533L59.4081 83.781C59.4594 83.9649 59.5731 84.1253 59.7297 84.2348C59.8864 84.3443 60.0762 84.396 60.2668 84.3813C60.4567 84.3727 60.6382 84.3003 60.7816 84.1757C60.925 84.0511 61.022 83.8817 61.0567 83.6951L63.513 71.2626L66.8447 87.8111C66.8806 88.0002 66.9803 88.1713 67.1271 88.2961C67.2739 88.4208 67.4591 88.4916 67.6518 88.4967H67.6855C67.8759 88.495 68.0603 88.4299 68.2096 88.3119C68.3589 88.1939 68.4646 88.0296 68.51 87.845L70.4336 80.3171H79.6388C79.8388 80.8886 80.2353 81.3708 80.7579 81.6779C81.2804 81.985 81.8951 82.0971 82.4926 81.9943C83.0901 81.8914 83.6318 81.5803 84.0212 81.1162C84.4106 80.6521 84.6232 80.0659 84.6199 79.4604ZM82.3179 20.1271C82.2099 19.5825 81.9165 19.092 81.4874 18.7388C81.0584 18.3857 80.5203 18.1916 79.9643 18.1895H56.5051C55.9492 18.1917 55.4112 18.3859 54.9824 18.7391C54.5536 19.0923 54.2604 19.5827 54.1524 20.1271L51.5925 33.7259H84.8768L82.3179 20.1271ZM74.6238 63.5817L81.0814 56.3107C81.5695 55.7037 81.8306 54.9458 81.8197 54.1673C81.8195 53.4031 81.5611 52.6612 81.0863 52.0617C80.6116 51.4622 79.9482 51.0401 79.2035 50.8637C78.4587 50.6872 77.6762 50.7666 76.9823 51.0891C76.2884 51.4117 75.7237 51.9586 75.3795 52.6413C75.3149 52.7855 75.2082 52.9067 75.0733 52.9893C74.9385 53.0719 74.7818 53.1119 74.6238 53.104C74.4648 53.1054 74.3085 53.063 74.1721 52.9813C74.0357 52.8997 73.9245 52.782 73.8508 52.6413C73.562 52.0798 73.1241 51.6084 72.5849 51.2787C72.0458 50.949 71.4263 50.7737 70.7941 50.7719C70.1497 50.7779 69.5201 50.9649 68.9771 51.3115C68.4342 51.6581 67.9999 52.1503 67.724 52.7317C67.448 53.3132 67.3416 53.9603 67.4168 54.5994C67.4919 55.2384 67.7457 55.8435 68.1491 56.3453L74.6238 63.5817ZM82.0428 78.6209C81.8174 78.6209 81.6011 78.7103 81.4417 78.8695C81.2823 79.0287 81.1927 79.2446 81.1927 79.4697C81.1927 79.6948 81.2823 79.9108 81.4417 80.07C81.6011 80.2291 81.8174 80.3186 82.0428 80.3186C82.1545 80.3186 82.265 80.2966 82.3682 80.254C82.4713 80.2113 82.565 80.1488 82.644 80.07C82.7229 79.9911 82.7855 79.8975 82.8283 79.7946C82.871 79.6916 82.893 79.5812 82.893 79.4697C82.893 79.3582 82.871 79.2479 82.8283 79.1449C82.7855 79.0419 82.7229 78.9483 82.644 78.8695C82.565 78.7907 82.4713 78.7281 82.3682 78.6855C82.265 78.6428 82.1545 78.6209 82.0428 78.6209Z" fill="#D4D5E1"/>
<path d="M92.2374 39.4893H43.4248V98.9519H92.2374V39.4893Z" fill="#D4D5E1"/>
<path d="M49.6367 94.959L86.7162 95.4027L84.0537 107.828H52.3512L49.6367 94.959Z" fill="#D4D5E1"/>
<path d="M53.1876 26.6201L83.6165 27.0639L85.5814 36.3826L50.9688 36.8264L53.1876 26.6201Z" fill="#D4D5E1"/>
<path d="M94.0127 62.1201H96.6752V75.4326H94.0127V62.1201Z" fill="#D4D5E1"/>
<path d="M87.5 60.5C87.5 59.3954 86.6046 58.5 85.5 58.5C84.3954 58.5 83.5 59.3954 83.5 60.5V66.5C83.5 67.6046 84.3954 68.5 85.5 68.5C86.6046 68.5 87.5 67.6046 87.5 66.5V60.5Z" fill="#2C5DE4" stroke="#2C5DE4" stroke-width="3"/>
<path d="M33 39.6143C33 35.7483 36.134 32.6143 40 32.6143H76.1376C80.0036 32.6143 83.1376 35.7483 83.1376 39.6143V88.1769C83.1376 92.0428 80.0036 95.1769 76.1376 95.1769H40C36.134 95.1769 33 92.0429 33 88.1769V39.6143Z" stroke="#2C5DE4" stroke-width="4"/>
<path d="M42 46.1468C42 43.3043 44.0003 41 46.4677 41H69.5323C71.9997 41 74 43.3043 74 46.1468V81.8532C74 84.6956 71.9997 87 69.5323 87H46.4677C44.0003 87 42 84.6957 42 81.8532V46.1468Z" fill="#2C5DE4"/>
<path d="M46.1615 105.71C45.5862 103.639 47.1436 101.59 49.2929 101.59H69.1514C71.3354 101.59 72.8978 103.701 72.2596 105.79L69.9457 113.362C69.5281 114.729 68.2667 115.662 66.8376 115.662H51.3964C49.9365 115.662 48.6557 114.689 48.265 113.282L46.1615 105.71Z" stroke="#2C5DE4" stroke-width="3.5"/>
<path d="M45.1615 22.7025C44.5862 24.7734 46.1436 26.8224 48.2929 26.8224H68.1514C70.3354 26.8224 71.8978 24.7113 71.2596 22.6227L68.9457 15.05C68.5281 13.6833 67.2667 12.7498 65.8376 12.7498H50.3964C48.9365 12.7498 47.6557 13.7232 47.265 15.1299L45.1615 22.7025Z" stroke="#2C5DE4" stroke-width="3.5"/>
</svg>
