<svg width="130" height="130" viewBox="0 0 130 130" fill="none" xmlns="http://www.w3.org/2000/svg">
<path opacity="0.1" d="M90.6255 58.6748C90.6255 58.6748 82.0307 85.8597 81.3284 88.1047C79.1641 71.0671 76.9793 54.0322 74.7741 37C60.1284 37 52.2977 47.5122 48.1592 58.608L36.8305 88.1715C36.7643 86.0512 35.2405 58.9287 35.2405 58.9287C34.3395 45.3341 21.9905 37.0579 12 37.0579L24.0972 111C39.4407 110.933 47.7132 100.483 52.0459 89.3875C52.0459 89.3875 61.2767 65.343 61.6566 64.2517C61.7228 65.2762 68.2816 110.996 68.2816 110.996C83.6869 110.996 91.9638 101.187 96.4158 90.4788L118 37.0624C102.785 37.0624 94.7639 47.5122 90.6255 58.6704V58.6748Z" fill="#2C5DE4"/>
<path d="M92.9474 48.9231C92.9474 48.9231 84.4017 71.3912 83.6316 73.8462C83.3459 71.3538 74.3158 24 74.3158 24C58.0007 24 50.9269 33.7325 46.3684 45.8077C46.3684 45.8077 34.9224 74.4256 33.9474 76.9615C33.8666 74.6686 30.8421 48.9231 30.8421 48.9231C29.9105 34.1499 17.1106 24.1246 6 24.1246L18.4211 105C35.4689 104.919 47.7347 95.2675 52.5789 83.1923C52.5789 83.1923 61.5221 56.4 61.8947 55.1538C61.9755 56.2754 68.1053 105 68.1053 105C85.2339 105 97.2575 94.8688 102.263 83.1923L124 24C107.033 24 97.5866 36.8042 92.9474 48.9231Z" stroke="#2C5DE4" stroke-width="4" stroke-linecap="round" stroke-linejoin="round"/>
</svg>
