<svg width="130" height="130" viewBox="0 0 130 130" fill="none" xmlns="http://www.w3.org/2000/svg">
<path opacity="0.1" d="M70.4562 117.189C96.1445 117.189 116.969 96.3641 116.969 70.6758C116.969 44.9874 96.1445 24.163 70.4562 24.163C44.7678 24.163 23.9434 44.9874 23.9434 70.6758C23.9434 96.3641 44.7678 117.189 70.4562 117.189Z" fill="#2C5DE4"/>
<path d="M60.8078 14C87.212 14 108.616 35.4037 108.616 61.8052C108.616 69.7762 106.664 77.2886 103.214 83.8968L99.8056 82.3386C102.768 76.7258 104.553 70.3964 104.835 63.6788H83.5691C83.504 67.3451 83.2408 71.0009 82.7822 74.563L79.2149 72.9344C79.5641 69.8961 79.7699 66.7926 79.8272 63.6788H62.6788V77.0984C65.3418 77.174 68.0023 77.4267 70.6315 77.8567L72.0569 81.9086C68.9664 81.2885 65.8265 80.9289 62.6788 80.8325V105.647C66.934 104.628 70.853 100.183 73.8861 93.5147C74.3161 92.5714 74.7226 91.5942 75.1056 90.591L76.9401 95.8208C75.2385 99.3959 73.2529 102.392 71.0537 104.673C73.8418 104.008 76.5257 103.078 79.0794 101.913L80.3249 105.459C74.3656 108.128 67.76 109.613 60.8078 109.613C34.4063 109.613 13 88.2094 13 61.8052C13 35.4037 34.4063 14 60.8078 14ZM16.781 59.9343H38.0465C38.1534 54.0818 38.7579 48.2657 39.8601 42.804C34.7033 40.8758 29.9557 38.2596 25.7682 35.0858C20.4603 42.0353 17.1718 50.6109 16.781 59.9343ZM41.7884 59.9343H58.9369V46.5251C53.6889 46.3635 48.4591 45.5244 43.4326 44.0105C42.4372 49.0891 41.89 54.4961 41.7884 59.9343ZM62.6788 59.9343H79.8272C79.7256 54.4961 79.1784 49.0891 78.183 44.0105C73.1565 45.5244 67.9294 46.3635 62.6788 46.5251V59.9343ZM83.5691 59.9343H104.835C104.444 50.6109 101.158 42.0353 95.8474 35.0858C91.66 38.2596 86.9123 40.8784 81.7555 42.804C82.8577 48.2657 83.4623 54.0818 83.5691 59.9343ZM58.9369 63.6788H41.7884C41.89 69.1561 42.4477 74.5995 43.4535 79.7094C48.4774 78.1537 53.6967 77.286 58.9369 77.1088V63.6788ZM38.0465 63.6788H16.781C17.1718 73.0126 20.4655 81.5959 25.7838 88.5481C30.0364 85.4968 34.7685 82.8936 39.8862 80.9419C38.7657 75.4438 38.1534 69.5782 38.0465 63.6788ZM58.9369 80.8455C53.9651 81.0253 49.0168 81.8643 44.2665 83.3653C45.1733 87.0107 46.3276 90.4347 47.7295 93.5147C50.7626 100.183 54.6817 104.628 58.9369 105.647V80.8455ZM40.7253 84.616C36.1938 86.3931 31.9881 88.7149 28.1811 91.4223C34.0415 97.8767 41.7936 102.583 50.562 104.673C48.209 102.234 46.1035 98.9737 44.3238 95.0625C42.8724 91.8757 41.6737 88.3553 40.7253 84.616ZM28.1551 32.2168C31.8996 35.0363 36.1183 37.3762 40.6914 39.1351C41.6451 35.3438 42.8542 31.7765 44.3238 28.5505C46.1035 24.6393 48.209 21.3795 50.562 18.9405C41.7832 21.0329 34.0206 25.7494 28.1551 32.2168ZM44.2404 40.3598C48.9829 41.8139 53.9495 42.6216 58.9369 42.7832V17.966C54.6817 18.9848 50.7626 23.4302 47.7295 30.0984C46.3146 33.2096 45.1524 36.6727 44.2404 40.3598ZM62.6788 42.7832C67.6688 42.6216 72.6327 41.8139 77.3752 40.3598C76.4658 36.6727 75.3036 33.2096 73.8861 30.0984C70.853 23.4302 66.934 18.9848 62.6788 17.966V42.7832ZM80.9269 39.1351C85.5 37.3762 89.7187 35.0363 93.4606 32.2168C87.595 25.7494 79.8351 21.0329 71.0537 18.9405C73.4067 21.3795 75.5147 24.6393 77.2918 28.5505C78.7615 31.7765 79.9706 35.3438 80.9269 39.1351Z" fill="#2C5DE4"/>
<path fill-rule="evenodd" clip-rule="evenodd" d="M73.4609 74.4727L108.061 90.2766L97.9107 95.3839L104.691 102.808L98.8488 108.144L92.0686 100.718L86.0624 110.362L73.4609 74.4727Z" fill="#2C5DE4"/>
</svg>
