<svg width="130" height="130" viewBox="0 0 130 130" fill="none" xmlns="http://www.w3.org/2000/svg">
<path opacity="0.1" d="M118 32H23C17.4772 32 13 36.4772 13 42V91C13 96.5229 17.4772 101 23 101H118C123.523 101 128 96.5229 128 91V42C128 36.4772 123.523 32 118 32Z" fill="#2C5DE4"/>
<path d="M21.375 26C13.4496 26 7 32.4776 7 40.4375V78.9375C7 86.8974 13.4496 93.375 21.375 93.375H57.9115L88.4583 103L86.2029 93.375H107.625C115.55 93.375 122 86.8974 122 78.9375V40.4375C122 32.4776 115.55 26 107.625 26H21.375ZM21.375 35.625H107.625C110.265 35.625 112.417 37.7858 112.417 40.4375V78.9375C112.417 81.5892 110.265 83.75 107.625 83.75H86.2029H74.1114L75.2813 88.7599L60.7846 84.1918L59.3808 83.75H57.9115H21.375C18.7348 83.75 16.5833 81.5892 16.5833 78.9375V40.4375C16.5833 37.7858 18.7348 35.625 21.375 35.625ZM56.1052 40.4375C54.7091 40.4436 53.3636 41.2792 52.7922 42.6652C50.6887 47.7423 49.2126 54.1509 48.4124 61.5862C46.0069 54.7957 44.6835 48.2603 44.6595 48.1544C44.348 46.5904 43.0538 45.418 41.4869 45.2688C39.8865 45.0907 38.422 46.0286 37.8183 47.4965L31.2578 63.6071C30.0599 57.8417 28.8452 50.5714 28.5625 43.8965C28.4858 41.9041 26.7402 40.2833 24.8284 40.4469C22.8446 40.5239 21.2981 42.2049 21.3844 44.1973C21.9929 58.8946 26.7048 75.6124 26.906 76.3151C27.3229 77.7973 28.6437 78.8415 30.1722 78.9281C31.6768 79.0195 33.1113 78.1155 33.6911 76.691L40.4013 60.2233C42.2173 66.0512 44.9268 72.9935 48.4966 77.5558C49.1962 78.4413 50.24 78.9375 51.3229 78.9375C51.7158 78.9375 52.1094 78.87 52.4928 78.7401C53.9398 78.2348 54.9167 76.8633 54.9167 75.3281C54.9167 63.0707 56.5238 52.45 59.4276 45.4286C60.1894 43.595 59.3255 41.4847 57.4903 40.7195C57.0387 40.5282 56.5706 40.4355 56.1052 40.4375ZM72.8854 45.25C67.6433 45.2692 62.7701 50.3676 61.3087 57.6008C60.3839 62.2016 61.0817 66.832 63.1804 69.9987C64.6035 72.1402 66.5479 73.5128 68.8144 73.9652C69.351 74.0711 69.8922 74.125 70.4241 74.125C75.671 74.125 80.6001 69.0456 82.0663 61.7836C82.9911 57.1828 82.2933 52.5524 80.1946 49.3857C78.7715 47.2442 76.8225 45.8716 74.5513 45.4192C73.9906 45.3037 73.4365 45.25 72.8854 45.25ZM98.0417 45.25C92.8044 45.2692 87.9312 50.3676 86.4649 57.6008C85.5401 62.2016 86.2379 66.832 88.3367 69.9987C89.7598 72.1402 91.7042 73.5128 93.9706 73.9652C94.5073 74.0711 95.0484 74.125 95.5803 74.125C100.827 74.125 105.756 69.0456 107.223 61.7836C108.147 57.1828 107.45 52.5524 105.351 49.3857C103.928 47.2442 101.979 45.8716 99.7075 45.4192C99.1469 45.3037 98.5927 45.25 98.0417 45.25ZM72.9696 52.4781C73.0271 52.4781 73.09 52.4873 73.1475 52.4969C73.5979 52.5884 73.9796 53.0292 74.2144 53.3805C74.9954 54.5644 75.6805 57.0968 75.0192 60.3549C74.1232 64.8209 71.4782 67.1088 70.2275 66.8874C69.7771 66.796 69.4048 66.3552 69.17 66.0039C68.389 64.82 67.7039 62.2876 68.3652 59.0295C69.2229 54.7609 71.719 52.4781 72.9696 52.4781ZM98.1259 52.4781C98.1834 52.4781 98.2462 52.4873 98.3037 52.4969C98.7541 52.5884 99.1358 53.0292 99.3706 53.3805C100.152 54.5644 100.837 57.0968 100.175 60.3549C99.2794 64.8209 96.6009 67.1088 95.3838 66.8874C94.9334 66.796 94.5611 66.3552 94.3263 66.0039C93.5452 64.82 92.8602 62.2876 93.5214 59.0295C94.3791 54.7609 96.8753 52.4781 98.1259 52.4781Z" stroke="#2C5DE4" stroke-width="3"/>
</svg>
