<svg width="130" height="130" viewBox="0 0 130 130" fill="none" xmlns="http://www.w3.org/2000/svg">
<g clip-path="url(#clip0_899_141)">
<mask id="mask0_899_141" style="mask-type:luminance" maskUnits="userSpaceOnUse" x="0" y="0" width="130" height="130">
<path d="M130 0H0V130H130V0Z" fill="white"/>
</mask>
<g mask="url(#mask0_899_141)">
<path opacity="0.1" d="M76.5 116C104.943 116 128 92.9427 128 64.5C128 36.0573 104.943 13 76.5 13C48.0573 13 25 36.0573 25 64.5C25 92.9427 48.0573 116 76.5 116Z" fill="#2C5DE4"/>
<path d="M64.9993 6.66699C32.8577 6.66699 6.66602 32.8587 6.66602 65.0003C6.66602 97.142 32.8577 123.334 64.9993 123.334C97.141 123.334 123.333 97.142 123.333 65.0003C123.333 32.8587 97.141 6.66699 64.9993 6.66699ZM12.5577 65.0003C12.5577 57.417 14.191 50.1837 17.1077 43.6503L42.1327 112.192C24.6327 103.675 12.5577 85.767 12.5577 65.0003ZM64.9993 117.442C59.866 117.442 54.9077 116.684 50.1827 115.284L65.9327 69.5503L82.0327 113.709C82.1493 113.942 82.266 114.234 82.3827 114.409C76.9577 116.392 71.1243 117.442 64.9993 117.442ZM72.2327 40.3837C75.3827 40.2087 78.241 39.8587 78.241 39.8587C81.041 39.5087 80.7493 35.367 77.891 35.542C77.891 35.542 69.3743 36.1837 63.891 36.1837C58.7577 36.1837 50.066 35.542 50.066 35.542C47.266 35.4253 46.916 39.742 49.7743 39.917C49.7743 39.917 52.4577 40.267 55.2577 40.442L63.4243 62.842L51.9327 97.2587L32.8577 40.3837C36.0077 40.267 38.866 39.917 38.866 39.917C41.666 39.567 41.3743 35.4253 38.516 35.6003C38.516 35.6003 29.9993 36.242 24.516 36.242C23.5243 36.242 22.3577 36.242 21.1327 36.1837C30.5827 21.9503 46.6827 12.5587 64.9993 12.5587C78.6493 12.5587 91.0743 17.7503 100.408 26.3253C100.175 26.3253 99.941 26.267 99.7077 26.267C94.5743 26.267 90.8993 30.7587 90.8993 35.6003C90.8993 39.917 93.4077 43.592 96.0327 47.9087C98.016 51.4087 100.35 55.9003 100.35 62.3753C100.35 66.867 98.5993 72.0587 96.3827 79.3503L91.1327 96.8503L72.2327 40.3837ZM111.025 39.8587C117.577 51.8499 119.189 65.9253 115.517 79.0872C111.845 92.2491 103.18 103.458 91.366 110.325L107.408 64.0087C110.383 56.542 111.375 50.5337 111.375 45.2253C111.375 43.3003 111.258 41.492 111.025 39.8587Z" fill="#2C5DE4"/>
</g>
</g>
<defs>
<clipPath id="clip0_899_141">
<rect width="130" height="130" fill="white"/>
</clipPath>
</defs>
</svg>
