<svg width="51" height="50" viewBox="0 0 51 50" fill="none" xmlns="http://www.w3.org/2000/svg">
<path d="M27.5312 6.875H22.8438C22.4125 6.875 22.0625 6.525 22.0625 6.09375C22.0625 5.6625 22.4125 5.3125 22.8438 5.3125H27.5312C27.9625 5.3125 28.3125 5.6625 28.3125 6.09375C28.3125 6.525 27.9625 6.875 27.5312 6.875Z" fill="#3B68D7"/>
<path d="M33.7812 49.0625H16.5938C14.4391 49.0625 12.6875 47.3094 12.6875 45.1562V18.5938C12.6875 18.1625 13.0375 17.8125 13.4688 17.8125C13.9 17.8125 14.25 18.1625 14.25 18.5938V45.1562C14.25 46.4484 15.3016 47.5 16.5938 47.5H33.7812C35.0734 47.5 36.125 46.4484 36.125 45.1562V18.5938C36.125 18.1625 36.475 17.8125 36.9062 17.8125C37.3375 17.8125 37.6875 18.1625 37.6875 18.5938V45.1562C37.6875 47.3094 35.9359 49.0625 33.7812 49.0625Z" fill="#3B68D7"/>
<path d="M36.9062 24.0625C36.475 24.0625 36.125 23.7125 36.125 23.2812V6.09375C36.125 4.80156 35.0734 3.75 33.7812 3.75H16.5938C15.3016 3.75 14.25 4.80156 14.25 6.09375V23.2812C14.25 23.7125 13.9 24.0625 13.4688 24.0625C13.0375 24.0625 12.6875 23.7125 12.6875 23.2812V6.09375C12.6875 3.94062 14.4391 2.1875 16.5938 2.1875H33.7812C35.9359 2.1875 37.6875 3.94062 37.6875 6.09375V23.2812C37.6875 23.7125 37.3375 24.0625 36.9062 24.0625Z" fill="#3B68D7"/>
<path fill-rule="evenodd" clip-rule="evenodd" d="M37.6875 23.2812V45.1562C37.6875 47.3094 35.9359 49.0625 33.7812 49.0625H16.5938C14.4391 49.0625 12.6875 47.3094 12.6875 45.1562V23.2812V18.5938V6.09375C12.6875 3.94062 14.4391 2.1875 16.5938 2.1875H33.7812C35.9359 2.1875 37.6875 3.94062 37.6875 6.09375V18.5938V23.2812ZM14.25 18.5938V23.2812V45.1562C14.25 46.4484 15.3016 47.5 16.5938 47.5H33.7812C35.0734 47.5 36.125 46.4484 36.125 45.1562V23.2812V18.5938V6.09375C36.125 4.80156 35.0734 3.75 33.7812 3.75H16.5938C15.3016 3.75 14.25 4.80156 14.25 6.09375V18.5938Z" fill="#3B68D7"/>
<path d="M41.5938 10.0781C41.1625 10.0781 40.8125 9.80625 40.8125 9.375V9.21875C40.8125 8.7875 41.1625 8.4375 41.5938 8.4375C42.025 8.4375 42.375 8.7875 42.375 9.21875C42.375 9.65 42.025 10.0781 41.5938 10.0781Z" fill="#3B68D7"/>
<path d="M41.5938 13.2031C41.1625 13.2031 40.8125 12.9312 40.8125 12.5V12.3438C40.8125 11.9125 41.1625 11.5625 41.5938 11.5625C42.025 11.5625 42.375 11.9125 42.375 12.3438C42.375 12.775 42.025 13.2031 41.5938 13.2031Z" fill="#3B68D7"/>
<path d="M41.5938 16.3281C41.1625 16.3281 40.8125 16.0563 40.8125 15.625V15.4688C40.8125 15.0375 41.1625 14.6875 41.5938 14.6875C42.025 14.6875 42.375 15.0375 42.375 15.4688C42.375 15.9 42.025 16.3281 41.5938 16.3281Z" fill="#3B68D7"/>
<path d="M8.78125 36.4844C8.35 36.4844 8 36.2125 8 35.7813V35.625C8 35.1937 8.35 34.8438 8.78125 34.8438C9.2125 34.8438 9.5625 35.1937 9.5625 35.625C9.5625 36.0562 9.2125 36.4844 8.78125 36.4844Z" fill="#3B68D7"/>
<path d="M8.78125 39.6094C8.35 39.6094 8 39.3375 8 38.9063V38.75C8 38.3187 8.35 37.9688 8.78125 37.9688C9.2125 37.9688 9.5625 38.3187 9.5625 38.75C9.5625 39.1812 9.2125 39.6094 8.78125 39.6094Z" fill="#3B68D7"/>
<path d="M8.78125 42.7344C8.35 42.7344 8 42.4625 8 42.0313V41.875C8 41.4437 8.35 41.0938 8.78125 41.0938C9.2125 41.0938 9.5625 41.4437 9.5625 41.875C9.5625 42.3062 9.2125 42.7344 8.78125 42.7344Z" fill="#3B68D7"/>
<path d="M39.0016 42.8125C38.9469 42.8125 38.8906 42.8078 38.8359 42.7953C38.4141 42.7047 38.1469 42.2891 38.2375 41.8672L38.7531 39.4766C38.8156 39.1828 39.0422 38.9531 39.3328 38.8828C40.0703 38.7047 40.7891 38.4047 41.4688 37.9906C41.7203 37.8344 42.0437 37.8391 42.2953 37.9984L43.8422 38.9875L44.8 38.0219L43.8109 36.4875C43.6484 36.2359 43.6453 35.9125 43.8 35.6578C44.2141 34.9781 44.5141 34.2594 44.6906 33.5219C44.7609 33.2313 44.9891 33.0062 45.2813 32.9406L47.0625 32.5453V31.2063L45.2828 30.8109C44.9906 30.7453 44.7625 30.5203 44.6922 30.2297C44.5156 29.4922 44.2141 28.7734 43.8016 28.0938C43.6453 27.8391 43.6484 27.5172 43.8109 27.2656L44.8016 25.7172L43.8453 24.7609L42.2969 25.7516C42.0453 25.9125 41.7234 25.9156 41.4703 25.7594C40.7891 25.3453 40.0703 25.0453 39.3344 24.8672C39.0422 24.7969 38.8172 24.5656 38.7547 24.2734L38.3703 22.5H37.6875C37.2563 22.5 36.9062 22.15 36.9062 21.7188C36.9062 21.2875 37.2563 20.9375 37.6875 20.9375H39C39.3672 20.9375 39.6859 21.1953 39.7625 21.5547L40.1797 23.4813C40.7516 23.6547 41.3125 23.8891 41.8531 24.1813L43.5312 23.1078C43.8406 22.9109 44.2438 22.9547 44.5047 23.2141L46.35 25.0578C46.6094 25.3172 46.6531 25.7219 46.4547 26.0313L45.3812 27.7094C45.6734 28.2516 45.9078 28.8125 46.0812 29.3859L48.0109 29.8141C48.3703 29.8937 48.625 30.2125 48.625 30.5781V33.1719C48.625 33.5375 48.3703 33.8563 48.0125 33.9344L46.0828 34.3625C45.9094 34.9359 45.675 35.4969 45.3828 36.0375L46.4547 37.7C46.6547 38.0078 46.6125 38.4141 46.3531 38.6734L44.5078 40.5328C44.2469 40.7938 43.8422 40.8375 43.5328 40.6406L41.8547 39.5672C41.3125 39.8594 40.7531 40.0938 40.1813 40.2672L39.7641 42.1938C39.6844 42.5625 39.3594 42.8125 39.0016 42.8125Z" fill="#3B68D7"/>
<path d="M39.8608 35.9031C39.6108 35.9031 39.3639 35.7812 39.2123 35.5578C38.9717 35.2 39.067 34.7141 39.4264 34.4734C40.2936 33.8891 40.8123 32.9172 40.8123 31.875C40.8123 30.1516 39.4108 28.75 37.6873 28.75C37.4748 28.75 37.2639 28.7719 37.0623 28.8125C36.6436 28.8969 36.2264 28.6281 36.1389 28.2031C36.053 27.7797 36.3248 27.3672 36.7483 27.2812C37.0545 27.2203 37.3702 27.1875 37.6873 27.1875C40.2717 27.1875 42.3748 29.2906 42.3748 31.875C42.3748 33.4391 41.5983 34.8953 40.2952 35.7703C40.1623 35.8594 40.0108 35.9031 39.8608 35.9031Z" fill="#3B68D7"/>
<path d="M12.6875 24.0633C10.1031 24.0633 8 21.9601 8 19.3758C8 17.8054 8.78125 16.3476 10.0906 15.4726C10.4453 15.2351 10.9328 15.3289 11.1734 15.6898C11.4125 16.0476 11.3156 16.5336 10.9563 16.7726C10.0844 17.357 9.5625 18.3289 9.5625 19.3758C9.5625 21.0992 10.9641 22.5008 12.6875 22.5008C12.8969 22.5008 13.1031 22.4804 13.3 22.4398C13.7141 22.3539 14.1344 22.6273 14.2203 23.0523C14.3063 23.4758 14.0312 23.8867 13.6078 23.9711C13.3094 24.032 13.0031 24.0633 12.6875 24.0633Z" fill="#3B68D7"/>
<path d="M12.6875 30.3124H11.375C11.0078 30.3124 10.6891 30.0546 10.6125 29.6952L10.1953 27.7687C9.62344 27.5952 9.0625 27.3608 8.52188 27.0687L6.84375 28.1421C6.53281 28.339 6.13125 28.2968 5.87031 28.0358L4.025 26.1921C3.76563 25.9327 3.72187 25.528 3.92031 25.2187L4.99375 23.5405C4.70156 22.9983 4.46719 22.4374 4.29375 21.864L2.36406 21.4358C2.00469 21.3562 1.75 21.0374 1.75 20.6718V18.078C1.75 17.7124 2.00469 17.3937 2.3625 17.3155L4.29219 16.8874C4.46563 16.314 4.7 15.753 4.99219 15.2124L3.92188 13.5483C3.72188 13.2405 3.76406 12.8343 4.02344 12.5749L5.86875 10.7155C6.12656 10.453 6.53281 10.4093 6.84375 10.6077L8.52188 11.6812C9.06406 11.389 9.62344 11.1546 10.1953 10.9812L10.6125 9.0546C10.7031 8.63116 11.1266 8.36241 11.5406 8.45616C11.9625 8.54679 12.2297 8.96241 12.1391 9.38429L11.6234 11.7749C11.5609 12.0687 11.3344 12.2983 11.0437 12.3687C10.3062 12.5468 9.5875 12.8468 8.90625 13.2608C8.65312 13.4171 8.33125 13.4124 8.07969 13.253L6.53281 12.264L5.57344 13.2296L6.5625 14.764C6.72656 15.0155 6.72969 15.339 6.57344 15.5937C6.15937 16.2733 5.85938 16.9921 5.68281 17.7296C5.6125 18.0202 5.38437 18.2452 5.09219 18.3108L3.3125 18.7046V20.0437L5.09219 20.439C5.38437 20.5046 5.6125 20.7296 5.68281 21.0202C5.85938 21.7577 6.16094 22.4765 6.57344 23.1562C6.72969 23.4108 6.72656 23.7327 6.56406 23.9843L5.57344 25.5312L6.52969 26.4874L8.07813 25.4968C8.32969 25.3374 8.65312 25.3343 8.90469 25.489C9.58594 25.903 10.3047 26.203 11.0406 26.3812C11.3328 26.4515 11.5578 26.6827 11.6203 26.9749L12.0047 28.7499H12.6875C13.1187 28.7499 13.4688 29.0999 13.4688 29.5312C13.4688 29.9624 13.1187 30.3124 12.6875 30.3124Z" fill="#3B68D7"/>
<path d="M24.4059 29.5314C24.3434 29.5314 24.2809 29.5236 24.2169 29.508C23.7966 29.4033 23.5434 28.9799 23.6481 28.5611L25.2106 22.3111C25.3137 21.8908 25.7309 21.6377 26.1575 21.7424C26.5778 21.847 26.8309 22.2705 26.7262 22.6892L25.1637 28.9392C25.0762 29.2955 24.7575 29.5314 24.4059 29.5314Z" fill="#3B68D7"/>
<path d="M29.0937 29.532C28.8937 29.532 28.6937 29.4555 28.5405 29.3039C28.2358 28.9992 28.2358 28.5039 28.5405 28.1992L31.114 25.6258L28.5421 23.0539C28.2374 22.7492 28.2374 22.2539 28.5421 21.9492C28.8468 21.6445 29.3421 21.6445 29.6468 21.9492L32.7718 25.0742C33.0765 25.3789 33.0765 25.8742 32.7718 26.1789L29.6468 29.3039C29.4937 29.4555 29.2937 29.532 29.0937 29.532Z" fill="#3B68D7"/>
<path d="M21.2812 29.532C21.0812 29.532 20.8812 29.4555 20.728 29.3039L17.603 26.1789C17.2983 25.8742 17.2983 25.3789 17.603 25.0742L20.728 21.9492C21.0327 21.6445 21.528 21.6445 21.8327 21.9492C22.1374 22.2539 22.1374 22.7492 21.8327 23.0539L19.2608 25.6258L21.8327 28.1977C22.1374 28.5023 22.1374 28.9977 21.8327 29.3023C21.6812 29.4555 21.4812 29.532 21.2812 29.532Z" fill="#3B68D7"/>
</svg>
