<svg width="51" height="50" viewBox="0 0 51 50" fill="none" xmlns="http://www.w3.org/2000/svg">
<path d="M44.8222 2.5H6.14742C4.41194 2.5 3 3.91194 3 5.64742V35.8701C3 37.6056 4.41194 39.0175 6.14742 39.0175H20.0986V46.1812H17.5542C17.1899 46.1812 16.8948 46.4765 16.8948 46.8406C16.8948 47.2048 17.1899 47.5 17.5542 47.5H33.4153C33.7796 47.5 34.0747 47.2048 34.0747 46.8406C34.0747 46.4765 33.7796 46.1812 33.4153 46.1812H30.8709V43.9177C30.8709 43.5535 30.5758 43.2583 30.2115 43.2583C29.8473 43.2583 29.5522 43.5535 29.5522 43.9177V46.1812H21.4174V39.0175H29.5522V40.8211C29.5522 41.1853 29.8473 41.4805 30.2115 41.4805C30.5758 41.4805 30.8709 41.1853 30.8709 40.8211V39.0175H44.8223C46.5577 39.0175 47.9697 37.6056 47.9697 35.8701V5.64742C47.9696 3.91194 46.5576 2.5 44.8222 2.5ZM4.31875 5.64742C4.31875 4.6391 5.1391 3.81875 6.14742 3.81875H44.8222C45.8305 3.81875 46.6508 4.6391 46.6508 5.64742V30.8505H4.31875V5.64742ZM46.6508 35.87C46.6508 36.8783 45.8305 37.6987 44.8222 37.6987H6.14742C5.1391 37.6987 4.31875 36.8783 4.31875 35.87V32.1693H46.6508V35.87Z" fill="#3B68D7"/>
<path d="M24.1682 35.5941H26.8007C27.1649 35.5941 27.46 35.2989 27.46 34.9348C27.46 34.5706 27.1649 34.2754 26.8007 34.2754H24.1682C23.8039 34.2754 23.5088 34.5706 23.5088 34.9348C23.5088 35.2989 23.804 35.5941 24.1682 35.5941Z" fill="#3B68D7"/>
<path d="M21.2138 20.2784V14.3898C21.2138 14.0257 20.9186 13.7305 20.5544 13.7305C20.1902 13.7305 19.895 14.0257 19.895 14.3898V20.2784C19.895 20.6426 20.1902 20.9378 20.5544 20.9378C20.9186 20.9378 21.2138 20.6426 21.2138 20.2784Z" fill="#3B68D7"/>
<path d="M13.3298 13.7306C12.9655 13.7306 12.6704 14.0258 12.6704 14.3899V18.4419C12.6704 19.3148 13.0721 19.9958 13.8986 20.5237C14.7003 21.0358 15.7553 21.0744 16.6083 20.6448C17.8254 20.0318 18.0809 19.1062 18.0809 18.4376V14.3898C18.0809 14.0257 17.7858 13.7305 17.4215 13.7305C17.0573 13.7305 16.7621 14.0257 16.7621 14.3898V18.4376C16.7621 18.7417 16.6772 19.1336 16.0151 19.4669C15.5921 19.68 15.0092 19.6682 14.6086 19.4124C14.1686 19.1313 13.9892 18.8501 13.9892 18.4419V14.3899C13.9892 14.0258 13.694 13.7306 13.3298 13.7306Z" fill="#3B68D7"/>
<path d="M34.0267 6.79688C30.5174 6.79688 27.4032 8.5211 25.4869 11.167C24.6152 9.96205 23.493 8.94679 22.2024 8.20196C20.6098 7.28279 18.7906 6.79696 16.9417 6.79696C14.7411 6.79696 12.6327 7.46847 10.8445 8.73896C10.5476 8.94987 10.478 9.36149 10.6888 9.65839C10.8996 9.95528 11.3114 10.025 11.6083 9.814C13.1719 8.703 15.0163 8.11571 16.9416 8.11571C20.1269 8.11571 23.0191 9.7085 24.7232 12.3883C23.9352 13.8642 23.4883 15.5485 23.4883 17.3353C23.4883 19.1219 23.9352 20.8061 24.7231 22.2821C23.0184 24.9596 20.1175 26.5548 16.9416 26.5548C11.8579 26.5548 7.72207 22.419 7.72207 17.3353C7.72207 15.3182 8.3614 13.4027 9.57096 11.796C9.78996 11.5051 9.73167 11.0917 9.44076 10.8727C9.14975 10.6536 8.73654 10.712 8.51737 11.0029C7.13444 12.84 6.40332 15.0298 6.40332 17.3354C6.40332 23.1462 11.1308 27.8737 16.9416 27.8737C20.3637 27.8737 23.5063 26.2535 25.4872 23.5044C27.4036 26.1498 30.5176 27.8737 34.0266 27.8737C39.8374 27.8737 44.5648 23.1462 44.5648 17.3354C44.5649 11.5243 39.8375 6.79688 34.0267 6.79688ZM34.0267 26.5548C28.943 26.5548 24.8071 22.4189 24.8071 17.3352C24.8071 12.2515 28.943 8.11563 34.0267 8.11563C39.1103 8.11563 43.2461 12.2515 43.2461 17.3352C43.2461 22.4189 39.1103 26.5548 34.0267 26.5548Z" fill="#3B68D7"/>
<path d="M38.1385 17.1254L39.798 14.7697C40.0077 14.472 39.9364 14.0606 39.6387 13.8509C39.3409 13.6411 38.9295 13.7125 38.7199 14.0102L37.3324 15.9797L35.9472 14.0105C35.7378 13.7128 35.3267 13.641 35.0286 13.8506C34.7307 14.0601 34.6592 14.4715 34.8688 14.7693L36.5258 17.1249L34.5716 19.8988C34.3618 20.1965 34.4331 20.6079 34.7309 20.8177C35.0288 21.0276 35.4385 20.9581 35.6496 20.6584L37.3317 18.2706L39.0112 20.6581C39.216 20.9491 39.6393 21.0223 39.9299 20.8179C40.2277 20.6084 40.2993 20.1971 40.0897 19.8992L38.1385 17.1254Z" fill="#3B68D7"/>
<path d="M32.5949 13.7305C32.2306 13.7305 31.9355 14.0257 31.9355 14.3898V18.4376C31.9355 18.7417 31.8506 19.1336 31.1883 19.467C30.9881 19.5679 30.7618 19.619 30.5158 19.619H30.5133C30.2382 19.6187 29.999 19.5511 29.782 19.4124C29.3419 19.1313 29.1625 18.8501 29.1625 18.4418V14.3898C29.1625 14.0257 28.8674 13.7305 28.5031 13.7305C28.1389 13.7305 27.8438 14.0257 27.8438 14.3898V18.4418C27.8438 19.3147 28.2454 19.9957 29.0719 20.5236C29.8604 21.0273 30.9461 21.0655 31.7817 20.6448C32.9989 20.0318 33.2544 19.1062 33.2544 18.4376V14.3898C33.2542 14.0257 32.959 13.7305 32.5949 13.7305Z" fill="#3B68D7"/>
</svg>
