<svg width="51" height="50" viewBox="0 0 51 50" fill="none" xmlns="http://www.w3.org/2000/svg">
<path d="M10.6547 1.56055C9.36984 1.56055 8.3125 2.61788 8.3125 3.9028V28.9028C8.3125 29.9455 9.87652 29.9455 9.87652 28.9028V9.37614H41.1219V28.9028C41.0983 29.9681 42.7084 29.9681 42.6844 28.9028V3.9028C42.6844 2.61788 41.6287 1.56055 40.3437 1.56055H10.6547ZM10.6547 3.1246H40.3437C40.7901 3.1246 41.1219 3.45646 41.1219 3.9028V7.81208H9.87652V3.9028C9.87652 3.45646 10.2084 3.1246 10.6547 3.1246ZM12.2187 4.68559C11.7873 4.68559 11.4375 5.0354 11.4375 5.46686C11.4375 5.89834 11.7873 6.24803 12.2187 6.24803C12.6502 6.24803 13 5.89834 13 5.46686C13 5.0354 12.6502 4.68559 12.2187 4.68559ZM15.3437 4.68559C14.9123 4.68559 14.5625 5.0354 14.5625 5.46686C14.5625 5.89834 14.9123 6.24803 15.3437 6.24803C15.7752 6.24803 16.125 5.89834 16.125 5.46686C16.125 5.0354 15.7752 4.68559 15.3437 4.68559ZM18.4688 4.68559C18.0373 4.68559 17.6875 5.0354 17.6875 5.46686C17.6875 5.89834 18.0373 6.24803 18.4688 6.24803C18.9002 6.24803 19.25 5.89834 19.25 5.46686C19.25 5.0354 18.9002 4.68559 18.4688 4.68559ZM29.3666 4.68713C28.3118 4.75888 28.3838 6.27549 29.4032 6.24965H38.7812C39.8001 6.22603 39.8001 4.70972 38.7812 4.68713H29.3666ZM4.4093 6.24965C3.12438 6.24965 2.0625 7.30545 2.0625 8.59037V36.7168C2.0625 38.0017 3.12438 39.059 4.4093 39.059H46.5953C47.8802 39.059 48.9375 38.0017 48.9375 36.7168V8.59028C48.9375 7.30536 47.8802 6.24956 46.5953 6.24956H45.0328C43.9677 6.22594 43.9677 7.83571 45.0328 7.81208H46.5953C47.0416 7.81208 47.3735 8.14394 47.3735 8.59028V31.2496H3.625V8.59028C3.625 8.14394 3.96299 7.81208 4.4093 7.81208H5.96569C7.03073 7.83571 7.03073 6.22594 5.96569 6.24956L4.4093 6.24965ZM27.8529 12.4859C27.5095 12.4835 27.2048 12.7059 27.1022 13.0337L22.4131 27.0947C22.0825 28.0834 23.5657 28.5793 23.8963 27.5905L28.5853 13.525C28.7622 13.0191 28.3888 12.4894 27.8529 12.4859ZM31.2495 17.0025L35.2168 20.3121L31.2495 23.6172C30.4018 24.2808 31.4485 25.5331 32.252 24.8166L36.9349 20.9118C37.3089 20.5995 37.3089 20.0248 36.9349 19.7125L32.252 15.8017C32.112 15.6818 31.9342 15.6153 31.7103 15.6156C30.9718 15.6803 30.7041 16.5611 31.2495 17.0025ZM19.2302 15.617C19.0542 15.6229 18.8854 15.6879 18.751 15.8016L14.0635 19.7124C13.6896 20.0247 13.6896 20.5994 14.0635 20.9117L18.751 24.8165C19.5572 25.5673 20.6339 24.2733 19.749 23.6171L15.7817 20.312L19.749 17.0024C20.3262 16.5298 19.9759 15.5943 19.2302 15.617ZM3.625 32.8136H47.3735V36.7168C47.3735 37.1631 47.0416 37.495 46.5953 37.495H4.4093C3.96299 37.495 3.625 37.1631 3.625 36.7168V32.8136ZM27.1052 34.3746L23.8994 34.3762C22.9035 34.4952 22.9704 35.9059 23.936 35.9326H27.0625C28.1354 36.0273 28.2247 34.3962 27.1052 34.3746ZM21.1177 40.5605C20.8041 40.5546 20.5169 40.7353 20.3883 41.0213C20.0121 41.8282 19.3381 42.7705 18.1743 43.7465H16.9062C15.6213 43.7465 14.5656 44.81 14.5656 46.0949V47.6513C14.564 48.0828 14.9123 48.4338 15.3437 48.4355H35.6547C36.0886 48.4371 36.4407 48.0852 36.439 47.6513V46.0949C36.439 44.81 35.3771 43.7465 34.0922 43.7465H32.8257C31.662 42.7706 30.9879 41.8282 30.6117 41.0213C30.4794 40.7278 30.1808 40.5456 29.8594 40.562C29.3013 40.5915 28.9527 41.1788 29.1957 41.6821C29.5002 42.3353 29.9653 43.0359 30.5919 43.7465H20.4081C21.0347 43.0359 21.4997 42.3353 21.8043 41.6821C22.0524 41.1697 21.6868 40.5726 21.1177 40.5605ZM16.9062 45.3106H34.0922C34.5385 45.3106 34.8765 45.6486 34.8765 46.0949V46.8731H16.1281V46.0949C16.1281 45.6486 16.4599 45.3106 16.9062 45.3106Z" fill="#3B68D7"/>
</svg>
