<svg width="90" height="90" viewBox="0 0 90 90" fill="none" xmlns="http://www.w3.org/2000/svg">
<path d="M29 75C36.732 75 43 68.732 43 61C43 53.268 36.732 47 29 47C21.268 47 15 53.268 15 61C15 68.732 21.268 75 29 75Z" fill="#2C5DE4"/>
<path d="M27.2559 37.353L38.106 60.6219" stroke="#252B33" stroke-linecap="round" stroke-linejoin="round"/>
<path d="M50.8478 37.3213L38.418 60.7191" stroke="#252B33" stroke-linecap="round"/>
<path d="M23.7158 36.835H31.134" stroke="#252B33" stroke-linecap="round"/>
<path d="M47.0332 36.835H54.4515" stroke="#252B33" stroke-linecap="round"/>
<path d="M38.7109 37.1416L50.7175 60.7923" stroke="#252B33" stroke-linecap="round"/>
<path d="M62.6695 37.2158L50.9062 60.9612" stroke="#252B33" stroke-linecap="round"/>
<path d="M58.6924 36.835H66.1106" stroke="#252B33" stroke-linecap="round"/>
<path d="M35.374 36.835H42.7922" stroke="#252B33" stroke-linecap="round"/>
<path d="M45 75C60.4639 75 73 62.0163 73 46C73 29.9838 60.4639 17 45 17C29.5361 17 17 29.9838 17 46C17 62.0163 29.5361 75 45 75Z" stroke="#252B33" stroke-linecap="round" stroke-linejoin="round"/>
</svg>
