<svg width="90" height="90" viewBox="0 0 90 90" fill="none" xmlns="http://www.w3.org/2000/svg">
<circle cx="22.134" cy="26.134" r="1.13402" fill="#2c5de4"/>
<circle cx="26.6702" cy="26.134" r="1.13402" fill="#2c5de4"/>
<circle cx="31.2058" cy="26.134" r="1.13402" fill="#2c5de4"/>
<path d="M59.0563 59.4925L57.3801 61.1958C56.6143 61.974 56.6141 63.2226 57.3797 64.0011L67.2428 74.0293L67.6063 74.1217C70.3425 74.8168 72.5567 71.862 71.1214 69.4311L61.9486 59.5357C61.1732 58.6992 59.8563 58.6795 59.0563 59.4925Z" fill="#2c5de4"/>
<path d="M54.9897 69.0721H18C17.4477 69.0721 17 68.6244 17 68.0721V30.5154M71.433 69.0721V30.5154M17 30.5154V23.5773C17 23.025 17.4477 22.5773 18 22.5773H33.4433M17 30.5154H33.4433M71.433 30.5154V23.5773C71.433 23.025 70.9853 22.5773 70.433 22.5773H33.4433M71.433 30.5154H33.4433M33.4433 22.5773V30.5154" stroke="#252B33" stroke-linecap="round"/>
<path d="M36.8452 26.5464H68.5978" stroke="#252B33"/>
<circle cx="20.634" cy="26.634" r="1.13402" fill="#252B33"/>
<circle cx="25.1702" cy="26.634" r="1.13402" fill="#252B33"/>
<circle cx="29.7058" cy="26.634" r="1.13402" fill="#252B33"/>
<circle cx="44.2165" cy="49.2268" r="12.5412" stroke="#252B33"/>
<path d="M41.3813 46.3917L35.3886 49.3881C35.0543 49.5552 35.0543 50.0323 35.3886 50.1995L41.3813 53.1958" stroke="#252B33" stroke-linecap="round"/>
<path d="M47.0513 53.1958L53.044 50.1995C53.3784 50.0323 53.3784 49.5552 53.044 49.388L47.0513 46.3917" stroke="#252B33" stroke-linecap="round"/>
<path d="M43.0825 54.8969L45.3506 44.1237" stroke="#252B33" stroke-linecap="round"/>
<path d="M51.5874 59.433L54.4225 62.268L57.2575 59.433L54.4225 56.5979" stroke="#252B33" stroke-linecap="round"/>
<path d="M54.7365 61.5465L56.4127 59.8432C57.0127 59.2335 58.0003 59.2482 58.5819 59.8756L67.7167 69.73C68.873 71.7694 67.0179 74.2184 64.7294 73.6371L64.5013 73.5791L54.7362 63.6505C54.162 63.0666 54.1621 62.1302 54.7365 61.5465Z" stroke="#252B33" stroke-linecap="round"/>
</svg>
