<svg width="90" height="90" viewBox="0 0 90 90" fill="none" xmlns="http://www.w3.org/2000/svg">
<path d="M35 69C35 64.0294 30.9706 60 26 60C21.0294 60 17 64.0294 17 69C17 73.9706 21.0294 78 26 78C30.9706 78 35 73.9706 35 69Z" fill="#2C5DE4"/>
<path d="M31.1547 69.4896C35.8289 72.1487 45.8168 63.408 53.4633 49.9668C61.1098 36.5256 63.5193 23.4738 58.845 20.8147C54.1708 18.1556 44.1829 26.8962 36.5365 40.3375C28.89 53.7787 26.4805 66.8305 31.1547 69.4896Z" stroke="#252B33"/>
<path d="M17 45.1521C17 50.5297 29.536 54.8892 45 54.8892C60.464 54.8892 73 50.5297 73 45.1521C73 39.7745 60.464 35.415 45 35.415C29.536 35.415 17 39.7745 17 45.1521Z" stroke="#252B33"/>
<path d="M31.0002 20.9033C26.343 23.5922 28.8356 36.6284 36.5676 50.0206C44.2996 63.4128 54.343 72.0896 59.0002 69.4008C63.6573 66.7119 61.1647 53.6757 53.4327 40.2835C45.7007 26.8913 35.6573 18.2145 31.0002 20.9033Z" stroke="#252B33"/>
<path d="M47.5 45.5C47.5 46.6046 46.6046 47.5 45.5 47.5C44.3954 47.5 43.5 46.6046 43.5 45.5C43.5 44.3954 44.3954 43.5 45.5 43.5C46.6046 43.5 47.5 44.3954 47.5 45.5Z" fill="#252B33" stroke="#252B33"/>
</svg>
