<svg width="90" height="90" viewBox="0 0 90 90" fill="none" xmlns="http://www.w3.org/2000/svg">
<path d="M21.584 32.8073C21.5767 32.8577 23.1272 34.5361 23.1272 34.5361L36.5175 49.5347C37.0562 50.0554 37.5633 50.6096 38.0357 51.1943C37.4027 51.6354 36.7119 51.9827 35.984 52.2255C32.3316 53.788 28.2818 54.085 24.4498 53.0711C23.4723 52.8058 20.8593 51.0957 21.0059 51.6429C21.4671 52.7986 22.0313 53.9081 22.6912 54.9575C25.9747 60.3014 32.7109 65.348 42.5487 62.5535C46.8852 61.4839 47.8297 58.6111 51.3872 59.0005C53.3011 59.2102 54.5138 60.6346 55.344 62.122C55.6775 62.6994 56.0176 63.3236 56.0768 63.9778C56.0768 64.1385 56.3918 63.4158 56.6791 62.1828C57.3933 59.1181 56.9048 55.8885 55.3191 53.1898C55.0809 52.7613 54.4633 51.7354 54.5863 50.9815C54.8098 49.8542 54.9102 48.7553 55.048 47.8338C55.4086 46.0707 55.453 44.2548 55.1792 42.4754C54.9133 39.6982 53.9837 37.0314 52.4729 34.7108C50.962 32.3902 48.9163 30.4877 46.5173 29.1719C45.7406 28.6986 44.9197 28.306 44.067 28C43.8948 28.0534 44.64 29.2109 44.95 30.0385C46.3386 33.9865 46.3386 38.308 44.95 42.2559C44.6701 43.1045 44.2685 43.7546 44.3477 43.7291C44.4268 43.7035 43.9945 43.4525 43.1928 42.8272C41.4401 41.4525 34.6072 36.0393 30.7646 32.9938C29.5329 32.0167 28.5291 31.0284 28.5166 31.1028C28.5041 31.1772 29.5424 34.6985 29.5424 34.6985C29.5424 34.6985 29.9725 36.2152 29.9675 36.1889C29.9623 36.1625 28.5137 35.5703 28.5137 35.5703L23.9706 33.6378C23.9706 33.6378 21.5906 32.757 21.584 32.8073Z" fill="#2C5DE4"/>
<path d="M16.7756 24.4781C16.7639 24.5564 19.2379 27.1673 19.2379 27.1673L40.6036 50.4984C41.4632 51.3085 42.2723 52.1706 43.0261 53.08C42.016 53.7663 40.9138 54.3064 39.7524 54.6842C33.9246 57.1148 27.4626 57.5767 21.3483 55.9995C19.7886 55.5868 15.6193 52.9267 15.8532 53.7779C16.5891 55.5756 17.4893 57.3015 18.5423 58.9339C23.7814 67.2467 34.5297 75.0969 50.2271 70.7499C57.1464 69.0861 58.6534 64.6174 64.3298 65.2231C67.3837 65.5493 69.3187 67.765 70.6434 70.0788C71.1755 70.977 71.7181 71.9479 71.8126 72.9655C71.8126 73.2156 72.3152 72.0913 72.7736 70.1733C73.9132 65.406 73.1338 60.3821 70.6036 56.1842C70.2236 55.5177 69.238 53.9218 69.4344 52.7491C69.791 50.9954 69.9512 49.286 70.171 47.8526C70.7464 45.11 70.8173 42.2853 70.3803 39.5173C69.9561 35.1973 68.4729 31.0488 66.0621 27.439C63.6513 23.8292 60.3873 20.8697 56.5594 18.8229C55.32 18.0867 54.0103 17.476 52.6497 17C52.3749 17.083 53.564 18.8837 54.0585 20.171C56.2743 26.3123 56.2743 33.0347 54.0585 39.1759C53.6119 40.4959 52.9712 41.5072 53.0975 41.4675C53.2237 41.4277 52.5339 41.0373 51.2548 40.0645C48.4582 37.9261 37.5555 29.5056 31.4243 24.7681C29.4589 23.2482 27.8572 21.7108 27.8373 21.8266C27.8174 21.9423 29.4741 27.4199 29.4741 27.4199C29.4741 27.4199 30.1604 29.7792 30.1523 29.7383C30.1441 29.6973 27.8326 28.776 27.8326 28.776L20.5837 25.77C20.5837 25.77 16.7861 24.3998 16.7756 24.4781Z" stroke="#252B33" stroke-linecap="round" stroke-linejoin="bevel"/>
<path d="M40.7149 54.2375C41.5584 54.0241 42.3399 53.6152 42.996 53.0438L32.4734 41.6397L16.7549 24.4653L19.6849 25.4475L22.3144 26.4834L30.135 29.7221L27.7966 21.8115L32.8429 25.8263L43.7758 34.2703L53.1083 41.4467C53.5207 40.627 53.8656 39.775 54.1395 38.8991" stroke="#252B33" stroke-linecap="round" stroke-linejoin="round"/>
</svg>
