<svg width="90" height="90" viewBox="0 0 90 90" fill="none" xmlns="http://www.w3.org/2000/svg">
<path d="M37.1025 67.7475L47.6025 74.2475L68.6659 62.6054L68.8687 51L37.1025 67.7475Z" fill="#2C5DE4"/>
<path d="M70 32.3704V58.6157C70 59.793 69.3823 60.8732 68.3768 61.4549L45.5801 74.5707C45.1061 74.8477 44.5602 74.9862 44 74.9862H43.8707C43.3536 74.9723 42.8508 74.82 42.4199 74.5707L36.358 70.9974C36.7315 70.8174 37.1193 70.5958 37.6077 70.3188L42.8508 73.3242C43.1956 73.5181 43.5978 73.615 44 73.615C44.4166 73.615 44.8188 73.5042 45.1635 73.3103L67.4431 60.5409C68.1326 60.1392 68.5635 59.4052 68.5635 58.6157V32.7444C68.5635 31.9688 68.147 31.2209 67.4575 30.8193L45.1779 17.7035C44.8188 17.4958 44.4166 17.385 44 17.385C43.5834 17.385 43.1812 17.4958 42.8365 17.7035L20.5569 30.8193C19.8674 31.207 19.4365 31.9549 19.4365 32.7444V58.6157C19.4365 59.4052 19.8674 60.1392 20.5713 60.5409L26.3459 63.8786L26.389 63.9063C27.5381 64.4742 28.6298 64.765 29.6641 64.765C32.1923 64.7512 34.0884 62.9369 34.0884 60.5131V35.9437H35.5249V60.5131C35.5249 64.1141 33.5713 66.0808 30.0376 66.0808C28.8597 66.0808 28.0696 66.0808 25.5558 64.8481L19.6232 61.4411C18.6177 60.8594 18 59.7791 18 58.6019V32.3704C18 31.1932 18.6177 30.1129 19.6232 29.5312L42.4199 16.3878C42.8652 16.1385 43.4254 16 44 16C44.5746 16 45.1348 16.1385 45.5945 16.4016L68.3768 29.5312C69.3823 30.1129 70 31.1932 70 32.3704Z" fill="#252B33"/>
<path d="M70 32.3704V58.6157C70 59.793 69.3823 60.8732 68.3768 61.4549L45.5801 74.5707C45.1061 74.8477 44.5602 74.9862 44 74.9862H43.8707C43.3536 74.9723 42.8508 74.82 42.4199 74.5707L36.358 70.9974C36.7315 70.8174 37.1193 70.5958 37.6077 70.3188L42.8508 73.3242C43.1956 73.5181 43.5978 73.615 44 73.615C44.4166 73.615 44.8188 73.5042 45.1635 73.3103L67.4431 60.5409C68.1326 60.1392 68.5635 59.4052 68.5635 58.6157V32.7444C68.5635 31.9688 68.147 31.2209 67.4575 30.8193L45.1779 17.7035C44.8188 17.4958 44.4166 17.385 44 17.385C43.5834 17.385 43.1812 17.4958 42.8365 17.7035L20.5569 30.8193C19.8674 31.207 19.4365 31.9549 19.4365 32.7444V58.6157C19.4365 59.4052 19.8674 60.1392 20.5713 60.5409L26.3459 63.8786L26.389 63.9063C27.5381 64.4742 28.6298 64.765 29.6641 64.765C32.1923 64.7512 34.0884 62.9369 34.0884 60.5131V35.9437H35.5249V60.5131C35.5249 64.1141 33.5713 66.0808 30.0376 66.0808C28.8597 66.0808 28.0696 66.0808 25.5558 64.8481L19.6232 61.4411C18.6177 60.8594 18 59.7791 18 58.6019V32.3704C18 31.1932 18.6177 30.1129 19.6232 29.5312L42.4199 16.3878C42.8652 16.1385 43.4254 16 44 16C44.5746 16 45.1348 16.1385 45.5945 16.4016L68.3768 29.5312C69.3823 30.1129 70 31.1932 70 32.3704Z" fill="#252B33"/>
<path d="M60.8063 50.6521C60.8063 52.6465 60.0163 54.2254 58.4649 55.361C56.7555 56.6075 54.1842 57.2585 51.0384 57.2585C42.7643 57.2585 40.94 53.6852 40.624 51.4416H41.8163C42.8649 55.7073 47.045 56.3167 51.0384 56.3167C54.845 56.3167 59.3842 55.361 59.3842 50.8183C59.3842 47.5221 56.3533 46.6495 50.0041 46.0263C46.7003 45.6939 44.6317 45.1953 43.2958 44.392C41.9312 43.5749 41.3279 42.3977 41.3279 40.5695C41.3279 38.8106 42.0317 37.4117 43.4251 36.4423C44.9334 35.3897 47.2461 34.8357 50.1047 34.8357C57.4737 34.8357 59.3124 37.301 59.7721 39.5446H58.5511C57.3875 36.4423 54.3135 35.7913 50.1047 35.7913C45.1776 35.7913 42.6782 37.3564 42.6782 40.4448C42.6782 41.5113 42.9224 42.8409 44.8759 43.6441C46.0538 44.1427 47.8782 44.5028 51.8428 45.0153C54.4572 45.3615 57.3588 45.8463 58.9964 46.8573C60.2748 47.6744 60.8063 48.7686 60.8063 50.6521Z" fill="#252B33"/>
<path d="M60.8063 50.6521C60.8063 52.6465 60.0163 54.2254 58.4649 55.361C56.7555 56.6075 54.1842 57.2585 51.0384 57.2585C42.7643 57.2585 40.94 53.6852 40.624 51.4416H41.8163C42.8649 55.7073 47.045 56.3167 51.0384 56.3167C54.845 56.3167 59.3842 55.361 59.3842 50.8183C59.3842 47.5221 56.3533 46.6495 50.0041 46.0263C46.7003 45.6939 44.6317 45.1953 43.2958 44.392C41.9312 43.5749 41.3279 42.3977 41.3279 40.5695C41.3279 38.8106 42.0317 37.4117 43.4251 36.4423C44.9334 35.3897 47.2461 34.8357 50.1047 34.8357C57.4737 34.8357 59.3124 37.301 59.7721 39.5446H58.5511C57.3875 36.4423 54.3135 35.7913 50.1047 35.7913C45.1776 35.7913 42.6782 37.3564 42.6782 40.4448C42.6782 41.5113 42.9224 42.8409 44.8759 43.6441C46.0538 44.1427 47.8782 44.5028 51.8428 45.0153C54.4572 45.3615 57.3588 45.8463 58.9964 46.8573C60.2748 47.6744 60.8063 48.7686 60.8063 50.6521Z" fill="#252B33"/>
</svg>
