<svg width="90" height="90" viewBox="0 0 90 90" fill="none" xmlns="http://www.w3.org/2000/svg">
<path d="M18 31.5C18.2761 31.5 18.5 31.2761 18.5 31C18.5 30.7239 18.2761 30.5 18 30.5V31.5ZM37 30.5C36.7239 30.5 36.5 30.7239 36.5 31C36.5 31.2761 36.7239 31.5 37 31.5V30.5ZM53.2422 31.5C53.5183 31.5 53.7422 31.2761 53.7422 31C53.7422 30.7239 53.5183 30.5 53.2422 30.5V31.5ZM74.5 32V67H75.5V32H74.5ZM74 67.5H16V68.5H74V67.5ZM15.5 67V32H14.5V67H15.5ZM16 31.5H18V30.5H16V31.5ZM37 31.5H53.2422V30.5H37V31.5ZM72.5 31.5H74V30.5H72.5V31.5ZM16 67.5C15.7239 67.5 15.5 67.2761 15.5 67H14.5C14.5 67.8284 15.1716 68.5 16 68.5V67.5ZM74.5 67C74.5 67.2761 74.2761 67.5 74 67.5V68.5C74.8284 68.5 75.5 67.8284 75.5 67H74.5ZM75.5 32C75.5 31.1716 74.8284 30.5 74 30.5V31.5C74.2761 31.5 74.5 31.7239 74.5 32H75.5ZM15.5 32C15.5 31.7239 15.7239 31.5 16 31.5V30.5C15.1716 30.5 14.5 31.1716 14.5 32H15.5Z" fill="#252B33"/>
<path d="M44.0147 56.2263L26.58 46.3913C25.8941 46.0044 25.9038 45.0133 26.5972 44.6399L44.0317 35.2521C44.3244 35.0945 44.6763 35.0926 44.9707 35.2472L62.8524 44.6351C63.5582 45.0056 63.568 46.0126 62.8695 46.3967L44.988 56.2316C44.6845 56.3984 44.3164 56.3965 44.0147 56.2263Z" fill="#2C5DE4"/>
<path d="M44.0147 59.2263L26.58 49.3913C25.8941 49.0044 25.9038 48.0133 26.5972 47.6399L44.0317 38.2521C44.3244 38.0945 44.6763 38.0926 44.9707 38.2472L62.8524 47.6351C63.5582 48.0056 63.568 49.0126 62.8695 49.3967L44.988 59.2316C44.6845 59.3984 44.3164 59.3965 44.0147 59.2263Z" stroke="#252B33"/>
<path d="M27.9999 49.8848L26.5972 50.64C25.9038 51.0134 25.8941 52.0046 26.58 52.3915L44.0147 62.2265C44.3164 62.3966 44.6845 62.3986 44.988 62.2317L62.8695 52.3969C63.568 52.0127 63.5582 51.0058 62.8524 50.6352L61.423 49.8848" stroke="#252B33"/>
<path d="M27.9999 52.8848L26.5972 53.64C25.9038 54.0134 25.8941 55.0046 26.58 55.3915L44.0147 65.2265C44.3164 65.3966 44.6845 65.3986 44.988 65.2317L62.8695 55.3969C63.568 55.0127 63.5582 54.0058 62.8524 53.6352L61.423 52.8848" stroke="#252B33"/>
<path d="M21 64.5C21.8284 64.5 22.5 63.8284 22.5 63C22.5 62.1716 21.8284 61.5 21 61.5C20.1716 61.5 19.5 62.1716 19.5 63C19.5 63.8284 20.1716 64.5 21 64.5Z" stroke="#252B33"/>
<path d="M69 64.5C69.8284 64.5 70.5 63.8284 70.5 63C70.5 62.1716 69.8284 61.5 69 61.5C68.1716 61.5 67.5 62.1716 67.5 63C67.5 63.8284 68.1716 64.5 69 64.5Z" stroke="#252B33"/>
<path d="M18 65.5C18.2761 65.5 18.5 65.2761 18.5 65C18.5 64.7239 18.2761 64.5 18 64.5C17.7239 64.5 17.5 64.7239 17.5 65C17.5 65.2761 17.7239 65.5 18 65.5Z" stroke="#252B33"/>
<path d="M72 65.5C72.2761 65.5 72.5 65.2761 72.5 65C72.5 64.7239 72.2761 64.5 72 64.5C71.7239 64.5 71.5 64.7239 71.5 65C71.5 65.2761 71.7239 65.5 72 65.5Z" stroke="#252B33"/>
<path d="M26.0977 27.2344C25.4518 27.2344 24.8204 27.4259 24.2834 27.7847C23.7463 28.1436 23.3278 28.6536 23.0806 29.2503C22.8334 29.847 22.7688 30.5036 22.8948 31.1371C23.0208 31.7706 23.3318 32.3524 23.7885 32.8091C24.2452 33.2658 24.8271 33.5769 25.4606 33.7029C26.094 33.8289 26.7506 33.7642 27.3474 33.517C27.9441 33.2699 28.4541 32.8513 28.8129 32.3143C29.1717 31.7772 29.3633 31.1459 29.3633 30.5C29.3623 29.6342 29.0179 28.8041 28.4057 28.1919C27.7935 27.5797 26.9634 27.2354 26.0977 27.2344ZM26.0977 32.5781C25.6866 32.5781 25.2849 32.4562 24.9431 32.2279C24.6014 31.9995 24.335 31.675 24.1777 31.2953C24.0204 30.9155 23.9793 30.4977 24.0595 30.0946C24.1396 29.6915 24.3376 29.3212 24.6282 29.0305C24.9188 28.7399 25.2891 28.542 25.6922 28.4618C26.0953 28.3816 26.5132 28.4228 26.8929 28.5801C27.2726 28.7373 27.5972 29.0037 27.8255 29.3455C28.0539 29.6872 28.1758 30.089 28.1758 30.5C28.1752 31.051 27.956 31.5792 27.5664 31.9688C27.1768 32.3584 26.6486 32.5775 26.0977 32.5781Z" fill="#252B33"/>
<path d="M34.2442 32.961L33.0652 31.9905C33.2742 31.0078 33.2742 29.9921 33.0652 29.0094L34.2442 28.0389C34.3802 27.9275 34.472 27.7713 34.5034 27.5983C34.5347 27.4253 34.5034 27.2469 34.4151 27.0949L33.2049 24.9988C33.1174 24.8463 32.9785 24.7299 32.813 24.6706C32.6475 24.6112 32.4663 24.6127 32.3018 24.6748L30.8708 25.211C30.1254 24.5375 29.2459 24.0292 28.2902 23.7195L28.0391 22.2139C28.0107 22.0404 27.9214 21.8827 27.7873 21.769C27.6531 21.6554 27.4829 21.5932 27.307 21.5937H24.8867C24.7109 21.5932 24.5406 21.6554 24.4065 21.769C24.2723 21.8827 24.183 22.0404 24.1546 22.2139L23.9037 23.7195C22.9479 24.0292 22.0685 24.5375 21.3231 25.211L19.892 24.6748C19.7275 24.6127 19.5463 24.6112 19.3808 24.6706C19.2153 24.7299 19.0764 24.8463 18.9889 24.9988L17.7788 27.095C17.6905 27.247 17.6592 27.4255 17.6906 27.5984C17.7219 27.7714 17.8138 27.9276 17.9498 28.039L19.1287 29.0094C18.9197 29.9921 18.9197 31.0078 19.1287 31.9905L17.9497 32.961C17.8137 33.0724 17.7219 33.2286 17.6905 33.4016C17.6592 33.5745 17.6905 33.753 17.7788 33.905L18.989 36.0011C19.0765 36.1536 19.2154 36.2699 19.3809 36.3293C19.5464 36.3887 19.7276 36.3872 19.8921 36.325L21.3231 35.7889C22.0686 36.4624 22.948 36.9707 23.9037 37.2804L24.1546 38.786C24.1831 38.9595 24.2724 39.1172 24.4065 39.2308C24.5406 39.3445 24.7109 39.4067 24.8867 39.4062H27.307C27.4829 39.4067 27.6531 39.3445 27.7872 39.2309C27.9214 39.1172 28.0107 38.9595 28.0391 38.786L28.2901 37.2804C29.2458 36.9707 30.1252 36.4624 30.8707 35.7889L32.3018 36.3251C32.4662 36.3872 32.6474 36.3887 32.8129 36.3293C32.9784 36.2699 33.1173 36.1536 33.2048 36.0011L34.4149 33.9049C34.5032 33.7529 34.5345 33.5745 34.5032 33.4015C34.4719 33.2286 34.3801 33.0724 34.2442 32.961ZM32.3651 35.0807L30.5798 34.4118L30.3095 34.684C29.5657 35.4337 28.6353 35.9714 27.6144 36.2416L27.2433 36.3394L26.9299 38.2187H25.2641L24.9508 36.3394L24.5797 36.2416C23.5588 35.9714 22.6285 35.4337 21.8847 34.684L21.6143 34.4118L19.8287 35.0807L18.9959 33.638L20.4666 32.4273L20.3664 32.0572C20.0908 31.0373 20.0908 29.9626 20.3664 28.9426L20.4666 28.5726L18.9959 27.3619L19.8289 25.9192L21.6142 26.5881L21.8845 26.3159C22.6283 25.5662 23.5587 25.0285 24.5796 24.7583L24.9507 24.6605L25.2639 22.7812H26.9299L27.2432 24.6605L27.6143 24.7583C28.6352 25.0285 29.5656 25.5662 30.3094 26.3159L30.5797 26.5881L32.365 25.9192L33.198 27.3619L31.7274 28.5726L31.8276 28.9426C32.1031 29.9626 32.1031 31.0373 31.8276 32.0572L31.7274 32.4273L33.198 33.6379L32.3651 35.0807Z" fill="#252B33"/>
<path d="M40.5 68V74C40.5 74.5523 40.0523 75 39.5 75H34H49.5M49.5 75H57M49.5 75V68" stroke="#252B33" stroke-linecap="round"/>
<path d="M64.0977 28.2344C63.4518 28.2344 62.8204 28.4259 62.2834 28.7847C61.7463 29.1436 61.3278 29.6536 61.0806 30.2503C60.8334 30.847 60.7688 31.5036 60.8948 32.1371C61.0208 32.7706 61.3318 33.3524 61.7885 33.8091C62.2452 34.2658 62.8271 34.5769 63.4606 34.7029C64.094 34.8289 64.7506 34.7642 65.3474 34.517C65.9441 34.2699 66.4541 33.8513 66.8129 33.3143C67.1717 32.7772 67.3633 32.1459 67.3633 31.5C67.3623 30.6342 67.0179 29.8041 66.4057 29.1919C65.7935 28.5797 64.9634 28.2354 64.0977 28.2344ZM64.0977 33.5781C63.6866 33.5781 63.2849 33.4562 62.9431 33.2279C62.6014 32.9995 62.335 32.675 62.1777 32.2953C62.0204 31.9155 61.9793 31.4977 62.0595 31.0946C62.1396 30.6915 62.3376 30.3212 62.6282 30.0305C62.9188 29.7399 63.2891 29.542 63.6922 29.4618C64.0953 29.3816 64.5132 29.4228 64.8929 29.5801C65.2726 29.7373 65.5972 30.0037 65.8255 30.3455C66.0539 30.6872 66.1758 31.089 66.1758 31.5C66.1752 32.051 65.956 32.5792 65.5664 32.9688C65.1768 33.3584 64.6486 33.5775 64.0977 33.5781Z" fill="#252B33"/>
<path d="M72.2442 33.961L71.0652 32.9905C71.2742 32.0078 71.2742 30.9921 71.0652 30.0094L72.2442 29.0389C72.3802 28.9275 72.472 28.7713 72.5034 28.5983C72.5347 28.4253 72.5034 28.2469 72.4151 28.0949L71.2049 25.9988C71.1174 25.8463 70.9785 25.7299 70.813 25.6706C70.6475 25.6112 70.4663 25.6127 70.3018 25.6748L68.8708 26.211C68.1254 25.5375 67.2459 25.0292 66.2902 24.7195L66.0391 23.2139C66.0107 23.0404 65.9214 22.8827 65.7873 22.769C65.6531 22.6554 65.4829 22.5932 65.307 22.5937H62.8867C62.7109 22.5932 62.5406 22.6554 62.4065 22.769C62.2723 22.8827 62.183 23.0404 62.1546 23.2139L61.9037 24.7195C60.9479 25.0292 60.0685 25.5375 59.3231 26.211L57.892 25.6748C57.7275 25.6127 57.5463 25.6112 57.3808 25.6706C57.2153 25.7299 57.0764 25.8463 56.9889 25.9988L55.7788 28.095C55.6905 28.247 55.6592 28.4255 55.6906 28.5984C55.7219 28.7714 55.8138 28.9276 55.9498 29.039L57.1287 30.0094C56.9197 30.9921 56.9197 32.0078 57.1287 32.9905L55.9497 33.961C55.8137 34.0724 55.7219 34.2286 55.6905 34.4016C55.6592 34.5745 55.6905 34.753 55.7788 34.905L56.989 37.0011C57.0765 37.1536 57.2154 37.2699 57.3809 37.3293C57.5464 37.3887 57.7276 37.3872 57.8921 37.325L59.3231 36.7889C60.0686 37.4624 60.948 37.9707 61.9037 38.2804L62.1546 39.786C62.1831 39.9595 62.2724 40.1172 62.4065 40.2308C62.5406 40.3445 62.7109 40.4067 62.8867 40.4062H65.307C65.4829 40.4067 65.6531 40.3445 65.7872 40.2309C65.9214 40.1172 66.0107 39.9595 66.0391 39.786L66.2901 38.2804C67.2458 37.9707 68.1252 37.4624 68.8707 36.7889L70.3018 37.3251C70.4662 37.3872 70.6474 37.3887 70.8129 37.3293C70.9784 37.2699 71.1173 37.1536 71.2048 37.0011L72.4149 34.9049C72.5032 34.7529 72.5345 34.5745 72.5032 34.4015C72.4719 34.2286 72.3801 34.0724 72.2442 33.961ZM70.3651 36.0807L68.5798 35.4118L68.3095 35.684C67.5657 36.4337 66.6353 36.9714 65.6144 37.2416L65.2433 37.3394L64.9299 39.2187H63.2641L62.9508 37.3394L62.5797 37.2416C61.5588 36.9714 60.6285 36.4337 59.8847 35.684L59.6143 35.4118L57.8287 36.0807L56.9959 34.638L58.4666 33.4273L58.3664 33.0572C58.0908 32.0373 58.0908 30.9626 58.3664 29.9426L58.4666 29.5726L56.9959 28.3619L57.8289 26.9192L59.6142 27.5881L59.8845 27.3159C60.6283 26.5662 61.5587 26.0285 62.5796 25.7583L62.9507 25.6605L63.2639 23.7812H64.9299L65.2432 25.6605L65.6143 25.7583C66.6352 26.0285 67.5656 26.5662 68.3094 27.3159L68.5797 27.5881L70.365 26.9192L71.198 28.3619L69.7274 29.5726L69.8276 29.9426C70.1031 30.9626 70.1031 32.0373 69.8276 33.0572L69.7274 33.4273L71.198 34.6379L70.3651 36.0807Z" fill="#252B33"/>
</svg>
