<svg width="90" height="90" viewBox="0 0 90 90" fill="none" xmlns="http://www.w3.org/2000/svg">
<path d="M35.4633 68.4896C40.1375 71.1487 50.1254 62.408 57.7719 48.9668C65.4184 35.5256 67.8279 22.4738 63.1536 19.8147C58.4794 17.1556 48.4915 25.8962 40.8451 39.3375C33.1986 52.7787 30.7891 65.8305 35.4633 68.4896Z" fill="#2C5DE4"/>
<path d="M47.5 47C48.8807 47 50 45.8807 50 44.5C50 43.1193 48.8807 42 47.5 42C46.1193 42 45 43.1193 45 44.5C45 45.8807 46.1193 47 47.5 47Z" fill="#2C5DE4"/>
<path d="M31.1547 69.4896C35.8289 72.1487 45.8168 63.408 53.4633 49.9668C61.1098 36.5256 63.5193 23.4738 58.845 20.8147C54.1708 18.1556 44.1829 26.8962 36.5365 40.3375C28.89 53.7787 26.4805 66.8305 31.1547 69.4896Z" stroke="#252B33"/>
<path d="M17 45.1521C17 50.5297 29.536 54.8892 45 54.8892C60.464 54.8892 73 50.5297 73 45.1521C73 39.7745 60.464 35.415 45 35.415C29.536 35.415 17 39.7745 17 45.1521Z" stroke="#252B33"/>
<path d="M31.0002 20.9033C26.343 23.5922 28.8356 36.6284 36.5676 50.0206C44.2996 63.4128 54.343 72.0896 59.0002 69.4008C63.6573 66.7119 61.1647 53.6757 53.4327 40.2835C45.7007 26.8913 35.6573 18.2145 31.0002 20.9033Z" stroke="#252B33"/>
<path d="M47.5 45.5C47.5 46.6046 46.6046 47.5 45.5 47.5C44.3954 47.5 43.5 46.6046 43.5 45.5C43.5 44.3954 44.3954 43.5 45.5 43.5C46.6046 43.5 47.5 44.3954 47.5 45.5Z" fill="#F5F5F5" stroke="#252B33"/>
</svg>
