<svg width="90" height="90" viewBox="0 0 90 90" fill="none" xmlns="http://www.w3.org/2000/svg">
<g clip-path="url(#clip0_877_132)">
<mask id="mask0_877_132" style="mask-type:luminance" maskUnits="userSpaceOnUse" x="0" y="0" width="90" height="90">
<path d="M90 0H0V90H90V0Z" fill="white"/>
</mask>
<g mask="url(#mask0_877_132)">
<path d="M43.4 42.2017C45.4 42.2017 46.9 43.1017 46.9 43.1017L48.7 37.7017C48.7 37.7017 47.5 37.0017 45 37.0017C38.6 36.9017 35.4 41.2017 35.4 45.7017C35.4 51.0017 40.7 51.2017 40.7 54.4017C40.7 55.2017 40.2 56.3017 38.8 56.3017C36.7 56.3017 34.3 54.2017 34.3 54.2017L33 58.3017C33 58.3017 35.4 61.2017 40.1 61.2017C44 61.2017 46.9 58.2017 46.9 53.7017C46.9 47.9017 40.5 46.9017 40.5 44.5017C40.4 44.0017 40.6 42.2017 43.4 42.2017Z" fill="#2C5DE4"/>
<path d="M53.4998 22.5L58.2146 26.7433C58.3982 26.9086 58.6365 27 58.8835 27H61.6458C62.1377 27 62.5565 27.3576 62.6335 27.8434L68.8574 67.1015C68.9381 67.6109 68.6182 68.0981 68.1187 68.2266L51.4998 72.5M53.4998 22.5L51.4998 72.5M53.4998 22.5L50.4998 23.5345L47.4998 24.569L46.4998 24.9138M51.4998 72.5L20.9433 67.1647C20.4157 67.0726 20.0544 66.5813 20.1237 66.0503L24.4197 33.1141C24.4688 32.7379 24.7266 32.4218 25.0853 32.2981L30.8437 30.3125C30.9427 30.2783 31.0219 30.2024 31.0602 30.1049M46.4998 24.9138C47.0025 17.472 36.5881 15.2341 33.9893 22.2254L31.0602 30.1049M46.4998 24.9138L38.78 27.5094L34.9201 28.8071L31.0602 30.1049M35.779 28.5183L37.2122 23.4209C39.2497 16.1739 49.5427 16.2309 51.4998 23.5" stroke="#252B33" stroke-linecap="round"/>
<path d="M43.6075 42.3971C43.4556 42.3296 43.2748 42.2553 43.0691 42.1813C42.4065 41.9428 41.4729 41.7017 40.3997 41.7017C38.8869 41.7017 37.9691 42.1939 37.4634 42.8627C37.0003 43.4751 36.9398 44.1643 37.0003 44.5485C37.0207 45.3621 37.5704 45.9904 38.1716 46.5133C38.4883 46.7888 38.8531 47.0628 39.2271 47.3398C39.277 47.3768 39.3272 47.4139 39.3775 47.4511C39.7089 47.6961 40.0484 47.947 40.3881 48.2177C41.944 49.4576 43.3997 51.0292 43.3997 53.7017C43.3997 55.8434 42.7109 57.5919 41.5949 58.7999C40.4808 60.0059 38.9158 60.7017 37.0997 60.7017C34.8573 60.7017 33.1714 60.011 32.0477 59.325C31.4851 58.9814 31.0634 58.639 30.7849 58.3852C30.697 58.3052 30.6235 58.2341 30.5645 58.1748L31.5576 55.0426C31.8097 55.2292 32.1325 55.4538 32.5022 55.6788C33.3827 56.2147 34.6065 56.8017 35.7997 56.8017C36.6478 56.8017 37.2679 56.4606 37.6651 55.9641C38.0482 55.4852 38.1997 54.8941 38.1997 54.4017C38.1997 53.4409 37.7939 52.7144 37.2431 52.103C36.8426 51.6584 36.3338 51.2441 35.8375 50.8398C35.6795 50.7112 35.5228 50.5835 35.3712 50.4563C34.089 49.3797 32.8997 48.1317 32.8997 45.7017C32.8997 43.5683 33.6579 41.499 35.156 39.9775C36.6486 38.4615 38.9113 37.4535 41.9919 37.5016L41.9997 37.5017C43.2023 37.5017 44.0811 37.67 44.6498 37.8325C44.8219 37.8816 44.9658 37.9303 45.082 37.9738L43.6075 42.3971Z" stroke="#252B33"/>
</g>
</g>
<defs>
<clipPath id="clip0_877_132">
<rect width="90" height="90" fill="white"/>
</clipPath>
</defs>
</svg>
