<svg width="90" height="90" viewBox="0 0 90 90" fill="none" xmlns="http://www.w3.org/2000/svg">
<mask id="mask0_877_67" style="mask-type:luminance" maskUnits="userSpaceOnUse" x="15" y="28" width="61" height="36">
<path d="M75.0214 28H15.3428V64H75.0214V28Z" fill="white"/>
</mask>
<g mask="url(#mask0_877_67)">
<path d="M66.8571 38.0462C66 37.8319 65.1429 38.3677 64.3929 39.5462C63.75 40.4034 63.3214 41.3677 63.1071 42.332C63 42.8677 62.8929 43.5105 62.8929 44.0462C62.8929 44.6891 63 45.4391 63.3214 46.1891C63.6429 47.1534 64.1786 47.582 64.7143 47.6891C65.3571 47.7962 66 47.582 66.6429 46.9391C67.5 46.1891 68.1429 45.0105 68.4643 43.4034C68.5714 42.8677 68.6786 42.2248 68.6786 41.6891C68.6786 41.0462 68.5714 40.2962 68.25 39.5462C67.9286 38.6891 67.3929 38.1534 66.8571 38.0462ZM53.3571 39.5462C53.0357 38.582 52.5 38.1534 51.9643 38.0462C51.1071 37.8319 50.25 38.3677 49.5 39.5462C48.8571 40.4034 48.4286 41.3677 48.2143 42.332C48.1071 42.8677 48 43.5105 48 44.0462C48 44.6891 48.1071 45.4391 48.4286 46.1891C48.75 47.1534 49.2857 47.582 49.8214 47.6891C50.4643 47.7962 51.1071 47.582 51.75 46.9391C52.6071 46.1891 53.25 45.0105 53.5714 43.4034C53.6786 42.8677 53.7857 42.2248 53.7857 41.6891C53.7857 41.0462 53.5714 40.2962 53.3571 39.5462Z" fill="#2C5DE4"/>
<path d="M65.8064 38.3929C64.9492 38.1786 64.0921 38.7143 63.3421 39.8929C62.6992 40.75 62.2706 41.7143 62.0564 42.6786C61.9492 43.2143 61.8421 43.8571 61.8421 44.3929C61.8421 45.0357 61.9492 45.7857 62.2706 46.5357C62.5921 47.5 63.1278 47.9286 63.6635 48.0357C64.3064 48.1429 64.9492 47.9286 65.5921 47.2857C66.4492 46.5357 67.0921 45.3571 67.4135 43.75C67.5206 43.2143 67.6278 42.5714 67.6278 42.0357C67.6278 41.3929 67.5206 40.6429 67.1992 39.8929C66.8778 39.0357 66.3421 38.5 65.8064 38.3929ZM52.3064 39.8929C51.9849 38.9286 51.4492 38.5 50.9135 38.3929C50.0564 38.1786 49.1992 38.7143 48.4492 39.8929C47.8064 40.75 47.3778 41.7143 47.1635 42.6786C47.0564 43.2143 46.9492 43.8571 46.9492 44.3929C46.9492 45.0357 47.0564 45.7857 47.3778 46.5357C47.6992 47.5 48.2349 47.9286 48.7706 48.0357C49.4135 48.1429 50.0564 47.9286 50.6992 47.2857C51.5564 46.5357 52.1992 45.3571 52.5206 43.75C52.6278 43.2143 52.7349 42.5714 52.7349 42.0357C52.7349 41.3929 52.5206 40.6429 52.3064 39.8929Z" stroke="#252B33" stroke-miterlimit="10" stroke-linecap="round" stroke-linejoin="round"/>
<path d="M69.1279 28.5357H21.3422C18.3422 28.5357 15.8779 31 15.8779 34V52.2143C15.8779 55.2143 18.3422 57.6786 21.3422 57.6786H43.9494L54.2351 63.4643L51.8779 57.6786H69.0208C72.0208 57.6786 74.4851 55.2143 74.4851 52.2143V34C74.5922 31 72.1279 28.5357 69.1279 28.5357ZM40.1994 52.4286C40.1994 53.0714 40.1994 53.5 39.8779 54.0357C39.5565 54.5714 39.1279 54.8928 38.5922 54.8928C37.9494 54.8928 37.3065 54.6786 36.6636 54.0357C34.4136 51.7857 32.6994 48.3571 31.4136 43.8571C29.9136 46.8571 28.7351 49.2143 27.9851 50.7143C26.5922 53.3928 25.4136 54.7857 24.3422 54.8928C23.6994 54.8928 23.1636 54.3571 22.6279 53.2857C21.4494 50.1786 20.0565 44.1786 18.6636 35.1786C18.5565 34.5357 18.6636 34 19.0922 33.5714C19.4136 33.1428 19.9494 32.9286 20.5922 32.8214C21.7708 32.7143 22.5208 33.25 22.6279 34.5357C23.3779 39.4643 24.1279 43.75 24.9851 47.1786L30.2351 37.2143C30.6636 36.3571 31.3065 35.8214 32.0565 35.8214C33.1279 35.7143 33.7708 36.4643 33.9851 37.8571C34.6279 41.0714 35.3779 43.75 36.2351 46C36.8779 39.8928 37.9494 35.6071 39.3422 32.9286C39.6636 32.2857 40.1994 31.9643 40.9494 31.8571C41.4851 31.8571 42.0208 31.9643 42.4494 32.2857C42.8779 32.6071 43.0922 33.1428 43.1994 33.6786C43.1994 34.1071 43.1994 34.4286 42.9851 34.8571C42.0208 36.5714 41.2708 39.4643 40.6279 43.4286C40.3065 47.2857 40.0922 50.2857 40.1994 52.4286ZM54.8779 48.6786C53.4851 51.0357 51.5565 52.2143 49.3065 52.2143C48.8779 52.2143 48.4494 52.2143 48.0208 52.1071C46.3065 51.7857 45.0208 50.8214 44.1636 49.3214C43.4136 48.0357 42.9851 46.4286 42.9851 44.6071C42.9851 42.1428 43.6279 39.8928 44.8065 37.8571C46.3065 35.5 48.1279 34.3214 50.3779 34.3214C50.8065 34.3214 51.2351 34.3214 51.6636 34.4286C53.3779 34.75 54.6636 35.7143 55.5208 37.2143C56.2708 38.5 56.6994 40 56.6994 41.9286C56.6994 44.3928 56.0565 46.6428 54.8779 48.6786ZM69.7708 48.6786C68.3779 51.0357 66.4494 52.2143 64.1994 52.2143C63.7708 52.2143 63.3422 52.2143 62.9136 52.1071C61.1994 51.7857 59.9136 50.8214 59.0565 49.3214C58.3065 48.0357 57.8779 46.4286 57.8779 44.6071C57.8779 42.1428 58.5208 39.8928 59.6994 37.8571C61.1994 35.5 63.0208 34.3214 65.2708 34.3214C65.6994 34.3214 66.1279 34.3214 66.5565 34.4286C68.2708 34.75 69.5565 35.7143 70.4136 37.2143C71.1636 38.5 71.5922 40 71.5922 41.9286C71.5922 44.3928 71.0565 46.6428 69.7708 48.6786Z" stroke="#252B33" stroke-miterlimit="10" stroke-linecap="round" stroke-linejoin="round"/>
</g>
</svg>
