<svg xmlns="http://www.w3.org/2000/svg" width="15.873" height="16" viewBox="0 0 15.873 16">
  <g id="ionic_App_Development" data-name="ionic App Development" transform="translate(-9126 -9880)">
    <path id="Path_14386" data-name="Path 14386" d="M9139.331,9886.042h0c0,.008.911,3.817-1.534,5.892a6.811,6.811,0,0,1-4.943,1.735s-2.631.111-4.595-3,.184-6.39.184-6.39a5.85,5.85,0,0,1,4.127-2.621,6.638,6.638,0,0,1,4.372.973s-.191,1.422.857,1.839a2.277,2.277,0,0,0,1.752.071,1.8,1.8,0,0,0,1-1.573,1.981,1.981,0,0,0-.883-1.645,1.921,1.921,0,0,0-1.585-.155,7.365,7.365,0,0,0-5.03-1.5,8.967,8.967,0,0,0-5.5,2.572,8.174,8.174,0,0,0-1.972,5.324,8.417,8.417,0,0,0,1.672,5.1,8.243,8.243,0,0,0,5.458,2.981,8.463,8.463,0,0,0,5.379-1.389,9.3,9.3,0,0,0,2.908-3.7,11.181,11.181,0,0,0,.278-5.177c-.024-.16-.04-.212-.056-.3a2.115,2.115,0,0,1-1.891.968" transform="translate(0.419 0.347)" fill="#4e8ef7"/>
    <circle id="Ellipse_87" data-name="Ellipse 87" cx="3.546" cy="3.546" r="3.546" transform="translate(9130.354 9884.479)" fill="#4e8ef7"/>
  </g>
</svg>
