<?xml version="1.0" encoding="utf-8"?>
<!-- Generator: Adobe Illustrator 26.5.0, SVG Export Plug-In . SVG Version: 6.00 Build 0)  -->
<svg version="1.1" id="Layer_1" xmlns="http://www.w3.org/2000/svg" xmlns:xlink="http://www.w3.org/1999/xlink" x="0px" y="0px"
	 viewBox="0 0 512 512" style="enable-background:new 0 0 512 512;" xml:space="preserve">
<style type="text/css">
	.st0{fill:#007D96;}
	.st1{fill:#FFFFFF;}
	.st2{fill:#E5E5E5;}
	.st3{fill:#007087;}
</style>
<g id="XMLID_1_">
	<path id="XMLID_3_" class="st0" d="M16.55,82.9l37.59,325.44L256,512l202.28-103.38l37.17-326c0,0-126.11-82.48-239.31-82.48
		S16.55,82.9,16.55,82.9"/>
	<path id="XMLID_4_" class="st1" d="M32.12,92.44L67.33,390.8l188.95,94.97l189.09-94.83l34.79-298.78
		c0,0-117.97-75.61-223.88-75.61S32.12,92.44,32.12,92.44"/>
	<path id="XMLID_5_" class="st0" d="M44.47,101l33.24,279.85l178.43,89.07l178.71-88.79l32.68-280.27c0,0-111.52-70.84-211.53-70.84
		C155.98,29.88,44.47,101,44.47,101"/>
	<polyline id="XMLID_6_" class="st1" points="124.14,375.37 124.14,98.89 190.21,98.61 256,272.41 327.26,99.45 392.35,98.89 
		392.35,375.37 338.62,375.37 341.43,181.23 256,375.37 173.52,181.65 177.87,375.37 124.14,375.37 	"/>
	<path id="XMLID_9_" class="st2" d="M256,0C142.66,0.14,16.55,82.9,16.55,82.9l0,0C16.55,82.9,142.94,0.14,256,0L256,0 M256.14,0
		H256H256.14"/>
	<path id="XMLID_10_" class="st3" d="M256,0C142.94,0.14,16.55,82.9,16.55,82.9l37.59,325.44L256,512v-26.23L67.19,390.8
		L32.12,92.44c0,0,118.11-75.61,223.88-75.75V0"/>
	<path id="XMLID_11_" class="st2" d="M256,16.69C150.23,16.83,32.12,92.44,32.12,92.44L67.33,390.8L256,485.77v-15.85L77.71,380.84
		L44.47,101c0,0,111.52-71.12,211.53-71.12l0,0V16.69"/>
	<path id="XMLID_12_" class="st3" d="M256,29.88C155.98,29.88,44.47,101,44.47,101l33.24,279.85L256,469.78v-94.4l-82.48-193.72
		l4.35,193.86h-53.72V98.89l66.07-0.42L256,272.41V29.88L256,29.88"/>
	<polyline id="XMLID_13_" class="st2" points="190.21,98.61 124.14,98.89 124.14,375.37 177.87,375.37 173.52,181.65 256,375.37 
		256,272.41 190.21,98.61 	"/>
</g>
</svg>
