<svg width="24" height="24" viewBox="0 0 24 24" fill="none" xmlns="http://www.w3.org/2000/svg">
<g clip-path="url(#clip0_2266_4504)">
<path d="M13.6168 2.84912C13.3918 2.84912 13.209 2.66645 13.209 2.44151C13.209 2.21656 13.3918 2.03389 13.6168 2.03389C14.2025 2.08533 14.7741 1.8558 15.1676 1.42476C15.252 1.33563 15.2661 1.19982 15.2099 1.09201C15.1114 0.909343 14.9147 0.801537 14.7084 0.815631H13.6168C13.3918 0.815631 13.209 0.632781 13.209 0.407835C13.209 0.183071 13.3918 0.000221841 13.6168 0.000221841H14.7084C15.2286 -0.00911278 15.7065 0.276784 15.9455 0.735828C16.1375 1.12953 16.0813 1.59333 15.8002 1.93066C15.2567 2.56798 14.4507 2.90531 13.6168 2.84912Z" fill="#D25627"/>
<path d="M10.3648 2.84903C9.53548 2.90522 8.72483 2.56789 8.18141 1.93533C7.90027 1.60258 7.8439 1.13402 8.03608 0.740499C8.27512 0.276696 8.75302 -0.00920077 9.27301 0.00489271H10.3648C10.5897 0.00489271 10.7724 0.187559 10.7724 0.412506C10.7724 0.637452 10.5897 0.820118 10.3648 0.820118H9.27301C9.06692 0.810784 8.87016 0.913831 8.77169 1.09668C8.71549 1.2043 8.73416 1.3403 8.81397 1.42925C9.20749 1.86505 9.7791 2.09 10.3648 2.04314C10.5897 2.04314 10.7724 2.22581 10.7724 2.45075C10.7724 2.6757 10.5897 2.84903 10.3648 2.84903Z" fill="#D25627"/>
<path d="M13.6167 0.00488281H10.3648C10.1398 0.00488281 9.95715 0.187549 9.95715 0.412496V2.03837C9.95715 2.92864 10.5335 3.71586 11.3815 3.98291C11.7798 4.10005 12.2015 4.10005 12.5998 3.98291C13.4479 3.71586 14.0243 2.92864 14.0243 2.03837V0.412496C14.0243 0.187549 13.8415 0.00488281 13.6167 0.00488281ZM13.2089 2.03837C13.2089 2.71321 12.6607 3.25663 11.9906 3.25663C11.316 3.25663 10.7724 2.70845 10.7724 2.03837V0.820108H13.2089V2.03837Z" fill="#E57E25"/>
<path d="M13.209 0.820312V2.03858C13.209 2.71342 12.6608 3.25684 11.9907 3.25684C11.3161 3.25684 10.7725 2.70866 10.7725 2.03858V0.820312H13.209Z" fill="#F0C419"/>
<path d="M13.5744 5.92277L12.5998 3.98281L12.3516 3.48148C12.2765 3.35501 12.136 3.27539 11.9906 3.27539C11.8407 3.27539 11.7049 3.35501 11.6299 3.48148L11.3815 3.98281L10.4116 5.92277C10.3461 6.04924 10.3554 6.19915 10.4305 6.31629C10.5053 6.43343 10.6366 6.50847 10.7771 6.50847H13.2089C13.3495 6.50847 13.4807 6.43343 13.5557 6.31629C13.6306 6.19915 13.6354 6.04924 13.5744 5.92277ZM11.4284 5.69782L11.9906 4.57327L12.5529 5.69782H11.4284Z" fill="#E57E25"/>
<path d="M12.5529 5.69779H11.4283L11.9906 4.57324L12.5529 5.69779Z" fill="#F0C419"/>
<path d="M9.95713 6.10547H14.0243C14.474 6.10547 14.8395 6.47098 14.8395 6.92069V22.3739H9.14648V6.91612C9.14648 6.46623 9.50724 6.10547 9.95713 6.10547Z" fill="#894B9D"/>
<path d="M14.835 6.91612V22.3693H11.9907V6.10547H14.0244C14.4741 6.10547 14.835 6.47098 14.835 6.91612Z" fill="#955BA5"/>
<path d="M11.9907 11.2644C11.3863 11.2644 10.8943 10.7724 10.8943 10.1679C10.8943 10.0132 11.0208 9.88672 11.1754 9.88672C11.3301 9.88672 11.4566 10.0132 11.4566 10.1679C11.4566 10.4583 11.6908 10.6974 11.9861 10.7021C12.2765 10.688 12.5108 10.4538 12.5249 10.1679C12.5202 9.95243 12.2718 9.81186 11.8689 9.61034C11.4379 9.39473 10.899 9.12769 10.899 8.54674C10.899 8.54198 10.899 8.54198 10.899 8.53722C10.9177 7.94694 11.3956 7.47362 11.9861 7.4502H11.9954C12.5998 7.4502 13.0918 7.94219 13.0918 8.54674C13.0918 8.70122 12.9653 8.82788 12.8106 8.82788C12.6562 8.82788 12.5295 8.70122 12.5295 8.54674C12.5295 8.25609 12.2952 8.01723 12.0002 8.01247C11.7095 8.02656 11.4752 8.26085 11.4613 8.54674C11.4659 8.76217 11.7143 8.90274 12.1173 9.10426C12.5483 9.31987 13.0872 9.58691 13.0872 10.1679V10.1772C13.0683 10.7677 12.5904 11.241 12.0002 11.2644C11.9954 11.2644 11.9954 11.2644 11.9907 11.2644Z" fill="white"/>
<path d="M12.8061 16.142H11.5878C11.2082 16.142 10.899 15.8329 10.899 15.4533V13.012C10.899 12.6326 11.2082 12.3232 11.5878 12.3232H12.8061C12.9607 12.3232 13.0872 12.4497 13.0872 12.6044C13.0872 12.759 12.9607 12.8855 12.8061 12.8855H11.5878C11.5175 12.8855 11.4613 12.9417 11.4613 13.012V15.4533C11.4613 15.5236 11.5175 15.5798 11.5878 15.5798H12.8061C12.9607 15.5798 13.0872 15.7062 13.0872 15.8609C13.0872 16.0156 12.9607 16.142 12.8061 16.142Z" fill="white"/>
<path d="M12.8061 14.5164H11.1802C11.0255 14.5164 10.899 14.3899 10.899 14.2352C10.899 14.0806 11.0255 13.9541 11.1802 13.9541H12.8061C12.9607 13.9541 13.0872 14.0806 13.0872 14.2352C13.0872 14.3899 12.9607 14.5164 12.8061 14.5164Z" fill="white"/>
<path d="M11.9907 21.0244C11.3863 21.0244 10.8943 20.5324 10.8943 19.928V18.3021C10.8943 17.6976 11.3863 17.2056 11.9907 17.2056C12.5952 17.2056 13.0872 17.6976 13.0872 18.3021V19.928C13.0872 20.5324 12.5952 21.0244 11.9907 21.0244ZM11.9907 17.7726C11.6956 17.7726 11.4566 18.0116 11.4566 18.3067V19.9327C11.4566 20.2278 11.6956 20.4668 11.9907 20.4668C12.2859 20.4668 12.5249 20.2278 12.5249 19.9327V18.3067C12.5249 18.0069 12.2859 17.7726 11.9907 17.7726Z" fill="white"/>
<path d="M1.01243 22.3696H22.9692C23.4191 22.3696 23.7846 22.735 23.7846 23.1849C23.7846 23.6347 23.4191 24.0001 22.9692 24.0001H1.01243C0.562537 24.0001 0.197021 23.6347 0.197021 23.1849C0.197021 22.735 0.562537 22.3696 1.01243 22.3696Z" fill="#3D324C"/>
<path d="M17.2761 10.168H21.3433C21.7932 10.168 22.1585 10.5335 22.1585 10.9834V22.3694H16.4655V10.9834C16.4655 10.5335 16.8264 10.168 17.2761 10.168Z" fill="#46B29D"/>
<path d="M22.154 10.9834V22.3694H19.3098V10.168H21.3433C21.7932 10.1727 22.154 10.5335 22.154 10.9834Z" fill="#65DDB9"/>
<path d="M2.63829 14.2354H6.70545C7.15516 14.2354 7.52067 14.6009 7.52067 15.0506V22.3697H1.82764V15.0506C1.82764 14.6009 2.18839 14.2354 2.63829 14.2354Z" fill="#FF5364"/>
<path d="M7.51589 15.0506V22.3697H4.67175V14.2354H6.70542C7.15513 14.2401 7.51589 14.6009 7.51589 15.0506Z" fill="#DF4D60"/>
<path d="M19.3098 3.66425C19.0848 3.66425 18.902 3.48158 18.902 3.25663V0.412496C18.902 0.187549 19.0848 0.00488281 19.3098 0.00488281C19.5345 0.00488281 19.7174 0.187549 19.7174 0.412496V3.25663C19.7174 3.48158 19.5345 3.66425 19.3098 3.66425Z" fill="#46B29D"/>
<path d="M20.1249 1.63074C20.0171 1.63074 19.9141 1.58864 19.839 1.5136L19.3143 0.988848L18.7848 1.5136C18.6255 1.66826 18.3726 1.6635 18.2132 1.50884C18.0585 1.35436 18.0539 1.09665 18.2086 0.937233L19.0238 0.122007C19.183 -0.0374139 19.4408 -0.0374139 19.6002 0.122007L20.4154 0.937233C20.5325 1.05437 20.5653 1.22771 20.5045 1.38237C20.4343 1.53227 20.2889 1.63074 20.1249 1.63074Z" fill="#46B29D"/>
<path d="M19.3098 6.10573C19.0848 6.10573 18.902 5.92307 18.902 5.69812V4.88271C18.902 4.65795 19.0848 4.4751 19.3098 4.4751C19.5345 4.4751 19.7174 4.65795 19.7174 4.88271V5.69812C19.7174 5.92307 19.5345 6.10573 19.3098 6.10573Z" fill="#46B29D"/>
<path d="M4.67177 9.35712C4.44683 9.35712 4.26416 9.17445 4.26416 8.9495V7.32363C4.26416 7.09868 4.44683 6.91602 4.67177 6.91602C4.89672 6.91602 5.07939 7.09868 5.07939 7.32363V8.9495C5.07939 9.17445 4.89672 9.35712 4.67177 9.35712Z" fill="#DF4D60"/>
<path d="M5.48711 8.54187C5.3793 8.54187 5.27626 8.49978 5.20121 8.42473L4.67646 7.89998L4.15171 8.42473C3.99228 8.5794 3.73933 8.57464 3.57991 8.41998C3.42543 8.2655 3.42067 8.00779 3.57534 7.84837L4.39056 7.03314C4.54998 6.87372 4.80769 6.87372 4.96693 7.03314L5.78216 7.84837C5.8993 7.96551 5.93224 8.13884 5.87129 8.2935C5.79625 8.4434 5.65111 8.54187 5.48711 8.54187Z" fill="#DF4D60"/>
<path d="M4.67177 13.0169C4.44683 13.0169 4.26416 12.8342 4.26416 12.6093V10.5756C4.26416 10.3508 4.44683 10.168 4.67177 10.168C4.89672 10.168 5.07939 10.3508 5.07939 10.5756V12.6093C5.07939 12.8342 4.89672 13.0169 4.67177 13.0169Z" fill="#DF4D60"/>
</g>
<defs>
<clipPath id="clip0_2266_4504">
<rect width="24" height="24" fill="white"/>
</clipPath>
</defs>
</svg>
