<svg width="24" height="24" viewBox="0 0 24 24" fill="none" xmlns="http://www.w3.org/2000/svg">
<g clip-path="url(#clip0_2266_4446)">
<path d="M23.6366 15.4673H0.363281V1.67812C0.363281 0.945465 0.957184 0.351562 1.68984 0.351562H22.3101C23.0428 0.351562 23.6367 0.945465 23.6367 1.67812L23.6366 15.4673Z" fill="#EFFBFF"/>
<path d="M23.6365 1.67816V15.4674H22.7009V1.67816C22.7009 0.945325 22.1066 0.351562 21.3743 0.351562H22.3099C23.0427 0.351563 23.6365 0.945325 23.6365 1.67816Z" fill="#D6F6FD"/>
<path d="M22.3101 19.1185H1.68984C0.957184 19.1185 0.363281 18.5246 0.363281 17.792V15.4673H23.6366V17.792C23.6367 18.5246 23.0428 19.1185 22.3101 19.1185Z" fill="#A8CFEE"/>
<path d="M23.6366 15.4673V17.7918C23.6366 18.5247 23.0428 19.1184 22.31 19.1184H21.3734C22.1063 19.1184 22.7 18.5247 22.7 17.7918V15.4673H23.6366Z" fill="#88BDE7"/>
<path d="M14.5201 19.1187H9.47974V23.6486H14.5201V19.1187Z" fill="#A8CFEE"/>
<path d="M14.5201 19.1187H13.6094V23.6486H14.5201V19.1187Z" fill="#88BDE7"/>
<path d="M7.4454 13.1764C10.3544 13.1764 12.7126 10.8182 12.7126 7.90926C12.7126 5.00028 10.3544 2.64209 7.4454 2.64209C4.53642 2.64209 2.17822 5.00028 2.17822 7.90926C2.17822 10.8182 4.53642 13.1764 7.4454 13.1764Z" fill="#FFE54C"/>
<path d="M12.7127 7.90941C12.7127 10.8183 10.3545 13.1765 7.44555 13.1765C6.79277 13.1765 6.16812 13.0581 5.59119 12.8403C5.89554 12.8951 6.20885 12.9237 6.52868 12.9237C9.43759 12.9237 11.7958 10.5654 11.7958 7.65653C11.7958 5.40035 10.377 3.4753 8.38305 2.72559C10.8448 3.16766 12.7127 5.32029 12.7127 7.90941Z" fill="#FFD500"/>
<path d="M16.5545 13.1764C19.4635 13.1764 21.8217 10.8182 21.8217 7.90926C21.8217 5.00028 19.4635 2.64209 16.5545 2.64209C13.6455 2.64209 11.2874 5.00028 11.2874 7.90926C11.2874 10.8182 13.6455 13.1764 16.5545 13.1764Z" fill="#00D6A0"/>
<path d="M21.8215 7.90943C21.8215 10.8183 19.4633 13.1766 16.5544 13.1766C15.9016 13.1766 15.2765 13.0576 14.6996 12.8399C15.0039 12.8951 15.3177 12.9237 15.638 12.9237C18.5469 12.9237 20.9052 10.5655 20.9052 7.65655C20.9052 5.40037 19.4868 3.47579 17.4928 2.72607C19.9541 3.16815 21.8215 5.32078 21.8215 7.90943Z" fill="#00C376"/>
<path fill-rule="evenodd" clip-rule="evenodd" d="M1.68983 0.703121C1.15134 0.703121 0.71484 1.13962 0.71484 1.67812V15.1157H23.2851L23.2851 1.67812C23.2851 1.13962 22.8486 0.703121 22.3101 0.703121H1.68983ZM0.0117188 1.67812C0.0117188 0.751302 0.763021 0 1.68983 0H22.3101C23.2369 0 23.9882 0.751302 23.9882 1.67812L23.9882 15.4673C23.9882 15.6614 23.8308 15.8188 23.6366 15.8188H0.363279C0.169118 15.8188 0.0117188 15.6614 0.0117188 15.4673V1.67812Z" fill="black"/>
<path fill-rule="evenodd" clip-rule="evenodd" d="M0.0117188 15.4673C0.0117188 15.2731 0.169118 15.1157 0.363279 15.1157H23.6366C23.8308 15.1157 23.9882 15.2731 23.9882 15.4673V17.792C23.9882 17.792 23.9882 17.792 23.9882 17.792C23.9882 18.7188 23.2369 19.4701 22.3101 19.4701H1.68983C0.76302 19.4701 0.0117188 18.7188 0.0117188 17.792V15.4673ZM0.71484 15.8188V17.792C0.71484 18.3305 1.15134 18.767 1.68983 18.767H22.3101C22.8486 18.767 23.2851 18.3305 23.2851 17.7921V15.8188H0.71484Z" fill="black"/>
<path fill-rule="evenodd" clip-rule="evenodd" d="M9.12817 19.1187C9.12817 18.9245 9.28557 18.7671 9.47973 18.7671H14.5201C14.7143 18.7671 14.8717 18.9245 14.8717 19.1187V20.4319C14.8717 20.626 14.7143 20.7834 14.5201 20.7834C14.3259 20.7834 14.1685 20.626 14.1685 20.4319V19.4702H9.83129V23.297H14.1685V22.0829C14.1685 21.8887 14.3259 21.7313 14.5201 21.7313C14.7143 21.7313 14.8717 21.8887 14.8717 22.0829V23.6486C14.8717 23.8428 14.7143 24.0002 14.5201 24.0002H9.47973C9.28557 24.0002 9.12817 23.8428 9.12817 23.6486V19.1187Z" fill="black"/>
<path fill-rule="evenodd" clip-rule="evenodd" d="M7.42004 23.6411C7.42004 23.4469 7.57744 23.2896 7.7716 23.2896H16.2283C16.4224 23.2896 16.5798 23.4469 16.5798 23.6411C16.5798 23.8353 16.4224 23.9927 16.2283 23.9927H7.7716C7.57744 23.9927 7.42004 23.8353 7.42004 23.6411Z" fill="black"/>
<path fill-rule="evenodd" clip-rule="evenodd" d="M10.9467 17.293C10.9467 17.0988 11.1041 16.9414 11.2982 16.9414H12.7018C12.896 16.9414 13.0534 17.0988 13.0534 17.293C13.0534 17.4871 12.896 17.6445 12.7018 17.6445H11.2982C11.1041 17.6445 10.9467 17.4871 10.9467 17.293Z" fill="black"/>
<path fill-rule="evenodd" clip-rule="evenodd" d="M3.44612 4.46377C3.60124 4.58055 3.63233 4.80096 3.51556 4.95608C2.89657 5.77836 2.52978 6.80057 2.52978 7.90949C2.52978 10.6243 4.73056 12.8251 7.44539 12.8251C9.2091 12.8251 10.7562 11.8965 11.624 10.4998C11.7264 10.3349 11.9432 10.2842 12.1081 10.3867C12.273 10.4892 12.3237 10.7059 12.2212 10.8708C11.2306 12.4653 9.46222 13.5282 7.44539 13.5282C4.34223 13.5282 1.82666 11.0126 1.82666 7.90949C1.82666 6.6428 2.24625 5.47315 2.95381 4.53321C3.07058 4.37809 3.291 4.347 3.44612 4.46377Z" fill="black"/>
<path fill-rule="evenodd" clip-rule="evenodd" d="M7.44535 2.99365C6.38518 2.99365 5.40434 3.32885 4.60172 3.89913C4.44344 4.01159 4.22397 3.97444 4.11151 3.81617C3.99905 3.65789 4.0362 3.43841 4.19447 3.32595C5.11216 2.67392 6.23451 2.29053 7.44535 2.29053C9.48866 2.29053 11.2768 3.38142 12.2598 5.01092C12.3601 5.17717 12.3066 5.39325 12.1403 5.49354C11.9741 5.59383 11.758 5.54036 11.6577 5.3741C10.7967 3.94679 9.23219 2.99365 7.44535 2.99365Z" fill="black"/>
<path fill-rule="evenodd" clip-rule="evenodd" d="M9.37146 5.98779C9.56562 5.98779 9.72302 6.14519 9.72302 6.33935V9.47899C9.72302 9.67316 9.56562 9.83055 9.37146 9.83055C9.1773 9.83055 9.0199 9.67316 9.0199 9.47899V6.33935C9.0199 6.14519 9.1773 5.98779 9.37146 5.98779Z" fill="black"/>
<path fill-rule="evenodd" clip-rule="evenodd" d="M7.70089 5.98779C7.89506 5.98779 8.05245 6.14519 8.05245 6.33935V8.49753C8.05245 9.07268 7.70924 9.45178 7.26733 9.67434C7.07791 9.76974 6.85223 9.83096 6.59008 9.8306C6.28111 9.83017 6.02552 9.73945 5.82256 9.60978C5.63916 9.49261 5.47264 9.3477 5.35264 9.15903C5.23006 8.96628 5.16772 8.74612 5.16772 8.49982V6.3394C5.16772 6.14524 5.32512 5.98784 5.51929 5.98784C5.71345 5.98784 5.87085 6.14524 5.87085 6.3394V8.49982C5.87085 8.62145 5.89976 8.70909 5.94593 8.78169C5.9947 8.85836 6.07445 8.93634 6.20112 9.01726L6.20113 9.01727C6.30014 9.08053 6.42602 9.12725 6.59105 9.12748C6.73943 9.12768 6.85678 9.09385 6.95106 9.04637L7.10919 9.36035L6.95106 9.04637C7.23177 8.90499 7.34933 8.73153 7.34933 8.49753V6.33935C7.34933 6.14519 7.50673 5.98779 7.70089 5.98779Z" fill="black"/>
<path fill-rule="evenodd" clip-rule="evenodd" d="M16.5545 2.99365C13.8397 2.99365 11.6389 5.19444 11.6389 7.90926C11.6389 10.6241 13.8397 12.8249 16.5545 12.8249C19.2693 12.8249 21.4701 10.6241 21.4701 7.90926C21.4701 5.19444 19.2693 2.99365 16.5545 2.99365ZM10.9358 7.90926C10.9358 4.80612 13.4514 2.29053 16.5545 2.29053C19.6577 2.29053 22.1733 4.80612 22.1733 7.90926C22.1733 11.0124 19.6577 13.528 16.5545 13.528C13.4514 13.528 10.9358 11.0124 10.9358 7.90926Z" fill="black"/>
<path fill-rule="evenodd" clip-rule="evenodd" d="M17.0886 6.05185C17.2474 5.94013 17.4667 5.9783 17.5785 6.1371L19.7872 9.27674C19.8989 9.43555 19.8607 9.65485 19.7019 9.76656C19.5431 9.87828 19.3238 9.84011 19.2121 9.6813L17.0034 6.54166C16.8917 6.38286 16.9298 6.16356 17.0886 6.05185Z" fill="black"/>
<path fill-rule="evenodd" clip-rule="evenodd" d="M19.5466 6.05198C19.7053 6.1638 19.7434 6.38312 19.6316 6.54185L17.4198 9.68149C17.3079 9.84022 17.0886 9.87825 16.9299 9.76643C16.7712 9.65461 16.7331 9.43528 16.8449 9.27655L19.0567 6.13691C19.1686 5.97818 19.3879 5.94016 19.5466 6.05198Z" fill="black"/>
<path fill-rule="evenodd" clip-rule="evenodd" d="M15.791 5.98779C15.9851 5.98779 16.1425 6.14519 16.1425 6.33935V8.49753C16.1425 9.07268 15.7993 9.45178 15.3574 9.67434C15.168 9.76974 14.9423 9.83096 14.6802 9.8306C14.3712 9.83017 14.1156 9.73945 13.9126 9.60978C13.7292 9.49261 13.5627 9.3477 13.4427 9.15903C13.3201 8.96628 13.2578 8.74612 13.2578 8.49982V6.3394C13.2578 6.14524 13.4152 5.98784 13.6094 5.98784C13.8035 5.98784 13.9609 6.14524 13.9609 6.3394V8.49982C13.9609 8.62145 13.9898 8.70909 14.036 8.78169C14.0848 8.85836 14.1645 8.93634 14.2912 9.01726L14.2912 9.01727C14.3902 9.08053 14.5161 9.12725 14.6811 9.12748C14.8295 9.12768 14.9469 9.09385 15.0411 9.04637L15.1993 9.36035L15.0411 9.04637C15.3219 8.90499 15.4394 8.73153 15.4394 8.49753V6.33935C15.4394 6.14519 15.5968 5.98779 15.791 5.98779Z" fill="black"/>
</g>
<defs>
<clipPath id="clip0_2266_4446">
<rect width="24" height="24" fill="white"/>
</clipPath>
</defs>
</svg>
