<svg id="mern1" xmlns="http://www.w3.org/2000/svg" width="24" height="24" viewBox="0 0 24 24">
  <path id="Path_15385" data-name="Path 15385" d="M25.443,13.61A11.833,11.833,0,1,1,13.609,1.777,11.833,11.833,0,0,1,25.443,13.61" transform="translate(-1.61 -1.61)" fill="#fefefe"/>
  <path id="Path_15386" data-name="Path 15386" d="M12,0A12,12,0,1,0,24,12,12,12,0,0,0,12,0m0,.481a11.523,11.523,0,0,1,4.484,22.134A11.523,11.523,0,0,1,7.516,1.386,11.447,11.447,0,0,1,12,.481M9.071,16.239V6.848h1.582l1.342,4.325,1.374-4.325h1.509v9.391H13.786V8.45l-1.139,3.7H11.371l-1.159-3.7v7.789H9.07Z" fill="#474749"/>
</svg>
