<svg xmlns="http://www.w3.org/2000/svg" width="16.063" height="16" viewBox="0 0 16.063 16">
  <g id="SVGRepo_iconCarrier" transform="translate(0 -0.047)">
    <path id="Path_14841" data-name="Path 14841" d="M9.458.047a1.011,1.011,0,0,0-.323.058A.91.91,0,0,1,9.52.645c0,.029.013.05.017.078A.456.456,0,0,1,9.545.8c.016.365-.1.411-.174.626a.886.886,0,0,0,.058.817.5.5,0,0,0,.05.092C9.321,1.283,10.2,1.126,10.358.8a.763.763,0,0,0-.41-.61.917.917,0,0,0-.49-.141Zm1.319.236a.5.5,0,0,0-.008.12c0,.033,0,.075-.008.108a.893.893,0,0,1-.029.1.7.7,0,0,1-.033.1l-.045.1c-.013.017-.021.033-.033.05l-.025.037q-.03.043-.062.083a.567.567,0,0,1-.075.075v0c-.025.021-.05.046-.079.067-.087.066-.186.116-.278.178a.584.584,0,0,0-.083.062.606.606,0,0,0-.079.066.64.64,0,0,0-.074.079A.6.6,0,0,0,9.8,1.59q-.031.042-.058.087c-.017.033-.029.062-.046.1a.9.9,0,0,0-.033.1q-.016.051-.029.1c0,.017,0,.037-.008.054s0,.033-.009.05c0,.033,0,.07,0,.1a.461.461,0,0,0,0,.074.444.444,0,0,0,.013.1.888.888,0,0,0,.02.1c.013.033.021.066.033.1s.021.041.029.058l-.954-.369C8.6,2.2,8.442,2.159,8.28,2.121l-.261-.062c-.249-.05-.5-.087-.755-.112-.009,0-.013,0-.021,0a7.417,7.417,0,0,0-1.286-.017c-.253.017-.506.05-.759.091q-.282.049-.56.116l-.187.05c-.062.025-.12.054-.178.079l-.137.062c-.008,0-.016,0-.02.008-.042.021-.079.037-.116.058q-.081.036-.158.079c-.029.012-.058.029-.083.041l-.037.02c-.037.021-.075.042-.108.063a1.044,1.044,0,0,0-.1.062c-.029.02-.058.037-.083.058,0,0-.009,0-.013.009-.025.017-.054.037-.079.058l-.008.008-.062.05c-.008,0-.017.013-.025.017s-.041.037-.062.054a.049.049,0,0,1-.017.017c-.025.025-.05.046-.074.071,0,0,0,0-.009.008q-.039.034-.074.071S3,3.084,3,3.084q-.033.032-.062.067c-.008.008-.02.016-.029.024a.92.92,0,0,1-.071.075c0,.008-.012.013-.016.02-.033.033-.062.067-.1.1l-.012.012a2.435,2.435,0,0,1-.212.2,2.26,2.26,0,0,1-.232.183,2.528,2.528,0,0,1-.51.282c-.087.037-.179.071-.27.1a4.673,4.673,0,0,1-.506.12.912.912,0,0,0-.1.012l-.1.025-.1.037c-.033.013-.066.029-.1.046s-.062.037-.092.058A.677.677,0,0,0,.4,4.519a.672.672,0,0,0-.083.074c-.025.029-.05.054-.07.083s-.046.062-.062.1a.731.731,0,0,0-.058.1,1.125,1.125,0,0,0-.046.108c-.013.033-.025.071-.037.108a.761.761,0,0,0-.02.1s0,.008,0,.012c-.008.037-.008.087-.013.112A.581.581,0,0,0,0,5.39.44.44,0,0,0,.05,5.6v0A.756.756,0,0,0,.1,5.676a.858.858,0,0,0,.054.074c.021.021.046.046.071.067A.606.606,0,0,0,.3,5.884a.968.968,0,0,0,.253.182c.021.013.041.021.067.033,0,0,.008,0,.012,0a.037.037,0,0,0,0,.021.851.851,0,0,0,.054.2c.013.025.021.05.033.074a.079.079,0,0,0,.013.021c.016.033.033.062.049.092L.846,6.6c.021.025.046.054.071.079s.05.046.079.07a.014.014,0,0,0,.008,0,.839.839,0,0,0,.075.058.66.66,0,0,0,.091.054.694.694,0,0,0,.1.046.489.489,0,0,0,.083.029.078.078,0,0,0,.017.008l.054.013a1.646,1.646,0,0,0,.017.51c.037.083.22-.17.4-.46a2.59,2.59,0,0,0,0,.722c.046.1.294-.22.511-.577a4.794,4.794,0,0,1,5.907,4.223.812.812,0,0,0-.859-.634,2.168,2.168,0,0,1-.676.946,2.665,2.665,0,0,0-.041-.83A2.683,2.683,0,0,1,6.164,11.9a1.159,1.159,0,0,1-1-.448c-.017-.012-.021-.037-.033-.054a.928.928,0,0,1-.033-.087.345.345,0,0,1-.025-.087.671.671,0,0,1,0-.092v-.062a.664.664,0,0,1,.021-.087.784.784,0,0,1,.029-.087.821.821,0,0,1,.05-.087c.07-.2.07-.361-.058-.456a.473.473,0,0,0-.079-.041c-.016,0-.037-.012-.054-.017l-.033-.012a.567.567,0,0,0-.087-.021.316.316,0,0,0-.087-.013.676.676,0,0,0-.091-.008c-.021,0-.041,0-.062,0a.324.324,0,0,0-.092.013.682.682,0,0,0-.087.016.715.715,0,0,0-.087.029l-.083.037c-.025.012-.05.029-.079.041-.966.63-.39,2.107.27,2.535a2.053,2.053,0,0,0-.572.153l-.009.008a3.969,3.969,0,0,0,.56.278c.266.087.547.165.672.2v0a4.013,4.013,0,0,0,1.045.075,3.946,3.946,0,0,0,3.617-3.369l.025.108c.013.075.029.154.037.232v0c.008.037.012.075.017.108v.016a1.062,1.062,0,0,1,.008.108c0,.046.008.091.008.137v.067c0,.02,0,.045,0,.066s0,.05,0,.075v.058c0,.029,0,.054,0,.083a.256.256,0,0,1,0,.054c0,.029,0,.058,0,.092a.115.115,0,0,0,0,.037l-.013.1a.142.142,0,0,1,0,.037c0,.041-.013.079-.017.12v.008l-.025.116V11.9l-.025.112s0,.013,0,.017a1.113,1.113,0,0,1-.029.112v.012c-.013.041-.025.079-.033.116a.012.012,0,0,0,0,.008l-.037.124c-.016.041-.029.079-.046.12s-.029.083-.046.12-.033.078-.05.12h0c-.016.037-.033.078-.054.116a.2.2,0,0,1-.013.029s0,.009-.008.013A3.927,3.927,0,0,1,8.28,14.317c-.033.021-.066.046-.1.071-.008.008-.02.012-.029.02q-.045.033-.091.063l.012.025h0l.174-.025h0c.108-.017.216-.037.323-.058a.753.753,0,0,0,.092-.021l.058-.013c.029,0,.058-.012.087-.016s.05-.013.074-.021a8.022,8.022,0,0,0,1.2-.4,6.643,6.643,0,0,1-2.577,2.1A6.808,6.808,0,0,0,8.931,15.8a6.628,6.628,0,0,0,3.92-3.132,6.621,6.621,0,0,1-1.116,2.668,6.52,6.52,0,0,0,2.855-4.447,6.643,6.643,0,0,1,.12,2c2.994-4.177.248-8.508-.9-9.648,0-.009-.008-.013-.008-.021s0,0,0,.008,0,0,0-.008c0,.05,0,.1-.008.149q-.017.139-.041.278c-.02.091-.046.183-.07.274s-.062.178-.1.265-.079.17-.124.253a3.169,3.169,0,0,1-.319.46c-.062.074-.129.141-.2.207q-.059.054-.12.1l-.1.083a2.315,2.315,0,0,1-.232.161q-.119.077-.245.141c-.087.041-.174.079-.261.116a2.921,2.921,0,0,1-.547.149c-.1.017-.191.025-.282.033q-.1.007-.2.008-.142,0-.282-.017a2.813,2.813,0,0,1-.56-.112h0c.092-.009.183-.017.274-.033a3.007,3.007,0,0,0,.547-.149,2.569,2.569,0,0,0,.261-.116c.087-.041.166-.087.249-.137s.157-.108.232-.166a2.255,2.255,0,0,0,.211-.187,2.24,2.24,0,0,0,.195-.2c.062-.074.12-.149.174-.224.009-.013.017-.029.025-.041.041-.067.083-.133.12-.2a2.859,2.859,0,0,0,.224-.519,2.7,2.7,0,0,0,.071-.27c.017-.1.033-.186.041-.278s.017-.191.017-.282c0-.067,0-.133-.009-.2q-.012-.139-.033-.278t-.062-.278c-.029-.087-.058-.179-.092-.266s-.074-.174-.116-.257-.092-.166-.141-.245-.108-.153-.166-.228-.124-.142-.191-.212q-.052-.053-.108-.1C11.644.76,11.449.624,11.254.5a.772.772,0,0,0-.083-.041,1.616,1.616,0,0,0-.394-.174Z" transform="translate(0)"/>
  </g>
</svg>
