<svg xmlns="http://www.w3.org/2000/svg" xmlns:xlink="http://www.w3.org/1999/xlink" width="16.162" height="16" viewBox="0 0 16.162 16">
  <defs>
    <linearGradient id="linear-gradient" x1="0.5" y1="1" x2="0.5" gradientUnits="objectBoundingBox">
      <stop offset="0" stop-color="#9f2fff"/>
      <stop offset="1" stop-color="#0bb1d3"/>
    </linearGradient>
  </defs>
  <path id="quality-assurance_2_" data-name="quality-assurance (2)" d="M11.5,7.675l-.151-.5c.164-.049.329-.105.493-.167l.183.488C11.853,7.563,11.677,7.622,11.5,7.675Zm-1.118.958v-.7c.193-.031.388-.069.58-.113l-.118-.508c-.251.058-.506.1-.757.137l-.227.03V8.633c0,.07,0,.139.005.209l.521-.027c0-.061,0-.121,0-.182ZM7.256,5.692A1.564,1.564,0,1,1,5.692,4.128,1.566,1.566,0,0,1,7.256,5.692Zm-.521,0A1.043,1.043,0,1,0,5.692,6.735,1.044,1.044,0,0,0,6.735,5.692Zm9.125.782.259,0V8.633A5.41,5.41,0,0,1,12.559,13.7l-.089.032-.089-.032A5.41,5.41,0,0,1,8.82,8.633V6.475l.259,0a6.967,6.967,0,0,0,3.266-.837l.124-.068.124.068a6.969,6.969,0,0,0,3.266.837Zm-.262.515a7.5,7.5,0,0,1-3.128-.828,7.494,7.494,0,0,1-3.128.828V8.633A4.887,4.887,0,0,0,12.47,13.18,4.888,4.888,0,0,0,15.6,8.633ZM11.948,9.494l2.085-2.085L15.184,8.56,11.948,11.8l-1.672-1.672,1.151-1.151Zm2.085-1.348-2.085,2.085-.521-.521-.413.413.935.935,2.5-2.5ZM15.9,5.431h1.259v3.2a6.429,6.429,0,0,1-1.29,3.85l.877,3.215-1.287-.322L14.487,17l-.874-2.622a6.346,6.346,0,0,1-1.07.427l-.074.022-.074-.022a6.346,6.346,0,0,1-1.07-.427L10.452,17l-.974-1.624L8.191,15.7l.877-3.215A6.453,6.453,0,0,1,7.831,9.412l-.12-.074a4.143,4.143,0,0,1-.869.36l-.162.687H4.7L4.542,9.7a4.143,4.143,0,0,1-.869-.36l-.6.372-1.4-1.4.372-.6a4.143,4.143,0,0,1-.36-.869L1,6.681V4.7l.687-.162a4.143,4.143,0,0,1,.36-.869l-.372-.6,1.4-1.4.6.372a4.144,4.144,0,0,1,.869-.36L4.7,1H6.681l.162.687a4.144,4.144,0,0,1,.869.36l.6-.372,1.4,1.4-.372.6a4.144,4.144,0,0,1,.36.869l.687.162v.571a5.892,5.892,0,0,0,1.932-.837l.144-.1.153.089a5.9,5.9,0,0,0,3.29,1ZM7.783,8.769c0-.046-.006-.091-.006-.137V8.02A3.127,3.127,0,1,1,8.807,5.431h.229a5.93,5.93,0,0,0,.827-.059V5.116L9.27,4.977l-.038-.155A3.618,3.618,0,0,0,8.811,3.8l-.083-.136.32-.518-.814-.814-.518.32L7.58,2.573a3.618,3.618,0,0,0-1.017-.422l-.155-.038-.14-.593H5.117l-.139.593-.155.038A3.618,3.618,0,0,0,3.8,2.573l-.136.083-.518-.32-.814.814.32.518L2.573,3.8a3.618,3.618,0,0,0-.422,1.017l-.038.155-.593.14V6.268l.593.139.038.155A3.618,3.618,0,0,0,2.573,7.58l.083.136-.32.518.814.814.518-.32.136.083a3.618,3.618,0,0,0,1.017.422l.155.038.14.593H6.268l.139-.593.155-.038A3.618,3.618,0,0,0,7.58,8.811l.136-.083Zm.5-3.338a2.613,2.613,0,1,0-.508,1.819V5.431Zm2.578,8.687a6.459,6.459,0,0,1-1.388-1.149l-.547,2.007.8-.2.59.983Zm4.6-1.149a6.459,6.459,0,0,1-1.388,1.149l.547,1.641.59-.983.8.2Zm1.176-7.017H15.9a6.41,6.41,0,0,1-3.434-.993,6.416,6.416,0,0,1-3.433.993H8.3v2.68a5.947,5.947,0,0,0,4.171,5.65,5.947,5.947,0,0,0,4.171-5.65Z" transform="translate(-1 -1)" fill="url(#linear-gradient)"/>
</svg>
