<svg xmlns="http://www.w3.org/2000/svg" width="16.026" height="16" viewBox="0 0 16.026 16">
  <g id="ruby_icon_130842" transform="translate(-2.531 -2.125)">
    <path id="Path_14833" data-name="Path 14833" d="M163.809,151.482l.962-11.882-3.714,7.258L152.02,152.3c3.728-.262,7.894-.547,11.79-.814Z" transform="translate(-146.214 -134.174)" fill="#a00403"/>
    <path id="Path_14834" data-name="Path 14834" d="M96.787,73.117,92.02,69.383l-1.245,4.288C95.838,74.1,95.006,73.227,96.787,73.117Zm-10.669,4.75,6.271,1.983-1.614-6.179Zm-4.1.876c2.029,6.409,2.536,7.793,4.1-.876l-4.15.968ZM89.991,68l4.473.046L92.02,69.383C91.513,69.061,90.36,68.277,89.991,68Zm-8.807,8.207L81,80.772l1.061-1.983Zm9.821-7.424c1.2,1.2-.046,4.1-2.444,6.455s-5.441,3.827-6.64,2.628c-1.153-1.194.032-4.15,2.437-6.5s5.5-3.781,6.649-2.582Z" transform="translate(-78.469 -65.875)" fill="#b11205"/>
    <path id="Path_14835" data-name="Path 14835" d="M153.844,282l6.133,1.983c-2.213,2.075-6.34,3.988-7.977,4.15Z" transform="translate(-146.195 -270.008)" fill="#9f0d02"/>
    <path id="Path_14836" data-name="Path 14836" d="M293,180.507l1.522,6.133a17.656,17.656,0,0,0,4.334-6.64Zm5.289,9.512L297.335,183l-2.814,3.643Z" transform="translate(-280.694 -172.711)" fill="#891102"/>
    <path id="Path_14837" data-name="Path 14837" d="M324.657,74.164c.6-1.89.738-4.657-2.213-5.164L320,70.337Z" transform="translate(-306.449 -66.829)" fill="#aa1401"/>
    <path id="Path_14838" data-name="Path 14838" d="M81,303.983c.092,3.135,2.305,3.182,3.274,3.228L82.014,302Z" transform="translate(-78.469 -289.085)" fill="#9e1209"/>
    <path id="Path_14839" data-name="Path 14839" d="M192,282l2.49,4.749a14.178,14.178,0,0,0,3.643-2.813Z" transform="translate(-184.351 -270.008)" fill="#900e04"/>
    <path id="Path_14840" data-name="Path 14840" d="M95.369,301.991l-.369,4.2a2.57,2.57,0,0,0,2.536.922C96.844,305.4,95.461,301.944,95.369,301.991Z" transform="translate(-91.823 -289.076)" fill="#8b1104"/>
  </g>
</svg>
