<svg xmlns="http://www.w3.org/2000/svg" width="18.286" height="16" viewBox="0 0 18.286 16">
  <path id="swift_2_" data-name="swift (2)" d="M11.271,32.005C19.31,37.37,16.7,43.264,16.7,43.264s2.283,2.527,1.366,4.741a3.326,3.326,0,0,0-2.52-1.546c-1.52,0-2.419,1.546-5.488,1.546A12.136,12.136,0,0,1,0,42.412c6.151,3.977,10.353,1.159,10.353,1.159C7.576,42,1.686,34.454,1.686,34.454c5.135,4.287,7.351,5.413,7.351,5.413C7.7,38.8,3.991,33.555,3.991,33.555a86.581,86.581,0,0,0,8.878,7.057C14.562,36.07,11.271,32.005,11.271,32.005Z" transform="translate(0 -32.005)" fill="#ff5722"/>
</svg>
