<svg width="14" height="12" viewBox="0 0 14 12" fill="none" xmlns="http://www.w3.org/2000/svg">
<g clip-path="url(#clip0_1117_1690)">
<path d="M4.32703 9.25395L1.41037 6.33729C1.3341 6.26009 1.24326 6.19879 1.14313 6.15696C1.043 6.11513 0.935554 6.09359 0.827033 6.09359C0.718512 6.09359 0.61107 6.11513 0.510937 6.15696C0.410803 6.19879 0.319969 6.26009 0.2437 6.33729C0.1665 6.41355 0.105207 6.50439 0.0633738 6.60452C0.0215409 6.70466 0 6.8121 0 6.92062C0 7.02914 0.0215409 7.13658 0.0633738 7.23672C0.105207 7.33685 0.1665 7.42768 0.2437 7.50395L3.73537 10.9956C4.06037 11.3206 4.58537 11.3206 4.91037 10.9956L13.7437 2.17062C13.8209 2.09435 13.8822 2.00352 13.924 1.90338C13.9659 1.80325 13.9874 1.69581 13.9874 1.58729C13.9874 1.47877 13.9659 1.37132 13.924 1.27119C13.8822 1.17106 13.8209 1.08022 13.7437 1.00395C13.6674 0.926754 13.5766 0.865461 13.4765 0.823628C13.3763 0.781795 13.2689 0.760254 13.1604 0.760254C13.0518 0.760254 12.9444 0.781795 12.8443 0.823628C12.7441 0.865461 12.6533 0.926754 12.577 1.00395L4.32703 9.25395Z" fill="white"/>
</g>
<defs>
<clipPath id="clip0_1117_1690">
<rect width="14" height="12" fill="white"/>
</clipPath>
</defs>
</svg>
