<svg xmlns="http://www.w3.org/2000/svg" width="334" height="316" viewBox="0 0 334 316" fill="none">
<path d="M36.064 247.429C30.5117 247.754 25.9727 243.874 25.9727 238.779V55.1441C25.9727 50.049 30.5117 46.0683 36.064 46.27L298.161 55.7778C302.408 55.932 305.849 59.6582 305.849 64.0851V223.645C305.849 228.072 302.408 231.874 298.161 232.123L36.064 247.429Z" fill="url(#paint0_linear_794_93)"/>
<path d="M206.941 267.755C202.752 266.298 199.62 262.568 198.737 257.985L192.64 226.335L140.482 228.278L134.063 261.25C133.164 265.868 136.763 270.5 140.907 272.202L162.729 281.157C166.787 282.823 171.151 283.486 175.487 283.097L221.605 278.959C222.953 278.838 224.034 277.727 224.191 276.3C224.348 274.875 225.293 273.274 224.007 272.826L206.941 267.755Z" fill="url(#paint1_linear_794_93)"/>
<path d="M207.457 265.83C203.272 264.391 200.144 260.709 199.262 256.184L193.172 224.932L142.285 226.852L135.872 259.41C134.975 263.97 137.35 268.543 141.491 270.222L163.29 279.064C167.344 280.709 171.703 281.364 176.035 280.98L222.106 276.893C223.453 276.774 224.533 275.677 224.689 274.268C224.846 272.86 224.036 271.532 222.752 271.09L207.457 265.83Z" fill="url(#paint2_linear_794_93)"/>
<path d="M38.1402 247.429C32.5879 247.754 28.0488 243.873 28.0488 238.778V55.1441C28.0488 50.049 32.5879 46.0683 38.1402 46.27L300.237 55.7778C304.484 55.932 307.925 59.6582 307.925 64.0851V223.645C307.925 228.072 304.484 231.874 300.237 232.123L38.1402 247.429Z" fill="url(#paint3_linear_794_93)"/>
<path d="M300.237 59.5304L38.1397 50.5508C35.1708 50.4495 32.7578 52.5727 32.7578 55.2941V198.165V238.524C32.7578 241.245 35.1708 243.315 38.1397 243.148L300.237 228.369C302.513 228.24 304.353 226.212 304.353 223.838V187.373V63.9705C304.353 61.5958 302.513 59.6074 300.237 59.5304Z" fill="url(#paint4_linear_794_93)"/>
<path d="M38.1406 227.536C36.9842 227.593 36.043 226.777 36.043 225.719V55.3986C36.043 54.34 36.9842 53.5096 38.1406 53.5471L300.238 62.1566C301.125 62.186 301.846 62.9637 301.846 63.8894V212.922C301.846 213.849 301.125 214.638 300.238 214.682L38.1406 227.536Z" fill="url(#paint5_linear_794_93)"/>
<path d="M291.311 79.9251L49.6367 74.319V62.6089L291.311 69.5544V79.9251Z" fill="url(#paint6_linear_794_93)"/>
<path d="M272.956 74.2631C272.956 75.0033 272.373 75.5894 271.653 75.5711C270.933 75.5529 270.348 74.9374 270.348 74.1952C270.348 73.454 270.932 72.8679 271.653 72.8872C272.373 72.9064 272.956 73.5229 272.956 74.2631Z" fill="url(#paint7_linear_794_93)"/>
<path d="M278.305 74.4021C278.305 75.1403 277.724 75.7243 277.008 75.7061C276.292 75.6878 275.711 75.0744 275.711 74.3342C275.711 73.595 276.292 73.011 277.008 73.0302C277.724 73.0495 278.305 73.664 278.305 74.4021Z" fill="url(#paint8_linear_794_93)"/>
<path d="M283.623 74.5399C283.623 75.276 283.046 75.858 282.335 75.8408C281.623 75.8225 281.045 75.2101 281.045 74.4729C281.045 73.7358 281.623 73.1538 282.335 73.172C283.047 73.1913 283.623 73.8037 283.623 74.5399Z" fill="url(#paint9_linear_794_93)"/>
<g opacity="0.3">
<path opacity="0.3" d="M159.668 143.389L165.469 143.315V96.142L159.668 96.0791V143.389Z" fill="url(#paint10_linear_794_93)"/>
<path opacity="0.3" d="M149.271 143.524L155.133 143.448V119.74L149.271 119.746V143.524Z" fill="url(#paint11_linear_794_93)"/>
<path opacity="0.3" d="M138.766 143.66L144.688 143.583V91.4018L138.766 91.3247V143.66Z" fill="url(#paint12_linear_794_93)"/>
<path opacity="0.3" d="M128.15 143.797L134.136 143.72V99.046L128.15 98.9902V143.797Z" fill="url(#paint13_linear_794_93)"/>
<path opacity="0.3" d="M117.422 143.935L123.471 143.857V131.815L117.422 131.857V143.935Z" fill="url(#paint14_linear_794_93)"/>
<path opacity="0.3" d="M106.58 144.075L112.693 143.996V115.543L106.58 115.537V144.075Z" fill="url(#paint15_linear_794_93)"/>
<path opacity="0.3" d="M95.6211 144.217L101.799 144.137V102.91L95.6211 102.865V144.217Z" fill="url(#paint16_linear_794_93)"/>
<path opacity="0.3" d="M84.5449 144.36L90.79 144.279V114.052L84.5449 114.042V144.36Z" fill="url(#paint17_linear_794_93)"/>
<path opacity="0.3" d="M73.3516 144.504L79.6636 144.423V97.2848L73.3516 97.2229V144.504Z" fill="url(#paint18_linear_794_93)"/>
<path opacity="0.3" d="M62.0332 144.651L68.4142 144.568V91.8884L62.0332 91.8103V144.651Z" fill="url(#paint19_linear_794_93)"/>
</g>
<path opacity="0.3" d="M62.0332 152.748L165.468 151.011V145.979L62.0332 147.454V152.748Z" fill="url(#paint20_linear_794_93)"/>
<path opacity="0.3" d="M62.0332 160.065L134.135 158.603V156.348L62.0332 157.729V160.065Z" fill="url(#paint21_linear_794_93)"/>
<path d="M204.173 139.318L201.527 139.347C199.874 139.366 198.527 138.082 198.527 136.486V133.634C198.527 131.981 197.551 130.516 196.04 129.901C188.942 127.015 184.725 120.07 185.59 112.643C186.485 104.96 192.936 98.8248 200.876 98.0532C205.85 97.5686 210.601 99.0783 214.263 102.291C217.862 105.447 219.92 109.938 219.92 114.62C219.92 121.211 215.887 127.171 209.611 129.818C208.12 130.447 207.155 131.918 207.155 133.565V136.405C207.156 137.992 205.819 139.3 204.173 139.318ZM202.875 98.6312C202.239 98.6251 201.598 98.6535 200.953 98.7163C193.335 99.4596 187.146 105.349 186.288 112.719C185.459 119.847 189.504 126.513 196.315 129.285C198.081 130.004 199.221 131.708 199.221 133.629V136.48C199.221 137.708 200.256 138.694 201.527 138.681L204.173 138.653C205.438 138.639 206.468 137.633 206.468 136.41V133.569C206.468 131.655 207.597 129.943 209.341 129.208C215.367 126.668 219.241 120.946 219.241 114.618C219.241 110.122 217.264 105.811 213.808 102.78C210.767 100.113 206.943 98.6707 202.875 98.6312Z" fill="url(#paint22_linear_794_93)"/>
<path d="M206.828 146.095L200.435 146.188C200.339 146.189 200.261 146.116 200.261 146.024C200.261 145.932 200.338 145.856 200.435 145.855L206.484 145.768V144.732L198.856 144.839V144.023L206.484 142.715V141.802L199.202 141.892V142.547C199.202 142.639 199.125 142.716 199.029 142.717C198.934 142.718 198.855 142.645 198.855 142.551V141.563L206.827 141.465V142.993L199.201 144.302V144.5L206.827 144.396V146.095H206.828Z" fill="url(#paint23_linear_794_93)"/>
<path d="M202.85 150.55C201.015 150.582 199.52 149.164 199.52 147.391C199.52 147.299 199.597 147.223 199.693 147.222C199.788 147.221 199.866 147.294 199.866 147.386C199.866 148.975 201.206 150.244 202.851 150.217C204.492 150.189 205.825 148.878 205.825 147.295C205.825 147.202 205.903 147.127 205.998 147.125C206.093 147.124 206.17 147.197 206.17 147.29C206.169 149.057 204.681 150.519 202.85 150.55Z" fill="url(#paint24_linear_794_93)"/>
<path d="M202.85 137.062C202.849 137.062 202.849 137.062 202.848 137.062C202.765 137.062 202.694 137.004 202.68 136.925L199.522 119.418C199.506 119.327 199.569 119.241 199.663 119.224C199.757 119.208 199.847 119.269 199.863 119.36L202.858 135.97L206.176 119.351C206.194 119.261 206.284 119.201 206.378 119.219C206.471 119.237 206.532 119.324 206.514 119.414L203.018 136.924C203.004 137.003 202.933 137.061 202.85 137.062Z" fill="url(#paint25_linear_794_93)"/>
<g opacity="0.5">
<path opacity="0.5" d="M191.439 196.556L281.088 192.299V187.243L191.439 191.395V196.556Z" fill="url(#paint26_linear_794_93)"/>
<path opacity="0.5" d="M191.439 206.877L281.088 202.41V197.354L191.439 201.717V206.877Z" fill="url(#paint27_linear_794_93)"/>
<g opacity="0.5">
<path opacity="0.5" d="M272.188 182.269L281.087 181.868V174.186L272.188 174.571V182.269Z" fill="url(#paint28_linear_794_93)"/>
<path opacity="0.5" d="M256.275 182.987L265.241 182.582V164.459L256.275 164.825V182.987Z" fill="url(#paint29_linear_794_93)"/>
<path opacity="0.5" d="M240.246 183.709L249.277 183.302V157.085L240.246 157.437V183.709Z" fill="url(#paint30_linear_794_93)"/>
<path opacity="0.5" d="M224.098 184.437L233.196 184.027V164.837L224.098 165.207V184.437Z" fill="url(#paint31_linear_794_93)"/>
<path opacity="0.5" d="M207.83 185.17L216.996 184.757V154.88L207.83 155.231V185.17Z" fill="url(#paint32_linear_794_93)"/>
<path opacity="0.5" d="M191.439 185.909L200.674 185.492V152.16L191.439 152.506V185.909Z" fill="url(#paint33_linear_794_93)"/>
</g>
</g>
<g opacity="0.7">
<path opacity="0.7" d="M198.84 134.1L281.654 134.336V129.664L198.84 129.331V134.1Z" fill="url(#paint34_linear_794_93)"/>
<path opacity="0.7" d="M198.84 143.639L281.654 143.682V139.01L198.84 138.869V143.639Z" fill="url(#paint35_linear_794_93)"/>
<g opacity="0.7">
<path opacity="0.7" d="M273.434 124.056L281.655 124.101V117L273.434 116.941V124.056Z" fill="url(#paint36_linear_794_93)"/>
<path opacity="0.7" d="M258.734 123.976L267.016 124.02V107.271L258.734 107.191V123.976Z" fill="url(#paint37_linear_794_93)"/>
<path opacity="0.7" d="M243.926 123.896L252.268 123.94V99.7111L243.926 99.6147V123.896Z" fill="url(#paint38_linear_794_93)"/>
<path opacity="0.7" d="M229.008 123.815L237.412 123.86V106.124L229.008 106.042V123.815Z" fill="url(#paint39_linear_794_93)"/>
<path opacity="0.7" d="M213.98 123.733L222.448 123.779V96.1664L213.98 96.063V123.733Z" fill="url(#paint40_linear_794_93)"/>
<path opacity="0.7" d="M198.84 123.65L207.37 123.697V92.8903L198.84 92.7798V123.65Z" fill="url(#paint41_linear_794_93)"/>
</g>
</g>
<path d="M199.124 270.097C198.183 269.237 196.893 266.537 196.846 265.694C196.54 260.088 195.284 249.628 198.973 244.977C199.603 244.183 203.847 246.01 204.9 245.614C207.888 246.123 208.894 246.485 211.973 245.573C221.063 242.882 218.056 223.755 233.679 228.726C245.122 232.367 250.78 241.154 259.986 225.885C269.192 210.616 299.357 192.18 307.612 213.12C312.349 225.137 294.702 231.237 292.836 243.555C291.063 255.26 282.371 259.825 269.493 258.567C256.615 257.31 258.733 264.767 255.628 274.895C251.898 287.059 235.42 278.126 228.165 273.354C222.324 269.511 204.852 263.664 199.124 270.097Z" fill="url(#paint42_linear_794_93)"/>
<path d="M213.909 257.17C208.514 257.17 203.112 256.745 197.738 255.889L197.795 255.534C218.513 258.836 239.682 255.706 259.017 246.48C277.414 237.702 293.859 223.633 306.573 205.794L306.867 206.003C294.117 223.891 277.625 238 259.172 246.805C244.786 253.669 229.385 257.17 213.909 257.17Z" fill="#FCFDFE"/>
<path d="M254.622 280.155C247.785 271.017 232.985 260.522 221.631 256.764L221.743 256.423C233.156 260.202 248.034 270.752 254.909 279.941L254.622 280.155Z" fill="#FCFDFE"/>
<path d="M205.862 257.087L205.818 256.73C211.979 255.97 217.521 252.125 222.29 245.3C225.789 240.291 228.798 233.825 231.232 226.08L231.575 226.188C229.129 233.967 226.105 240.466 222.584 245.505C217.755 252.418 212.128 256.314 205.862 257.087Z" fill="#FCFDFE"/>
<path d="M291.665 253.214C284.337 248.563 273.195 243.44 261.73 245.457L261.668 245.103C273.245 243.068 284.476 248.225 291.858 252.91L291.665 253.214Z" fill="#FCFDFE"/>
<path d="M284.209 230.673L283.93 230.445C287.513 226.051 293.362 216.123 292.268 198.999L292.627 198.977C293.728 216.223 287.825 226.238 284.209 230.673Z" fill="#FCFDFE"/>
<path d="M207.502 278.274C202.598 274.686 197.763 270.978 193.003 267.152C192.875 267.185 197.236 254.71 205.927 251.549C222.985 245.541 221.238 231.145 222.449 223.802C223.791 213.261 230.561 204.654 239.592 209.24C249.711 214.133 260.194 198.648 266.292 182.746C268.751 174.72 280.307 169.506 288.242 171.11C296.437 172.571 301.011 180.849 295.477 196.516C289.834 215.057 272.188 218.72 263.182 224.755C254.331 230.675 261.203 242.872 248.946 245.786C238.452 248.586 227.091 248.583 226.014 258.489C225.076 268.35 220.779 274.548 207.502 278.274Z" fill="url(#paint43_linear_794_93)"/>
<path d="M200.077 275.238L199.764 275.062C199.816 274.959 217.747 253.32 239.011 234.284C242.243 231.093 245.599 227.924 248.844 224.859C266.917 207.787 283.989 191.663 288.326 166L288.68 166.06C284.322 191.84 267.209 208.005 249.09 225.119C245.847 228.183 242.492 231.352 239.257 234.545C217.868 253.695 200.172 275.097 200.077 275.238Z" fill="#FCFDFE"/>
<path d="M265.475 208.976L265.352 208.639C274.755 205.186 286.85 199.605 293.347 196.607C298.603 194.182 298.617 194.19 298.766 194.301L298.551 194.589L298.658 194.445L298.659 194.622C298.423 194.66 296.249 195.663 293.498 196.932C286.996 199.933 274.893 205.518 265.475 208.976Z" fill="#FCFDFE"/>
<path d="M272.303 200.934L271.962 200.819C277.087 185.608 271.227 175.274 270.43 174.652L270.515 174.543L270.492 174.317C270.599 174.304 270.677 174.377 270.786 174.512C272.335 176.446 277.131 186.599 272.303 200.934Z" fill="#FCFDFE"/>
<path d="M225.923 247.198L225.627 246.994C235.351 232.918 232.549 213.517 230.893 205.829C230.804 205.416 230.776 205.282 230.774 205.219L231.133 205.204L230.953 205.211L231.133 205.203C231.136 205.248 231.186 205.482 231.244 205.753C232.91 213.486 235.725 233.006 225.923 247.198Z" fill="#FCFDFE"/>
<path d="M232.205 241.088L232.023 240.778C243.868 233.829 257.726 240.24 257.822 240.331L257.862 240.541L257.671 240.64L257.7 240.464L257.606 240.614C257.482 240.545 243.887 234.235 232.205 241.088Z" fill="#FCFDFE"/>
<path d="M203.061 271.738L202.75 271.559C204.472 268.57 206.127 262.796 204.227 252.264C204.119 251.667 204.119 251.667 204.174 251.591L204.464 251.802L204.319 251.697L204.497 251.707C204.499 251.749 204.536 251.958 204.58 252.2C206.5 262.839 204.814 268.698 203.061 271.738Z" fill="#FCFDFE"/>
<path d="M207.444 266.704L207.186 266.455C209.095 264.479 214.169 261.311 226.704 262.308C226.874 262.321 226.984 262.33 227.024 262.331L227.02 262.69C226.977 262.689 226.858 262.68 226.674 262.666C214.288 261.682 209.31 264.774 207.444 266.704Z" fill="#FCFDFE"/>
<path d="M243.461 127.247C243.461 127.247 263.967 150.297 246.478 187.329C244.849 190.779 240.074 191.136 237.934 187.977L224.299 167.859C222.113 164.634 221.391 160.636 222.31 156.85L227.029 137.413L243.461 127.247Z" fill="url(#paint44_linear_794_93)"/>
<path d="M197.644 90.9557C197.644 90.9557 170.508 76.2686 138.443 101.755C135.455 104.129 136.2 108.857 139.764 110.218L162.474 118.889C166.114 120.279 170.173 120.068 173.65 118.308L191.501 109.272L197.644 90.9557Z" fill="url(#paint45_linear_794_93)"/>
<path d="M245.489 124.69C245.489 124.69 265.995 147.74 248.505 184.772C246.876 188.222 242.102 188.579 239.962 185.42L226.326 165.302C224.14 162.077 223.418 158.079 224.337 154.293L229.057 134.856L245.489 124.69Z" fill="url(#paint46_linear_794_93)"/>
<path d="M199.671 88.3986C199.671 88.3986 172.535 73.7115 140.47 99.1981C137.483 101.572 138.227 106.299 141.792 107.661L164.501 116.332C168.141 117.722 172.2 117.511 175.678 115.751L193.528 106.715L199.671 88.3986Z" fill="url(#paint47_linear_794_93)"/>
<path d="M221.106 30.3885C249.899 1.33683 297.578 11.8373 297.604 11.8951C297.666 11.9062 318.79 55.9105 297.081 90.5683C277.389 122.006 233.614 144.838 225.204 149.019C224.299 149.47 222.832 150.085 222.294 149.23C211.846 132.596 197.838 122.083 181.017 116.553C180.086 116.247 180.378 114.702 180.602 113.749C182.719 104.733 194.944 56.7856 221.106 30.3885Z" fill="url(#paint48_linear_794_93)"/>
<g opacity="0.3">
<path opacity="0.3" d="M239.645 74.3329C255.757 58.2091 270.863 64.8241 286.424 50.7748C292.106 45.6443 298.322 37.3319 301.819 22.9663C306.638 38.2485 312.071 66.637 297.081 90.5693C277.39 122.007 233.613 144.839 225.204 149.02C224.299 149.47 222.831 150.086 222.294 149.231C217.015 140.828 210.827 133.99 203.828 128.563C209.887 124.968 214.237 120.947 217.452 117.105C230.42 101.607 224.965 89.024 239.645 74.3329Z" fill="url(#paint49_linear_794_93)"/>
</g>
<path d="M278.604 35.8658C267.517 27.084 253.866 19.1316 241.652 16.6333C264.72 6.85376 289.911 10.4543 296.148 11.6C297.072 11.7694 297.849 12.3859 298.225 13.2457C300.766 19.0536 310.03 42.7465 305.78 67.43C301.41 57.3119 289.69 44.6466 278.604 35.8658Z" fill="url(#paint50_linear_794_93)"/>
<path opacity="0.3" d="M301.819 22.9663C301.841 23.0373 301.863 23.1093 301.887 23.1813C301.925 23.3029 301.963 23.4256 302.001 23.5493C302.04 23.672 302.077 23.7967 302.116 23.9214C302.152 24.0401 302.188 24.1587 302.224 24.2784C302.264 24.4112 302.304 24.544 302.344 24.6779C302.378 24.7924 302.413 24.908 302.446 25.0236C302.488 25.1656 302.53 25.3085 302.571 25.4515C302.604 25.563 302.636 25.6746 302.669 25.7881C302.712 25.9392 302.755 26.0903 302.798 26.2434C302.829 26.3519 302.859 26.4604 302.89 26.5689C302.934 26.7291 302.979 26.8893 303.024 27.0515C303.052 27.1559 303.081 27.2604 303.11 27.3658C303.155 27.5341 303.201 27.7035 303.247 27.8738C303.274 27.9762 303.301 28.0796 303.329 28.1831C303.376 28.3585 303.421 28.5349 303.467 28.7124C303.493 28.8127 303.519 28.9131 303.545 29.0135C303.592 29.197 303.639 29.3816 303.686 29.5681C303.71 29.6655 303.735 29.7628 303.759 29.8601C303.807 30.0518 303.853 30.2434 303.901 30.4371C303.924 30.5314 303.947 30.6267 303.97 30.722C304.018 30.9207 304.065 31.1215 304.112 31.3223C304.133 31.4135 304.155 31.5058 304.176 31.598C304.223 31.8039 304.271 32.0117 304.318 32.2206C304.338 32.3098 304.358 32.4001 304.379 32.4903C304.426 32.7032 304.473 32.9172 304.521 33.1332C304.54 33.2204 304.558 33.3086 304.577 33.3968C304.624 33.6158 304.671 33.8368 304.717 34.0579C304.736 34.1441 304.753 34.2303 304.771 34.3164C304.818 34.5426 304.864 34.7697 304.909 34.9978C304.925 35.081 304.943 35.1641 304.959 35.2483C305.004 35.4815 305.05 35.7157 305.095 35.9509C305.11 36.032 305.125 36.1132 305.14 36.1943C305.185 36.4336 305.23 36.6739 305.273 36.9152C305.287 36.9943 305.302 37.0734 305.316 37.1514C305.36 37.3978 305.403 37.6452 305.446 37.8936C305.459 37.9687 305.471 38.0437 305.484 38.1187C305.527 38.3722 305.569 38.6267 305.611 38.8822C305.623 38.9542 305.634 39.0272 305.646 39.1002C305.687 39.3598 305.728 39.6204 305.767 39.882C305.778 39.953 305.789 40.024 305.799 40.0949C305.838 40.3596 305.877 40.6252 305.915 40.8919C305.925 40.9608 305.935 41.0308 305.945 41.1008C305.982 41.3715 306.02 41.6422 306.055 41.915C306.064 41.9809 306.073 42.0478 306.081 42.1137C306.116 42.3905 306.152 42.6673 306.185 42.9461C306.193 43.01 306.2 43.0749 306.208 43.1388C306.242 43.4207 306.274 43.7036 306.306 43.9885C306.313 44.0493 306.319 44.1102 306.325 44.171C306.357 44.459 306.387 44.7489 306.415 45.0389C306.421 45.0977 306.427 45.1566 306.433 45.2143C306.461 45.5084 306.489 45.8035 306.516 46.0995C306.521 46.1543 306.525 46.21 306.53 46.2648C306.556 46.5649 306.581 46.8661 306.604 47.1682C306.608 47.221 306.612 47.2727 306.616 47.3254C306.64 47.6316 306.662 47.9378 306.682 48.2461C306.685 48.2947 306.688 48.3444 306.691 48.3931C306.712 48.7044 306.73 49.0167 306.747 49.33C306.749 49.3766 306.752 49.4243 306.754 49.4709C306.77 49.7873 306.787 50.1046 306.8 50.423C306.802 50.4656 306.803 50.5082 306.805 50.5497C306.818 50.8732 306.83 51.1977 306.839 51.5231C306.84 51.5617 306.841 51.5992 306.842 51.6377C306.852 51.9672 306.86 52.2978 306.866 52.6294C306.867 52.6638 306.867 52.6983 306.867 52.7328C306.872 53.0684 306.876 53.405 306.878 53.7437C306.878 53.7721 306.878 53.8015 306.878 53.8299C306.879 54.1736 306.879 54.5183 306.876 54.8631C306.876 54.8864 306.875 54.9087 306.875 54.932C306.872 55.2829 306.867 55.6357 306.859 55.9875C306.859 56.0048 306.858 56.021 306.858 56.0382C306.85 56.3972 306.839 56.7581 306.827 57.1191C306.827 57.1272 306.826 57.1363 306.826 57.1445C306.706 60.5229 306.376 63.9673 305.779 67.431C302.986 60.965 297.189 53.4598 290.477 46.5913C294.878 41.3989 299.144 33.9545 301.819 22.9663Z" fill="url(#paint51_linear_794_93)"/>
<path d="M225.219 50.1209C215.03 62.9748 218.345 82.5632 232.622 93.8728C246.9 105.182 266.734 103.93 276.923 91.0763C287.112 78.2225 283.797 58.634 269.519 47.3245C255.242 36.0149 235.408 37.2671 225.219 50.1209Z" fill="url(#paint52_linear_794_93)"/>
<path d="M239.645 74.333C252.793 61.175 265.271 63.1583 277.872 56.6995C284.608 67.6562 284.665 81.311 276.923 91.0774C266.734 103.931 246.899 105.183 232.622 93.8738C231.455 92.9491 230.361 91.9676 229.342 90.9395C231.23 85.526 233.891 80.0912 239.645 74.333Z" fill="url(#paint53_linear_794_93)"/>
<path d="M227.374 51.8285C218.035 63.6105 221.074 81.5655 234.161 91.9321C247.249 102.299 265.429 101.151 274.768 89.3689C284.108 77.5868 281.069 59.6318 267.981 49.2652C254.894 38.8986 236.713 40.0464 227.374 51.8285Z" fill="url(#paint54_linear_794_93)"/>
<path d="M230.43 54.2476C222.294 64.5107 224.942 80.1519 236.341 89.1821C247.742 98.2123 263.579 97.2126 271.714 86.9494C279.85 76.6862 277.203 61.0451 265.803 52.0148C254.402 42.9846 238.566 43.9844 230.43 54.2476Z" fill="url(#paint55_linear_794_93)"/>
<path d="M180.036 115.883C177.255 119.391 184.628 129.859 196.503 139.265C208.377 148.671 220.257 153.453 223.037 149.946C225.817 146.439 218.444 135.971 206.57 126.564C194.696 117.159 182.816 112.376 180.036 115.883Z" fill="url(#paint56_linear_794_93)"/>
<path d="M199.472 126.219L208.7 133.528C213.609 137.418 215.67 143.894 213.911 149.904L212.242 155.606C211.627 157.705 209.082 158.514 207.368 157.156L176.766 132.917C175.051 131.558 175.258 128.897 177.162 127.819L182.334 124.891C187.784 121.805 194.561 122.33 199.472 126.219Z" fill="url(#paint57_linear_794_93)"/>
<path d="M175.289 129.751C172.666 133.061 178.483 142.036 188.284 149.799C198.084 157.562 208.155 161.171 210.778 157.862C213.401 154.552 207.584 145.577 197.784 137.814C187.983 130.051 177.912 126.442 175.289 129.751Z" fill="url(#paint58_linear_794_93)"/>
<path d="M179.547 133.125C177.553 135.64 181.974 142.461 189.422 148.361C196.87 154.26 204.524 157.004 206.518 154.489C208.512 151.973 204.091 145.152 196.643 139.252C189.195 133.353 181.541 130.609 179.547 133.125Z" fill="url(#paint59_linear_794_93)"/>
<g opacity="0.3">
<path opacity="0.3" d="M239.646 74.333C250.828 63.1421 261.526 62.9038 272.227 59.1096C277.848 67.9229 277.988 79.0357 271.714 86.9506C263.579 97.2138 247.741 98.2135 236.341 89.1823C234.674 87.8621 233.196 86.4 231.91 84.8355C233.658 81.4124 236.046 77.9356 239.646 74.333Z" fill="url(#paint60_linear_794_93)"/>
</g>
<path d="M49.0713 226.973L161.721 221.448C165.301 220.199 169.974 217.889 172.97 213.323C180.601 201.697 168.881 188.376 176.08 177.652C180.98 170.353 188.6 173.261 195.555 164.616C200.751 158.156 201.595 150.192 201.532 144.619C201.532 144.619 194.493 133.925 186.737 133.525C183.181 139.415 176.905 147.637 166.918 150.711C152.922 155.017 145.178 145.05 132.959 149.094C117.539 154.198 121.269 172.915 106.007 180.347C88.1363 189.05 70.6486 169.41 57.4951 177.114C50.9021 180.975 44.5444 192.207 49.0713 226.973Z" fill="url(#paint61_linear_794_93)"/>
<path d="M141.863 168.08C142.588 167.526 143.312 166.971 144.038 166.418C144.672 166.597 155.086 169.727 157.148 178.885C157.433 180.145 158.477 184.787 155.933 187.772C151.669 192.775 139.294 190.805 133.485 183.809C128.92 178.311 128.353 169.641 130.991 168.018C134.183 166.053 143.697 173.404 144.421 173.964C145.875 175.087 147.196 176.283 147.427 176.074C147.82 175.715 144.696 171.631 141.863 168.08Z" fill="url(#paint62_linear_794_93)"/>
<path d="M61.665 232.904C61.665 232.904 62.2198 231.464 61.3506 230.71C60.4813 229.957 55.6745 227.778 53.2625 227.823C50.8505 227.869 52.7939 229.727 54.1713 230.779C55.5487 231.831 58.761 234.034 59.5877 234.22C60.4144 234.407 61.665 232.904 61.665 232.904Z" fill="url(#paint63_linear_794_93)"/>
<path d="M65.9209 235.452C64.5201 234.362 63.2979 233.511 62.3749 232.896C60.332 231.538 59.4222 231.12 58.5103 230.835C57.7151 230.587 55.9137 230.125 55.7443 230.499C55.5729 230.879 57.2425 231.771 61.3443 234.883C61.9397 235.334 63.8304 236.777 63.8304 236.777L65.9209 235.452Z" fill="url(#paint64_linear_794_93)"/>
<path d="M126.963 299.906C126.963 299.906 126.406 301.346 127.274 302.1C128.143 302.855 132.946 305.041 135.358 304.999C137.77 304.957 135.83 303.096 134.454 302.042C133.078 300.989 129.869 298.78 129.042 298.593C128.216 298.405 126.963 299.906 126.963 299.906Z" fill="url(#paint65_linear_794_93)"/>
<path d="M127.31 293.535C127.207 295.369 127.399 296.859 127.6 297.895C127.888 299.373 128.062 300.212 128.764 300.954C130.004 302.266 132.174 302.524 132.489 301.997C132.846 301.397 130.548 300.23 129.787 297.424C129.453 296.195 129.531 295.082 129.662 294.301L127.31 293.535Z" fill="url(#paint66_linear_794_93)"/>
<path d="M135.568 218.73C138.819 222.151 138.109 227.039 137.09 235.802C136.236 243.152 135.073 254.023 133.979 267.784C132.986 277.383 131.991 286.982 130.998 296.581C129.343 296.581 127.688 296.581 126.031 296.581C124.001 292.271 121.583 285.671 121.462 277.516C121.362 270.761 122.941 269.874 123.246 262.223C123.413 258.017 123.041 255.658 119.873 237.399C117.352 222.874 116.857 220.148 118.88 217.936C122.449 214.035 131.435 214.38 135.568 218.73Z" fill="url(#paint67_linear_794_93)"/>
<path opacity="0.3" d="M125.635 285.613C126.491 282.935 128.761 280.199 128.914 274.889C129.094 268.624 126.09 267.061 126.53 261.185C126.953 255.54 129.867 255.129 130.702 249.567C131.672 243.107 128.077 241.417 126.828 233.779C125.688 226.81 127.338 220.019 129.057 215.48C125.199 214.776 121.045 215.571 118.881 217.936C116.859 220.148 117.355 222.873 119.874 237.398C123.042 255.657 123.415 258.016 123.248 262.223C122.942 269.873 121.364 270.76 121.464 277.515C121.584 285.67 124.002 292.27 126.033 296.58C126.581 296.58 127.129 296.58 127.677 296.58C125.022 291.755 124.798 288.237 125.635 285.613Z" fill="url(#paint68_linear_794_93)"/>
<path d="M60.8086 236.27C67.7718 245.86 81.0846 261.705 92.597 259.018C98.6838 257.598 100.892 251.784 118.782 227.225C123.085 221.319 126.748 216.452 129.348 213.035C122.395 211.314 115.441 209.592 108.488 207.872C103.794 215.612 100.708 222.166 98.7974 226.592C94.229 237.172 92.5818 244.373 88.4231 244.811C86.3904 245.025 85.0729 243.484 82.2642 241.236C78.5874 238.293 72.8931 234.569 64.384 231.703C63.1922 233.226 62.0004 234.749 60.8086 236.27Z" fill="url(#paint69_linear_794_93)"/>
<path d="M111.129 164.591C113.412 165.296 116.714 167.264 121.321 166.542C122.707 166.325 127.621 165.556 129.362 161.487C130.896 157.905 128.713 154.291 128.441 153.855C126.874 151.334 124.458 150.343 121.759 149.278C118.259 147.898 116.68 148.179 114.08 147.52C107.646 145.888 107.521 141.684 101.746 138.792C94.3645 135.094 90.7596 140.054 84.6352 136.79C77.7593 133.126 80.1906 125.75 74.1169 120.86C65.687 114.073 45.9759 116.184 39.7734 127.89C36.1909 134.651 36.8654 145.083 41.9217 150.94C44.8693 154.354 49.099 156.169 48.887 159.213C48.7369 161.378 46.1737 161.673 44.6705 164.752C42.7332 168.719 44.5285 173.275 44.8186 174.01C47.5096 180.839 59.7817 185.042 70.5932 183.585C90.0902 180.96 98.7128 160.755 111.129 164.591Z" fill="url(#paint70_linear_794_93)"/>
<path d="M108.761 165.875C114.093 165.855 120.693 165.914 127.44 166.626C141.943 168.156 141.373 175.37 138.747 181.946C136.067 188.658 136.161 194.584 136.214 196.692C136.302 200.089 136.918 202.811 138.154 208.258C140.299 217.719 141.896 219.892 140.386 222.312C138.183 225.839 132.01 225.665 130.927 225.613C125.443 225.349 124.28 222.132 119.657 221.623C114.285 221.032 113.043 225.064 105.575 227.778C96.7598 230.981 85.4107 230.133 80.1394 224.233C78.1036 221.955 76.7982 218.807 77.6726 217.817C78.8644 216.468 83.0088 220.35 87.4211 218.809C90.3443 217.789 90.0796 215.543 93.5799 213.352C97.7924 210.715 100.27 212.656 103.127 210.953C107.581 208.298 106.624 200.553 106.984 187.803C107.135 182.525 107.55 175.013 108.761 165.875Z" fill="url(#paint71_linear_794_93)"/>
<path d="M108.762 165.875C101.026 166.252 98.2612 174.302 90.1853 175.89C85.2923 176.852 77.9933 175.532 67.5135 165.356C66.0275 166.042 64.5426 166.73 63.0566 167.417C64.5832 176.554 68.825 181.682 70.9064 183.84C82.8011 196.175 105.361 195.798 117.577 185.222C121.41 181.904 123.571 178.147 124.746 175.678C120.885 170.877 115.265 165.558 108.762 165.875Z" fill="url(#paint72_linear_794_93)"/>
<path d="M125.697 159.922C125.214 159.576 124.535 159.802 124.352 160.368C123.846 161.934 122.799 164.599 121.372 165.264C119.318 166.222 116.224 165.801 115.834 166.181C115.444 166.56 125.058 171.547 131.463 169.28C131.508 169.264 131.551 169.245 131.594 169.222L131.959 169.026C132.682 168.636 132.519 167.556 131.713 167.397C130.477 167.153 127.241 166.224 126.426 164.814C126.333 164.651 126.306 163.378 126.33 163.192L126.592 161.129C126.633 160.811 126.496 160.495 126.234 160.308L125.697 159.922Z" fill="url(#paint73_linear_794_93)"/>
<path d="M124.184 161.001C124.184 161.001 125.227 162.861 127.268 162.381C129.095 161.952 128.59 157.305 127.263 156.624C126.82 156.397 125.96 156.372 125.349 156.659C124.918 156.86 123.692 158.059 124.127 159.619C123.7 159.439 123.297 159.508 123.173 159.716C123.016 159.979 123.345 160.402 123.42 160.497C123.679 160.83 124.024 160.955 124.184 161.001Z" fill="url(#paint74_linear_794_93)"/>
<path d="M66.2628 165.934L65.5336 164.496C65.5336 164.496 69.2601 158.403 66.206 157.425C63.152 156.446 64.0131 158.189 64.359 159.02C64.7049 159.851 64.147 162.561 63.6175 163.389C63.087 164.217 64.0101 166.975 64.0101 166.975L66.2628 165.934Z" fill="url(#paint75_linear_794_93)"/>
<path opacity="0.3" d="M92.6573 223.75C94.5845 222.439 93.2577 219.869 95.4385 217.792C97.4347 215.892 99.6185 217.023 103.187 216.005C107.476 214.782 110.799 211.3 112.326 208.259C113.414 206.091 113.327 204.671 112.326 193.563C111.372 182.985 111.102 180.401 109.743 180.058C107.269 179.435 105.053 187.207 100.208 187.208C97.4712 187.209 97.0999 184.73 93.6523 183.435C87.7997 181.237 83.6167 186.407 77.3615 186.215C75.763 186.166 73.8226 185.75 71.6094 184.506C80.6245 193.201 95.1464 195.101 106.919 191.161C106.76 201.913 107.178 208.541 103.131 210.953C100.275 212.656 97.7968 210.715 93.5843 213.352C90.084 215.543 90.3477 217.789 87.4255 218.809C83.0132 220.349 78.8688 216.467 77.677 217.817C76.8828 218.715 77.891 221.382 79.6021 223.571C80.6073 223.154 81.7169 222.852 82.925 222.758C87.5401 222.398 90.3832 225.297 92.6573 223.75Z" fill="url(#paint76_linear_794_93)"/>
<path d="M158.213 150.233L158.474 148.739L160.405 148.267C160.836 148.162 161.284 148.348 161.514 148.727C162.734 150.734 166.107 157.295 163.639 165.043C163.51 165.449 163.139 165.732 162.712 165.749C161.937 165.781 161.096 165.7 161.096 165.7L158.213 150.233Z" fill="url(#paint77_linear_794_93)"/>
<path d="M143.371 161.313L141.709 165.718C141.709 165.718 141.059 166.89 140.978 167.447C140.168 167.771 138.863 167.377 138.863 167.377L139.293 161.539L143.245 161.222L143.371 161.313Z" fill="url(#paint78_linear_794_93)"/>
<path d="M143.556 167.087L142.985 165.284C142.985 165.284 142.297 163.798 140.357 163.544C138.416 163.291 138.438 164.337 138.438 164.337L139.703 164.711C139.703 164.711 140.522 164.948 141.084 166.134C141.87 167.341 142.665 167.896 142.665 167.896L143.556 167.087Z" fill="url(#paint79_linear_794_93)"/>
<path d="M136.308 158.167C136.308 158.167 152.204 154.551 158.474 148.74C164.464 155.023 161.096 165.7 161.096 165.7C161.096 165.7 143.81 161.744 136.862 162.588C135.39 161.199 136.308 158.167 136.308 158.167Z" fill="url(#paint80_linear_794_93)"/>
<path d="M167.049 168.646C166.731 168.26 166.626 167.718 166.823 167.22C172.241 153.486 164.708 146.265 164.633 146.196C164.058 145.663 164.026 144.763 164.56 144.188C165.095 143.613 165.994 143.58 166.57 144.115C166.943 144.461 175.59 152.743 169.467 168.263C169.179 168.993 168.354 169.352 167.623 169.064C167.392 168.973 167.197 168.826 167.049 168.646Z" fill="url(#paint81_linear_794_93)"/>
<defs fill="#000000">
<linearGradient id="paint0_linear_794_93" x1="55.2163" y1="150.832" x2="101.695" y2="145.974" gradientUnits="userSpaceOnUse" fill="#000000">
<stop offset="0.003597" stop-color="#26264F" fill="#000000"/>
<stop offset="1" stop-color="#0c2bff" fill="#000000"/>
</linearGradient>
<linearGradient id="paint1_linear_794_93" x1="154.296" y1="292.778" x2="164.139" y2="278.674" gradientUnits="userSpaceOnUse" fill="#000000">
<stop stop-color="#0c2bff" fill="#000000"/>
<stop offset="0.9964" stop-color="#26264F" fill="#000000"/>
</linearGradient>
<linearGradient id="paint2_linear_794_93" x1="184.107" y1="289.163" x2="169.046" y2="207.374" gradientUnits="userSpaceOnUse" fill="#000000">
<stop stop-color="#0c2bff" fill="#000000"/>
<stop offset="0.9964" stop-color="#26264F" fill="#000000"/>
</linearGradient>
<linearGradient id="paint3_linear_794_93" x1="221.286" y1="63.3834" x2="296.673" y2="-44.2487" gradientUnits="userSpaceOnUse" fill="#000000">
<stop stop-color="#0c2bff" fill="#000000"/>
<stop offset="0.9964" stop-color="#26264F" fill="#000000"/>
</linearGradient>
<linearGradient id="paint4_linear_794_93" x1="188.528" y1="76.16" x2="94.2451" y2="375.721" gradientUnits="userSpaceOnUse" fill="#000000">
<stop stop-color="#0c2bff" fill="#000000"/>
<stop offset="0.9964" stop-color="#26264F" fill="#000000"/>
</linearGradient>
<linearGradient id="paint5_linear_794_93" x1="118.557" y1="246.484" x2="243.543" y2="-32.3194" gradientUnits="userSpaceOnUse" fill="#000000">
<stop offset="0.494" stop-color="#EBEFF2" fill="#000000"/>
<stop offset="1" stop-color="white" fill="#000000"/>
</linearGradient>
<linearGradient id="paint6_linear_794_93" x1="170.286" y1="72.8216" x2="165.07" y2="116.008" gradientUnits="userSpaceOnUse" fill="#000000">
<stop stop-color="#0c2bff" fill="#000000"/>
<stop offset="0.9964" stop-color="#26264F" fill="#000000"/>
</linearGradient>
<linearGradient id="paint7_linear_794_93" x1="283.234" y1="49.7113" x2="272.468" y2="72.5184" gradientUnits="userSpaceOnUse" fill="#000000">
<stop stop-color="#26368a" fill="#000000"/>
<stop offset="1" stop-color="#FB6FBB" fill="#000000"/>
</linearGradient>
<linearGradient id="paint8_linear_794_93" x1="287.561" y1="52.027" x2="276.831" y2="74.7591" gradientUnits="userSpaceOnUse" fill="#000000">
<stop stop-color="#26368a" fill="#000000"/>
<stop offset="1" stop-color="#FB6FBB" fill="#000000"/>
</linearGradient>
<linearGradient id="paint9_linear_794_93" x1="291.867" y1="54.3272" x2="281.171" y2="76.985" gradientUnits="userSpaceOnUse" fill="#000000">
<stop stop-color="#26368a" fill="#000000"/>
<stop offset="1" stop-color="#FB6FBB" fill="#000000"/>
</linearGradient>
<linearGradient id="paint10_linear_794_93" x1="238.461" y1="26.8487" x2="114.891" y2="178.133" gradientUnits="userSpaceOnUse" fill="#000000">
<stop offset="0.00359712" stop-color="#E38DDD" fill="#000000"/>
<stop offset="1" stop-color="#9571F6" fill="#000000"/>
</linearGradient>
<linearGradient id="paint11_linear_794_93" x1="238.078" y1="26.5355" x2="114.508" y2="177.819" gradientUnits="userSpaceOnUse" fill="#000000">
<stop offset="0.00359712" stop-color="#E38DDD" fill="#000000"/>
<stop offset="1" stop-color="#9571F6" fill="#000000"/>
</linearGradient>
<linearGradient id="paint12_linear_794_93" x1="224.865" y1="15.743" x2="101.294" y2="167.027" gradientUnits="userSpaceOnUse" fill="#000000">
<stop offset="0.00359712" stop-color="#E38DDD" fill="#000000"/>
<stop offset="1" stop-color="#9571F6" fill="#000000"/>
</linearGradient>
<linearGradient id="paint13_linear_794_93" x1="220.43" y1="12.1206" x2="96.8599" y2="163.404" gradientUnits="userSpaceOnUse" fill="#000000">
<stop offset="0.00359712" stop-color="#E38DDD" fill="#000000"/>
<stop offset="1" stop-color="#9571F6" fill="#000000"/>
</linearGradient>
<linearGradient id="paint14_linear_794_93" x1="222.104" y1="13.4884" x2="98.5338" y2="164.772" gradientUnits="userSpaceOnUse" fill="#000000">
<stop offset="0.00359712" stop-color="#E38DDD" fill="#000000"/>
<stop offset="1" stop-color="#9571F6" fill="#000000"/>
</linearGradient>
<linearGradient id="paint15_linear_794_93" x1="211.657" y1="4.9544" x2="88.0867" y2="156.238" gradientUnits="userSpaceOnUse" fill="#000000">
<stop offset="0.00359712" stop-color="#E38DDD" fill="#000000"/>
<stop offset="1" stop-color="#9571F6" fill="#000000"/>
</linearGradient>
<linearGradient id="paint16_linear_794_93" x1="202.033" y1="-2.90503" x2="78.4634" y2="148.379" gradientUnits="userSpaceOnUse" fill="#000000">
<stop offset="0.00359712" stop-color="#E38DDD" fill="#000000"/>
<stop offset="1" stop-color="#9571F6" fill="#000000"/>
</linearGradient>
<linearGradient id="paint17_linear_794_93" x1="198.186" y1="-6.04797" x2="74.6154" y2="145.236" gradientUnits="userSpaceOnUse" fill="#000000">
<stop offset="0.00359712" stop-color="#E38DDD" fill="#000000"/>
<stop offset="1" stop-color="#9571F6" fill="#000000"/>
</linearGradient>
<linearGradient id="paint18_linear_794_93" x1="187.408" y1="-14.8529" x2="63.8372" y2="136.431" gradientUnits="userSpaceOnUse" fill="#000000">
<stop offset="0.00359712" stop-color="#E38DDD" fill="#000000"/>
<stop offset="1" stop-color="#9571F6" fill="#000000"/>
</linearGradient>
<linearGradient id="paint19_linear_794_93" x1="179.35" y1="-21.4337" x2="55.7801" y2="129.85" gradientUnits="userSpaceOnUse" fill="#000000">
<stop offset="0.00359712" stop-color="#E38DDD" fill="#000000"/>
<stop offset="1" stop-color="#9571F6" fill="#000000"/>
</linearGradient>
<linearGradient id="paint20_linear_794_93" x1="223.664" y1="14.7632" x2="100.094" y2="166.047" gradientUnits="userSpaceOnUse" fill="#000000">
<stop offset="0.00359712" stop-color="#E38DDD" fill="#000000"/>
<stop offset="1" stop-color="#9571F6" fill="#000000"/>
</linearGradient>
<linearGradient id="paint21_linear_794_93" x1="218.649" y1="10.6662" x2="95.079" y2="161.95" gradientUnits="userSpaceOnUse" fill="#000000">
<stop offset="0.00359712" stop-color="#E38DDD" fill="#000000"/>
<stop offset="1" stop-color="#9571F6" fill="#000000"/>
</linearGradient>
<linearGradient id="paint22_linear_794_93" x1="260.37" y1="44.7439" x2="136.799" y2="196.028" gradientUnits="userSpaceOnUse" fill="#000000">
<stop offset="0.00359712" stop-color="#E38DDD" fill="#000000"/>
<stop offset="1" stop-color="#9571F6" fill="#000000"/>
</linearGradient>
<linearGradient id="paint23_linear_794_93" x1="274.44" y1="56.2365" x2="150.869" y2="207.52" gradientUnits="userSpaceOnUse" fill="#000000">
<stop offset="0.00359712" stop-color="#E38DDD" fill="#000000"/>
<stop offset="1" stop-color="#9571F6" fill="#000000"/>
</linearGradient>
<linearGradient id="paint24_linear_794_93" x1="276.423" y1="57.8565" x2="152.852" y2="209.14" gradientUnits="userSpaceOnUse" fill="#000000">
<stop offset="0.00359712" stop-color="#E38DDD" fill="#000000"/>
<stop offset="1" stop-color="#9571F6" fill="#000000"/>
</linearGradient>
<linearGradient id="paint25_linear_794_93" x1="265.809" y1="49.1865" x2="142.239" y2="200.47" gradientUnits="userSpaceOnUse" fill="#000000">
<stop offset="0.00359712" stop-color="#E38DDD" fill="#000000"/>
<stop offset="1" stop-color="#9571F6" fill="#000000"/>
</linearGradient>
<linearGradient id="paint26_linear_794_93" x1="349.729" y1="49.3509" x2="68.5958" y2="408.245" gradientUnits="userSpaceOnUse" fill="#000000">
<stop offset="0.00359712" stop-color="#E38DDD" fill="#000000"/>
<stop offset="1" stop-color="#9571F6" fill="#000000"/>
</linearGradient>
<linearGradient id="paint27_linear_794_93" x1="354.738" y1="53.2756" x2="73.6058" y2="412.169" gradientUnits="userSpaceOnUse" fill="#000000">
<stop offset="0.00359712" stop-color="#E38DDD" fill="#000000"/>
<stop offset="1" stop-color="#9571F6" fill="#000000"/>
</linearGradient>
<linearGradient id="paint28_linear_794_93" x1="367.911" y1="63.5921" x2="86.7751" y2="422.49" gradientUnits="userSpaceOnUse" fill="#000000">
<stop offset="0.00359712" stop-color="#E38DDD" fill="#000000"/>
<stop offset="1" stop-color="#9571F6" fill="#000000"/>
</linearGradient>
<linearGradient id="paint29_linear_794_93" x1="355.918" y1="54.196" x2="74.7802" y2="413.096" gradientUnits="userSpaceOnUse" fill="#000000">
<stop offset="0.00359712" stop-color="#E38DDD" fill="#000000"/>
<stop offset="1" stop-color="#9571F6" fill="#000000"/>
</linearGradient>
<linearGradient id="paint30_linear_794_93" x1="344.431" y1="45.198" x2="63.2928" y2="404.099" gradientUnits="userSpaceOnUse" fill="#000000">
<stop offset="0.00359712" stop-color="#E38DDD" fill="#000000"/>
<stop offset="1" stop-color="#9571F6" fill="#000000"/>
</linearGradient>
<linearGradient id="paint31_linear_794_93" x1="336.59" y1="39.0549" x2="55.4523" y2="397.954" gradientUnits="userSpaceOnUse" fill="#000000">
<stop offset="0.00359712" stop-color="#E38DDD" fill="#000000"/>
<stop offset="1" stop-color="#9571F6" fill="#000000"/>
</linearGradient>
<linearGradient id="paint32_linear_794_93" x1="324.325" y1="29.4468" x2="43.1868" y2="388.348" gradientUnits="userSpaceOnUse" fill="#000000">
<stop offset="0.00359712" stop-color="#E38DDD" fill="#000000"/>
<stop offset="1" stop-color="#9571F6" fill="#000000"/>
</linearGradient>
<linearGradient id="paint33_linear_794_93" x1="313.765" y1="21.174" x2="32.6271" y2="380.074" gradientUnits="userSpaceOnUse" fill="#000000">
<stop offset="0.00359712" stop-color="#E38DDD" fill="#000000"/>
<stop offset="1" stop-color="#9571F6" fill="#000000"/>
</linearGradient>
<linearGradient id="paint34_linear_794_93" x1="310.896" y1="45.4005" x2="48.6625" y2="366.446" gradientUnits="userSpaceOnUse" fill="#000000">
<stop offset="0.00359712" stop-color="#E38DDD" fill="#000000"/>
<stop offset="1" stop-color="#9571F6" fill="#000000"/>
</linearGradient>
<linearGradient id="paint35_linear_794_93" x1="315.524" y1="49.1809" x2="53.2893" y2="370.227" gradientUnits="userSpaceOnUse" fill="#000000">
<stop offset="0.00359712" stop-color="#E38DDD" fill="#000000"/>
<stop offset="1" stop-color="#9571F6" fill="#000000"/>
</linearGradient>
<linearGradient id="paint36_linear_794_93" x1="327.717" y1="59.1392" x2="65.4821" y2="380.185" gradientUnits="userSpaceOnUse" fill="#000000">
<stop offset="0.00359712" stop-color="#E38DDD" fill="#000000"/>
<stop offset="1" stop-color="#9571F6" fill="#000000"/>
</linearGradient>
<linearGradient id="paint37_linear_794_93" x1="316.512" y1="49.9868" x2="54.2779" y2="371.032" gradientUnits="userSpaceOnUse" fill="#000000">
<stop offset="0.00359712" stop-color="#E38DDD" fill="#000000"/>
<stop offset="1" stop-color="#9571F6" fill="#000000"/>
</linearGradient>
<linearGradient id="paint38_linear_794_93" x1="305.774" y1="41.2165" x2="43.5393" y2="362.263" gradientUnits="userSpaceOnUse" fill="#000000">
<stop offset="0.00359712" stop-color="#E38DDD" fill="#000000"/>
<stop offset="1" stop-color="#9571F6" fill="#000000"/>
</linearGradient>
<linearGradient id="paint39_linear_794_93" x1="298.402" y1="35.1957" x2="36.1684" y2="356.242" gradientUnits="userSpaceOnUse" fill="#000000">
<stop offset="0.00359712" stop-color="#E38DDD" fill="#000000"/>
<stop offset="1" stop-color="#9571F6" fill="#000000"/>
</linearGradient>
<linearGradient id="paint40_linear_794_93" x1="286.944" y1="25.8361" x2="24.7092" y2="346.883" gradientUnits="userSpaceOnUse" fill="#000000">
<stop offset="0.00359712" stop-color="#E38DDD" fill="#000000"/>
<stop offset="1" stop-color="#9571F6" fill="#000000"/>
</linearGradient>
<linearGradient id="paint41_linear_794_93" x1="277.059" y1="17.762" x2="14.825" y2="338.808" gradientUnits="userSpaceOnUse" fill="#000000">
<stop offset="0.00359712" stop-color="#E38DDD" fill="#000000"/>
<stop offset="1" stop-color="#9571F6" fill="#000000"/>
</linearGradient>
<linearGradient id="paint42_linear_794_93" x1="308.275" y1="235.93" x2="86.0312" y2="273.76" gradientUnits="userSpaceOnUse" fill="#000000">
<stop stop-color="#AA80F9" fill="#000000"/>
<stop offset="0.9964" stop-color="#6165D7" fill="#000000"/>
</linearGradient>
<linearGradient id="paint43_linear_794_93" x1="287.01" y1="173.483" x2="206.438" y2="275.576" gradientUnits="userSpaceOnUse" fill="#000000">
<stop stop-color="#448bff" fill="#000000"/>
<stop offset="0.9964" stop-color="#303ead" fill="#000000"/>
</linearGradient>
<linearGradient id="paint44_linear_794_93" x1="258.749" y1="172.059" x2="222.402" y2="143.251" gradientUnits="userSpaceOnUse" fill="#000000">
<stop stop-color="#0c2bff" fill="#000000"/>
<stop offset="0.9964" stop-color="#26264F" fill="#000000"/>
</linearGradient>
<linearGradient id="paint45_linear_794_93" x1="186.864" y1="115.119" x2="150.515" y2="86.3086" gradientUnits="userSpaceOnUse" fill="#000000">
<stop stop-color="#0c2bff" fill="#000000"/>
<stop offset="0.9964" stop-color="#26264F" fill="#000000"/>
</linearGradient>
<linearGradient id="paint46_linear_794_93" x1="201.193" y1="230.942" x2="230.847" y2="174.791" gradientUnits="userSpaceOnUse" fill="#000000">
<stop stop-color="#448bff" fill="#000000"/>
<stop offset="0.9964" stop-color="#303ead" fill="#000000"/>
</linearGradient>
<linearGradient id="paint47_linear_794_93" x1="121.393" y1="188.799" x2="151.047" y2="132.648" gradientUnits="userSpaceOnUse" fill="#000000">
<stop stop-color="#448bff" fill="#000000"/>
<stop offset="0.9964" stop-color="#303ead" fill="#000000"/>
</linearGradient>
<linearGradient id="paint48_linear_794_93" x1="246.925" y1="119.382" x2="234.027" y2="-23.8851" gradientUnits="userSpaceOnUse" fill="#000000">
<stop stop-color="#448bff" fill="#000000"/>
<stop offset="0.9964" stop-color="#303ead" fill="#000000"/>
</linearGradient>
<linearGradient id="paint49_linear_794_93" x1="257.97" y1="118.388" x2="245.073" y2="-24.8773" gradientUnits="userSpaceOnUse" fill="#000000">
<stop stop-color="#448bff" fill="#000000"/>
<stop offset="0.9964" stop-color="#303ead" fill="#000000"/>
</linearGradient>
<linearGradient id="paint50_linear_794_93" x1="258.327" y1="100.33" x2="271.74" y2="49.4818" gradientUnits="userSpaceOnUse" fill="#000000">
<stop stop-color="#448bff" fill="#000000"/>
<stop offset="0.9964" stop-color="#303ead" fill="#000000"/>
</linearGradient>
<linearGradient id="paint51_linear_794_93" x1="299.497" y1="57.4484" x2="294.665" y2="3.77107" gradientUnits="userSpaceOnUse" fill="#000000">
<stop stop-color="#448bff" fill="#000000"/>
<stop offset="0.9964" stop-color="#303ead" fill="#000000"/>
</linearGradient>
<linearGradient id="paint52_linear_794_93" x1="276.925" y1="91.0754" x2="225.232" y2="50.1047" gradientUnits="userSpaceOnUse" fill="#000000">
<stop offset="0.00359712" stop-color="#EBEFF2" fill="#000000"/>
<stop offset="1" stop-color="white" fill="#000000"/>
</linearGradient>
<linearGradient id="paint53_linear_794_93" x1="276.253" y1="91.9227" x2="224.558" y2="50.9511" gradientUnits="userSpaceOnUse" fill="#000000">
<stop offset="0.00359712" stop-color="#EBEFF2" fill="#000000"/>
<stop offset="1" stop-color="white" fill="#000000"/>
</linearGradient>
<linearGradient id="paint54_linear_794_93" x1="256.129" y1="47.7146" x2="248.135" y2="83.9087" gradientUnits="userSpaceOnUse" fill="#000000">
<stop offset="0.00359712" stop-color="#EBEFF2" fill="#000000"/>
<stop offset="1" stop-color="white" fill="#000000"/>
</linearGradient>
<linearGradient id="paint55_linear_794_93" x1="247.555" y1="121.289" x2="253.564" y2="34.6346" gradientUnits="userSpaceOnUse" fill="#000000">
<stop stop-color="#0c2bff" fill="#000000"/>
<stop offset="0.9964" stop-color="#26264F" fill="#000000"/>
</linearGradient>
<linearGradient id="paint56_linear_794_93" x1="187.699" y1="153.418" x2="202.623" y2="131.291" gradientUnits="userSpaceOnUse" fill="#000000">
<stop stop-color="#448bff" fill="#000000"/>
<stop offset="0.9964" stop-color="#303ead" fill="#000000"/>
</linearGradient>
<linearGradient id="paint57_linear_794_93" x1="215.796" y1="151.49" x2="180.364" y2="123.408" gradientUnits="userSpaceOnUse" fill="#000000">
<stop stop-color="#AA80F9" fill="#000000"/>
<stop offset="0.9964" stop-color="#6165D7" fill="#000000"/>
</linearGradient>
<linearGradient id="paint58_linear_794_93" x1="196.287" y1="134.874" x2="184.234" y2="167.989" gradientUnits="userSpaceOnUse" fill="#000000">
<stop stop-color="#AA80F9" fill="#000000"/>
<stop offset="0.9964" stop-color="#6165D7" fill="#000000"/>
</linearGradient>
<linearGradient id="paint59_linear_794_93" x1="195.505" y1="137.018" x2="186.345" y2="162.185" gradientUnits="userSpaceOnUse" fill="#000000">
<stop stop-color="#0c2bff" fill="#000000"/>
<stop offset="0.9964" stop-color="#26264F" fill="#000000"/>
</linearGradient>
<linearGradient id="paint60_linear_794_93" x1="251.247" y1="121.545" x2="257.256" y2="34.8931" gradientUnits="userSpaceOnUse" fill="#000000">
<stop stop-color="#0c2bff" fill="#000000"/>
<stop offset="0.9964" stop-color="#26264F" fill="#000000"/>
</linearGradient>
<linearGradient id="paint61_linear_794_93" x1="95.266" y1="238.123" x2="164.054" y2="84.6792" gradientUnits="userSpaceOnUse" fill="#000000">
<stop stop-color="#26368a" fill="#000000"/>
<stop offset="1" stop-color="#FB6FBB" fill="#000000"/>
</linearGradient>
<linearGradient id="paint62_linear_794_93" x1="140.408" y1="166.721" x2="152.251" y2="208.308" gradientUnits="userSpaceOnUse" fill="#000000">
<stop stop-color="#AA80F9" fill="#000000"/>
<stop offset="0.9964" stop-color="#6165D7" fill="#000000"/>
</linearGradient>
<linearGradient id="paint63_linear_794_93" x1="66.5162" y1="243.352" x2="45.3568" y2="213.733" gradientUnits="userSpaceOnUse" fill="#000000">
<stop stop-color="#AB316D" fill="#000000"/>
<stop offset="1" stop-color="#792D3D" fill="#000000"/>
</linearGradient>
<linearGradient id="paint64_linear_794_93" x1="56.6844" y1="226.808" x2="83.8575" y2="267.685" gradientUnits="userSpaceOnUse" fill="#000000">
<stop stop-color="#448bff" fill="#000000"/>
<stop offset="0.9964" stop-color="#303ead" fill="#000000"/>
</linearGradient>
<linearGradient id="paint65_linear_794_93" x1="122.126" y1="289.452" x2="143.243" y2="319.101" gradientUnits="userSpaceOnUse" fill="#000000">
<stop stop-color="#AB316D" fill="#000000"/>
<stop offset="1" stop-color="#792D3D" fill="#000000"/>
</linearGradient>
<linearGradient id="paint66_linear_794_93" x1="128.233" y1="303.302" x2="138.688" y2="268.624" gradientUnits="userSpaceOnUse" fill="#000000">
<stop stop-color="#448bff" fill="#000000"/>
<stop offset="0.9964" stop-color="#303ead" fill="#000000"/>
</linearGradient>
<linearGradient id="paint67_linear_794_93" x1="141.531" y1="294.86" x2="125.152" y2="237.363" gradientUnits="userSpaceOnUse" fill="#000000">
<stop stop-color="#448bff" fill="#000000"/>
<stop offset="0.9964" stop-color="#303ead" fill="#000000"/>
</linearGradient>
<linearGradient id="paint68_linear_794_93" x1="138.511" y1="295.721" x2="122.131" y2="238.224" gradientUnits="userSpaceOnUse" fill="#000000">
<stop stop-color="#448bff" fill="#000000"/>
<stop offset="0.9964" stop-color="#303ead" fill="#000000"/>
</linearGradient>
<linearGradient id="paint69_linear_794_93" x1="110.855" y1="253.492" x2="88.4555" y2="212.518" gradientUnits="userSpaceOnUse" fill="#000000">
<stop stop-color="#448bff" fill="#000000"/>
<stop offset="0.9964" stop-color="#303ead" fill="#000000"/>
</linearGradient>
<linearGradient id="paint70_linear_794_93" x1="68.3887" y1="106.802" x2="90.4942" y2="175.583" gradientUnits="userSpaceOnUse" fill="#000000">
<stop stop-color="#0c2bff" fill="#000000"/>
<stop offset="0.9964" stop-color="#26264F" fill="#000000"/>
</linearGradient>
<linearGradient id="paint71_linear_794_93" x1="101.555" y1="171.415" x2="129.745" y2="270.4" gradientUnits="userSpaceOnUse" fill="#000000">
<stop stop-color="#AA80F9" fill="#000000"/>
<stop offset="0.9964" stop-color="#6165D7" fill="#000000"/>
</linearGradient>
<linearGradient id="paint72_linear_794_93" x1="94.3291" y1="173.473" x2="122.518" y2="272.458" gradientUnits="userSpaceOnUse" fill="#000000">
<stop stop-color="#AA80F9" fill="#000000"/>
<stop offset="0.9964" stop-color="#6165D7" fill="#000000"/>
</linearGradient>
<linearGradient id="paint73_linear_794_93" x1="118.283" y1="181.574" x2="129.274" y2="154.712" gradientUnits="userSpaceOnUse" fill="#000000">
<stop stop-color="#448bff" fill="#000000"/>
<stop offset="0.9964" stop-color="#303ead" fill="#000000"/>
</linearGradient>
<linearGradient id="paint74_linear_794_93" x1="121.87" y1="154.858" x2="144.372" y2="178.639" gradientUnits="userSpaceOnUse" fill="#000000">
<stop stop-color="#448bff" fill="#000000"/>
<stop offset="0.9964" stop-color="#303ead" fill="#000000"/>
</linearGradient>
<linearGradient id="paint75_linear_794_93" x1="65.9771" y1="151.725" x2="63.932" y2="189.19" gradientUnits="userSpaceOnUse" fill="#000000">
<stop stop-color="#448bff" fill="#000000"/>
<stop offset="0.9964" stop-color="#303ead" fill="#000000"/>
</linearGradient>
<linearGradient id="paint76_linear_794_93" x1="71.6077" y1="202.116" x2="113.109" y2="202.116" gradientUnits="userSpaceOnUse" fill="#000000">
<stop stop-color="#AA80F9" fill="#000000"/>
<stop offset="0.9964" stop-color="#6165D7" fill="#000000"/>
</linearGradient>
<linearGradient id="paint77_linear_794_93" x1="167.28" y1="155.468" x2="152.702" y2="159.372" gradientUnits="userSpaceOnUse" fill="#000000">
<stop stop-color="#AB316D" fill="#000000"/>
<stop offset="1" stop-color="#792D3D" fill="#000000"/>
</linearGradient>
<linearGradient id="paint78_linear_794_93" x1="147.02" y1="162.654" x2="131.63" y2="166.775" gradientUnits="userSpaceOnUse" fill="#000000">
<stop stop-color="#AB316D" fill="#000000"/>
<stop offset="1" stop-color="#792D3D" fill="#000000"/>
</linearGradient>
<linearGradient id="paint79_linear_794_93" x1="139.823" y1="163.468" x2="142.54" y2="167.536" gradientUnits="userSpaceOnUse" fill="#000000">
<stop stop-color="#448bff" fill="#000000"/>
<stop offset="0.9964" stop-color="#303ead" fill="#000000"/>
</linearGradient>
<linearGradient id="paint80_linear_794_93" x1="157.38" y1="149.21" x2="131.49" y2="187.196" gradientUnits="userSpaceOnUse" fill="#000000">
<stop stop-color="#0c2bff" fill="#000000"/>
<stop offset="0.9964" stop-color="#26264F" fill="#000000"/>
</linearGradient>
<linearGradient id="paint81_linear_794_93" x1="164.18" y1="156.449" x2="171.654" y2="156.449" gradientUnits="userSpaceOnUse" fill="#000000">
<stop stop-color="#AB316D" fill="#000000"/>
<stop offset="1" stop-color="#792D3D" fill="#000000"/>
</linearGradient>
</defs>
</svg>