<svg width="69" height="81" viewBox="0 0 69 81" fill="none" xmlns="http://www.w3.org/2000/svg">
<path d="M61.3739 62.918H56.6581C56.0108 62.918 55.4863 63.4425 55.4863 64.0898C55.4863 64.7371 56.0108 65.2616 56.6581 65.2616H57.8352V72.6064C57.8352 73.2537 58.3597 73.7782 59.007 73.7782C59.6543 73.7782 60.1788 73.2537 60.1788 72.6064V65.2616H61.3738C62.0211 65.2616 62.5455 64.7371 62.5455 64.0898C62.5455 63.4425 62.0212 62.918 61.3739 62.918Z" fill="#282828"/>
<path d="M38.0186 65.3377C38.6659 65.3377 39.1904 64.8132 39.1904 64.1659C39.1904 63.5186 38.6659 62.9941 38.0186 62.9941H34.453C33.8059 62.9941 33.2812 63.5186 33.2812 64.1659V72.6029C33.2812 73.2502 33.8059 73.7747 34.453 73.7747H38.0186C38.6659 73.7747 39.1904 73.2502 39.1904 72.6029C39.1904 71.9556 38.6659 71.4311 38.0186 71.4311H35.6248V69.554H37.7567C38.404 69.554 38.9285 69.0295 38.9285 68.3822C38.9285 67.7349 38.404 67.2104 37.7567 67.2104H35.6248V65.3377H38.0186Z" fill="#282828"/>
<path d="M22.6862 71.4257C22.0658 71.4294 21.4097 71.4322 20.8768 71.4332V64.0898C20.8768 63.4425 20.3521 62.918 19.705 62.918C19.0579 62.918 18.5332 63.4425 18.5332 64.0898V72.5975C18.5332 73.1604 18.9335 73.6437 19.4864 73.7486C19.5788 73.7661 19.6398 73.7779 20.6007 73.7779C21.0605 73.7779 21.7266 73.7752 22.7004 73.7693C23.3476 73.7654 23.8689 73.2376 23.865 72.5903C23.8611 71.943 23.3377 71.4155 22.6862 71.4257Z" fill="#282828"/>
<path d="M28.498 62.957C27.8508 62.957 27.3262 63.4815 27.3262 64.1288V72.6454C27.3262 73.2927 27.8508 73.8172 28.498 73.8172C29.1451 73.8172 29.6698 73.2927 29.6698 72.6454V64.1288C29.6698 63.4815 29.1451 62.957 28.498 62.957Z" fill="#282828"/>
<path d="M14.6497 70.5153C14.1602 70.0922 13.4201 70.1461 12.9969 70.6357C12.9139 70.7318 12.8342 70.8135 12.7522 70.8865C12.345 71.2502 11.8204 71.4346 11.1928 71.4346C9.486 71.4346 8.09734 70.0491 8.09734 68.3457C8.09734 66.6451 9.486 65.2616 11.1928 65.2616C11.8116 65.2616 12.4102 65.4439 12.9239 65.7889C13.4611 66.1495 14.1891 66.0067 14.55 65.4694C14.9108 64.9321 14.7678 64.204 14.2305 63.8432C13.3292 63.2379 12.2788 62.918 11.1929 62.918C8.1939 62.918 5.75391 65.3528 5.75391 68.3457C5.75391 71.3412 8.1939 73.7782 11.1929 73.7782C12.3967 73.7782 13.4757 73.3827 14.3124 72.6356C14.4702 72.495 14.62 72.342 14.7705 72.168C15.1934 71.6783 15.1394 70.9384 14.6497 70.5153Z" fill="#282828"/>
<path d="M50.6249 62.6719C49.9776 62.6719 49.4531 63.1964 49.4531 63.8437V69.3247L45.2076 63.1901C44.916 62.7687 44.3841 62.5855 43.8949 62.7383C43.4057 62.8911 43.0723 63.3442 43.0723 63.8568V72.9271C43.0723 73.5744 43.5968 74.0989 44.2441 74.0989C44.8914 74.0989 45.4159 73.5744 45.4159 72.9271V67.6092L49.4195 73.3941C49.7587 73.8947 50.3313 74.1092 50.8782 73.9418C51.4361 73.7704 51.7967 73.2523 51.7967 72.6215V63.8435C51.7967 63.1965 51.272 62.6719 50.6249 62.6719Z" fill="#282828"/>
<path d="M40.4159 28.0273C41.0632 28.0273 41.5877 27.5028 41.5877 26.8555V25.5136C41.5877 24.8663 41.0632 24.3418 40.4159 24.3418C39.7686 24.3418 39.2441 24.8663 39.2441 25.5136V26.8555C39.2441 27.5028 39.7686 28.0273 40.4159 28.0273Z" fill="#282828"/>
<path d="M27.8808 24.3418C27.2336 24.3418 26.709 24.8663 26.709 25.5136V26.8555C26.709 27.5028 27.2336 28.0273 27.8808 28.0273C28.5279 28.0273 29.0526 27.5028 29.0526 26.8555V25.5136C29.0526 24.8664 28.5279 24.3418 27.8808 24.3418Z" fill="#282828"/>
<path d="M31.6958 34.7432C32.3946 35.1535 33.2711 35.3586 34.1475 35.3586C35.024 35.3586 35.9004 35.1535 36.5992 34.7432C37.1573 34.4154 37.344 33.6975 37.0164 33.1393C36.6884 32.5812 35.9705 32.3943 35.4124 32.7221C34.7506 33.1108 33.5446 33.1108 32.8826 32.7221C32.3248 32.3946 31.6066 32.5812 31.2788 33.1393C30.951 33.6975 31.1377 34.4156 31.6958 34.7432Z" fill="#282828"/>
<path d="M63.2163 56.277H62.3038C61.4094 52.8691 58.5041 47.2699 54.2423 46.2719L42.4262 43.5157V39.05C45.2971 36.9641 47.6692 34.0489 48.9955 31.014C51.148 30.9329 52.9631 29.9589 54.0592 28.2617C55.1501 26.5719 55.2854 24.4336 54.4033 22.8142C53.9131 21.9144 53.173 21.242 52.2375 20.8256C53.6054 19.5462 54.7362 17.7594 55.4612 15.6544C55.6721 15.0426 55.3468 14.3756 54.735 14.165C54.1236 13.9539 53.4563 14.2792 53.2455 14.8912C52.3351 17.5343 50.6415 19.5873 48.7918 20.3178C48.5443 20.3017 48.284 20.2853 48.0113 20.2681C42.8587 19.9435 33.2676 19.3391 27.7188 15.1646C27.4441 14.9577 27.092 14.8821 26.757 14.9579C26.4215 15.0333 26.1361 15.2524 25.9766 15.5569C23.9786 19.3685 22.1115 20.1371 20.5 20.2925V15.977C20.5 9.74541 22.4391 7.15027 27.1932 7.0195C27.5686 7.00919 27.9163 6.81967 28.1281 6.50969C30.0536 3.69409 32.7074 3.99376 37.2328 4.7659C41.2812 5.45632 46.2654 6.30642 51.0807 3.19241C53.2229 5.5135 53.818 8.14927 53.9252 10.0249C53.962 10.6713 54.5203 11.1694 55.1618 11.128C55.808 11.0911 56.3019 10.5374 56.2649 9.89134C56.061 6.32283 54.5886 3.18241 52.0073 0.809131C51.592 0.427437 50.9633 0.395564 50.512 0.733823C46.2477 3.92627 41.8652 3.17835 37.627 2.45574C33.5851 1.76594 29.4113 1.05365 26.547 4.70418C19.0415 5.20946 18.1565 11.3491 18.1565 15.977V20.3445C16.2136 20.4533 14.7104 21.3201 13.8967 22.8141C13.0148 24.4335 13.1498 26.5718 14.2409 28.2614C15.337 29.9589 17.152 30.9327 19.3047 31.0138C20.631 34.0486 23.003 36.9636 25.8738 39.0497V43.5155L14.0572 46.2719C9.80169 47.2673 6.89142 52.8685 5.99288 56.2768H5.08372C2.28063 56.2768 8.02718e-09 58.5528 8.02718e-09 61.3506V75.4165C-0.000156232 78.2166 2.28047 80.4946 5.08357 80.4946H63.2163C66.0194 80.4946 68.3 78.2166 68.3 75.4165V61.3506C68.3 58.5529 66.0195 56.277 63.2163 56.277ZM50.1435 25.9906V22.6938C51.191 22.7817 51.9478 23.2059 52.3451 23.9351C52.8226 24.8117 52.7226 26.011 52.0903 26.9904C51.7586 27.5039 51.0738 28.2592 49.8281 28.5538C50.0336 27.6884 50.1435 26.8285 50.1435 25.9906ZM16.2097 26.9904C15.5774 26.011 15.4773 24.8119 15.9549 23.9351C16.352 23.2059 17.109 22.7816 18.1565 22.6938V25.9906C18.1565 26.8288 18.2666 27.6889 18.4721 28.5546C17.2256 28.2604 16.5414 27.5042 16.2097 26.9904ZM44.6164 46.433L40.4662 51.7165L36.341 49.5006L41.5129 45.7091L44.6164 46.433ZM34.1499 48.201L28.2172 43.8517V40.5046C28.8103 40.8121 29.416 41.0828 30.0313 41.3108C31.5378 41.868 32.8466 42.1276 34.1499 42.1276C35.4484 42.1276 36.7568 41.8683 38.269 41.3106C38.884 41.0828 39.4897 40.8121 40.0825 40.5048V43.8517L34.1499 48.201ZM21.2795 29.6836C21.2559 29.4961 21.1894 29.3239 21.0895 29.1765C20.7107 28.095 20.4999 27.0174 20.4999 25.9907V22.6347C22.6951 22.4572 25.0966 21.5885 27.4044 17.7939C33.537 21.6898 42.7006 22.2821 47.8 22.6033V25.9909C47.8 27.0179 47.5892 28.0959 47.21 29.1775C47.1103 29.3249 47.0439 29.4967 47.0203 29.6841C45.4393 33.6466 41.6443 37.5615 37.4566 39.1125C36.2138 39.5708 35.163 39.7842 34.1499 39.7842C33.1326 39.7842 32.0822 39.5709 30.8448 39.1131C26.6559 37.5614 22.8605 33.6462 21.2795 29.6836ZM26.787 45.7091L31.959 49.5007L27.8338 51.7167L23.6836 46.4331L26.787 45.7091ZM65.9564 75.4165C65.9564 76.9242 64.7273 78.151 63.2163 78.151H5.08357C3.57273 78.151 2.34344 76.9242 2.34344 75.4165V61.3506C2.34344 59.8452 3.57273 58.6204 5.08357 58.6204H31.5612C32.2083 58.6204 32.733 58.0959 32.733 57.4486C32.733 56.8013 32.2083 56.2768 31.5612 56.2768H8.43272C9.3475 53.4017 11.7241 49.2243 14.5901 48.5539L21.1648 47.0204L26.5992 53.9386C26.8279 54.2298 27.1712 54.3867 27.5213 54.3867C27.7096 54.3867 27.8997 54.3412 28.0752 54.247L34.1499 50.9842L40.2248 54.2473C40.4003 54.3415 40.5904 54.387 40.7787 54.387C41.1287 54.387 41.4721 54.2299 41.7008 53.9389L47.1352 47.0207L53.7089 48.5541C56.5803 49.2264 58.9537 53.4033 59.8646 56.2771H36.9829C36.3356 56.2771 35.8111 56.8016 35.8111 57.4489C35.8111 58.0962 36.3356 58.6207 36.9829 58.6207H63.2163C64.7273 58.6207 65.9564 59.8455 65.9564 61.3509V75.4165Z" fill="#282828"/>
</svg>
