<svg width="81" height="81" viewBox="0 0 81 81" fill="none" xmlns="http://www.w3.org/2000/svg">
<g clip-path="url(#clip0_1977_894)">
<path d="M61.3376 31.7305H73.1123C73.3254 31.7303 73.5349 31.7884 73.7202 31.8992C73.9054 32.0099 74.06 32.1693 74.1687 32.3618C75.0514 33.9215 75.5235 35.6994 75.5368 37.5136C75.5501 39.3278 75.104 41.1131 74.2443 42.6868C73.3845 44.2605 72.1419 45.5661 70.6437 46.4699C69.1454 47.3737 67.4454 47.8433 65.7175 47.8306C63.9277 47.8395 62.1712 47.3223 60.6469 46.3375C60.4704 46.2217 60.3248 46.0608 60.2239 45.8697C60.123 45.6787 60.07 45.4638 60.0699 45.2453L60.1187 33.0018C60.1208 32.6638 60.2502 32.3405 60.4785 32.1023C60.7069 31.8641 61.0157 31.7305 61.3376 31.7305ZM65.7175 45.2709C67.6681 45.2687 69.5382 44.4547 70.9182 43.0074C72.2982 41.56 73.0755 39.5974 73.0798 37.5494C73.0775 36.4223 72.8389 35.3095 72.3809 34.2901H62.5484V44.5286C63.5378 45.0242 64.6213 45.278 65.7175 45.2709Z" fill="#282828"/>
<path d="M61.3357 27.25H76.1902C76.4609 27.2543 76.723 27.35 76.9378 27.523L77.1247 27.7022L77.1816 27.779C79.1946 30.371 80.3542 33.5775 80.4871 36.9191C80.6201 40.2606 79.7191 43.5575 77.919 46.3167C76.1189 49.0759 73.5164 51.1491 70.5008 52.2261C67.4852 53.3031 64.2186 53.3262 61.1895 52.2918C59.2785 58.1254 55.4576 63.0576 50.4072 66.2102C45.3568 69.3627 39.4047 70.5309 33.6108 69.5067C27.8168 68.4826 22.5571 65.3325 18.7681 60.6176C14.9792 55.9026 12.907 49.9287 12.9205 43.7597V28.5554C12.9205 28.216 13.0489 27.8905 13.2775 27.6504C13.5061 27.4104 13.8161 27.2756 14.1394 27.2756H61.3357V27.25ZM15.3583 43.8023C15.3655 49.4615 17.3177 54.9279 20.8561 59.1968C24.3945 63.4658 29.2813 66.2505 34.6186 67.0392C39.9559 67.8279 45.385 66.5676 49.9082 63.4899C54.4313 60.4123 57.7446 55.724 59.2392 50.2867V50.2099C59.2358 50.1845 59.2358 50.1586 59.2392 50.1331L59.3042 50.0222L59.4586 49.8857L59.5317 49.8004C59.5573 49.765 59.5874 49.7334 59.6211 49.7065C59.6445 49.6792 59.6719 49.6562 59.7024 49.6383L59.808 49.553L59.8974 49.5103L59.9787 49.4335H60.0762H60.2062H60.5475H60.6775H60.7913H60.8563H60.9294C62.4503 50.1138 64.087 50.4621 65.7401 50.4574C68.0177 50.4468 70.248 49.7739 72.1836 48.5133C74.1191 47.2528 75.6842 45.4538 76.7051 43.316C77.7261 41.1783 78.163 38.7853 77.9674 36.4027C77.7718 34.0201 76.9513 31.7409 75.597 29.8182H22.5337V34.9374C22.5337 35.2769 22.4053 35.6024 22.1767 35.8424C21.9481 36.0824 21.638 36.2173 21.3148 36.2173C20.9915 36.2173 20.6814 36.0824 20.4529 35.8424C20.2243 35.6024 20.0958 35.2769 20.0958 34.9374V29.8182H15.3583V43.8023Z" fill="#282828"/>
<path d="M21.422 38.8756C21.7434 38.906 22.0404 39.0681 22.2488 39.3268C22.4572 39.5855 22.5601 39.92 22.5353 40.2578C22.5353 40.3346 21.9583 47.9367 26.5089 53.3802C29.3368 56.7931 33.5705 58.5848 39.0962 58.8152C39.4195 58.822 39.727 58.9633 39.951 59.2081C40.175 59.453 40.2972 59.7812 40.2908 60.1206C40.2843 60.46 40.1497 60.7829 39.9165 61.0181C39.6834 61.2533 39.3708 61.3816 39.0475 61.3748H38.9987C32.7823 61.1103 27.9635 58.9944 24.6724 55.0781C19.4474 48.8497 20.0731 40.3943 20.1056 40.036C20.1345 39.6992 20.2892 39.3881 20.5358 39.1707C20.7825 38.9533 21.1011 38.8472 21.422 38.8756Z" fill="#282828"/>
<path d="M44.182 2.89262C44.0234 2.82389 43.8803 2.72074 43.7622 2.58993C43.6441 2.45912 43.5537 2.30359 43.4968 2.13353C43.4399 1.96347 43.4179 1.78272 43.4322 1.60311C43.4464 1.42349 43.4967 1.24907 43.5796 1.09125C43.6625 0.933442 43.7763 0.7958 43.9134 0.68734C44.0505 0.578881 44.2078 0.50205 44.3752 0.461879C44.5425 0.421708 44.7161 0.419103 44.8844 0.454233C45.0528 0.489364 45.2122 0.561438 45.3522 0.665737C46.1914 1.18601 46.9154 1.8881 47.4758 2.72522C48.0363 3.56235 48.4205 4.51528 48.6026 5.52051C48.8952 7.80712 47.8957 10.1791 45.6285 12.5595C44.0033 14.2659 43.2557 15.9724 43.3207 17.6788C43.5026 19.424 44.2963 21.0358 45.5472 22.2008C45.7947 22.4183 45.9499 22.73 45.9789 23.0674C46.0078 23.4049 45.9081 23.7407 45.7016 24.0011C45.5886 24.1464 45.446 24.2632 45.2842 24.3429C45.1225 24.4227 44.9458 24.4633 44.7671 24.4618C44.4717 24.4718 44.1829 24.3687 43.9545 24.1717C42.1863 22.5501 41.0782 20.278 40.8585 17.8238C40.7447 15.3666 41.7605 13.0032 43.8732 10.7848C45.5635 9.00162 46.3111 7.37198 46.1567 5.92152C46.0396 5.30273 45.8043 4.71529 45.4649 4.19469C45.1255 3.67409 44.6891 3.23115 44.182 2.89262Z" fill="#282828"/>
<path d="M33.0807 2.89344C32.9414 2.81052 32.8191 2.69962 32.7206 2.56706C32.6222 2.43451 32.5496 2.28289 32.5069 2.12087C32.4643 1.95885 32.4525 1.78959 32.4721 1.62278C32.4918 1.45596 32.5426 1.29484 32.6215 1.14862C32.7005 1.0024 32.8061 0.873943 32.9324 0.770584C33.0586 0.667225 33.203 0.590987 33.3573 0.546223C33.5116 0.501459 33.6728 0.489046 33.8317 0.509692C33.9906 0.530339 34.1441 0.58364 34.2833 0.666554C35.1207 1.18499 35.8436 1.88442 36.4039 2.71846C36.9643 3.55249 37.3494 4.50209 37.5338 5.50427C37.8344 7.79087 36.8349 10.1628 34.5596 12.5433C32.9344 14.2497 32.1868 15.9561 32.2599 17.6625C32.4367 19.4075 33.2279 21.0203 34.4783 22.1846C34.6723 22.3549 34.811 22.5845 34.8752 22.8413C34.9394 23.0981 34.9259 23.3696 34.8366 23.618C34.7473 23.8664 34.5867 24.0796 34.3769 24.2278C34.1671 24.3761 33.9186 24.4522 33.6657 24.4456C33.3701 24.4571 33.0808 24.3538 32.8531 24.1555C31.0786 22.5381 29.9667 20.2643 29.749 17.8076C29.6433 15.3503 30.651 12.9869 32.7637 10.7686C34.4621 8.98537 35.2016 7.35574 35.0472 5.90528C34.9322 5.28904 34.6984 4.704 34.3602 4.18607C34.0221 3.66814 33.5866 3.22826 33.0807 2.89344Z" fill="#282828"/>
<path d="M1.69816 71.0664H73.7928C74.1161 71.0664 74.4261 71.2012 74.6547 71.4413C74.8833 71.6813 75.0117 72.0068 75.0117 72.3462C75.0117 72.6857 74.8833 73.0112 74.6547 73.2512C74.4261 73.4912 74.1161 73.626 73.7928 73.626H71.6556L68.2021 79.8716C68.0934 80.0641 67.9388 80.2235 67.7536 80.3342C67.5683 80.445 67.3588 80.5031 67.1457 80.5029H7.28891C7.06863 80.5037 6.85234 80.4413 6.66333 80.3225C6.47432 80.2037 6.31975 80.0331 6.21626 79.8289L3.03896 73.626H1.69816C1.37489 73.626 1.06485 73.4912 0.836258 73.2512C0.607666 73.0112 0.479248 72.6857 0.479248 72.3462C0.479248 72.0068 0.607666 71.6813 0.836258 71.4413C1.06485 71.2012 1.37489 71.0664 1.69816 71.0664ZM8.02026 77.9433H66.4306L68.8196 73.626H5.80996L8.02026 77.9433Z" fill="#282828"/>
</g>
<defs>
<clipPath id="clip0_1977_894">
<rect width="80" height="80" fill="white" transform="matrix(-1 0 0 1 80.5 0.5)"/>
</clipPath>
</defs>
</svg>
