<svg width="80" height="73" viewBox="0 0 80 73" fill="none" xmlns="http://www.w3.org/2000/svg">
<path d="M73.2812 16.6562H60.4844V11.5312C60.4844 5.17187 55.3125 0.015625 48.9688 0.015625H31.0312C24.6719 0.015625 19.5156 5.1875 19.5156 11.5312V16.6562H6.71875C3.1875 16.6562 0.3125 19.5312 0.3125 23.0625V66.5938C0.3125 70.125 3.1875 73 6.71875 73H13.125H28.8281H51.1875H66.8906H73.2969C76.8281 73 79.7031 70.125 79.7031 66.5938V23.0625C79.6875 19.5312 76.8125 16.6562 73.2812 16.6562ZM22.0781 11.5312C22.0781 6.59375 26.0938 2.5625 31.0469 2.5625H48.9688C53.9062 2.5625 57.9375 6.57812 57.9375 11.5312V16.6562H55.375V11.5312C55.375 8 52.5 5.125 48.9688 5.125H31.0312C27.5 5.125 24.625 8 24.625 11.5312V16.6562H22.0625V11.5312H22.0781ZM52.7969 16.6562H27.2031V11.5312C27.2031 9.40625 28.9219 7.6875 31.0469 7.6875H48.9688C51.0938 7.6875 52.8125 9.40625 52.8125 11.5312V16.6562H52.7969ZM6.71875 19.2188H19.5156H24.6406H55.3594H60.4844H73.2812C75.4062 19.2188 77.125 20.9375 77.125 23.0625V29.4688H65.6094H64.3281H59.2031H57.9219H22.0781H20.7969H15.6719H14.3906H2.875V23.0625C2.875 20.9375 4.59375 19.2188 6.71875 19.2188ZM59.2031 32.0156H64.3281V37.1406H59.2031V32.0156ZM15.6719 32.0156H20.7969V37.1406H15.6719V32.0156ZM31.4844 70.4219C32.1094 66.2812 35.6875 63.0938 40 63.0938C44.3125 63.0938 47.9062 66.2812 48.5156 70.4219H31.4844ZM51.0938 70.4219C50.4531 64.8594 45.7188 60.5312 40 60.5312C34.2656 60.5312 29.5469 64.8594 28.9062 70.4219H15.6719V67.6719L22.1094 66.5938L22.3594 65.8594C22.6406 65.0312 22.9844 64.1875 23.4062 63.3594L23.75 62.6719L19.9531 57.3594L25.6562 51.6562L30.9688 55.4531L31.6562 55.1094C32.4844 54.6875 33.3281 54.3438 34.1562 54.0625L34.8906 53.8125L35.9688 47.375H44.0469L45.125 53.8125L45.8594 54.0625C46.6875 54.3438 47.5312 54.6875 48.3594 55.1094L49.0469 55.4531L54.3594 51.6562L60.0625 57.3594L56.2656 62.6719L56.6094 63.3594C57.0312 64.1875 57.375 65.0312 57.6562 65.8594L57.9062 66.5938L64.3438 67.6719V70.4219H51.0938ZM73.2812 70.4219H66.875V65.5L59.8125 64.3281C59.6406 63.8594 59.4375 63.3906 59.2188 62.9219L63.3906 57.0938L54.6094 48.3125L48.7812 52.4844C48.3125 52.2656 47.8438 52.0781 47.375 51.8906L46.2031 44.8281H33.7969L32.625 51.8906C32.1562 52.0625 31.6875 52.2656 31.2188 52.4844L25.3906 48.3125L16.6094 57.0938L20.7812 62.9219C20.5625 63.3906 20.375 63.8594 20.1875 64.3281L13.125 65.5V70.4219H6.71875C4.59375 70.4219 2.875 68.7031 2.875 66.5781V32.0156H13.1094V39.7031H23.3438V32.0156H56.625V39.7031H66.8594V32.0156H77.0938V66.5781C77.125 68.7031 75.4062 70.4219 73.2812 70.4219Z" fill="#282828"/>
<path d="M33.5938 23.0625H36.1562V25.625H33.5938V23.0625Z" fill="#282828"/>
<path d="M38.7188 23.0625H41.2813V25.625H38.7188V23.0625Z" fill="#282828"/>
<path d="M43.8438 23.0625H46.4062V25.625H43.8438V23.0625Z" fill="#282828"/>
<path d="M38.7188 49.9375H41.2813V52.5H38.7188V49.9375Z" fill="#282828"/>
<path d="M25.0059 59.0664L23.1942 57.2547L25.0059 55.443L26.8175 57.2547L25.0059 59.0664Z" fill="#282828"/>
<path d="M53.1621 57.252L54.9738 55.4403L56.7855 57.252L54.9738 59.0636L53.1621 57.252Z" fill="#282828"/>
</svg>
