<svg width="120" height="120" viewBox="0 0 120 120" fill="none" xmlns="http://www.w3.org/2000/svg">
<circle opacity="0.05" cx="60" cy="60" r="60" fill="#3B68D7"/>
<path d="M63.25 31H55.75C55.06 31 54.5 30.44 54.5 29.75C54.5 29.06 55.06 28.5 55.75 28.5H63.25C63.94 28.5 64.5 29.06 64.5 29.75C64.5 30.44 63.94 31 63.25 31Z" fill="#3B68D7"/>
<path d="M73.25 98.5H45.75C42.3025 98.5 39.5 95.695 39.5 92.25V49.75C39.5 49.06 40.06 48.5 40.75 48.5C41.44 48.5 42 49.06 42 49.75V92.25C42 94.3175 43.6825 96 45.75 96H73.25C75.3175 96 77 94.3175 77 92.25V49.75C77 49.06 77.56 48.5 78.25 48.5C78.94 48.5 79.5 49.06 79.5 49.75V92.25C79.5 95.695 76.6975 98.5 73.25 98.5Z" fill="#3B68D7"/>
<path d="M78.25 58.5C77.56 58.5 77 57.94 77 57.25V29.75C77 27.6825 75.3175 26 73.25 26H45.75C43.6825 26 42 27.6825 42 29.75V57.25C42 57.94 41.44 58.5 40.75 58.5C40.06 58.5 39.5 57.94 39.5 57.25V29.75C39.5 26.305 42.3025 23.5 45.75 23.5H73.25C76.6975 23.5 79.5 26.305 79.5 29.75V57.25C79.5 57.94 78.94 58.5 78.25 58.5Z" fill="#3B68D7"/>
<path fill-rule="evenodd" clip-rule="evenodd" d="M79.5 57.25V92.25C79.5 95.695 76.6975 98.5 73.25 98.5H45.75C42.3025 98.5 39.5 95.695 39.5 92.25V57.25V49.75V29.75C39.5 26.305 42.3025 23.5 45.75 23.5H73.25C76.6975 23.5 79.5 26.305 79.5 29.75V49.75V57.25ZM42 49.75V57.25V92.25C42 94.3175 43.6825 96 45.75 96H73.25C75.3175 96 77 94.3175 77 92.25V57.25V49.75V29.75C77 27.6825 75.3175 26 73.25 26H45.75C43.6825 26 42 27.6825 42 29.75V49.75Z" fill="#3B68D7"/>
<path d="M85.75 36.125C85.06 36.125 84.5 35.69 84.5 35V34.75C84.5 34.06 85.06 33.5 85.75 33.5C86.44 33.5 87 34.06 87 34.75C87 35.44 86.44 36.125 85.75 36.125Z" fill="#3B68D7"/>
<path d="M85.75 41.125C85.06 41.125 84.5 40.69 84.5 40V39.75C84.5 39.06 85.06 38.5 85.75 38.5C86.44 38.5 87 39.06 87 39.75C87 40.44 86.44 41.125 85.75 41.125Z" fill="#3B68D7"/>
<path d="M85.75 46.125C85.06 46.125 84.5 45.69 84.5 45V44.75C84.5 44.06 85.06 43.5 85.75 43.5C86.44 43.5 87 44.06 87 44.75C87 45.44 86.44 46.125 85.75 46.125Z" fill="#3B68D7"/>
<path d="M33.25 78.375C32.56 78.375 32 77.94 32 77.25V77C32 76.31 32.56 75.75 33.25 75.75C33.94 75.75 34.5 76.31 34.5 77C34.5 77.69 33.94 78.375 33.25 78.375Z" fill="#3B68D7"/>
<path d="M33.25 83.375C32.56 83.375 32 82.94 32 82.25V82C32 81.31 32.56 80.75 33.25 80.75C33.94 80.75 34.5 81.31 34.5 82C34.5 82.69 33.94 83.375 33.25 83.375Z" fill="#3B68D7"/>
<path d="M33.25 88.375C32.56 88.375 32 87.94 32 87.25V87C32 86.31 32.56 85.75 33.25 85.75C33.94 85.75 34.5 86.31 34.5 87C34.5 87.69 33.94 88.375 33.25 88.375Z" fill="#3B68D7"/>
<path d="M81.6025 88.5C81.515 88.5 81.425 88.4925 81.3375 88.4725C80.6625 88.3275 80.235 87.6625 80.38 86.9875L81.205 83.1625C81.305 82.6925 81.6675 82.325 82.1325 82.2125C83.3125 81.9275 84.4625 81.4475 85.55 80.785C85.9525 80.535 86.47 80.5425 86.8725 80.7975L89.3475 82.38L90.88 80.835L89.2975 78.38C89.0375 77.9775 89.0325 77.46 89.28 77.0525C89.9425 75.965 90.4225 74.815 90.705 73.635C90.8175 73.17 91.1825 72.81 91.65 72.705L94.5 72.0725V69.93L91.6525 69.2975C91.185 69.1925 90.82 68.8325 90.7075 68.3675C90.425 67.1875 89.9425 66.0375 89.2825 64.95C89.0325 64.5425 89.0375 64.0275 89.2975 63.625L90.8825 61.1475L89.3525 59.6175L86.875 61.2025C86.4725 61.46 85.9575 61.465 85.5525 61.215C84.4625 60.5525 83.3125 60.0725 82.135 59.7875C81.6675 59.675 81.3075 59.305 81.2075 58.8375L80.5925 56H79.5C78.81 56 78.25 55.44 78.25 54.75C78.25 54.06 78.81 53.5 79.5 53.5H81.6C82.1875 53.5 82.6975 53.9125 82.82 54.4875L83.4875 57.57C84.4025 57.8475 85.3 58.2225 86.165 58.69L88.85 56.9725C89.345 56.6575 89.99 56.7275 90.4075 57.1425L93.36 60.0925C93.775 60.5075 93.845 61.155 93.5275 61.65L91.81 64.335C92.2775 65.2025 92.6525 66.1 92.93 67.0175L96.0175 67.7025C96.5925 67.83 97 68.34 97 68.925V73.075C97 73.66 96.5925 74.17 96.02 74.295L92.9325 74.98C92.655 75.8975 92.28 76.795 91.8125 77.66L93.5275 80.32C93.8475 80.8125 93.78 81.4625 93.365 81.8775L90.4125 84.8525C89.995 85.27 89.3475 85.34 88.8525 85.025L86.1675 83.3075C85.3 83.775 84.405 84.15 83.49 84.4275L82.8225 87.51C82.695 88.1 82.175 88.5 81.6025 88.5Z" fill="#3B68D7"/>
<path d="M82.9784 77.445C82.5784 77.445 82.1834 77.25 81.9409 76.8925C81.5559 76.32 81.7084 75.5425 82.2834 75.1575C83.6709 74.2225 84.5009 72.6675 84.5009 71C84.5009 68.2425 82.2584 66 79.5009 66C79.1609 66 78.8234 66.035 78.5009 66.1C77.8309 66.235 77.1634 65.805 77.0234 65.125C76.8859 64.4475 77.3209 63.7875 77.9984 63.65C78.4884 63.5525 78.9934 63.5 79.5009 63.5C83.6359 63.5 87.0009 66.865 87.0009 71C87.0009 73.5025 85.7584 75.8325 83.6734 77.2325C83.4609 77.375 83.2184 77.445 82.9784 77.445Z" fill="#3B68D7"/>
<path d="M39.5 58.4993C35.365 58.4993 32 55.1343 32 50.9992C32 48.4867 33.25 46.1542 35.345 44.7542C35.9125 44.3742 36.6925 44.5242 37.0775 45.1017C37.46 45.6742 37.305 46.4517 36.73 46.8342C35.335 47.7692 34.5 49.3242 34.5 50.9992C34.5 53.7568 36.7425 55.9993 39.5 55.9993C39.835 55.9993 40.165 55.9668 40.48 55.9018C41.1425 55.7643 41.815 56.2017 41.9525 56.8817C42.09 57.5592 41.65 58.2168 40.9725 58.3518C40.495 58.4493 40.005 58.4993 39.5 58.4993Z" fill="#3B68D7"/>
<path d="M39.5 68.4999H37.4C36.8125 68.4999 36.3025 68.0874 36.18 67.5124L35.5125 64.4299C34.5975 64.1524 33.7 63.7774 32.835 63.3099L30.15 65.0274C29.6525 65.3424 29.01 65.2749 28.5925 64.8574L25.64 61.9074C25.225 61.4924 25.155 60.8449 25.4725 60.3499L27.19 57.6649C26.7225 56.7974 26.3475 55.8999 26.07 54.9824L22.9825 54.2974C22.4075 54.1699 22 53.6599 22 53.0749V48.9249C22 48.3399 22.4075 47.8299 22.98 47.7049L26.0675 47.0199C26.345 46.1024 26.72 45.2049 27.1875 44.3399L25.475 41.6774C25.155 41.1849 25.2225 40.5349 25.6375 40.1199L28.59 37.1449C29.0025 36.7249 29.6525 36.6549 30.15 36.9724L32.835 38.6899C33.7025 38.2224 34.5975 37.8474 35.5125 37.5699L36.18 34.4874C36.325 33.8099 37.0025 33.3799 37.665 33.5299C38.34 33.6749 38.7675 34.3399 38.6225 35.0149L37.7975 38.8399C37.6975 39.3099 37.335 39.6774 36.87 39.7899C35.69 40.0749 34.54 40.5549 33.45 41.2174C33.045 41.4674 32.53 41.4599 32.1275 41.2049L29.6525 39.6224L28.1175 41.1674L29.7 43.6224C29.9625 44.0249 29.9675 44.5424 29.7175 44.9499C29.055 46.0374 28.575 47.1874 28.2925 48.3674C28.18 48.8324 27.815 49.1924 27.3475 49.2974L24.5 49.9274V52.0699L27.3475 52.7024C27.815 52.8074 28.18 53.1674 28.2925 53.6324C28.575 54.8124 29.0575 55.9624 29.7175 57.0499C29.9675 57.4574 29.9625 57.9724 29.7025 58.3749L28.1175 60.8499L29.6475 62.3799L32.125 60.7949C32.5275 60.5399 33.045 60.5349 33.4475 60.7824C34.5375 61.4449 35.6875 61.9249 36.865 62.2099C37.3325 62.3224 37.6925 62.6924 37.7925 63.1599L38.4075 65.9999H39.5C40.19 65.9999 40.75 66.5599 40.75 67.2499C40.75 67.9399 40.19 68.4999 39.5 68.4999Z" fill="#3B68D7"/>
<path d="M58.2503 67.2503C58.1503 67.2503 58.0503 67.2378 57.9478 67.2128C57.2753 67.0453 56.8703 66.3678 57.0378 65.6978L59.5378 55.6978C59.7028 55.0253 60.3703 54.6203 61.0528 54.7878C61.7253 54.9553 62.1303 55.6328 61.9628 56.3028L59.4628 66.3028C59.3228 66.8728 58.8128 67.2503 58.2503 67.2503Z" fill="#3B68D7"/>
<path d="M65.7506 67.2501C65.4306 67.2501 65.1106 67.1276 64.8656 66.8851C64.3781 66.3976 64.3781 65.6051 64.8656 65.1176L68.9831 61.0001L64.8681 56.8851C64.3806 56.3976 64.3806 55.6051 64.8681 55.1176C65.3556 54.6301 66.1481 54.6301 66.6356 55.1176L71.6356 60.1176C72.1231 60.6051 72.1231 61.3976 71.6356 61.8851L66.6356 66.8851C66.3906 67.1276 66.0706 67.2501 65.7506 67.2501Z" fill="#3B68D7"/>
<path d="M53.2506 67.2501C52.9306 67.2501 52.6106 67.1276 52.3656 66.8851L47.3656 61.8851C46.8781 61.3976 46.8781 60.6051 47.3656 60.1176L52.3656 55.1176C52.8531 54.6301 53.6456 54.6301 54.1331 55.1176C54.6206 55.6051 54.6206 56.3976 54.1331 56.8851L50.0181 61.0001L54.1331 65.1151C54.6206 65.6026 54.6206 66.3951 54.1331 66.8826C53.8906 67.1276 53.5706 67.2501 53.2506 67.2501Z" fill="#3B68D7"/>
</svg>
