<svg width="81" height="81" viewBox="0 0 81 81" fill="none" xmlns="http://www.w3.org/2000/svg">
<path d="M63.4452 17.0312H63.3125V14.3891C63.3082 14.2616 63.2786 14.1364 63.2254 14.0205C63.1722 13.9046 63.0965 13.8005 63.0027 13.7142L51.633 2.76266C51.4537 2.59391 51.2168 2.49996 50.9706 2.5H16.3906C14.8322 2.5011 13.3377 3.11924 12.2338 4.21925C11.1299 5.31926 10.5066 6.81163 10.5 8.37V67.8387C10.505 69.4014 11.1266 70.8989 12.2296 72.0058C13.3326 73.1128 14.828 73.7396 16.3906 73.75H18.4455C18.5044 75.2645 19.1486 76.6971 20.2424 77.7463C21.3363 78.7954 22.7945 79.3793 24.3102 79.375H63.4452C64.2123 79.3728 64.9715 79.219 65.6791 78.9225C66.3866 78.6259 67.0286 78.1924 67.568 77.6469C68.1075 77.1014 68.5338 76.4546 68.8224 75.7438C69.1111 75.033 69.2564 74.2722 69.25 73.505V22.8658C69.2557 22.1005 69.1097 21.3416 68.8204 20.6331C68.5311 19.9246 68.1042 19.2804 67.5644 18.7379C67.0246 18.1953 66.3827 17.7651 65.6756 17.4722C64.9686 17.1793 64.2105 17.0294 63.4452 17.0312ZM51.9062 5.64375L60.032 13.4375H51.9062V5.64375ZM16.3906 71.875C15.3251 71.8651 14.3063 71.4361 13.5547 70.6806C12.8032 69.9252 12.3793 68.9042 12.375 67.8386V8.37C12.3809 7.30872 12.8066 6.29291 13.559 5.54439C14.3113 4.79588 15.3293 4.37548 16.3906 4.375H50.0312V14.4145C50.0323 14.5357 50.0576 14.6554 50.1057 14.7666C50.1538 14.8778 50.2237 14.9782 50.3113 15.0619C50.3988 15.1457 50.5023 15.211 50.6156 15.254C50.7288 15.297 50.8495 15.3169 50.9706 15.3125H61.4375V67.8386C61.4274 68.9069 60.9982 69.9284 60.2424 70.6834C59.4865 71.4383 58.4644 71.8662 57.3961 71.875H16.3906ZM67.375 73.505C67.3817 74.026 67.2851 74.5432 67.0908 75.0266C66.8965 75.5101 66.6083 75.9503 66.2429 76.3217C65.8775 76.6932 65.4421 76.9886 64.9619 77.1908C64.4817 77.393 63.9662 77.4981 63.4452 77.5H24.3102C23.2944 77.4945 22.3185 77.1047 21.5783 76.4091C20.8382 75.7134 20.3888 74.7634 20.3205 73.75H57.3961C58.9615 73.7407 60.4602 73.115 61.5675 72.0086C62.6749 70.9021 63.3018 69.404 63.3125 67.8386V18.9062H63.4452C63.9643 18.9041 64.4787 19.0053 64.9584 19.2039C65.4381 19.4026 65.8735 19.6946 66.2392 20.0631C66.6049 20.4316 66.8937 20.8692 67.0887 21.3503C67.2837 21.8315 67.381 22.3466 67.375 22.8658V73.505Z" fill="#282828"/>
<path d="M21.541 49.6875C21.2924 49.6875 21.0539 49.7863 20.8781 49.9621C20.7023 50.1379 20.6035 50.3764 20.6035 50.625C20.6035 50.8736 20.7023 51.1121 20.8781 51.2879C21.0539 51.4637 21.2924 51.5625 21.541 51.5625H41.0655C41.3142 51.5625 41.5526 51.4637 41.7285 51.2879C41.9043 51.1121 42.003 50.8736 42.003 50.625C42.003 50.3764 41.9043 50.1379 41.7285 49.9621C41.5526 49.7863 41.3142 49.6875 41.0655 49.6875H21.541Z" fill="#282828"/>
<path d="M52.2555 55.625H21.541C21.2924 55.625 21.0539 55.7238 20.8781 55.8996C20.7023 56.0754 20.6035 56.3139 20.6035 56.5625C20.6035 56.8111 20.7023 57.0496 20.8781 57.2254C21.0539 57.4012 21.2924 57.5 21.541 57.5H52.2555C52.5042 57.5 52.7426 57.4012 52.9185 57.2254C53.0943 57.0496 53.193 56.8111 53.193 56.5625C53.193 56.3139 53.0943 56.0754 52.9185 55.8996C52.7426 55.7238 52.5042 55.625 52.2555 55.625Z" fill="#282828"/>
<path d="M47.8477 61.4062H21.541C21.2924 61.4062 21.0539 61.505 20.8781 61.6808C20.7023 61.8567 20.6035 62.0951 20.6035 62.3438C20.6035 62.5924 20.7023 62.8308 20.8781 63.0067C21.0539 63.1825 21.2924 63.2812 21.541 63.2812H47.8477C48.0964 63.2812 48.3348 63.1825 48.5106 63.0067C48.6865 62.8308 48.7852 62.5924 48.7852 62.3438C48.7852 62.0951 48.6865 61.8567 48.5106 61.6808C48.3348 61.505 48.0964 61.4062 47.8477 61.4062Z" fill="#282828"/>
<path d="M34.5774 43.8741C36.7281 43.8743 38.854 43.4152 40.8129 42.5275C42.7718 41.6397 44.5184 40.3438 45.936 38.7264C47.3535 37.109 48.4092 35.2075 49.0324 33.1491C49.6557 31.0908 49.8321 28.923 49.5498 26.7909C49.2675 24.6589 48.5331 22.6117 47.3957 20.7865C46.2583 18.9612 44.7441 17.3999 42.9545 16.2072C41.1649 15.0144 39.1412 14.2176 37.0188 13.8702C34.8964 13.5228 32.7242 13.6327 30.6477 14.1927L30.1435 12.6797C30.0812 12.4931 29.9618 12.3308 29.8021 12.2158C29.6425 12.1008 29.4507 12.039 29.254 12.0391C26.1598 12.0395 23.1925 13.269 21.0048 15.457C18.817 17.6451 17.5879 20.6125 17.5879 23.7067C17.5878 23.9035 17.6497 24.0952 17.7646 24.2549C17.8796 24.4145 18.0419 24.5339 18.2285 24.5962L19.9149 25.1588C19.3667 27.3829 19.3316 29.7026 19.8124 31.9423C20.2931 34.1819 21.2771 36.2829 22.6898 38.0861C24.1025 39.8893 25.9069 41.3475 27.9665 42.3502C30.026 43.353 32.2867 43.8741 34.5774 43.8741ZM34.5774 15.5469C37.3222 15.5476 39.9988 16.4025 42.2358 17.9929C44.4728 19.5834 46.1595 21.8306 47.0618 24.4229C47.9641 27.0151 48.0373 29.8239 47.2713 32.4597C46.5053 35.0954 44.938 37.4274 42.7869 39.1323C40.6357 40.8372 38.0074 41.8303 35.2663 41.9741C32.5253 42.1178 29.8075 41.4049 27.4898 39.9344C25.1722 38.4638 23.3697 36.3085 22.3322 33.7673C21.2947 31.2261 21.0738 28.4251 21.7001 25.7527L34.3227 29.9594C34.4879 30.0144 34.6652 30.0224 34.8346 29.9824C35.004 29.9424 35.159 29.856 35.2821 29.7328C35.4052 29.6097 35.4916 29.4547 35.5316 29.2853C35.5716 29.1158 35.5636 28.9386 35.5085 28.7734L31.2416 15.9744C32.3308 15.6904 33.4518 15.5468 34.5774 15.5472V15.5469ZM19.4846 23.0384C19.6466 20.678 20.6574 18.4559 22.3304 16.7828C24.0034 15.1097 26.2254 14.0987 28.5859 13.9366L33.1368 27.5884L19.4846 23.0384Z" fill="#282828"/>
<path d="M15.5 7.27734C15.2514 7.27734 15.0129 7.37612 14.8371 7.55193C14.6613 7.72775 14.5625 7.9662 14.5625 8.21484V8.88672C14.5625 9.13536 14.6613 9.37382 14.8371 9.54963C15.0129 9.72545 15.2514 9.82422 15.5 9.82422C15.7486 9.82422 15.9871 9.72545 16.1629 9.54963C16.3387 9.37382 16.4375 9.13536 16.4375 8.88672V8.21484C16.4375 7.9662 16.3387 7.72775 16.1629 7.55193C15.9871 7.37612 15.7486 7.27734 15.5 7.27734Z" fill="#282828"/>
<path d="M15.5 11.2305C15.2514 11.2305 15.0129 11.3292 14.8371 11.5051C14.6613 11.6809 14.5625 11.9193 14.5625 12.168V23.418C14.5625 23.6666 14.6613 23.9051 14.8371 24.0809C15.0129 24.2567 15.2514 24.3555 15.5 24.3555C15.7486 24.3555 15.9871 24.2567 16.1629 24.0809C16.3387 23.9051 16.4375 23.6666 16.4375 23.418V12.168C16.4375 11.9193 16.3387 11.6809 16.1629 11.5051C15.9871 11.3292 15.7486 11.2305 15.5 11.2305Z" fill="#282828"/>
</svg>
