<svg width="71" height="81" viewBox="0 0 71 81" fill="none" xmlns="http://www.w3.org/2000/svg">
<path d="M48.7904 33.908C50.1234 32.5886 50.9507 30.7595 50.9507 28.7403C50.9507 24.7296 47.6871 21.4668 43.6757 21.4668C40.5846 21.4668 37.8449 23.4263 36.8219 26.2978C36.3932 26.2187 35.9521 26.1753 35.5007 26.1753C35.0492 26.1753 34.6083 26.2187 34.1794 26.2978C33.1564 23.4262 30.4166 21.4668 27.3256 21.4668C23.3142 21.4668 20.0506 24.7296 20.0506 28.7403C20.0506 30.7595 20.8781 32.5886 22.211 33.908C19.0135 35.7294 16.9551 39.1785 16.9551 42.9296C16.9551 43.5769 17.4798 44.1015 18.127 44.1015C18.7742 44.1015 19.2988 43.5769 19.2988 42.9296C19.2988 39.6166 21.3731 36.6081 24.4647 35.4283C25.3434 35.8056 26.3104 36.0153 27.3258 36.0153C27.773 36.0153 28.2158 35.9722 28.6492 35.8922C29.0197 36.9283 29.6181 37.8564 30.3847 38.6158C27.1581 40.4427 25.1304 43.8663 25.1304 47.6385C25.1304 48.2859 25.6551 48.8104 26.3023 48.8104C26.9495 48.8104 27.4742 48.2859 27.4742 47.6385C27.4742 44.4052 29.3986 41.5019 32.3767 40.2422C32.4564 40.2085 32.53 40.1664 32.5978 40.1185C33.4877 40.5074 34.4691 40.7246 35.5007 40.7246C36.5163 40.7246 37.4835 40.5147 38.3622 40.1372C41.4524 41.3171 43.5271 44.3287 43.5271 47.6385C43.5271 48.2859 44.0518 48.8104 44.699 48.8104C45.3462 48.8104 45.8709 48.2859 45.8709 47.6385C45.8709 43.8908 43.812 40.4389 40.6154 38.6169C41.3826 37.8574 41.9815 36.9288 42.3521 35.8922C42.7857 35.9722 43.2284 36.0153 43.6755 36.0153C44.6909 36.0153 45.6579 35.8056 46.5365 35.4283C49.6281 36.6081 51.7023 39.6163 51.7023 42.9296C51.7023 43.5769 52.227 44.1015 52.8742 44.1015C53.5214 44.1015 54.0461 43.5769 54.0461 42.9296C54.0464 39.1783 51.9879 35.7294 48.7904 33.908ZM28.2262 33.45C28.2262 33.4961 28.2289 33.5414 28.2297 33.5872C27.9345 33.6422 27.6322 33.6716 27.3258 33.6716C24.6067 33.6716 22.3945 31.4595 22.3945 28.7403C22.3945 26.0221 24.6067 23.8106 27.3258 23.8106C29.4236 23.8106 31.2819 25.1417 31.9734 27.0907C29.7406 28.3342 28.2262 30.7181 28.2262 33.45ZM30.57 33.45C30.57 30.7312 32.7819 28.5192 35.5008 28.5192C38.2197 28.5192 40.4316 30.7311 40.4316 33.45C40.4316 36.1689 38.2197 38.3808 35.5008 38.3808C32.7819 38.3808 30.57 36.1688 30.57 33.45ZM42.7718 33.5872C42.7726 33.5414 42.7752 33.4959 42.7752 33.45C42.7752 30.7181 41.2608 28.3343 39.028 27.0909C39.7196 25.1418 41.5779 23.8107 43.6757 23.8107C46.3948 23.8107 48.607 26.0221 48.607 28.7404C48.607 31.4595 46.3948 33.6717 43.6757 33.6717C43.3693 33.6716 43.0669 33.6422 42.7718 33.5872Z" fill="#282828"/>
<path d="M65.8491 51.1467V29.8455C68.7702 29.2942 70.9871 26.7248 70.9871 23.6459C70.9871 20.1662 68.1563 17.3354 64.6766 17.3354C62.7642 17.3354 61.049 18.1917 59.8909 19.5395L41.4553 8.89489C41.6845 8.24192 41.8108 7.54067 41.8108 6.81019C41.8108 3.3308 38.98 0.5 35.5004 0.5C32.0209 0.5 29.1899 3.3308 29.1899 6.81035C29.1899 7.54082 29.316 8.24192 29.5454 8.89505L11.1098 19.5395C9.9517 18.1917 8.23653 17.3354 6.32418 17.3354C2.84447 17.3354 0.0136719 20.1662 0.0136719 23.6459C0.0136719 26.7248 2.23056 29.2941 5.15167 29.8455V51.1467C2.23056 51.698 0.0136719 54.2673 0.0136719 57.3463C0.0136719 60.826 2.84447 63.6568 6.32418 63.6568C8.23356 63.6568 9.94623 62.8032 11.1044 61.4591L29.5453 72.1056C29.316 72.7584 29.1899 73.4595 29.1899 74.1896C29.1899 77.6694 32.0207 80.5002 35.5004 80.5002C38.9802 80.5002 41.8109 77.6694 41.8109 74.1896C41.8109 73.4595 41.6849 72.7584 41.4556 72.1056L59.8965 61.4591C61.0547 62.8033 62.7673 63.6568 64.6767 63.6568C68.1564 63.6568 70.9872 60.826 70.9872 57.3463C70.9871 54.2672 68.77 51.698 65.8491 51.1467ZM64.6766 19.6792C66.8638 19.6792 68.6433 21.4587 68.6433 23.6459C68.6433 25.8331 66.8638 27.6127 64.6766 27.6127C62.4894 27.6127 60.7098 25.8331 60.7098 23.6459C60.7098 21.4587 62.4894 19.6792 64.6766 19.6792ZM35.5004 2.84376C37.6876 2.84376 39.4672 4.62315 39.4672 6.81035C39.4672 8.99552 37.6909 10.7737 35.5065 10.7769C35.5045 10.7769 35.5025 10.7766 35.5004 10.7766C35.4984 10.7766 35.4964 10.7769 35.4944 10.7769C33.31 10.7737 31.5337 8.99552 31.5337 6.81035C31.5337 4.62315 33.3131 2.84376 35.5004 2.84376ZM2.35744 23.6459C2.35744 21.4587 4.13698 19.6792 6.32418 19.6792C8.51138 19.6792 10.2909 21.4587 10.2909 23.6459C10.2909 25.8331 8.51138 27.6127 6.32418 27.6127C4.13698 27.6127 2.35744 25.8331 2.35744 23.6459ZM6.32418 61.3129C4.13698 61.3129 2.35744 59.5333 2.35744 57.3461C2.35744 55.1589 4.13698 53.3794 6.32418 53.3794C8.51138 53.3794 10.2909 55.1589 10.2909 57.3461C10.2909 59.5333 8.51138 61.3129 6.32418 61.3129ZM35.5004 78.1562C33.3132 78.1562 31.5337 76.3767 31.5337 74.1895C31.5337 72.0023 33.3132 70.2227 35.5004 70.2227C37.6876 70.2227 39.4672 72.0023 39.4672 74.1895C39.4672 76.3767 37.6876 78.1562 35.5004 78.1562ZM40.2809 70.0773C39.3658 69.0148 38.1041 68.2599 36.6722 67.9899V63.4752C36.6722 62.8279 36.1475 62.3033 35.5003 62.3033C34.8531 62.3033 34.3284 62.8279 34.3284 63.4752V67.9899C32.8967 68.2601 31.635 69.0148 30.7196 70.0773L12.2791 59.431C12.5084 58.7778 12.6345 58.0767 12.6345 57.3463C12.6345 56.6152 12.5081 55.9133 12.2784 55.2597L16.1894 53.0011C16.7499 52.6773 16.9417 51.9606 16.6181 51.4001C16.2945 50.8397 15.5778 50.6479 15.0172 50.9714L11.1028 53.232C10.1876 52.1705 8.92638 51.4164 7.49528 51.1465V29.8456C8.92685 29.5758 10.1884 28.8213 11.1036 27.7592L15.0233 30.0228C15.2078 30.1294 15.4094 30.18 15.6083 30.18C16.0131 30.18 16.407 29.9699 16.6241 29.5941C16.9478 29.0336 16.7558 28.3167 16.1953 27.9931L12.2786 25.7312C12.508 25.078 12.6342 24.3765 12.6342 23.6459C12.6342 22.9184 12.5091 22.22 12.2814 21.5692L30.7196 10.923C31.6348 11.9852 32.8964 12.7399 34.3279 13.0099V17.5251C34.3279 18.1724 34.8526 18.697 35.4998 18.697C36.147 18.697 36.6717 18.1724 36.6717 17.5251V13.0099C38.1033 12.7399 39.3648 11.9852 40.28 10.923L58.7182 21.5692C58.4907 22.22 58.3654 22.9184 58.3654 23.6459C58.3654 24.3765 58.4917 25.078 58.721 25.7312L54.8043 27.9931C54.2438 28.3167 54.0518 29.0336 54.3756 29.5941C54.5926 29.9699 54.9865 30.18 55.3913 30.18C55.5901 30.18 55.7918 30.1294 55.9763 30.0228L59.8961 27.7592C60.8114 28.8213 62.0729 29.5758 63.5044 29.8456V51.1465C62.0733 51.4164 60.8122 52.1705 59.8968 53.232L55.9824 50.9714C55.422 50.6483 54.7052 50.8397 54.3815 51.4001C54.0577 51.9606 54.2498 52.6773 54.8102 53.0011L58.7212 55.2597C58.4915 55.9133 58.3651 56.6152 58.3651 57.3463C58.3651 58.0767 58.4912 58.778 58.7206 59.431L40.2809 70.0773ZM64.6766 61.3129C62.4894 61.3129 60.7098 59.5333 60.7098 57.3461C60.7098 55.1589 62.4894 53.3794 64.6766 53.3794C66.8638 53.3794 68.6433 55.1589 68.6433 57.3461C68.6433 59.5333 66.8638 61.3129 64.6766 61.3129Z" fill="#282828"/>
<path d="M45.3156 52.6074H41.8281C41.1809 52.6074 40.6562 53.132 40.6562 53.7793C40.6562 54.4266 41.1809 54.9512 41.8281 54.9512H45.3156C45.9628 54.9512 46.4875 54.4266 46.4875 53.7793C46.4875 53.132 45.9628 52.6074 45.3156 52.6074Z" fill="#282828"/>
<path d="M45.3163 57.1973H25.6855C25.0384 57.1973 24.5137 57.7218 24.5137 58.3691C24.5137 59.0165 25.0384 59.541 25.6855 59.541H45.3165C45.9637 59.541 46.4884 59.0165 46.4884 58.3691C46.4884 57.7218 45.9635 57.1973 45.3163 57.1973Z" fill="#282828"/>
<path d="M25.6855 54.9512H25.7018C26.349 54.9512 26.8737 54.4266 26.8737 53.7793C26.8737 53.132 26.349 52.6074 25.7018 52.6074H25.6855C25.0384 52.6074 24.5137 53.132 24.5137 53.7793C24.5137 54.4266 25.0384 54.9512 25.6855 54.9512Z" fill="#282828"/>
<path d="M29.7604 54.9512C30.4076 54.9512 30.9323 54.4266 30.9323 53.7793C30.9323 53.132 30.4076 52.6074 29.7604 52.6074H29.7441C29.097 52.6074 28.5723 53.132 28.5723 53.7793C28.5723 54.4266 29.097 54.9512 29.7441 54.9512H29.7604Z" fill="#282828"/>
<path d="M33.819 54.9512C34.4662 54.9512 34.9909 54.4266 34.9909 53.7793C34.9909 53.132 34.4662 52.6074 33.819 52.6074H33.8027C33.1555 52.6074 32.6309 53.132 32.6309 53.7793C32.6309 54.4266 33.1555 54.9512 33.8027 54.9512H33.819Z" fill="#282828"/>
</svg>
