<svg width="120" height="120" viewBox="0 0 120 120" fill="none" xmlns="http://www.w3.org/2000/svg">
<path d="M90.9155 24H29.0359C26.2591 24 24 26.2591 24 29.0359V77.3922C24 80.1689 26.2591 82.4281 29.0359 82.4281H51.3577V93.89H47.2867C46.7039 93.89 46.2317 94.3624 46.2317 94.945C46.2317 95.5276 46.7039 96 47.2867 96H72.6645C73.2473 96 73.7195 95.5276 73.7195 94.945C73.7195 94.3624 73.2473 93.89 72.6645 93.89H68.5935V90.2683C68.5935 89.6856 68.1213 89.2133 67.5385 89.2133C66.9557 89.2133 66.4835 89.6856 66.4835 90.2683V93.89H53.4679V82.4281H66.4835V85.3138C66.4835 85.8965 66.9557 86.3688 67.5385 86.3688C68.1213 86.3688 68.5935 85.8965 68.5935 85.3138V82.4281H90.9156C93.6924 82.4281 95.9515 80.1689 95.9515 77.3922V29.0359C95.9513 26.2591 93.6922 24 90.9155 24ZM26.11 29.0359C26.11 27.4226 27.4226 26.11 29.0359 26.11H90.9155C92.5288 26.11 93.8413 27.4226 93.8413 29.0359V69.3608H26.11V29.0359ZM93.8413 77.392C93.8413 79.0053 92.5288 80.3179 90.9155 80.3179H29.0359C27.4226 80.3179 26.11 79.0053 26.11 77.392V71.4708H93.8413V77.392Z" fill="#3B68D7"/>
<path d="M57.8695 76.9518H62.0814C62.6642 76.9518 63.1364 76.4794 63.1364 75.8968C63.1364 75.3142 62.6642 74.8418 62.0814 74.8418H57.8695C57.2867 74.8418 56.8145 75.3142 56.8145 75.8968C56.8145 76.4794 57.2868 76.9518 57.8695 76.9518Z" fill="#3B68D7"/>
<path d="M53.1413 52.4455V43.0238C53.1413 42.4411 52.669 41.9688 52.0863 41.9688C51.5035 41.9688 51.0312 42.4411 51.0312 43.0238V52.4455C51.0312 53.0281 51.5035 53.5005 52.0863 53.5005C52.669 53.5005 53.1413 53.0281 53.1413 52.4455Z" fill="#3B68D7"/>
<path d="M40.5277 41.9689C39.9449 41.9689 39.4727 42.4412 39.4727 43.0239V49.5071C39.4727 50.9036 40.1154 51.9932 41.4378 52.8379C42.7205 53.6573 44.4085 53.7191 45.7733 53.0316C47.7207 52.0509 48.1294 50.57 48.1294 49.5002V43.0238C48.1294 42.4411 47.6572 41.9688 47.0744 41.9688C46.4916 41.9688 46.0194 42.4411 46.0194 43.0238V49.5002C46.0194 49.9868 45.8835 50.6137 44.8242 51.1471C44.1473 51.488 43.2147 51.4691 42.5738 51.0598C41.8698 50.61 41.5827 50.1602 41.5827 49.5071V43.0239C41.5827 42.4412 41.1104 41.9689 40.5277 41.9689Z" fill="#3B68D7"/>
<path d="M73.6427 30.875C68.0278 30.875 63.0451 33.6338 59.979 37.8671C58.5843 35.9393 56.7888 34.3149 54.7238 33.1231C52.1757 31.6525 49.265 30.8751 46.3068 30.8751C42.7857 30.8751 39.4123 31.9496 36.5512 33.9823C36.0762 34.3198 35.9648 34.9784 36.3021 35.4534C36.6394 35.9285 37.2983 36.04 37.7732 35.7024C40.2751 33.9248 43.226 32.9851 46.3066 32.9851C51.4031 32.9851 56.0305 35.5336 58.7572 39.8213C57.4964 42.1828 56.7812 44.8777 56.7812 47.7364C56.7812 50.5951 57.4964 53.2898 58.757 55.6513C56.0295 59.9353 51.3881 62.4877 46.3066 62.4877C38.1727 62.4877 31.5553 55.8704 31.5553 47.7364C31.5553 44.5091 32.5782 41.4443 34.5135 38.8736C34.8639 38.4081 34.7707 37.7467 34.3052 37.3963C33.8396 37.0458 33.1785 37.1392 32.8278 37.6046C30.6151 40.544 29.4453 44.0477 29.4453 47.7366C29.4453 57.034 37.0092 64.5979 46.3066 64.5979C51.7819 64.5979 56.8101 62.0057 59.9796 57.607C63.0458 61.8397 68.0281 64.5979 73.6425 64.5979C82.9399 64.5979 90.5037 57.034 90.5037 47.7366C90.5038 38.4389 82.94 30.875 73.6427 30.875ZM73.6427 62.4876C65.5088 62.4876 58.8914 55.8702 58.8914 47.7363C58.8914 39.6024 65.5088 32.985 73.6427 32.985C81.7764 32.985 88.3938 39.6024 88.3938 47.7363C88.3938 55.8702 81.7764 62.4876 73.6427 62.4876Z" fill="#3B68D7"/>
<path d="M80.2219 47.4007L82.8772 43.6315C83.2128 43.1552 83.0987 42.497 82.6223 42.1614C82.1458 41.8258 81.4876 41.94 81.1523 42.4163L78.9323 45.5675L76.716 42.4168C76.3809 41.9404 75.7231 41.8256 75.2461 42.161C74.7695 42.4962 74.655 43.1544 74.9904 43.6309L77.6417 47.3998L74.5149 51.8381C74.1793 52.3144 74.2934 52.9726 74.7698 53.3082C75.2465 53.6442 75.9019 53.5329 76.2398 53.0534L78.9312 49.233L81.6183 53.0529C81.9459 53.5185 82.6233 53.6357 83.0882 53.3087C83.5647 52.9735 83.6792 52.3153 83.3439 51.8387L80.2219 47.4007Z" fill="#3B68D7"/>
<path d="M71.3518 41.9688C70.769 41.9688 70.2968 42.4411 70.2968 43.0237V49.5002C70.2968 49.9868 70.1609 50.6137 69.1012 51.1473C68.7809 51.3086 68.4189 51.3905 68.0253 51.3905H68.0212C67.5812 51.3899 67.1984 51.2817 66.8511 51.0598C66.1471 50.6101 65.86 50.1602 65.86 49.5069V43.0237C65.86 42.4411 65.3878 41.9688 64.805 41.9688C64.2222 41.9688 63.75 42.4411 63.75 43.0237V49.5069C63.75 50.9035 64.3927 51.9931 65.7151 52.8378C66.9766 53.6437 68.7137 53.7049 70.0507 53.0316C71.9983 52.0509 72.4071 50.57 72.4071 49.5002V43.0237C72.4068 42.4411 71.9344 41.9688 71.3518 41.9688Z" fill="#3B68D7"/>
<circle opacity="0.05" cx="60" cy="60" r="60" fill="#3B68D7"/>
</svg>
