<svg width="120" height="120" viewBox="0 0 120 120" fill="none" xmlns="http://www.w3.org/2000/svg">
<path d="M36.2476 22.498C34.1917 22.498 32.5 24.1898 32.5 26.2457V66.2457C32.5 67.914 35.0024 67.914 35.0024 66.2457V35.003H84.9951V66.2457C84.9573 67.9502 87.5334 67.9502 87.4951 66.2457V26.2457C87.4951 24.1898 85.8059 22.498 83.75 22.498H36.2476ZM36.2476 25.0005H83.75C84.4641 25.0005 84.9951 25.5315 84.9951 26.2457V32.5005H35.0024V26.2457C35.0024 25.5315 35.5335 25.0005 36.2476 25.0005ZM38.75 27.4981C38.0596 27.4981 37.5 28.0578 37.5 28.7481C37.5 29.4385 38.0596 29.998 38.75 29.998C39.4403 29.998 40 29.4385 40 28.7481C40 28.0578 39.4403 27.4981 38.75 27.4981ZM43.75 27.4981C43.0597 27.4981 42.5 28.0578 42.5 28.7481C42.5 29.4385 43.0597 29.998 43.75 29.998C44.4404 29.998 45 29.4385 45 28.7481C45 28.0578 44.4404 27.4981 43.75 27.4981ZM48.75 27.4981C48.0597 27.4981 47.5 28.0578 47.5 28.7481C47.5 29.4385 48.0597 29.998 48.75 29.998C49.4404 29.998 50 29.4385 50 28.7481C50 28.0578 49.4404 27.4981 48.75 27.4981ZM66.1865 27.5006C64.4988 27.6154 64.614 30.042 66.2452 30.0006H81.25C82.8801 29.9628 82.8801 27.5367 81.25 27.5006H66.1865ZM26.2549 30.0006C24.199 30.0006 22.5 31.6899 22.5 33.7458V78.748C22.5 80.804 24.199 82.4957 26.2549 82.4957H93.7524C95.8083 82.4957 97.5 80.804 97.5 78.748V33.7456C97.5 31.6898 95.8083 30.0005 93.7524 30.0005H91.2524C89.5484 29.9627 89.5484 32.5383 91.2524 32.5005H93.7524C94.4666 32.5005 94.9976 33.0315 94.9976 33.7456V70.0005H25V33.7456C25 33.0315 25.5408 32.5005 26.2549 32.5005H28.7451C30.4492 32.5383 30.4492 29.9627 28.7451 30.0005L26.2549 30.0006ZM63.7646 39.9786C63.2151 39.9748 62.7277 40.3307 62.5635 40.8552L55.061 63.3526C54.5321 64.9347 56.9051 65.7281 57.4341 64.146L64.9365 41.6412C65.2195 40.8318 64.6221 39.9842 63.7646 39.9786ZM69.1992 47.2052L75.5469 52.5005L69.1992 57.7887C67.8429 58.8505 69.5176 60.8541 70.8032 59.7077L78.2959 53.46C78.8942 52.9603 78.8942 52.0409 78.2959 51.5412L70.8032 45.2839C70.5792 45.0921 70.2948 44.9857 69.9365 44.9861C68.7549 45.0896 68.3265 46.4989 69.1992 47.2052ZM49.9683 44.9884C49.6867 44.9979 49.4166 45.1018 49.2017 45.2837L41.7017 51.541C41.1033 52.0408 41.1033 52.9602 41.7017 53.4599L49.2017 59.7075C50.4916 60.9089 52.2142 58.8385 50.7983 57.7885L44.4507 52.5004L50.7983 47.205C51.7219 46.4488 51.1614 44.9521 49.9683 44.9884ZM25 72.503H94.9976V78.748C94.9976 79.4622 94.4666 79.9932 93.7524 79.9932H26.2549C25.5408 79.9932 25 79.4622 25 78.748V72.503ZM62.5684 75.0006L57.439 75.003C55.8456 75.1934 55.9526 77.4506 57.4976 77.4933H62.5C64.2167 77.6449 64.3596 75.035 62.5684 75.0006ZM52.9883 84.8979C52.4865 84.8885 52.027 85.1776 51.8213 85.6353C51.2193 86.9264 50.1409 88.434 48.2788 89.9956H46.25C44.1941 89.9956 42.5049 91.6972 42.5049 93.753V96.2433C42.5024 96.9336 43.0597 97.4953 43.75 97.498H76.2476C76.9417 97.5005 77.5051 96.9374 77.5024 96.2433V93.753C77.5024 91.6972 75.8034 89.9956 73.7476 89.9956H71.7212C69.8592 88.4341 68.7806 86.9263 68.1787 85.6353C67.9671 85.1657 67.4893 84.8741 66.9751 84.9004C66.0821 84.9476 65.5244 85.8872 65.9131 86.6925C66.4004 87.7377 67.1444 88.8587 68.147 89.9956H51.853C52.8555 88.8587 53.5996 87.7377 54.0869 86.6925C54.4838 85.8727 53.8989 84.9174 52.9883 84.8979ZM46.25 92.4981H73.7476C74.4616 92.4981 75.0024 93.0389 75.0024 93.753V94.9982H45.0049V93.753C45.0049 93.0389 45.5359 92.4981 46.25 92.4981Z" fill="#3B68D7"/>
<circle opacity="0.05" cx="60" cy="60" r="60" fill="#3B68D7"/>
</svg>
