<svg width="141" height="141" viewBox="0 0 141 141" fill="none" xmlns="http://www.w3.org/2000/svg">
<path d="M70.5 0.494141C56.0785 0.494141 42.0091 4.94839 30.2152 13.2479C18.4212 21.5474 9.47858 33.2871 4.60984 46.8618C-0.258911 60.4366 -0.816096 75.1838 3.01446 89.0872C6.84502 102.991 14.8763 115.372 26.0104 124.537L27.326 122.939C16.5212 114.045 8.7274 102.03 5.01012 88.5374C1.29284 75.0451 1.83355 60.734 6.55832 47.5607C11.2831 34.3874 19.9613 22.9949 31.4064 14.9408C42.8516 6.88669 56.505 2.56416 70.5 2.56416V0.494141Z" fill="#3B68D7"/>
<path d="M29.1742 119.473L22.4437 126.798L32.3624 129.032L29.1742 119.473Z" fill="#3B68D7"/>
<path d="M70.5001 128.421C102.495 128.421 128.431 102.484 128.431 70.4896C128.431 38.4952 102.495 12.5586 70.5001 12.5586C38.5057 12.5586 12.5691 38.4952 12.5691 70.4896C12.5691 102.484 38.5057 128.421 70.5001 128.421Z" fill="#3B68D7"/>
<path d="M70.4997 119.725C97.6949 119.725 119.741 97.6788 119.741 70.4836C119.741 43.2883 97.6949 21.2422 70.4997 21.2422C43.3044 21.2422 21.2583 43.2883 21.2583 70.4836C21.2583 97.6788 43.3044 119.725 70.4997 119.725Z" stroke="white" stroke-width="3"/>
<path d="M90.489 53.6079H79.4572V49.7421C79.4572 49.567 79.3877 49.3991 79.2639 49.2753C79.1401 49.1516 78.9723 49.082 78.7972 49.082H63.1453C62.7203 49.0825 62.3129 49.2516 62.0124 49.5521C61.7119 49.8526 61.5429 50.26 61.5424 50.6849V53.6079H50.5106C49.9356 53.6086 49.3844 53.8373 48.9779 54.2438C48.5713 54.6504 48.3426 55.2016 48.3419 55.7765V84.4403C48.3426 85.0153 48.5713 85.5665 48.9779 85.973C49.3844 86.3796 49.9356 86.6083 50.5106 86.609H65.3139V90.5691H63.3338C63.1588 90.5691 62.9909 90.6387 62.8671 90.7624C62.7434 90.8862 62.6738 91.0541 62.6738 91.2291C62.6738 91.4042 62.7434 91.5721 62.8671 91.6958C62.9909 91.8196 63.1588 91.8892 63.3338 91.8892H77.6658C77.8408 91.8892 78.0087 91.8196 78.1325 91.6958C78.2562 91.5721 78.3258 91.4042 78.3258 91.2291C78.3258 91.0541 78.2562 90.8862 78.1325 90.7624C78.0087 90.6387 77.8408 90.5691 77.6658 90.5691H75.6857V86.609H90.489C91.064 86.6083 91.6152 86.3796 92.0217 85.973C92.4283 85.5665 92.657 85.0153 92.6577 84.4403V55.7765C92.657 55.2016 92.4283 54.6504 92.0217 54.2438C91.6152 53.8373 91.064 53.6086 90.489 53.6079ZM90.489 54.9279C90.714 54.9282 90.9297 55.0177 91.0888 55.1768C91.2478 55.3359 91.3373 55.5516 91.3376 55.7765V56.248H79.4572V54.9279H90.489ZM81.2487 72.3672C80.6495 72.3673 80.0637 72.1897 79.5654 71.8568C79.0671 71.5239 78.6787 71.0507 78.4494 70.4971C78.22 69.9435 78.16 69.3343 78.2769 68.7466C78.3937 68.1588 78.6823 67.619 79.106 67.1952C79.5298 66.7715 80.0696 66.4829 80.6574 66.366C81.2451 66.2492 81.8543 66.3092 82.4079 66.5385C82.9616 66.7679 83.4347 67.1563 83.7676 67.6546C84.1005 68.1529 84.2781 68.7387 84.278 69.3379C84.2771 70.1411 83.9577 70.9111 83.3898 71.479C82.8219 72.0469 82.0519 72.3663 81.2487 72.3672ZM81.2487 73.6873C81.7127 73.6868 82.1736 73.6117 82.6137 73.4647L85.173 73.932C85.4742 73.9869 85.7466 74.1457 85.9427 74.3808C86.1388 74.6159 86.2461 74.9124 86.246 75.2185V79.2541H76.2514V75.2185C76.2514 74.9121 76.359 74.6154 76.5555 74.3803C76.752 74.1451 77.0248 73.9865 77.3263 73.932L79.8838 73.4651C80.3239 73.6119 80.7848 73.6869 81.2487 73.6873ZM85.4103 72.6335L84.3018 72.431C84.9164 71.8252 85.3369 71.0504 85.5098 70.205C85.6828 69.3596 85.6003 68.4818 85.273 67.6834C84.9457 66.885 84.3883 66.202 83.6717 65.7213C82.955 65.2406 82.1116 64.9839 81.2487 64.9839C80.3858 64.9839 79.5424 65.2406 78.8258 65.7213C78.1092 66.202 77.5518 66.885 77.2244 67.6834C76.8971 68.4818 76.8147 69.3596 76.9876 70.205C77.1606 71.0504 77.5811 71.8252 78.1957 72.431L77.0872 72.6335C76.4821 72.7438 75.9348 73.063 75.5409 73.5354C75.1469 74.0077 74.9312 74.6034 74.9314 75.2185V79.2541H71.1598V64.9844L72.6051 62.0939H77.8543C78.2793 62.0934 78.6867 61.9244 78.9872 61.6239C79.2877 61.3234 79.4567 60.9159 79.4572 60.491V57.568H91.3376V79.2545H87.5661V75.2189C87.5663 74.6037 87.3507 74.008 86.9567 73.5355C86.5627 73.063 86.0155 72.7438 85.4103 72.6335ZM59.7509 72.3672C59.1516 72.3673 58.5658 72.1897 58.0675 71.8568C57.5692 71.5239 57.1809 71.0507 56.9515 70.4971C56.7221 69.9435 56.6621 69.3343 56.779 68.7466C56.8959 68.1588 57.1844 67.619 57.6082 67.1952C58.0319 66.7715 58.5718 66.4829 59.1595 66.366C59.7473 66.2492 60.3565 66.3092 60.9101 66.5385C61.4637 66.7679 61.9369 67.1563 62.2697 67.6546C62.6026 68.1529 62.7803 68.7387 62.7802 69.3379C62.7793 70.1411 62.4598 70.9111 61.8919 71.479C61.324 72.0469 60.554 72.3663 59.7509 72.3672ZM59.7509 73.6873C60.2148 73.6868 60.6757 73.6117 61.1158 73.4647L63.6752 73.932C63.9764 73.9869 64.2487 74.1457 64.4448 74.3808C64.6409 74.6159 64.7483 74.9124 64.7482 75.2185V79.2541H54.7536V75.2185C54.7535 74.9121 54.8612 74.6154 55.0576 74.3803C55.2541 74.1451 55.5269 73.9865 55.8285 73.932L58.3859 73.4651C58.8261 73.6119 59.2869 73.6869 59.7509 73.6873ZM63.9124 72.6335L62.8058 72.431C63.4204 71.8252 63.8409 71.0504 64.0139 70.205C64.1868 69.3596 64.1044 68.4818 63.777 67.6834C63.4497 66.885 62.8923 66.202 62.1757 65.7213C61.4591 65.2406 60.6157 64.9839 59.7528 64.9839C58.8898 64.9839 58.0464 65.2406 57.3298 65.7213C56.6132 66.202 56.0558 66.885 55.7285 67.6834C55.4011 68.4818 55.3187 69.3596 55.4916 70.205C55.6646 71.0504 56.0851 71.8252 56.6997 72.431L55.5912 72.6335C54.9861 72.7438 54.4388 73.063 54.0449 73.5354C53.6509 74.0077 53.4352 74.6034 53.4354 75.2185V79.2541H49.6638V57.568H61.5442V61.4339C61.5442 61.6086 61.6135 61.7762 61.7369 61.8999C61.8603 62.0236 62.0277 62.0934 62.2024 62.0939H68.3945L69.8398 64.9844V79.2545H66.0682V75.2189C66.0685 74.6037 65.8528 74.008 65.4589 73.5355C65.0649 73.063 64.5176 72.7438 63.9124 72.6335ZM62.8624 50.6849C62.8625 50.61 62.8923 50.5381 62.9454 50.485C62.9984 50.432 63.0703 50.4022 63.1453 50.4021H78.1372V60.491C78.1371 60.566 78.1073 60.6379 78.0542 60.6909C78.0012 60.7439 77.9293 60.7737 77.8543 60.7738H72.197C72.0744 60.7738 71.9543 60.8078 71.85 60.8723C71.7458 60.9367 71.6615 61.0289 71.6067 61.1386L70.4998 63.3525L69.3928 61.1386C69.3381 61.0289 69.2538 60.9367 69.1496 60.8723C69.0453 60.8078 68.9252 60.7738 68.8026 60.7738H62.8624V50.6849ZM50.5106 54.9279H61.5424V56.248H49.662V55.7765C49.6623 55.5516 49.7518 55.3359 49.9108 55.1768C50.0699 55.0177 50.2856 54.9282 50.5106 54.9279ZM74.3656 90.5691H66.634V86.609H74.3656V90.5691ZM90.489 85.2889H50.5106C50.2856 85.2886 50.0699 85.1991 49.9108 85.0401C49.7518 84.881 49.6623 84.6653 49.662 84.4403V80.5745H91.3376V84.4403C91.3373 84.6653 91.2478 84.881 91.0888 85.0401C90.9297 85.1991 90.714 85.2886 90.489 85.2889Z" fill="white"/>
<path d="M72.3856 82.2715H68.614C68.439 82.2715 68.2711 82.341 68.1473 82.4648C68.0235 82.5886 67.954 82.7565 67.954 82.9315C67.954 83.1066 68.0235 83.2744 68.1473 83.3982C68.2711 83.522 68.439 83.5915 68.614 83.5915H72.3856C72.5606 83.5915 72.7285 83.522 72.8523 83.3982C72.976 83.2744 73.0456 83.1066 73.0456 82.9315C73.0456 82.7565 72.976 82.5886 72.8523 82.4648C72.7285 82.341 72.5606 82.2715 72.3856 82.2715Z" fill="white"/>
<path d="M65.5968 54.2986H75.4028C75.5779 54.2986 75.7458 54.229 75.8695 54.1052C75.9933 53.9815 76.0628 53.8136 76.0628 53.6385C76.0628 53.4635 75.9933 53.2956 75.8695 53.1718C75.7458 53.0481 75.5779 52.9785 75.4028 52.9785H65.5968C65.4217 52.9785 65.2539 53.0481 65.1301 53.1718C65.0063 53.2956 64.9368 53.4635 64.9368 53.6385C64.9368 53.8136 65.0063 53.9815 65.1301 54.1052C65.2539 54.229 65.4217 54.2986 65.5968 54.2986Z" fill="white"/>
<path d="M71.1598 57.537C71.1599 57.4503 71.1428 57.3644 71.1097 57.2843C71.0765 57.2042 71.0279 57.1315 70.9666 57.0702C70.9053 57.0089 70.8325 56.9602 70.7524 56.9271C70.6723 56.8939 70.5865 56.8769 70.4998 56.877H65.5968C65.4217 56.877 65.2539 56.9465 65.1301 57.0703C65.0063 57.194 64.9368 57.3619 64.9368 57.537C64.9368 57.712 65.0063 57.8799 65.1301 58.0037C65.2539 58.1275 65.4217 58.197 65.5968 58.197H70.4998C70.6749 58.197 70.8427 58.1275 70.9665 58.0037C71.0903 57.8799 71.1598 57.712 71.1598 57.537Z" fill="white"/>
</svg>
