<svg width="141" height="141" viewBox="0 0 141 141" fill="none" xmlns="http://www.w3.org/2000/svg">
<path d="M70.5 0.494141C84.9215 0.494141 98.9909 4.94839 110.785 13.2479C122.579 21.5474 131.521 33.2871 136.39 46.8618C141.259 60.4366 141.816 75.1838 137.986 89.0872C134.155 102.991 126.124 115.372 114.99 124.537L113.674 122.939C124.479 114.045 132.273 102.03 135.99 88.5374C139.707 75.0451 139.166 60.734 134.442 47.5607C129.717 34.3874 121.039 22.9949 109.594 14.9408C98.1484 6.88669 84.495 2.56416 70.5 2.56416V0.494141Z" fill="#3B68D7"/>
<path d="M111.827 119.473L118.557 126.798L108.639 129.032L111.827 119.473Z" fill="#3B68D7"/>
<path d="M70.5001 128.421C102.495 128.421 128.431 102.484 128.431 70.4896C128.431 38.4952 102.495 12.5586 70.5001 12.5586C38.5057 12.5586 12.5691 38.4952 12.5691 70.4896C12.5691 102.484 38.5057 128.421 70.5001 128.421Z" fill="#3B68D7"/>
<path d="M70.4997 119.725C97.6949 119.725 119.741 97.6788 119.741 70.4836C119.741 43.2883 97.6949 21.2422 70.4997 21.2422C43.3044 21.2422 21.2583 43.2883 21.2583 70.4836C21.2583 97.6788 43.3044 119.725 70.4997 119.725Z" stroke="white" stroke-width="3"/>
<path d="M92.4476 57.6703C92.4476 54.8732 90.1758 52.6016 87.3787 52.6016H53.614C50.8238 52.6016 48.552 54.8732 48.552 57.6703V78.358C48.552 81.1482 50.8238 83.4198 53.614 83.4198H61.8918L60.8487 86.4641C60.6856 86.3573 60.5022 86.2831 60.3033 86.2512C59.9332 86.1923 59.5628 86.2793 59.2571 86.4998L57.3886 87.8517C56.7738 88.2885 56.6128 89.1531 57.0747 89.8065L62.6114 97.4584C62.8321 97.7642 63.1552 97.9611 63.525 98.0197C63.8895 98.0796 64.2599 97.9926 64.5658 97.7721L66.4355 96.4258C66.9146 96.0774 67.1077 95.4843 66.9688 94.9417L67.7843 94.6797C70.5104 93.8134 73.0733 92.5356 75.402 90.8814C75.8918 90.5334 76.2254 90.0436 76.3532 89.4969C76.4882 88.8934 76.4598 88.0417 75.693 87.1896C75.8989 86.8346 75.9486 86.5081 75.9486 86.2526C75.9344 85.628 75.6008 85.0102 74.9263 84.3641C74.9972 84.0659 74.9972 83.7463 74.9121 83.4198H87.3787C90.1758 83.4198 92.4476 81.1482 92.4476 78.358V57.6703ZM74.9688 89.1776C74.9191 89.3836 74.7773 89.5822 74.5783 89.724C72.3705 91.2933 69.9426 92.5072 67.3583 93.3236L66.3929 93.6359L61.9842 87.5376C62.0091 87.4646 65.1375 78.2976 64.9375 78.8835C65.1007 78.4218 65.5905 78.1594 66.059 78.28C66.5632 78.4079 66.8614 78.9189 66.7336 79.416C66.7151 79.4884 65.7566 83.2367 65.7751 83.1643C65.7538 83.2496 65.7467 83.3418 65.768 83.4198C65.7822 83.6257 65.8958 83.8105 66.0663 83.9311C66.3076 84.1013 66.6341 84.0944 66.8756 83.9238C67.2856 83.6299 76.2781 77.1836 76.3532 77.1298C76.6348 76.9327 77.0367 76.9665 77.2761 77.2862C77.4949 77.6139 77.408 78.0122 77.1128 78.2089C77.0418 78.2593 68.57 84.2635 69.1616 83.8458C68.8421 84.0729 68.764 84.5131 68.9983 84.8327C69.2065 85.1394 69.6409 85.2325 69.9852 85.0029C70.0562 84.9523 73.0437 82.8226 72.8532 82.9584C73.2259 83.1943 73.6606 83.6742 73.5418 84.0306L73.5349 84.0445L70.3897 86.281C70.0703 86.5081 69.9992 86.9553 70.2265 87.2749C70.4516 87.5949 70.908 87.6537 71.2134 87.4382L74.0034 85.4505C74.4577 85.9046 74.5216 86.1743 74.5287 86.281C74.5287 86.3237 74.5287 86.4727 74.2518 86.714C74.2376 86.7213 74.2306 86.7282 74.2233 86.7424V86.7497L71.2061 88.8934C70.8867 89.1208 70.8158 89.568 71.0428 89.8876C71.2965 90.2291 71.7456 90.2681 72.0297 90.0509L74.6636 88.1765C75.0328 88.6026 75.0186 88.9433 74.9688 89.1776ZM91.0277 78.358C91.0277 80.3672 89.3877 81.9999 87.3787 81.9999H74.2091L77.9294 79.3733C77.9578 79.3591 77.9789 79.3376 78.0003 79.3165H82.0682C83.0267 79.3165 83.8075 78.5355 83.8075 77.5701V75.4403C83.8075 74.4818 83.0267 73.7008 82.0682 73.7008H76.3036C75.338 73.7008 74.5572 74.4818 74.5572 75.4403V76.6684L67.6353 81.6307L68.1109 79.771C68.4303 78.5143 67.6706 77.2293 66.4213 76.9028C65.2285 76.5974 63.9932 77.2647 63.5957 78.4218L62.3745 81.9999H53.614C51.6048 81.9999 49.9719 80.3672 49.9719 78.358V57.6703C49.9719 55.6542 51.6048 54.0214 53.614 54.0214H87.3787C89.3877 54.0214 91.0277 55.6542 91.0277 57.6703V78.358Z" fill="white"/>
<path d="M86.4131 65.7363H71.9516C70.8158 65.7363 69.8928 66.6591 69.8928 67.7951V69.5131C69.8928 70.6491 70.8158 71.5718 71.9516 71.5718H86.4131C87.5489 71.5718 88.4719 70.6491 88.4719 69.5131V67.7951C88.4719 66.6591 87.5489 65.7363 86.4131 65.7363ZM87.052 69.5131C87.052 69.868 86.7681 70.152 86.4131 70.152H71.9516C71.6037 70.152 71.3127 69.868 71.3127 69.5131V67.7951C71.3127 67.4401 71.6037 67.1562 71.9516 67.1562H86.4131C86.7681 67.1562 87.052 67.4401 87.052 67.7951V69.5131Z" fill="white"/>
<path d="M86.4131 57.8828H71.9516C70.8158 57.8828 69.8928 58.8056 69.8928 59.9416V61.6596C69.8928 62.7955 70.8158 63.7183 71.9516 63.7183H86.4131C87.5489 63.7183 88.4719 62.7955 88.4719 61.6596V59.9416C88.4719 58.8056 87.5489 57.8828 86.4131 57.8828ZM87.052 61.6596C87.052 62.0076 86.7681 62.2984 86.4131 62.2984H71.9516C71.6037 62.2984 71.3127 62.0076 71.3127 61.6596V59.9416C71.3127 59.5866 71.6037 59.3027 71.9516 59.3027H86.4131C86.7681 59.3027 87.052 59.5866 87.052 59.9416V61.6596Z" fill="white"/>
<path d="M60.3442 56.9043C56.0348 56.9043 52.5206 60.4183 52.5206 64.7348C52.5206 68.9586 55.9539 72.5514 60.3442 72.5514C64.7626 72.5514 68.1677 68.9359 68.1677 64.7348C68.1677 60.4183 64.6607 56.9043 60.3442 56.9043ZM62.0551 65.026C62.0551 65.2104 62.0266 65.3879 61.97 65.5584C61.7498 66.3037 61.0541 66.8434 60.2376 66.8434C59.4354 66.8434 58.761 66.3321 58.5267 65.6149C58.4556 65.4305 58.4203 65.2315 58.4203 65.026V63.2792H62.0551V65.026ZM65.555 68.4335C65.0297 67.4466 64.2346 66.6445 63.2832 66.112C63.411 65.7713 63.4749 65.409 63.4749 65.026V63.2438C63.4749 61.4621 62.0195 60.0065 60.2376 60.0065C58.4487 60.0065 57.0004 61.4621 57.0004 63.2438V65.026C57.0004 65.4447 57.0784 65.8493 57.2274 66.2184C56.3542 66.7509 55.623 67.5108 55.1332 68.4335C54.3523 67.3475 53.9405 66.0767 53.9405 64.7348C53.9405 61.1993 56.8156 58.3242 60.3442 58.3242C63.8797 58.3242 66.7478 61.1993 66.7478 64.7348C66.7478 66.0767 66.3431 67.3475 65.555 68.4335Z" fill="white"/>
</svg>
