<svg width="141" height="141" viewBox="0 0 141 141" fill="none" xmlns="http://www.w3.org/2000/svg">
<path d="M70.5 0.494141C84.9215 0.494141 98.9909 4.94839 110.785 13.2479C122.579 21.5474 131.521 33.2871 136.39 46.8618C141.259 60.4366 141.816 75.1838 137.986 89.0872C134.155 102.991 126.124 115.372 114.99 124.537L113.674 122.939C124.479 114.045 132.273 102.03 135.99 88.5374C139.707 75.0451 139.166 60.734 134.442 47.5607C129.717 34.3874 121.039 22.9949 109.594 14.9408C98.1484 6.88669 84.495 2.56416 70.5 2.56416V0.494141Z" fill="#3B68D7"/>
<path d="M111.827 119.473L118.557 126.798L108.639 129.032L111.827 119.473Z" fill="#3B68D7"/>
<path d="M70.5001 128.421C102.495 128.421 128.431 102.484 128.431 70.4896C128.431 38.4952 102.495 12.5586 70.5001 12.5586C38.5057 12.5586 12.5691 38.4952 12.5691 70.4896C12.5691 102.484 38.5057 128.421 70.5001 128.421Z" fill="#3B68D7"/>
<path d="M70.4997 119.725C97.6949 119.725 119.741 97.6788 119.741 70.4836C119.741 43.2883 97.6949 21.2422 70.4997 21.2422C43.3044 21.2422 21.2583 43.2883 21.2583 70.4836C21.2583 97.6788 43.3044 119.725 70.4997 119.725Z" stroke="white" stroke-width="3"/>
<g clip-path="url(#clip0_1851_1054)">
<path d="M91.7439 62.3081C91.7268 62.2105 91.6906 62.1171 91.6373 62.0335C91.5841 61.9498 91.5149 61.8775 91.4337 61.8206C91.3525 61.7637 91.2609 61.7234 91.1641 61.702C91.0673 61.6805 90.9673 61.6784 90.8696 61.6956L87.1569 62.3496C87.0592 62.3667 86.9658 62.4029 86.8821 62.4562C86.7984 62.5095 86.726 62.5787 86.6691 62.66C86.6122 62.7413 86.5719 62.833 86.5505 62.9299C86.5291 63.0268 86.5271 63.1269 86.5444 63.2246L86.7058 64.1381L84.5938 64.5069L83.3228 64.3123V53.1364C83.3228 52.3362 83.0049 51.5688 82.439 51.0029C81.8732 50.4371 81.1057 50.1192 80.3055 50.1192H75.0253V48.6106C75.0253 48.0104 74.7869 47.4348 74.3625 47.0105C73.9382 46.5861 73.3626 46.3477 72.7624 46.3477H68.2365C67.6364 46.3477 67.0608 46.5861 66.6364 47.0105C66.212 47.4348 65.9736 48.0104 65.9736 48.6106V50.1192H60.6934C59.8932 50.1192 59.1258 50.4371 58.5599 51.0029C57.9941 51.5688 57.6762 52.3362 57.6762 53.1364V64.3146L56.3999 64.5099L54.2939 64.1388L54.4545 63.2246C54.4719 63.1269 54.4698 63.0268 54.4484 62.9299C54.427 62.833 54.3867 62.7413 54.3298 62.66C54.2729 62.5787 54.2006 62.5095 54.1168 62.4562C54.0331 62.4029 53.9398 62.3667 53.842 62.3496L50.1331 61.6956C50.0354 61.6782 49.9353 61.6803 49.8384 61.7017C49.7415 61.7231 49.6498 61.7634 49.5685 61.8203C49.4872 61.8772 49.418 61.9496 49.3647 62.0333C49.3114 62.117 49.2752 62.2104 49.2581 62.3081L46.3728 78.6487C46.3555 78.7464 46.3576 78.8466 46.379 78.9434C46.4004 79.0403 46.4407 79.132 46.4976 79.2133C46.5545 79.2946 46.6268 79.3638 46.7105 79.4171C46.7942 79.4704 46.8876 79.5066 46.9853 79.5237L50.6988 80.1777C50.7964 80.195 50.8965 80.1928 50.9933 80.1714C51.0901 80.1499 51.1817 80.1096 51.2629 80.0527C51.3441 79.9958 51.4133 79.9235 51.4665 79.8398C51.5197 79.7562 51.5559 79.6629 51.5731 79.5652L51.6417 79.1602L52.2648 79.2703C52.839 80.5352 53.6745 81.6642 54.7163 82.5832C54.6764 83.2643 54.8703 83.9386 55.2659 84.4944C55.6615 85.0503 56.2351 85.4543 56.8917 85.6397C56.5388 86.2258 56.3969 86.9149 56.4894 87.5927C56.5819 88.2706 56.9033 88.8965 57.4004 89.3666C57.8974 89.8367 58.5402 90.1227 59.2222 90.1774C59.9041 90.232 60.5842 90.0519 61.1498 89.6669C61.2248 90.1678 61.4261 90.6414 61.7346 91.043C62.0432 91.4446 62.4489 91.7611 62.9135 91.9626C63.3782 92.1642 63.8865 92.2441 64.3905 92.195C64.8946 92.1458 65.3779 91.9692 65.7948 91.6817C65.8654 92.1437 66.0435 92.5826 66.3148 92.9632C66.5861 93.3437 66.9429 93.6552 67.3566 93.8726C67.7703 94.09 68.2293 94.2072 68.6966 94.2147C69.1639 94.2222 69.6264 94.1199 70.0469 93.916V93.9205L70.3486 94.1211C70.6791 94.3399 71.0494 94.4914 71.4384 94.5671C71.8274 94.6427 72.2275 94.641 72.6158 94.562C73.0042 94.483 73.3731 94.3282 73.7017 94.1066C74.0302 93.885 74.3118 93.6008 74.5305 93.2703C74.8607 92.7675 75.0297 92.1759 75.0148 91.5746C75.2595 91.6412 75.5117 91.6762 75.7653 91.6787C76.1639 91.6799 76.5588 91.602 76.927 91.4495C77.2953 91.2969 77.6296 91.0728 77.9106 90.7901C78.1916 90.5075 78.4137 90.1718 78.5641 89.8026C78.7144 89.4335 78.7899 89.0381 78.7863 88.6396C79.0265 88.7027 79.2735 88.7357 79.5218 88.7376C79.9199 88.7376 80.314 88.6589 80.6815 88.5059C81.049 88.3529 81.3826 88.1287 81.6631 87.8462C81.9435 87.5637 82.1653 87.2285 82.3157 86.8599C82.466 86.4913 82.5419 86.0966 82.539 85.6985C82.9989 85.8183 83.4806 85.8269 83.9444 85.7235C84.4083 85.6201 84.8408 85.4077 85.2061 85.1039C85.5715 84.8 85.8593 84.4135 86.0456 83.9764C86.2319 83.5392 86.3113 83.064 86.2774 82.59C87.3201 81.6695 88.1557 80.5383 88.7289 79.271L89.3572 79.1639L89.4282 79.5652C89.4453 79.6629 89.4815 79.7563 89.5348 79.84C89.588 79.9237 89.6573 79.9961 89.7386 80.053C89.8199 80.1099 89.9116 80.1502 90.0084 80.1716C90.1053 80.193 90.2055 80.1951 90.3032 80.1777L94.0159 79.5237C94.1136 79.5066 94.207 79.4704 94.2907 79.4171C94.3744 79.3638 94.4468 79.2946 94.5037 79.2133C94.5605 79.132 94.6009 79.0403 94.6223 78.9434C94.6437 78.8466 94.6457 78.7464 94.6284 78.6487L91.7439 62.3081ZM67.4822 48.6106C67.4822 48.4105 67.5617 48.2187 67.7032 48.0772C67.8446 47.9357 68.0365 47.8563 68.2365 47.8563H72.7624C72.9625 47.8563 73.1543 47.9357 73.2958 48.0772C73.4372 48.2187 73.5167 48.4105 73.5167 48.6106V50.1192H67.4822V48.6106ZM59.1848 53.1364C59.1848 52.7363 59.3438 52.3526 59.6267 52.0697C59.9096 51.7868 60.2933 51.6278 60.6934 51.6278H80.3055C80.7056 51.6278 81.0894 51.7868 81.3723 52.0697C81.6552 52.3526 81.8141 52.7363 81.8141 53.1364V55.3994C81.8141 55.9995 81.5757 56.5751 81.1513 56.9995C80.727 57.4239 80.1514 57.6623 79.5512 57.6623V56.908C79.5512 56.7079 79.4717 56.5161 79.3303 56.3746C79.1888 56.2332 78.997 56.1537 78.7969 56.1537H75.7797C75.5796 56.1537 75.3877 56.2332 75.2463 56.3746C75.1048 56.5161 75.0253 56.7079 75.0253 56.908V57.6623H65.9736V56.908C65.9736 56.7079 65.8941 56.5161 65.7527 56.3746C65.6112 56.2332 65.4194 56.1537 65.2193 56.1537H62.2021C62.002 56.1537 61.8101 56.2332 61.6687 56.3746C61.5272 56.5161 61.4477 56.7079 61.4477 56.908V57.6623C60.8476 57.6623 60.272 57.4239 59.8476 56.9995C59.4232 56.5751 59.1848 55.9995 59.1848 55.3994V53.1364ZM78.0426 57.6623V59.1709H76.534V57.6623H78.0426ZM64.465 57.6623V59.1709H62.9564V57.6623H64.465ZM59.1848 58.397C59.8338 58.8962 60.629 59.1682 61.4477 59.1709V59.9252C61.4477 60.1253 61.5272 60.3172 61.6687 60.4586C61.8101 60.6001 62.002 60.6796 62.2021 60.6796H65.2193C65.4194 60.6796 65.6112 60.6001 65.7527 60.4586C65.8941 60.3172 65.9736 60.1253 65.9736 59.9252V59.1709H75.0253V59.9252C75.0253 60.1253 75.1048 60.3172 75.2463 60.4586C75.3877 60.6001 75.5796 60.6796 75.7797 60.6796H78.7969C78.997 60.6796 79.1888 60.6001 79.3303 60.4586C79.4717 60.3172 79.5512 60.1253 79.5512 59.9252V59.1709C80.37 59.1682 81.1651 58.8962 81.8141 58.397V64.0815L76.0814 63.205C74.8348 63.0172 73.5606 63.1788 72.4003 63.6719L70.4995 64.482L68.6039 63.6742C67.4419 63.179 66.1647 63.0178 64.9161 63.2088L59.1848 64.0845V58.397ZM50.2183 78.562L47.9901 78.1682L50.6091 63.3083L52.838 63.7013L50.2183 78.562ZM56.5674 83.7086C56.3103 83.4022 56.1854 83.0062 56.2202 82.6078C56.255 82.2093 56.4466 81.841 56.7529 81.5838L59.6427 79.1602C59.9492 78.9029 60.3453 78.7779 60.7439 78.8127C61.1426 78.8475 61.5111 79.0392 61.7683 79.3457C62.0256 79.6522 62.1506 80.0483 62.1158 80.447C62.081 80.8456 61.8893 81.2141 61.5828 81.4714L58.693 83.8965C58.5411 84.0237 58.3656 84.1198 58.1766 84.1793C57.9876 84.2387 57.7887 84.2604 57.5913 84.2429C57.3939 84.2255 57.2018 84.1693 57.0262 84.0776C56.8505 83.986 56.6946 83.8606 56.5674 83.7086ZM60.446 88.3318C60.2942 88.4592 60.1188 88.5554 59.9298 88.615C59.7408 88.6746 59.5419 88.6964 59.3445 88.6792C59.1471 88.6619 58.955 88.6059 58.7792 88.5144C58.6034 88.4229 58.4474 88.2977 58.32 88.1459C58.1926 87.9941 58.0964 87.8187 58.0368 87.6297C57.9772 87.4407 57.9554 87.2418 57.9727 87.0444C57.9899 86.8469 58.0459 86.6548 58.1374 86.4791C58.2289 86.3033 58.3541 86.1472 58.5059 86.0199L61.9758 83.1105C62.2839 82.8693 62.6737 82.7573 63.0628 82.7981C63.452 82.8388 63.8101 83.0292 64.0615 83.329C64.313 83.6288 64.4381 84.0146 64.4105 84.4049C64.3829 84.7952 64.2047 85.1595 63.9136 85.4209L60.446 88.3318ZM65.0888 90.3443C64.937 90.4716 64.7616 90.5678 64.5726 90.6274C64.3836 90.6869 64.1848 90.7087 63.9874 90.6914C63.79 90.6741 63.598 90.6181 63.4222 90.5266C63.2465 90.435 63.0905 90.3098 62.9632 90.158C62.8358 90.0062 62.7396 89.8308 62.6801 89.6418C62.6205 89.4528 62.5988 89.254 62.6161 89.0566C62.6334 88.8592 62.6894 88.6672 62.7809 88.4914C62.8724 88.3157 62.9977 88.1597 63.1495 88.0324L65.4614 86.093C65.7685 85.8409 66.1626 85.7202 66.5582 85.7569C66.9538 85.7937 67.3189 85.985 67.5743 86.2894C67.8297 86.5937 67.9547 86.9865 67.9222 87.3825C67.8897 87.7784 67.7023 88.1456 67.4008 88.4042L65.0888 90.3443ZM69.7308 92.3606C69.4238 92.6142 69.029 92.7361 68.6325 92.6998C68.236 92.6635 67.8699 92.4719 67.6141 92.1667C67.3582 91.8616 67.2334 91.4678 67.2668 91.071C67.3002 90.6742 67.489 90.3067 67.7923 90.0486L70.1035 88.1093C70.2552 87.9819 70.4306 87.8856 70.6195 87.826C70.8085 87.7664 71.0073 87.7445 71.2047 87.7618C71.4021 87.779 71.5942 87.8349 71.7699 87.9264C71.9457 88.0179 72.1017 88.1431 72.2291 88.2948C72.3565 88.4466 72.4527 88.622 72.5123 88.811C72.5718 89 72.5936 89.1989 72.5763 89.3963C72.559 89.5937 72.503 89.7857 72.4114 89.9614C72.3199 90.1372 72.1946 90.2932 72.0428 90.4205L69.7308 92.3606ZM73.2708 92.4405C73.0709 92.7453 72.7664 92.9665 72.4148 93.0623C72.0631 93.1582 71.6886 93.1222 71.3617 92.961L73.0128 91.5761C73.169 91.4455 73.3116 91.2994 73.4383 91.1401C73.5097 91.3548 73.5317 91.5828 73.5027 91.8072C73.4737 92.0316 73.3944 92.2465 73.2708 92.436V92.4405ZM84.5395 83.6106C84.4301 83.7758 84.2893 83.9179 84.125 84.0287C83.9608 84.1395 83.7763 84.2169 83.5821 84.2564C83.3879 84.2959 83.1879 84.2968 82.9934 84.259C82.7989 84.2212 82.6137 84.1454 82.4485 84.036L76.1568 79.8745C76.0743 79.8147 75.9806 79.7723 75.8813 79.7497C75.7819 79.7271 75.6791 79.7249 75.5789 79.7432C75.4787 79.7615 75.3832 79.7998 75.2982 79.856C75.2133 79.9122 75.1405 79.985 75.0845 80.07C75.0284 80.155 74.9901 80.2505 74.9719 80.3508C74.9538 80.451 74.9561 80.5539 74.9788 80.6532C75.0015 80.7525 75.044 80.8461 75.1039 80.9286C75.1637 81.011 75.2396 81.0804 75.3271 81.1327L80.3613 84.4645C80.6948 84.6856 80.9268 85.0302 81.0062 85.4224C81.0857 85.8146 81.006 86.2223 80.7849 86.5558C80.5637 86.8893 80.2191 87.1213 79.8269 87.2007C79.4347 87.2801 79.027 87.2005 78.6936 86.9793L73.66 83.6483C73.5762 83.5921 73.4817 83.5536 73.3825 83.5352C73.2112 83.5029 73.034 83.5309 72.881 83.6145C72.7281 83.6981 72.6088 83.8321 72.5434 83.9937C72.4781 84.1553 72.4707 84.3345 72.5226 84.5009C72.5745 84.6674 72.6824 84.8107 72.828 84.9065L76.5996 87.4055C76.931 87.6275 77.1611 87.9716 77.2395 88.3628C77.3178 88.7539 77.2381 89.1601 77.0177 89.4926C76.7973 89.8251 76.4542 90.0568 76.0634 90.1369C75.6727 90.2171 75.2661 90.1392 74.9326 89.9204L74.0726 89.3516C74.0934 88.7982 73.9601 88.2498 73.6876 87.7677C73.4151 87.2855 73.014 86.8885 72.5291 86.6209C72.0443 86.3533 71.4946 86.2255 70.9414 86.2519C70.3881 86.2783 69.8531 86.4578 69.3959 86.7704C69.3374 86.3782 69.201 86.0017 68.9948 85.663C68.7886 85.3244 68.5167 85.0304 68.1951 84.7984C67.8735 84.5665 67.5087 84.4012 67.1223 84.3124C66.7359 84.2235 66.3355 84.2129 65.9449 84.2812C65.9582 83.5672 65.7125 82.8726 65.2535 82.3256C64.7944 81.7786 64.1529 81.4162 63.4474 81.3054C63.6682 80.6826 63.6777 80.0044 63.4746 79.3757C63.2715 78.7469 62.867 78.2025 62.3236 77.8266C61.7802 77.4506 61.1281 77.264 60.4681 77.2957C59.8081 77.3273 59.1768 77.5754 58.6719 78.0015L55.7821 80.4266C55.5801 80.6006 55.4025 80.801 55.2541 81.0225C54.4992 80.2442 53.9041 79.3255 53.5026 78.3183C53.455 78.1986 53.3776 78.093 53.2776 78.0116C53.1777 77.9303 53.0585 77.8759 52.9316 77.8537L51.905 77.6727L54.0299 65.6225L56.2581 66.0155C56.3392 66.0295 56.4221 66.0295 56.5032 66.0155L65.1439 64.7C66.1144 64.5512 67.1072 64.6766 68.0103 65.0621L68.5715 65.3012L65.5595 66.5835C64.8828 66.8729 64.3058 67.3544 63.9 67.9685L61.0615 72.2477C60.7331 72.7502 60.6166 73.3622 60.7372 73.9504C60.8579 74.5385 61.206 75.0551 61.7057 75.3878C62.5403 75.9378 63.5589 76.1344 64.5382 75.9346C65.5175 75.7348 66.3776 75.1549 66.9301 74.322L68.2252 72.3714L70.9792 71.8079C71.276 72.723 71.7803 73.5573 72.4525 74.2455C73.1248 74.9337 73.9469 75.4573 74.8549 75.7756C75.1767 75.8903 75.5068 75.9803 75.8423 76.0448L84.1133 81.5211C84.4467 81.7418 84.6789 82.0859 84.7588 82.4777C84.8387 82.8694 84.7598 83.2769 84.5395 83.6106ZM88.0659 77.8552C87.9384 77.8774 87.8188 77.932 87.7185 78.0138C87.6183 78.0955 87.5407 78.2017 87.4933 78.3221C87.0916 79.334 86.4944 80.2567 85.7358 81.0376C85.5234 80.732 85.2555 80.469 84.946 80.2622L78.5344 76.0207C79.3675 75.8542 80.1612 75.5301 80.8728 75.0658L82.0578 74.2888C82.225 74.1788 82.3417 74.0068 82.3822 73.8108C82.4226 73.6147 82.3835 73.4106 82.2735 73.2433C82.1635 73.0761 81.9915 72.9594 81.7955 72.919C81.5994 72.8785 81.3953 72.9176 81.228 73.0276L80.0468 73.8046C79.3636 74.2533 78.5853 74.5367 77.7735 74.6324C76.9618 74.7281 76.1389 74.6335 75.3701 74.356C74.6625 74.1094 74.0233 73.6991 73.5046 73.1585C72.9859 72.6179 72.6023 71.9623 72.3853 71.2452C72.3385 71.0943 72.2993 70.9336 72.2661 70.7745C72.2252 70.5793 72.1087 70.4082 71.9421 70.2986C71.7754 70.1891 71.5721 70.15 71.3767 70.1899L67.6195 70.9593C67.424 70.9993 67.2523 71.1151 67.142 71.2814L65.6794 73.4908C65.3478 73.9901 64.8319 74.3378 64.2445 74.4579C63.6572 74.5779 63.0462 74.4604 62.5453 74.1312C62.3781 74.0198 62.2616 73.8471 62.2209 73.6504C62.1802 73.4537 62.2187 73.2489 62.328 73.0804L65.165 68.802C65.4083 68.4346 65.7536 68.1462 66.1584 67.9722L72.9932 65.0606C73.8968 64.677 74.889 64.5514 75.8596 64.6978L84.4965 66.0178C84.5772 66.0303 84.6594 66.0303 84.7401 66.0178L86.9729 65.6271L89.0932 77.6772L88.0659 77.8552ZM90.7814 78.5605L88.1617 63.7006L90.3907 63.3076L93.0096 78.1675L90.7814 78.5605Z" fill="white"/>
</g>
<defs>
<clipPath id="clip0_1851_1054">
<rect width="48.2759" height="48.2759" fill="white" transform="translate(46.3618 46.3477)"/>
</clipPath>
</defs>
</svg>
