<svg width="141" height="141" viewBox="0 0 141 141" fill="none" xmlns="http://www.w3.org/2000/svg">
<path d="M70.5 0.494141C84.9215 0.494141 98.9909 4.94839 110.785 13.2479C122.579 21.5474 131.521 33.2871 136.39 46.8618C141.259 60.4366 141.816 75.1838 137.986 89.0872C134.155 102.991 126.124 115.372 114.99 124.537L113.674 122.939C124.479 114.045 132.273 102.03 135.99 88.5374C139.707 75.0451 139.166 60.734 134.442 47.5607C129.717 34.3874 121.039 22.9949 109.594 14.9408C98.1484 6.88669 84.495 2.56416 70.5 2.56416V0.494141Z" fill="#3B68D7"/>
<path d="M111.827 119.473L118.557 126.798L108.639 129.032L111.827 119.473Z" fill="#3B68D7"/>
<path d="M70.5001 128.421C102.495 128.421 128.431 102.484 128.431 70.4896C128.431 38.4952 102.495 12.5586 70.5001 12.5586C38.5057 12.5586 12.5691 38.4952 12.5691 70.4896C12.5691 102.484 38.5057 128.421 70.5001 128.421Z" fill="#3B68D7"/>
<path d="M70.4997 119.725C97.6949 119.725 119.741 97.6788 119.741 70.4836C119.741 43.2883 97.6949 21.2422 70.4997 21.2422C43.3044 21.2422 21.2583 43.2883 21.2583 70.4836C21.2583 97.6788 43.3044 119.725 70.4997 119.725Z" stroke="white" stroke-width="3"/>
<g clip-path="url(#clip0_1851_992)">
<path fill-rule="evenodd" clip-rule="evenodd" d="M63.721 90.7529C60.1452 90.7529 57.1461 89.9925 54.8061 88.4931C51.6369 86.4624 49.6096 85.2749 48.4673 84.6362C46.6878 83.6419 46.1635 82.1512 46.4334 81.1151C46.6785 80.1747 47.5136 79.5907 48.6134 79.5907C49.0931 79.5907 49.6135 79.6995 50.1607 79.914L58.2204 83.0754C58.227 83.0778 59.8603 83.6732 61.9823 83.6732C63.8509 83.6732 65.5137 83.2243 66.9242 82.3401C68.3231 81.463 69.1029 79.9777 68.9577 79.6933C68.9461 79.6838 68.8568 79.6434 68.6561 79.6434C68.4569 79.6434 68.094 79.6839 67.4961 79.8751C65.4987 80.5161 63.8218 80.841 62.5117 80.841C60.1249 80.841 59.7546 79.7726 59.7064 79.3131C59.6035 78.3331 60.5875 77.3965 62.046 77.087C62.6042 76.9684 66.0464 75.6445 68.2237 74.7838C68.2764 74.7571 70.3834 73.7695 73.5337 73.7695C76.6844 73.7695 79.6964 74.7371 82.4878 76.6453L86.5589 78.9959C86.8295 79.1518 86.9221 79.4979 86.7658 79.7685L80.9208 89.892C80.7782 90.1391 80.4757 90.2412 80.211 90.1304C79.3181 89.7538 77.0064 88.8781 74.8323 88.8781C74.0553 88.8781 73.3623 88.9896 72.7728 89.2096C70.7725 89.9548 67.3438 90.7527 63.721 90.7529C63.7212 90.7529 63.7215 90.7537 63.721 90.7529ZM48.6134 80.7218C48.0361 80.7218 47.6404 80.9688 47.5282 81.4001C47.373 81.9952 47.7737 82.9525 49.0194 83.6489C50.1754 84.2955 52.2235 85.495 55.4162 87.5405C57.5712 88.9216 60.3653 89.6217 63.721 89.6217C67.1935 89.6217 70.4702 88.8615 72.3781 88.1505C73.0945 87.8834 73.9206 87.7483 74.8328 87.7483C76.8589 87.7483 78.9164 88.4028 80.188 88.9013L85.5039 79.6941L81.9038 77.6153C81.8912 77.6079 81.879 77.6004 81.8665 77.5918C79.2622 75.8067 76.4587 74.9014 73.5338 74.9014C70.6545 74.9014 68.6941 75.812 68.6743 75.8214C68.0765 76.0592 63.1105 78.0184 62.2813 78.1944C61.2686 78.4092 60.8063 78.9521 60.8318 79.1956C60.8527 79.3947 61.3271 79.7106 62.5111 79.7106C63.6868 79.7106 65.2916 79.3951 67.1506 78.7989C67.7512 78.6064 68.2434 78.513 68.6563 78.513C69.6846 78.513 69.9717 79.125 70.0476 79.3881C70.3996 80.6106 68.8158 82.4902 67.5253 83.2995C65.9317 84.2988 64.067 84.8055 61.9825 84.8055C59.6464 84.8055 57.8897 84.1601 57.8163 84.1329L49.7476 80.9682C49.3327 80.8039 48.9512 80.7218 48.6134 80.7218Z" fill="white"/>
<path fill-rule="evenodd" clip-rule="evenodd" d="M80.4312 90.1759C80.3577 90.1759 80.2831 90.1615 80.2116 90.1316C79.7245 89.9261 78.9522 89.6276 78.0398 89.3727C77.8712 89.3259 77.7342 89.2034 77.6681 89.0416C77.602 88.8798 77.6144 88.6962 77.702 88.5451L83.7682 78.0381C83.9245 77.768 84.2713 77.6761 84.5408 77.8312L86.5594 78.9966C86.6895 79.0716 86.7841 79.1954 86.823 79.3399C86.8623 79.4848 86.8419 79.6397 86.7665 79.7693L80.9215 89.8927C80.8177 90.0727 80.6279 90.1759 80.4312 90.1759ZM79.0386 88.492C79.4727 88.6314 79.8619 88.7736 80.188 88.9008L85.5039 79.6937L84.465 79.0939L79.0386 88.492Z" fill="white"/>
<path fill-rule="evenodd" clip-rule="evenodd" d="M84.295 94.49C84.1965 94.49 84.099 94.4645 84.0121 94.4141L79.2469 91.663C78.9763 91.5071 78.8837 91.1609 79.0399 90.8903L86.7101 77.605C86.8664 77.3344 87.2136 77.2421 87.4826 77.3981L92.2481 80.1489C92.3782 80.2237 92.4729 80.3477 92.5117 80.4923C92.551 80.6372 92.5305 80.792 92.4551 80.9216L84.7848 94.2072C84.7098 94.3372 84.586 94.4319 84.4415 94.4707C84.3931 94.4838 84.3441 94.49 84.295 94.49ZM80.3025 90.966L84.088 93.1516L91.1932 80.8455L87.4072 78.6603L80.3025 90.966Z" fill="white"/>
<path fill-rule="evenodd" clip-rule="evenodd" d="M61.9827 84.8054C59.6459 84.8054 57.89 84.16 57.8165 84.1329L50.867 81.4072C50.7931 81.3781 50.7263 81.3337 50.6705 81.2776C50.2338 80.8345 49.8696 80.4735 49.5734 80.1856C48.1636 78.8147 48.0425 77.3865 48.3994 76.5074C48.7186 75.7214 49.4316 75.252 50.3068 75.252C50.9772 75.252 51.7118 75.5324 52.4311 76.0627L59.3981 81.2022C59.4165 81.2151 62.1034 83.0908 65.4443 83.1121C65.7193 83.114 65.9529 83.3136 65.9985 83.5846C66.0437 83.8557 65.8873 84.1204 65.6281 84.2116C64.5054 84.6054 63.2789 84.8054 61.9827 84.8054ZM51.3913 80.3972L58.2203 83.0758C58.227 83.0782 59.8599 83.6737 61.9822 83.6737C60.0699 83.0632 58.813 82.1739 58.734 82.1174L51.7593 76.9723C51.0982 76.4844 50.6045 76.3818 50.3068 76.3818C49.8967 76.3818 49.5915 76.5771 49.4473 76.9318C49.2387 77.4451 49.3535 78.3926 50.3618 79.3735C50.6434 79.6482 50.9852 79.9867 51.3913 80.3972Z" fill="white"/>
<path fill-rule="evenodd" clip-rule="evenodd" d="M68.8896 68.7999H57.4042C56.6033 68.7999 55.9519 68.1483 55.9519 67.3476V63.5695C55.9519 63.381 56.0458 63.205 56.2021 63.1001C56.3588 62.9948 56.5572 62.9747 56.7317 63.0459C56.8841 63.1084 57.0455 63.1397 57.2117 63.1397L58.5591 63.14C58.8713 63.14 59.1247 63.3935 59.1247 63.7056V64.4697H60.4022V63.7056C60.4022 63.3935 60.6555 63.14 60.9678 63.14H65.5204C65.8327 63.14 66.086 63.3935 66.086 63.7056V64.4697H67.3636V63.7056C67.3636 63.3935 67.6171 63.14 67.9292 63.14H69.1205C69.2863 63.14 69.4477 63.1083 69.6005 63.0462C69.775 62.9746 69.9733 62.9951 70.1301 63.1004C70.2864 63.2056 70.3803 63.3816 70.3803 63.5699V67.3093C70.3804 68.1314 69.7117 68.7999 68.8896 68.7999ZM57.0832 64.268V67.3476C57.0832 67.5217 57.2301 67.6687 57.4042 67.6687H68.8896C69.0844 67.6687 69.2491 67.504 69.2491 67.3092V64.268C69.2066 64.27 69.1639 64.2711 69.1209 64.2711H68.4952V64.7743C68.4952 65.23 68.1243 65.6008 67.6687 65.6008L65.7817 65.6009C65.326 65.6009 64.9552 65.2301 64.9552 64.7745V64.2714L61.5338 64.2711V64.7743C61.5338 65.23 61.1634 65.6008 60.7074 65.6008L58.8202 65.6009C58.3646 65.6009 57.9938 65.2301 57.9938 64.7745V64.2714L57.2121 64.2711C57.1685 64.2716 57.1261 64.2705 57.0832 64.268Z" fill="white"/>
<path fill-rule="evenodd" clip-rule="evenodd" d="M69.121 64.2728H67.9296C67.6173 64.2728 67.3639 64.0194 67.3639 63.7072V63.0587H66.0865V63.7072C66.0865 64.0194 65.8331 64.2728 65.5208 64.2728H60.9682C60.656 64.2728 60.4026 64.0194 60.4026 63.7072V63.0587H59.1251V63.7072C59.1251 64.0194 58.8718 64.2728 58.5595 64.2728H57.2121C55.8801 64.2728 54.7963 63.189 54.7963 61.8571V57.386C54.7963 56.8404 55.2402 56.3965 55.7857 56.3965L70.5473 56.3966C71.0929 56.3966 71.5372 56.8406 71.5372 57.3862V61.8572C71.5368 63.189 70.4525 64.2728 69.121 64.2728ZM68.4949 63.1415H69.1205C69.8287 63.1415 70.405 62.5653 70.405 61.8571V57.528H55.9273V61.8572C55.9273 62.5653 56.5035 63.1417 57.2118 63.1417L57.9934 63.1415V62.7539C57.9934 62.2983 58.3643 61.9273 58.82 61.9273H60.707C61.1626 61.9273 61.5334 62.2983 61.5334 62.7539V63.1415H64.9548V62.7539C64.9548 62.2983 65.3256 61.9273 65.7813 61.9273H67.6684C68.124 61.9273 68.4949 62.2983 68.4949 62.7539L68.4949 63.1415Z" fill="white"/>
<path fill-rule="evenodd" clip-rule="evenodd" d="M67.6687 65.6011H65.7813C65.3256 65.6011 64.9547 65.2302 64.9547 64.7746V62.7523C64.9547 62.2967 65.3256 61.9258 65.7813 61.9258H67.6687C68.1243 61.9258 68.4951 62.2967 68.4951 62.7523V64.7746C68.4948 65.2302 68.1244 65.6011 67.6687 65.6011ZM66.086 64.4698H67.3635V63.0573L66.086 63.0571V64.4698Z" fill="white"/>
<path fill-rule="evenodd" clip-rule="evenodd" d="M60.7069 65.6011H58.8195C58.3638 65.6011 57.9929 65.2302 57.9929 64.7746V62.7523C57.9929 62.2967 58.3633 61.9258 58.8195 61.9258H60.7069C61.1625 61.9258 61.5333 62.2967 61.5333 62.7523V64.7746C61.5333 65.2302 61.1625 65.6011 60.7069 65.6011ZM59.1246 64.4698H60.4021V63.0573L59.1246 63.0571V64.4698Z" fill="white"/>
<path fill-rule="evenodd" clip-rule="evenodd" d="M66.3894 57.5282H59.9429C59.6307 57.5282 59.3773 57.2747 59.3773 56.9625V55.9479L58.8211 55.9478C58.509 55.9478 58.2555 55.6943 58.2555 55.3821V53.0696C58.2555 52.7574 58.509 52.5039 58.8211 52.5039H67.5108C67.8231 52.5039 68.0766 52.7574 68.0766 53.0696V55.3821C68.0766 55.6943 67.8231 55.9478 67.5108 55.9478H66.955V56.9623C66.955 57.2751 66.7017 57.5282 66.3894 57.5282ZM60.5086 56.3968H65.8238V55.3823C65.8238 55.07 66.0771 54.8166 66.3894 54.8166L66.9452 54.8164V53.6353H59.3867V54.8164H59.9429C60.2552 54.8164 60.5086 55.0699 60.5086 55.3821L60.5086 56.3968Z" fill="white"/>
<path fill-rule="evenodd" clip-rule="evenodd" d="M59.9428 57.5281H57.6998C57.3876 57.5281 57.1342 57.2747 57.1342 56.9625V55.3823C57.1342 55.07 57.3876 54.8166 57.6998 54.8166L59.9428 54.8164C60.2551 54.8164 60.5085 55.0699 60.5085 55.3821V56.9623C60.5085 57.2751 60.2552 57.5281 59.9428 57.5281ZM58.2652 56.3968H59.3772V55.9479L58.2652 55.9478V56.3968Z" fill="white"/>
<path fill-rule="evenodd" clip-rule="evenodd" d="M68.6327 57.5281H66.3898C66.0776 57.5281 65.8242 57.2747 65.8242 56.9625V55.3823C65.8242 55.07 66.0776 54.8166 66.3898 54.8166L68.6327 54.8164C68.9449 54.8164 69.1984 55.0699 69.1984 55.3821V56.9623C69.198 57.2751 68.945 57.5281 68.6327 57.5281ZM66.955 56.3968H68.067V55.9479L66.955 55.9478V56.3968Z" fill="white"/>
<path fill-rule="evenodd" clip-rule="evenodd" d="M63.1659 73.944C55.8364 73.944 49.8739 67.9811 49.8739 60.6518C49.8739 53.3224 55.8368 47.3594 63.1659 47.3594C70.4949 47.3594 76.4579 53.3222 76.4579 60.6514C76.4579 67.9804 70.4954 73.944 63.1659 73.944ZM63.1659 48.4906C56.4607 48.4906 51.0053 53.9459 51.0053 60.6513C51.0053 67.3566 56.4605 72.812 63.1659 72.812C69.8713 72.812 75.3266 67.3566 75.3266 60.6513C75.3266 53.9459 69.8716 48.4906 63.1659 48.4906Z" fill="white"/>
<path fill-rule="evenodd" clip-rule="evenodd" d="M90.927 49.9868H84.0713C83.7591 49.9868 83.5057 49.7334 83.5057 49.4211C83.5057 49.1089 83.7593 48.8555 84.0713 48.8555H90.927C91.2393 48.8555 91.4928 49.1089 91.4928 49.4211C91.4928 49.7334 91.2394 49.9868 90.927 49.9868ZM81.8924 49.9868H80.7407C80.4284 49.9868 80.175 49.7334 80.175 49.4211C80.175 49.1089 80.4287 48.8555 80.7407 48.8555H81.8924C82.2047 48.8555 82.458 49.1089 82.458 49.4211C82.458 49.7334 82.2047 49.9868 81.8924 49.9868Z" fill="white"/>
<path fill-rule="evenodd" clip-rule="evenodd" d="M90.927 52.1898H89.7754C89.4632 52.1898 89.2098 51.9365 89.2098 51.6242C89.2098 51.3119 89.4635 51.0586 89.7754 51.0586H90.927C91.2393 51.0586 91.4927 51.3119 91.4927 51.6242C91.4927 51.9365 91.2394 52.1898 90.927 52.1898ZM87.5969 52.1898H80.7407C80.4284 52.1898 80.175 51.9365 80.175 51.6242C80.175 51.3119 80.4287 51.0586 80.7407 51.0586H87.5969C87.9091 51.0586 88.1625 51.3119 88.1625 51.6242C88.1625 51.9365 87.9091 52.1898 87.5969 52.1898Z" fill="white"/>
<path fill-rule="evenodd" clip-rule="evenodd" d="M90.927 54.395H84.0713C83.7591 54.395 83.5057 54.1416 83.5057 53.8293C83.5057 53.5171 83.7593 53.2637 84.0713 53.2637H90.927C91.2393 53.2637 91.4928 53.5171 91.4928 53.8293C91.4928 54.1416 91.2394 54.395 90.927 54.395ZM81.8924 54.395H80.7407C80.4284 54.395 80.175 54.1416 80.175 53.8293C80.175 53.5171 80.4287 53.2637 80.7407 53.2637H81.8924C82.2047 53.2637 82.458 53.5171 82.458 53.8293C82.458 54.1416 82.2047 54.395 81.8924 54.395Z" fill="white"/>
<path fill-rule="evenodd" clip-rule="evenodd" d="M90.927 56.6001H89.7754C89.4632 56.6001 89.2098 56.3466 89.2098 56.0345C89.2098 55.7222 89.4635 55.4688 89.7754 55.4688H90.927C91.2393 55.4688 91.4927 55.7222 91.4927 56.0345C91.4927 56.3466 91.2394 56.6001 90.927 56.6001ZM87.5969 56.6001H80.7407C80.4284 56.6001 80.175 56.3466 80.175 56.0345C80.175 55.7222 80.4287 55.4688 80.7407 55.4688H87.5969C87.9091 55.4688 88.1625 55.7222 88.1625 56.0345C88.1625 56.3466 87.9091 56.6001 87.5969 56.6001Z" fill="white"/>
<path fill-rule="evenodd" clip-rule="evenodd" d="M79.6613 62.8655C79.5775 62.8655 79.4936 62.8472 79.4154 62.8094C79.2222 62.7163 79.098 62.5215 79.0961 62.3066L79.0564 58.974L78.3111 58.9739C77.6076 58.9739 77.0353 58.4016 77.0353 57.698V47.7564C77.0353 47.0528 77.6076 46.4805 78.3111 46.4805L93.357 46.4806C94.0605 46.4806 94.6331 47.0529 94.6331 47.7565V57.6981C94.6331 58.4017 94.0604 58.974 93.357 58.974L84.8691 58.9739L80.0084 62.7468C79.9072 62.825 79.7844 62.8655 79.6613 62.8655ZM78.3111 47.612C78.2329 47.612 78.167 47.678 78.167 47.7565V57.6981C78.167 57.7767 78.233 57.8427 78.3111 57.8427H79.6153C79.9252 57.8427 80.1773 58.0916 80.1805 58.4017L80.2131 61.1553L84.3282 57.9614C84.4272 57.8843 84.5494 57.8428 84.675 57.8428H93.3569C93.4355 57.8428 93.5015 57.7767 93.5015 57.6981V47.7564C93.5015 47.6778 93.4355 47.6117 93.3569 47.6117L78.3111 47.612Z" fill="white"/>
</g>
<defs>
<clipPath id="clip0_1851_992">
<rect width="48.2759" height="48.2759" fill="white" transform="translate(46.3618 46.3477)"/>
</clipPath>
</defs>
</svg>
