<svg width="141" height="141" viewBox="0 0 141 141" fill="none" xmlns="http://www.w3.org/2000/svg">
<path d="M70.5 0.494141C56.0785 0.494141 42.0091 4.94839 30.2152 13.2479C18.4212 21.5474 9.47858 33.2871 4.60984 46.8618C-0.258911 60.4366 -0.816096 75.1838 3.01446 89.0872C6.84502 102.991 14.8763 115.372 26.0104 124.537L27.326 122.939C16.5212 114.045 8.7274 102.03 5.01012 88.5374C1.29284 75.0451 1.83355 60.734 6.55832 47.5607C11.2831 34.3874 19.9613 22.9949 31.4064 14.9408C42.8516 6.88669 56.505 2.56416 70.5 2.56416V0.494141Z" fill="#3B68D7"/>
<path d="M29.1742 119.473L22.4437 126.798L32.3624 129.032L29.1742 119.473Z" fill="#3B68D7"/>
<path d="M70.5001 128.421C102.495 128.421 128.431 102.484 128.431 70.4896C128.431 38.4952 102.495 12.5586 70.5001 12.5586C38.5057 12.5586 12.5691 38.4952 12.5691 70.4896C12.5691 102.484 38.5057 128.421 70.5001 128.421Z" fill="#3B68D7"/>
<path d="M70.4997 119.725C97.6949 119.725 119.741 97.6788 119.741 70.4836C119.741 43.2883 97.6949 21.2422 70.4997 21.2422C43.3044 21.2422 21.2583 43.2883 21.2583 70.4836C21.2583 97.6788 43.3044 119.725 70.4997 119.725Z" stroke="white" stroke-width="3"/>
<path fill-rule="evenodd" clip-rule="evenodd" d="M75.8841 72.6932C75.8841 69.7242 73.4687 67.3089 70.4998 67.3089C67.5308 67.3089 65.116 69.7242 65.116 72.6932V79.4791C65.116 80.2202 65.719 80.8237 66.4595 80.8237H74.5406C75.2816 80.8237 75.8841 80.2202 75.8841 79.4791V72.6932ZM65.7674 67.9933C64.5689 69.2004 63.8263 70.8612 63.8263 72.6931V76.2542H59.3715C58.9418 76.2542 58.5924 75.9043 58.5924 75.4751V69.0803C58.5924 67.0561 60.2396 65.41 62.2628 65.41C63.873 65.4101 65.2942 66.4776 65.7674 67.9933ZM62.2628 64.1209C63.2667 64.1209 64.0843 63.3044 64.0843 62.2994C64.0843 61.2954 63.2667 60.4789 62.2628 60.4789C61.2588 60.4789 60.4423 61.2954 60.4423 62.2994C60.4423 63.3044 61.2588 64.1209 62.2628 64.1209ZM68.1947 63.7141C68.1947 64.9854 69.2286 66.0197 70.4998 66.0197C71.771 66.0197 72.8049 64.9854 72.8049 63.7141C72.8049 62.4439 71.771 61.4101 70.4998 61.4101C69.2286 61.4101 68.1947 62.4438 68.1947 63.7141ZM75.2327 67.9933C75.7054 66.4776 77.126 65.4101 78.7368 65.4101C80.7604 65.4101 82.4071 67.0562 82.4071 69.0804V75.4752C82.4071 75.9044 82.0584 76.2543 81.6286 76.2543H77.1732V72.6932C77.1732 70.8612 76.4307 69.2005 75.2327 67.9933ZM78.7368 64.1209C79.7407 64.1209 80.5573 63.3044 80.5573 62.2994C80.5573 61.2954 79.7407 60.4789 78.7368 60.4789C77.7329 60.4789 76.9153 61.2954 76.9153 62.2994C76.9153 63.3044 77.7329 64.1209 78.7368 64.1209ZM74.5406 82.1129H66.4595C65.0073 82.1129 63.8262 80.9307 63.8262 79.4791V77.5435H59.3714C58.2306 77.5435 57.3032 76.6161 57.3032 75.4752V69.0804C57.3032 67.0964 58.4739 65.3824 60.1602 64.5892C59.5414 64.021 59.153 63.2045 59.153 62.2994C59.153 60.5842 60.5481 59.1898 62.2627 59.1898C63.9777 59.1898 65.3734 60.5843 65.3734 62.2994C65.3734 63.2061 64.9833 64.0237 64.3618 64.5925C65.4499 65.1059 66.3349 66.005 66.819 67.1301C67.2368 66.8525 67.6872 66.621 68.1636 66.4423C67.3944 65.7834 66.9054 64.8049 66.9054 63.7141C66.9054 61.7333 68.5179 60.1203 70.4997 60.1203C72.4821 60.1203 74.0945 61.7333 74.0945 63.7141C74.0945 64.8049 73.6051 65.7834 72.8358 66.4423C73.3122 66.621 73.7626 66.8525 74.1798 67.1301C74.6643 66.005 75.5493 65.1059 76.6381 64.5925C76.0166 64.0237 75.626 63.2061 75.626 62.2994C75.626 60.5842 77.0222 59.1898 78.7367 59.1898C80.4518 59.1898 81.8463 60.5843 81.8463 62.2994C81.8463 63.2045 81.4585 64.021 80.8391 64.5892C82.5254 65.3824 83.6962 67.0964 83.6962 69.0804V75.4752C83.6962 76.6161 82.7688 77.5435 81.6285 77.5435H77.1731V79.4791C77.1732 80.9307 75.9922 82.1129 74.5406 82.1129ZM70.9914 82.9473L72.6652 84.9193C72.8956 85.1909 72.8619 85.5973 72.5902 85.8277C72.3185 86.0587 71.9125 86.0257 71.6819 85.7538L71.1446 85.1204V91.1142C71.1446 91.4701 70.8556 91.7585 70.4997 91.7585C65.8726 91.7585 61.4728 90.2981 57.777 87.5357C54.2039 84.865 51.5082 81.0616 50.187 76.8242C50.0811 76.4846 50.2702 76.1228 50.6108 76.0169C50.9504 75.9115 51.3121 76.1011 51.4181 76.4407C53.9698 84.6255 61.3305 90.1907 69.8555 90.4591V85.1205L69.3182 85.7539C69.0873 86.0255 68.6804 86.0582 68.4093 85.8278C68.1377 85.5974 68.1046 85.1911 68.3349 84.9194L70.0081 82.9474C70.2955 82.6141 70.7918 82.6802 70.9914 82.9473ZM70.0081 58.0217L68.3349 56.0496C68.1046 55.778 68.1377 55.3716 68.4093 55.1412C68.6805 54.9098 69.0873 54.9435 69.3182 55.2146L69.8555 55.8486V49.8558C69.8555 49.4989 70.144 49.2109 70.4998 49.2109C75.1267 49.2109 79.5267 50.6707 83.2231 53.4331C86.7962 56.1039 89.4918 59.9072 90.8125 64.1447C90.9184 64.4843 90.7283 64.846 90.3888 64.952C90.0556 65.0552 89.6898 64.8742 89.582 64.5276C87.0297 56.3435 79.6696 50.7778 71.1446 50.5099V55.8486L71.682 55.2146C71.9123 54.9441 72.3198 54.911 72.5903 55.1412C72.862 55.3716 72.8956 55.7779 72.6653 56.0496L70.9915 58.0217L70.7639 58.1923C70.4693 58.3163 70.2235 58.2371 70.0081 58.0217ZM52.0542 71.6669C51.5963 72.0561 51.8776 72.8029 52.4714 72.8029C52.6187 72.8029 52.7676 72.7524 52.8886 72.6502L54.9058 70.933C55.1771 70.6424 55.1293 70.2084 54.8601 69.9931L52.8887 68.3187C52.6171 68.0895 52.2102 68.122 51.9804 68.3937C51.7495 68.6653 51.7831 69.0717 52.0542 69.3021L52.6877 69.8405H50.5255C50.7939 61.315 56.3586 53.9548 64.544 51.4031C64.8836 51.2966 65.0737 50.9354 64.9672 50.5953C64.8613 50.2558 64.5005 50.0656 64.1599 50.1721C59.9229 51.4933 56.119 54.188 53.4484 57.762C50.6863 61.4578 49.226 65.8572 49.226 70.4848C49.226 70.8406 49.5149 71.1296 49.8708 71.1296H52.6876L52.0542 71.6669ZM91.7736 70.4848C91.7736 70.1284 91.4851 69.8405 91.1293 69.8405H88.3125L88.946 69.3021C89.2165 69.0717 89.2502 68.6654 89.0199 68.3937C88.7895 68.1221 88.3832 68.0884 88.1115 68.3187L86.1394 69.993C85.8787 70.2009 85.823 70.6129 86.077 70.9138L88.1115 72.6501C88.2327 72.7523 88.381 72.8028 88.5282 72.8028C89.1246 72.8028 89.402 72.0543 88.946 71.6668L88.3125 71.1295H90.4742C90.2058 79.6545 84.6411 87.014 76.4558 89.5658C76.1162 89.6723 75.9261 90.0336 76.0332 90.3736C76.1413 90.7193 76.5069 90.9028 76.8399 90.7968C81.0768 89.4756 84.8813 86.781 87.552 83.2068C90.3133 79.5111 91.7736 75.1118 91.7736 70.4848Z" fill="white"/>
</svg>
