<svg width="80" height="80" viewBox="0 0 80 80" fill="none" xmlns="http://www.w3.org/2000/svg">
<path d="M14.1667 0H65.8333C73.6667 0 80 6.49573 80 14.5299V65.4701C80 73.5043 73.6667 80 65.8333 80H14.1667C6.33333 80 0 73.5043 0 65.4701V14.5299C0 6.49573 6.33333 0 14.1667 0Z" fill="#32323D"/>
<path d="M31.0681 66.0195C35.7842 66.0195 39.6118 62.1919 39.6118 57.4758V48.9321H31.0681C26.352 48.9321 22.5244 52.7597 22.5244 57.4758C22.5244 62.1919 26.352 66.0195 31.0681 66.0195Z" fill="#0ACF83"/>
<path d="M22.5244 40.3884C22.5244 35.6723 26.352 31.8447 31.0681 31.8447H39.6118V48.9321H31.0681C26.352 48.9321 22.5244 45.1045 22.5244 40.3884Z" fill="#A259FF"/>
<path d="M22.5244 23.301C22.5244 18.5849 26.352 14.7573 31.0681 14.7573H39.6118V31.8447H31.0681C26.352 31.8447 22.5244 28.0171 22.5244 23.301Z" fill="#F24E1E"/>
<path d="M39.6118 14.7573H48.1555C52.8716 14.7573 56.6992 18.5849 56.6992 23.301C56.6992 28.0171 52.8716 31.8447 48.1555 31.8447H39.6118V14.7573Z" fill="#FF7262"/>
<path d="M56.6992 40.3884C56.6992 45.1045 52.8716 48.9321 48.1555 48.9321C43.4394 48.9321 39.6118 45.1045 39.6118 40.3884C39.6118 35.6723 43.4394 31.8447 48.1555 31.8447C52.8716 31.8447 56.6992 35.6723 56.6992 40.3884Z" fill="#1ABCFE"/>
</svg>
