<svg width="24" height="24" viewBox="0 0 24 24" fill="none" xmlns="http://www.w3.org/2000/svg">
<g clip-path="url(#clip0_2266_4533)">
<path d="M12.0423 21.6699C6.68207 21.6699 2.32104 17.309 2.32104 11.9486C2.32104 6.58838 6.68207 2.22754 12.0423 2.22754C17.4025 2.22754 21.7634 6.58838 21.7634 11.9486C21.7634 17.309 17.4025 21.6699 12.0423 21.6699ZM12.0423 3.0191C7.11841 3.0191 3.11279 7.0249 3.11279 11.9486C3.11279 16.8725 7.11841 20.8781 12.0423 20.8781C16.966 20.8781 20.9718 16.8725 20.9718 11.9486C20.9718 7.0249 16.966 3.0191 12.0423 3.0191Z" fill="#FFD151"/>
<path d="M9.01209 4.43573C9.01209 6.91132 7.00507 8.91834 4.52948 8.91834C2.05371 8.91834 0.046875 6.91132 0.046875 4.43573C0.046875 1.96014 2.05371 -0.046875 4.52948 -0.046875C7.00507 -0.046875 9.01209 1.96014 9.01209 4.43573Z" fill="#64E8FF"/>
<path d="M4.52942 -0.046875C4.26886 -0.046875 4.01361 -0.024353 3.76514 0.0183106C5.87671 0.381042 7.48364 2.22052 7.48364 4.43573C7.48364 6.65094 5.87671 8.49042 3.76514 8.85315C4.01361 8.89581 4.26886 8.91834 4.52942 8.91834C7.00501 8.91834 9.01202 6.91132 9.01202 4.43573C9.01202 1.96014 7.00501 -0.046875 4.52942 -0.046875Z" fill="#0FD9FF"/>
<path d="M24.0379 4.43573C24.0379 6.91132 22.0311 8.91834 19.5553 8.91834C17.0797 8.91834 15.0729 6.91132 15.0729 4.43573C15.0729 1.96014 17.0797 -0.046875 19.5553 -0.046875C22.0311 -0.046875 24.0379 1.96014 24.0379 4.43573Z" fill="#6193FF"/>
<path d="M24.0361 4.30742C23.9652 1.83274 21.9016 -0.115864 19.4271 -0.045002C19.1913 -0.0382271 18.9604 -0.0133247 18.7354 0.0282402C20.7682 0.404705 22.3341 2.15739 22.3956 4.30742C22.4599 6.54625 20.8709 8.44853 18.735 8.84312C19.0419 8.90007 19.3592 8.9257 19.6837 8.91655C22.1583 8.8455 24.1069 6.78209 24.0361 4.30742Z" fill="#407BFF"/>
<path d="M9.01209 19.4704C9.01209 21.9462 7.00507 23.953 4.52948 23.953C2.05371 23.953 0.046875 21.9462 0.046875 19.4704C0.046875 16.9948 2.05371 14.9878 4.52948 14.9878C7.00507 14.9878 9.01209 16.9948 9.01209 19.4704Z" fill="#FF6969"/>
<path d="M4.52942 14.9878C4.18225 14.9878 3.84424 15.0273 3.51978 15.1021C5.50922 15.56 6.99274 17.342 6.99274 19.4704C6.99274 21.599 5.50922 23.3808 3.51978 23.8387C3.84424 23.9135 4.18225 23.953 4.52942 23.953C7.00501 23.953 9.01202 21.9462 9.01202 19.4704C9.01202 16.9948 7.00501 14.9878 4.52942 14.9878Z" fill="#FF4848"/>
<path d="M24.0379 19.4704C24.0379 21.9462 22.0311 23.953 19.5553 23.953C17.0797 23.953 15.0729 21.9462 15.0729 19.4704C15.0729 16.9948 17.0797 14.9878 19.5553 14.9878C22.0311 14.9878 24.0379 16.9948 24.0379 19.4704Z" fill="#FF95C2"/>
<path d="M19.5555 14.9878C19.2458 14.9878 18.9437 15.0193 18.6519 15.079C20.6944 15.497 22.2308 17.3043 22.2308 19.4704C22.2308 21.6365 20.6944 23.4438 18.6519 23.8618C18.9437 23.9215 19.2458 23.953 19.5555 23.953C22.0311 23.953 24.0379 21.9462 24.0379 19.4704C24.0379 16.9948 22.0311 14.9878 19.5555 14.9878Z" fill="#FF758E"/>
<path d="M6.64786 2.69126C6.47684 2.79435 6.29355 2.87583 6.10184 2.93351C5.74515 2.52335 5.12369 2.48014 4.71353 2.83683C4.49527 3.02671 4.37149 3.30302 4.37533 3.59251V3.81205C3.62973 3.83146 2.92184 3.49455 2.46664 2.90916C2.4357 2.86942 2.37289 2.8795 2.35641 2.92692C2.20718 3.3541 1.79941 4.91819 3.49679 5.67259C3.11593 5.93095 2.67392 6.08109 2.21762 6.10911C2.15097 6.11314 2.13321 6.20304 2.19382 6.23106C4.1221 7.12168 6.35232 6.01261 6.35232 3.58573C6.35214 3.52458 6.3461 3.4636 6.33475 3.40354C6.51639 3.22428 6.65481 3.00675 6.74051 2.7678C6.76047 2.71195 6.69876 2.66068 6.64786 2.69126Z" fill="white"/>
<path d="M19.2395 7.27686C19.0209 7.27686 18.8436 7.09961 18.8436 6.88098V2.98376C18.8436 2.21783 19.4667 1.59473 20.2327 1.59473H20.7014C20.92 1.59473 21.0973 1.77197 21.0973 1.9906C21.0973 2.20923 20.92 2.38629 20.7014 2.38629H20.2327C19.9033 2.38629 19.6352 2.65436 19.6352 2.98376V6.88098C19.6352 7.09961 19.4579 7.27686 19.2395 7.27686Z" fill="white"/>
<path d="M20.1607 4.75513H18.3639C18.1453 4.75513 17.968 4.57788 17.968 4.35925C17.968 4.14062 18.1453 3.96338 18.3639 3.96338H20.1607C20.3793 3.96338 20.5566 4.14062 20.5566 4.35925C20.5566 4.57788 20.3793 4.75513 20.1607 4.75513Z" fill="white"/>
<path d="M3.57166 19.4215V17.9977C3.57166 17.8928 3.685 17.8274 3.77582 17.8798L5.0083 18.5917L6.24097 19.3036C6.3316 19.3561 6.3316 19.4871 6.24097 19.5396L5.0083 20.2515L3.77582 20.9634C3.685 21.0158 3.57166 20.9503 3.57166 20.8455V19.4215Z" fill="white"/>
<path d="M21.1289 22.0695H17.9819C17.4166 22.0695 16.9567 21.6096 16.9567 21.0443V17.8973C16.9567 17.3318 17.4166 16.8721 17.9819 16.8721H21.1289C21.6942 16.8721 22.1541 17.3318 22.1541 17.8973V21.0443C22.1541 21.6096 21.6942 22.0695 21.1289 22.0695ZM17.9819 17.6636C17.853 17.6636 17.7482 17.7684 17.7482 17.8973V21.0443C17.7482 21.173 17.853 21.2778 17.9819 21.2778H21.1289C21.2576 21.2778 21.3625 21.173 21.3625 21.0443V17.8973C21.3625 17.7684 21.2576 17.6636 21.1289 17.6636H17.9819Z" fill="white"/>
<path d="M19.5553 20.5991C18.9331 20.5991 18.427 20.0928 18.427 19.4706C18.427 18.8484 18.9331 18.3423 19.5553 18.3423C20.1775 18.3423 20.6838 18.8484 20.6838 19.4706C20.6838 20.0928 20.1775 20.5991 19.5553 20.5991ZM19.5553 19.1339C19.3696 19.1339 19.2186 19.2849 19.2186 19.4706C19.2186 19.6563 19.3696 19.8073 19.5553 19.8073C19.7412 19.8073 19.892 19.6563 19.892 19.4706C19.8922 19.2849 19.7412 19.1339 19.5553 19.1339Z" fill="white"/>
<path d="M10.6432 15.5537L10.4999 12.7955C10.4885 12.5773 10.3027 12.4101 10.084 12.4209C9.86578 12.4323 9.69805 12.6185 9.70941 12.8367L9.85278 15.5949C9.86376 15.8062 10.0384 15.97 10.2477 15.97C10.2547 15.97 10.2615 15.9699 10.2686 15.9695C10.4869 15.9581 10.6546 15.7721 10.6432 15.5537Z" fill="#83A7C5"/>
<path d="M11.0873 12.8167H9.42914C9.22791 12.8167 9.06494 12.6536 9.06494 12.4523V10.5502C9.06494 10.3492 9.22791 10.186 9.42914 10.186H11.0873C11.1187 10.186 11.1441 10.2115 11.1441 10.2428V12.7599C11.1441 12.7913 11.1187 12.8167 11.0873 12.8167Z" fill="#FF95C2"/>
<path d="M14.6631 14.0814C14.1703 13.7794 13.556 13.4553 12.824 13.1739C12.2098 12.9377 11.6402 12.7806 11.1442 12.6744C11.1442 11.8922 11.1442 11.1101 11.1442 10.3281C11.6417 10.2222 12.2144 10.0649 12.8326 9.8269C13.5621 9.54584 14.1735 9.22192 14.6631 8.9209V14.0814Z" fill="#E5F4FF"/>
<path d="M14.6631 14.8448C14.4445 14.8448 14.2672 14.6675 14.2672 14.4489V8.5531C14.2672 8.33447 14.4445 8.15723 14.6631 8.15723C14.8817 8.15723 15.059 8.33447 15.059 8.5531V14.4489C15.059 14.6675 14.8817 14.8448 14.6631 14.8448Z" fill="#6464FF"/>
</g>
<defs>
<clipPath id="clip0_2266_4533">
<rect width="24" height="24" fill="white"/>
</clipPath>
</defs>
</svg>
